 0
SECTION
 2
HEADER
 9
$ACADVER
 1
AC1009
 0
ENDSEC
 0
SECTION
 2
ENTITIES
 0
POLYLINE
 8
TITLE
 66
1
 70
1
 10
0.0
 20
0.0
 30
0.0
 0
VERTEX
 8
TITLE
 10
 -0.1000
 20
  0.1000
 30
0.0
 0
VERTEX
 8
TITLE
 10
  9.6000
 20
  0.1000
 30
0.0
 0
VERTEX
 8
TITLE
 10
  9.6000
 20
  7.3000
 30
0.0
 0
VERTEX
 8
TITLE
 10
 -0.1000
 20
  7.3000
 30
0.0
 0
SEQEND
 8
TITLE
 0
POLYLINE
 8
TITLE
 66
1
 70
1
 10
0.0
 20
0.0
 30
0.0
 0
VERTEX
 8
TITLE
 10
  0.0000
 20
  0.2000
 30
0.0
 0
VERTEX
 8
TITLE
 10
  9.5000
 20
  0.2000
 30
0.0
 0
VERTEX
 8
TITLE
 10
  9.5000
 20
  7.2000
 30
0.0
 0
VERTEX
 8
TITLE
 10
  0.0000
 20
  7.2000
 30
0.0
 0
SEQEND
 8
TITLE
 0
POLYLINE
 8
TITLE
 66
1
 10
0.0
 20
0.0
 30
0.0
 0
VERTEX
 8
TITLE
 10
  2.0600
 20
  0.2000
 30
0.0
 0
VERTEX
 8
TITLE
 10
  2.0600
 20
  0.1000
 30
0.0
 0
SEQEND
 8
TITLE
 0
POLYLINE
 8
TITLE
 66
1
 10
0.0
 20
0.0
 30
0.0
 0
VERTEX
 8
TITLE
 10
  2.0600
 20
  7.2000
 30
0.0
 0
VERTEX
 8
TITLE
 10
  2.0600
 20
  7.3000
 30
0.0
 0
SEQEND
 8
TITLE
 0
POLYLINE
 8
TITLE
 66
1
 10
0.0
 20
0.0
 30
0.0
 0
VERTEX
 8
TITLE
 10
  3.9200
 20
  0.2000
 30
0.0
 0
VERTEX
 8
TITLE
 10
  3.9200
 20
  0.1000
 30
0.0
 0
SEQEND
 8
TITLE
 0
POLYLINE
 8
TITLE
 66
1
 10
0.0
 20
0.0
 30
0.0
 0
VERTEX
 8
TITLE
 10
  3.9200
 20
  7.2000
 30
0.0
 0
VERTEX
 8
TITLE
 10
  3.9200
 20
  7.3000
 30
0.0
 0
SEQEND
 8
TITLE
 0
POLYLINE
 8
TITLE
 66
1
 10
0.0
 20
0.0
 30
0.0
 0
VERTEX
 8
TITLE
 10
  5.7800
 20
  0.2000
 30
0.0
 0
VERTEX
 8
TITLE
 10
  5.7800
 20
  0.1000
 30
0.0
 0
SEQEND
 8
TITLE
 0
POLYLINE
 8
TITLE
 66
1
 10
0.0
 20
0.0
 30
0.0
 0
VERTEX
 8
TITLE
 10
  5.7800
 20
  7.2000
 30
0.0
 0
VERTEX
 8
TITLE
 10
  5.7800
 20
  7.3000
 30
0.0
 0
SEQEND
 8
TITLE
 0
POLYLINE
 8
TITLE
 66
1
 10
0.0
 20
0.0
 30
0.0
 0
VERTEX
 8
TITLE
 10
  7.6400
 20
  0.2000
 30
0.0
 0
VERTEX
 8
TITLE
 10
  7.6400
 20
  0.1000
 30
0.0
 0
SEQEND
 8
TITLE
 0
POLYLINE
 8
TITLE
 66
1
 10
0.0
 20
0.0
 30
0.0
 0
VERTEX
 8
TITLE
 10
  7.6400
 20
  7.2000
 30
0.0
 0
VERTEX
 8
TITLE
 10
  7.6400
 20
  7.3000
 30
0.0
 0
SEQEND
 8
TITLE
 0
TEXT
 8
TITLE
 10
  1.1300
 20
  0.1200
 30
0.0
 40
  0.0500
 1
5
 0
TEXT
 8
TITLE
 10
  1.1300
 20
  7.2200
 30
0.0
 40
  0.0500
 1
5
 0
TEXT
 8
TITLE
 10
  2.9900
 20
  0.1200
 30
0.0
 40
  0.0500
 1
4
 0
TEXT
 8
TITLE
 10
  2.9900
 20
  7.2200
 30
0.0
 40
  0.0500
 1
4
 0
TEXT
 8
TITLE
 10
  4.8500
 20
  0.1200
 30
0.0
 40
  0.0500
 1
3
 0
TEXT
 8
TITLE
 10
  4.8500
 20
  7.2200
 30
0.0
 40
  0.0500
 1
3
 0
TEXT
 8
TITLE
 10
  6.7100
 20
  0.1200
 30
0.0
 40
  0.0500
 1
2
 0
TEXT
 8
TITLE
 10
  6.7100
 20
  7.2200
 30
0.0
 40
  0.0500
 1
2
 0
TEXT
 8
TITLE
 10
  8.5700
 20
  0.1200
 30
0.0
 40
  0.0500
 1
1
 0
TEXT
 8
TITLE
 10
  8.5700
 20
  7.2200
 30
0.0
 40
  0.0500
 1
1
 0
POLYLINE
 8
TITLE
 66
1
 10
0.0
 20
0.0
 30
0.0
 0
VERTEX
 8
TITLE
 10
 -0.1000
 20
  5.3000
 30
0.0
 0
VERTEX
 8
TITLE
 10
  0.0000
 20
  5.3000
 30
0.0
 0
SEQEND
 8
TITLE
 0
POLYLINE
 8
TITLE
 66
1
 10
0.0
 20
0.0
 30
0.0
 0
VERTEX
 8
TITLE
 10
  9.5000
 20
  5.3000
 30
0.0
 0
VERTEX
 8
TITLE
 10
  9.6000
 20
  5.3000
 30
0.0
 0
SEQEND
 8
TITLE
 0
SOLID
 8
TITLE
 10
  0.0000
 20
  3.6000
 30
0.0
 11
 -0.0500
 21
  3.6200
 31
0.0
 12
 -0.0500
 22
  3.5800
 32
0.0
 13
 -0.0500
 23
  3.6000
 33
0.0
 0
SOLID
 8
TITLE
 10
  9.5000
 20
  3.6000
 30
0.0
 11
  9.5500
 21
  3.6200
 31
0.0
 12
  9.5500
 22
  3.5800
 32
0.0
 13
  9.5500
 23
  3.6000
 33
0.0
 0
POLYLINE
 8
TITLE
 66
1
 10
0.0
 20
0.0
 30
0.0
 0
VERTEX
 8
TITLE
 10
 -0.1000
 20
  3.6000
 30
0.0
 0
VERTEX
 8
TITLE
 10
  0.0000
 20
  3.6000
 30
0.0
 0
SEQEND
 8
TITLE
 0
POLYLINE
 8
TITLE
 66
1
 10
0.0
 20
0.0
 30
0.0
 0
VERTEX
 8
TITLE
 10
  9.5000
 20
  3.6000
 30
0.0
 0
VERTEX
 8
TITLE
 10
  9.6000
 20
  3.6000
 30
0.0
 0
SEQEND
 8
TITLE
 0
SOLID
 8
TITLE
 10
  0.0000
 20
  3.6000
 30
0.0
 11
 -0.0500
 21
  3.6200
 31
0.0
 12
 -0.0500
 22
  3.5800
 32
0.0
 13
 -0.0500
 23
  3.6000
 33
0.0
 0
SOLID
 8
TITLE
 10
  9.5000
 20
  3.6000
 30
0.0
 11
  9.5500
 21
  3.6200
 31
0.0
 12
  9.5500
 22
  3.5800
 32
0.0
 13
  9.5500
 23
  3.6000
 33
0.0
 0
POLYLINE
 8
TITLE
 66
1
 10
0.0
 20
0.0
 30
0.0
 0
VERTEX
 8
TITLE
 10
 -0.1000
 20
  1.9000
 30
0.0
 0
VERTEX
 8
TITLE
 10
  0.0000
 20
  1.9000
 30
0.0
 0
SEQEND
 8
TITLE
 0
POLYLINE
 8
TITLE
 66
1
 10
0.0
 20
0.0
 30
0.0
 0
VERTEX
 8
TITLE
 10
  9.5000
 20
  1.9000
 30
0.0
 0
VERTEX
 8
TITLE
 10
  9.6000
 20
  1.9000
 30
0.0
 0
SEQEND
 8
TITLE
 0
SOLID
 8
TITLE
 10
  0.0000
 20
  3.6000
 30
0.0
 11
 -0.0500
 21
  3.6200
 31
0.0
 12
 -0.0500
 22
  3.5800
 32
0.0
 13
 -0.0500
 23
  3.6000
 33
0.0
 0
SOLID
 8
TITLE
 10
  9.5000
 20
  3.6000
 30
0.0
 11
  9.5500
 21
  3.6200
 31
0.0
 12
  9.5500
 22
  3.5800
 32
0.0
 13
  9.5500
 23
  3.6000
 33
0.0
 0
TEXT
 8
TITLE
 10
 -0.0800
 20
  6.1500
 30
0.0
 40
  0.0500
 1
D
 0
TEXT
 8
TITLE
 10
  9.5200
 20
  6.1500
 30
0.0
 40
  0.0500
 1
D
 0
TEXT
 8
TITLE
 10
 -0.0800
 20
  4.4500
 30
0.0
 40
  0.0500
 1
C
 0
TEXT
 8
TITLE
 10
  9.5200
 20
  4.4500
 30
0.0
 40
  0.0500
 1
C
 0
TEXT
 8
TITLE
 10
 -0.0800
 20
  2.7500
 30
0.0
 40
  0.0500
 1
B
 0
TEXT
 8
TITLE
 10
  9.5200
 20
  2.7500
 30
0.0
 40
  0.0500
 1
B
 0
TEXT
 8
TITLE
 10
 -0.0800
 20
  1.0500
 30
0.0
 40
  0.0500
 1
A
 0
TEXT
 8
TITLE
 10
  9.5200
 20
  1.0500
 30
0.0
 40
  0.0500
 1
A
 0
TEXT
 8
TITLE
 10
  6.3000
 20
  0.4186
 30
0.0
 40
  0.0514
 1
<Doc>
 0
TEXT
 8
TITLE
 10
  9.3000
 20
  0.4186
 30
0.0
 40
  0.0514
 1
<RevCode>
 0
TEXT
 8
TITLE
 10
  6.3000
 20
  0.7186
 30
0.0
 40
  0.0514
 1
AVR ISP - STK200
 0
TEXT
 8
TITLE
 10
  6.0000
 20
  0.4186
 30
0.0
 40
  0.0514
 1
A
 0
TEXT
 8
TITLE
 10
  8.4000
 20
  0.2186
 30
0.0
 40
  0.0514
 1
1
 0
TEXT
 8
TITLE
 10
  9.0000
 20
  0.2186
 30
0.0
 40
  0.0514
 1
1
 0
TEXT
 8
TITLE
 10
  6.4200
 20
  0.2186
 30
0.0
 40
  0.0514
 1
Friday, December 14, 2001
 0
TEXT
 8
PARTTEXT
 10
  5.9000
 20
  0.8186
 30
0.0
 40
  0.0514
 1
Title
 0
TEXT
 8
PARTTEXT
 10
  5.9000
 20
  0.5186
 30
0.0
 40
  0.0514
 1
Size
 0
TEXT
 8
PARTTEXT
 10
  6.3000
 20
  0.5186
 30
0.0
 40
  0.0514
 1
Document Number
 0
TEXT
 8
PARTTEXT
 10
  9.2000
 20
  0.5186
 30
0.0
 40
  0.0514
 1
Rev
 0
TEXT
 8
PARTTEXT
 10
  5.9000
 20
  0.2186
 30
0.0
 40
  0.0514
 1
Date:
 0
TEXT
 8
PARTTEXT
 10
  7.9000
 20
  0.2186
 30
0.0
 40
  0.0514
 1
Sheet
 0
POLYLINE
 8
TITLE
 66
1
 70
1
 10
0.0
 20
0.0
 30
0.0
 0
VERTEX
 8
TITLE
 10
  5.9000
 20
  1.1000
 30
0.0
 0
VERTEX
 8
TITLE
 10
  9.5000
 20
  1.1000
 30
0.0
 0
VERTEX
 8
TITLE
 10
  9.5000
 20
  0.9000
 30
0.0
 0
VERTEX
 8
TITLE
 10
  5.9000
 20
  0.9000
 30
0.0
 0
SEQEND
 8
TITLE
 0
POLYLINE
 8
TITLE
 66
1
 70
1
 10
0.0
 20
0.0
 30
0.0
 0
VERTEX
 8
TITLE
 10
  5.9000
 20
  0.9000
 30
0.0
 0
VERTEX
 8
TITLE
 10
  9.5000
 20
  0.9000
 30
0.0
 0
VERTEX
 8
TITLE
 10
  9.5000
 20
  0.6000
 30
0.0
 0
VERTEX
 8
TITLE
 10
  5.9000
 20
  0.6000
 30
0.0
 0
SEQEND
 8
TITLE
 0
POLYLINE
 8
TITLE
 66
1
 70
1
 10
0.0
 20
0.0
 30
0.0
 0
VERTEX
 8
TITLE
 10
  5.9000
 20
  0.6000
 30
0.0
 0
VERTEX
 8
TITLE
 10
  6.2000
 20
  0.6000
 30
0.0
 0
VERTEX
 8
TITLE
 10
  6.2000
 20
  0.3000
 30
0.0
 0
VERTEX
 8
TITLE
 10
  5.9000
 20
  0.3000
 30
0.0
 0
SEQEND
 8
TITLE
 0
POLYLINE
 8
TITLE
 66
1
 70
1
 10
0.0
 20
0.0
 30
0.0
 0
VERTEX
 8
TITLE
 10
  6.2000
 20
  0.6000
 30
0.0
 0
VERTEX
 8
TITLE
 10
  9.2000
 20
  0.6000
 30
0.0
 0
VERTEX
 8
TITLE
 10
  9.2000
 20
  0.3000
 30
0.0
 0
VERTEX
 8
TITLE
 10
  6.2000
 20
  0.3000
 30
0.0
 0
SEQEND
 8
TITLE
 0
POLYLINE
 8
TITLE
 66
1
 70
1
 10
0.0
 20
0.0
 30
0.0
 0
VERTEX
 8
TITLE
 10
  9.2000
 20
  0.6000
 30
0.0
 0
VERTEX
 8
TITLE
 10
  9.5000
 20
  0.6000
 30
0.0
 0
VERTEX
 8
TITLE
 10
  9.5000
 20
  0.3000
 30
0.0
 0
VERTEX
 8
TITLE
 10
  9.2000
 20
  0.3000
 30
0.0
 0
SEQEND
 8
TITLE
 0
POLYLINE
 8
TITLE
 66
1
 70
1
 10
0.0
 20
0.0
 30
0.0
 0
VERTEX
 8
TITLE
 10
  5.9000
 20
  0.3000
 30
0.0
 0
VERTEX
 8
TITLE
 10
  7.9000
 20
  0.3000
 30
0.0
 0
VERTEX
 8
TITLE
 10
  7.9000
 20
  0.2000
 30
0.0
 0
VERTEX
 8
TITLE
 10
  5.9000
 20
  0.2000
 30
0.0
 0
SEQEND
 8
TITLE
 0
POLYLINE
 8
TITLE
 66
1
 70
1
 10
0.0
 20
0.0
 30
0.0
 0
VERTEX
 8
TITLE
 10
  7.9000
 20
  0.3000
 30
0.0
 0
VERTEX
 8
TITLE
 10
  9.5000
 20
  0.3000
 30
0.0
 0
VERTEX
 8
TITLE
 10
  9.5000
 20
  0.2000
 30
0.0
 0
VERTEX
 8
TITLE
 10
  7.9000
 20
  0.2000
 30
0.0
 0
SEQEND
 8
TITLE
 0
TEXT
 8
PARTTEXT
 10
  8.7000
 20
  0.2186
 30
0.0
 40
  0.0514
 1
of
 0
TEXT
 8
PARTTEXT
 10
  2.5300
 20
  2.7286
 30
0.0
 40
  0.0514
 1
P1
 0
TEXT
 8
PARTTEXT
 10
  1.7900
 20
  5.4286
 30
0.0
 40
  0.0514
 1
CONNECTOR DB25
 0
LINE
 8
PARTS
 10
  3.0000
 20
  2.9000
 30
0.0
 11
  2.7000
 21
  2.9000
 31
0.0
 0
TEXT
 8
PARTS
 10
  2.7600
 20
  2.9300
 30
0.0
 40
  0.0500
 1
13
 0
LINE
 8
PARTS
 10
  3.0000
 20
  3.0000
 30
0.0
 11
  2.7000
 21
  3.0000
 31
0.0
 0
TEXT
 8
PARTS
 10
  2.7600
 20
  3.0300
 30
0.0
 40
  0.0500
 1
25
 0
LINE
 8
PARTS
 10
  3.0000
 20
  3.1000
 30
0.0
 11
  2.7000
 21
  3.1000
 31
0.0
 0
TEXT
 8
PARTS
 10
  2.7600
 20
  3.1300
 30
0.0
 40
  0.0500
 1
12
 0
LINE
 8
PARTS
 10
  3.0000
 20
  3.2000
 30
0.0
 11
  2.7000
 21
  3.2000
 31
0.0
 0
TEXT
 8
PARTS
 10
  2.7600
 20
  3.2300
 30
0.0
 40
  0.0500
 1
24
 0
LINE
 8
PARTS
 10
  3.0000
 20
  3.3000
 30
0.0
 11
  2.7000
 21
  3.3000
 31
0.0
 0
TEXT
 8
PARTS
 10
  2.7600
 20
  3.3300
 30
0.0
 40
  0.0500
 1
11
 0
LINE
 8
PARTS
 10
  3.0000
 20
  3.4000
 30
0.0
 11
  2.7000
 21
  3.4000
 31
0.0
 0
TEXT
 8
PARTS
 10
  2.7600
 20
  3.4300
 30
0.0
 40
  0.0500
 1
23
 0
LINE
 8
PARTS
 10
  3.0000
 20
  3.5000
 30
0.0
 11
  2.7000
 21
  3.5000
 31
0.0
 0
TEXT
 8
PARTS
 10
  2.7600
 20
  3.5300
 30
0.0
 40
  0.0500
 1
10
 0
LINE
 8
PARTS
 10
  3.0000
 20
  3.6000
 30
0.0
 11
  2.7000
 21
  3.6000
 31
0.0
 0
TEXT
 8
PARTS
 10
  2.7600
 20
  3.6300
 30
0.0
 40
  0.0500
 1
22
 0
LINE
 8
PARTS
 10
  3.0000
 20
  3.7000
 30
0.0
 11
  2.7000
 21
  3.7000
 31
0.0
 0
TEXT
 8
PARTS
 10
  2.7600
 20
  3.7300
 30
0.0
 40
  0.0500
 1
9
 0
LINE
 8
PARTS
 10
  3.0000
 20
  3.8000
 30
0.0
 11
  2.7000
 21
  3.8000
 31
0.0
 0
TEXT
 8
PARTS
 10
  2.7600
 20
  3.8300
 30
0.0
 40
  0.0500
 1
21
 0
LINE
 8
PARTS
 10
  3.0000
 20
  3.9000
 30
0.0
 11
  2.7000
 21
  3.9000
 31
0.0
 0
TEXT
 8
PARTS
 10
  2.7600
 20
  3.9300
 30
0.0
 40
  0.0500
 1
8
 0
LINE
 8
PARTS
 10
  3.0000
 20
  4.0000
 30
0.0
 11
  2.7000
 21
  4.0000
 31
0.0
 0
TEXT
 8
PARTS
 10
  2.7600
 20
  4.0300
 30
0.0
 40
  0.0500
 1
20
 0
LINE
 8
PARTS
 10
  3.0000
 20
  4.1000
 30
0.0
 11
  2.7000
 21
  4.1000
 31
0.0
 0
TEXT
 8
PARTS
 10
  2.7600
 20
  4.1300
 30
0.0
 40
  0.0500
 1
7
 0
LINE
 8
PARTS
 10
  3.0000
 20
  4.2000
 30
0.0
 11
  2.7000
 21
  4.2000
 31
0.0
 0
TEXT
 8
PARTS
 10
  2.7600
 20
  4.2300
 30
0.0
 40
  0.0500
 1
19
 0
LINE
 8
PARTS
 10
  3.0000
 20
  4.3000
 30
0.0
 11
  2.7000
 21
  4.3000
 31
0.0
 0
TEXT
 8
PARTS
 10
  2.7600
 20
  4.3300
 30
0.0
 40
  0.0500
 1
6
 0
LINE
 8
PARTS
 10
  3.0000
 20
  4.4000
 30
0.0
 11
  2.7000
 21
  4.4000
 31
0.0
 0
TEXT
 8
PARTS
 10
  2.7600
 20
  4.4300
 30
0.0
 40
  0.0500
 1
18
 0
LINE
 8
PARTS
 10
  3.0000
 20
  4.5000
 30
0.0
 11
  2.7000
 21
  4.5000
 31
0.0
 0
TEXT
 8
PARTS
 10
  2.7600
 20
  4.5300
 30
0.0
 40
  0.0500
 1
5
 0
LINE
 8
PARTS
 10
  3.0000
 20
  4.6000
 30
0.0
 11
  2.7000
 21
  4.6000
 31
0.0
 0
TEXT
 8
PARTS
 10
  2.7600
 20
  4.6300
 30
0.0
 40
  0.0500
 1
17
 0
LINE
 8
PARTS
 10
  3.0000
 20
  4.7000
 30
0.0
 11
  2.7000
 21
  4.7000
 31
0.0
 0
TEXT
 8
PARTS
 10
  2.7600
 20
  4.7300
 30
0.0
 40
  0.0500
 1
4
 0
LINE
 8
PARTS
 10
  3.0000
 20
  4.8000
 30
0.0
 11
  2.7000
 21
  4.8000
 31
0.0
 0
TEXT
 8
PARTS
 10
  2.7600
 20
  4.8300
 30
0.0
 40
  0.0500
 1
16
 0
LINE
 8
PARTS
 10
  3.0000
 20
  4.9000
 30
0.0
 11
  2.7000
 21
  4.9000
 31
0.0
 0
TEXT
 8
PARTS
 10
  2.7600
 20
  4.9300
 30
0.0
 40
  0.0500
 1
3
 0
LINE
 8
PARTS
 10
  3.0000
 20
  5.0000
 30
0.0
 11
  2.7000
 21
  5.0000
 31
0.0
 0
TEXT
 8
PARTS
 10
  2.7600
 20
  5.0300
 30
0.0
 40
  0.0500
 1
15
 0
LINE
 8
PARTS
 10
  3.0000
 20
  5.1000
 30
0.0
 11
  2.7000
 21
  5.1000
 31
0.0
 0
TEXT
 8
PARTS
 10
  2.7600
 20
  5.1300
 30
0.0
 40
  0.0500
 1
2
 0
LINE
 8
PARTS
 10
  3.0000
 20
  5.2000
 30
0.0
 11
  2.7000
 21
  5.2000
 31
0.0
 0
TEXT
 8
PARTS
 10
  2.7600
 20
  5.2300
 30
0.0
 40
  0.0500
 1
14
 0
LINE
 8
PARTS
 10
  3.0000
 20
  5.3000
 30
0.0
 11
  2.7000
 21
  5.3000
 31
0.0
 0
TEXT
 8
PARTS
 10
  2.7600
 20
  5.3300
 30
0.0
 40
  0.0500
 1
1
 0
POLYLINE
 8
PARTS
 66
1
 10
0.0
 20
0.0
 30
0.0
 0
VERTEX
 8
PARTS
 10
  2.7000
 20
  2.9000
 30
0.0
 0
VERTEX
 8
PARTS
 10
  2.6300
 20
  2.9000
 30
0.0
 0
SEQEND
 8
PARTS
 0
POLYLINE
 8
PARTS
 66
1
 10
0.0
 20
0.0
 30
0.0
 0
VERTEX
 8
PARTS
 10
  2.5300
 20
  3.0000
 30
0.0
 0
VERTEX
 8
PARTS
 10
  2.7000
 20
  3.0000
 30
0.0
 0
SEQEND
 8
PARTS
 0
POLYLINE
 8
PARTS
 66
1
 10
0.0
 20
0.0
 30
0.0
 0
VERTEX
 8
PARTS
 10
  2.7000
 20
  3.1000
 30
0.0
 0
VERTEX
 8
PARTS
 10
  2.6300
 20
  3.1000
 30
0.0
 0
SEQEND
 8
PARTS
 0
POLYLINE
 8
PARTS
 66
1
 10
0.0
 20
0.0
 30
0.0
 0
VERTEX
 8
PARTS
 10
  2.5300
 20
  3.2000
 30
0.0
 0
VERTEX
 8
PARTS
 10
  2.7000
 20
  3.2000
 30
0.0
 0
SEQEND
 8
PARTS
 0
POLYLINE
 8
PARTS
 66
1
 10
0.0
 20
0.0
 30
0.0
 0
VERTEX
 8
PARTS
 10
  2.7000
 20
  3.3000
 30
0.0
 0
VERTEX
 8
PARTS
 10
  2.6300
 20
  3.3000
 30
0.0
 0
SEQEND
 8
PARTS
 0
POLYLINE
 8
PARTS
 66
1
 10
0.0
 20
0.0
 30
0.0
 0
VERTEX
 8
PARTS
 10
  2.5300
 20
  3.4000
 30
0.0
 0
VERTEX
 8
PARTS
 10
  2.7000
 20
  3.4000
 30
0.0
 0
SEQEND
 8
PARTS
 0
POLYLINE
 8
PARTS
 66
1
 10
0.0
 20
0.0
 30
0.0
 0
VERTEX
 8
PARTS
 10
  2.7000
 20
  3.5000
 30
0.0
 0
VERTEX
 8
PARTS
 10
  2.6300
 20
  3.5000
 30
0.0
 0
SEQEND
 8
PARTS
 0
POLYLINE
 8
PARTS
 66
1
 10
0.0
 20
0.0
 30
0.0
 0
VERTEX
 8
PARTS
 10
  2.5300
 20
  3.6000
 30
0.0
 0
VERTEX
 8
PARTS
 10
  2.7000
 20
  3.6000
 30
0.0
 0
SEQEND
 8
PARTS
 0
POLYLINE
 8
PARTS
 66
1
 10
0.0
 20
0.0
 30
0.0
 0
VERTEX
 8
PARTS
 10
  2.7000
 20
  3.7000
 30
0.0
 0
VERTEX
 8
PARTS
 10
  2.6300
 20
  3.7000
 30
0.0
 0
SEQEND
 8
PARTS
 0
POLYLINE
 8
PARTS
 66
1
 10
0.0
 20
0.0
 30
0.0
 0
VERTEX
 8
PARTS
 10
  2.5300
 20
  3.8000
 30
0.0
 0
VERTEX
 8
PARTS
 10
  2.7000
 20
  3.8000
 30
0.0
 0
SEQEND
 8
PARTS
 0
POLYLINE
 8
PARTS
 66
1
 10
0.0
 20
0.0
 30
0.0
 0
VERTEX
 8
PARTS
 10
  2.7000
 20
  3.9000
 30
0.0
 0
VERTEX
 8
PARTS
 10
  2.6300
 20
  3.9000
 30
0.0
 0
SEQEND
 8
PARTS
 0
POLYLINE
 8
PARTS
 66
1
 10
0.0
 20
0.0
 30
0.0
 0
VERTEX
 8
PARTS
 10
  2.5300
 20
  4.0000
 30
0.0
 0
VERTEX
 8
PARTS
 10
  2.7000
 20
  4.0000
 30
0.0
 0
SEQEND
 8
PARTS
 0
POLYLINE
 8
PARTS
 66
1
 10
0.0
 20
0.0
 30
0.0
 0
VERTEX
 8
PARTS
 10
  2.7000
 20
  4.1000
 30
0.0
 0
VERTEX
 8
PARTS
 10
  2.6300
 20
  4.1000
 30
0.0
 0
SEQEND
 8
PARTS
 0
POLYLINE
 8
PARTS
 66
1
 10
0.0
 20
0.0
 30
0.0
 0
VERTEX
 8
PARTS
 10
  2.5300
 20
  4.2000
 30
0.0
 0
VERTEX
 8
PARTS
 10
  2.7000
 20
  4.2000
 30
0.0
 0
SEQEND
 8
PARTS
 0
POLYLINE
 8
PARTS
 66
1
 10
0.0
 20
0.0
 30
0.0
 0
VERTEX
 8
PARTS
 10
  2.7000
 20
  4.3000
 30
0.0
 0
VERTEX
 8
PARTS
 10
  2.6300
 20
  4.3000
 30
0.0
 0
SEQEND
 8
PARTS
 0
POLYLINE
 8
PARTS
 66
1
 10
0.0
 20
0.0
 30
0.0
 0
VERTEX
 8
PARTS
 10
  2.5300
 20
  4.4000
 30
0.0
 0
VERTEX
 8
PARTS
 10
  2.7000
 20
  4.4000
 30
0.0
 0
SEQEND
 8
PARTS
 0
POLYLINE
 8
PARTS
 66
1
 10
0.0
 20
0.0
 30
0.0
 0
VERTEX
 8
PARTS
 10
  2.7000
 20
  4.5000
 30
0.0
 0
VERTEX
 8
PARTS
 10
  2.6300
 20
  4.5000
 30
0.0
 0
SEQEND
 8
PARTS
 0
POLYLINE
 8
PARTS
 66
1
 10
0.0
 20
0.0
 30
0.0
 0
VERTEX
 8
PARTS
 10
  2.5300
 20
  4.6000
 30
0.0
 0
VERTEX
 8
PARTS
 10
  2.7000
 20
  4.6000
 30
0.0
 0
SEQEND
 8
PARTS
 0
POLYLINE
 8
PARTS
 66
1
 10
0.0
 20
0.0
 30
0.0
 0
VERTEX
 8
PARTS
 10
  2.7000
 20
  4.7000
 30
0.0
 0
VERTEX
 8
PARTS
 10
  2.6300
 20
  4.7000
 30
0.0
 0
SEQEND
 8
PARTS
 0
POLYLINE
 8
PARTS
 66
1
 10
0.0
 20
0.0
 30
0.0
 0
VERTEX
 8
PARTS
 10
  2.5300
 20
  4.8000
 30
0.0
 0
VERTEX
 8
PARTS
 10
  2.7000
 20
  4.8000
 30
0.0
 0
SEQEND
 8
PARTS
 0
POLYLINE
 8
PARTS
 66
1
 10
0.0
 20
0.0
 30
0.0
 0
VERTEX
 8
PARTS
 10
  2.7000
 20
  4.9000
 30
0.0
 0
VERTEX
 8
PARTS
 10
  2.6300
 20
  4.9000
 30
0.0
 0
SEQEND
 8
PARTS
 0
POLYLINE
 8
PARTS
 66
1
 10
0.0
 20
0.0
 30
0.0
 0
VERTEX
 8
PARTS
 10
  2.5300
 20
  5.0000
 30
0.0
 0
VERTEX
 8
PARTS
 10
  2.7000
 20
  5.0000
 30
0.0
 0
SEQEND
 8
PARTS
 0
POLYLINE
 8
PARTS
 66
1
 10
0.0
 20
0.0
 30
0.0
 0
VERTEX
 8
PARTS
 10
  2.7000
 20
  5.1000
 30
0.0
 0
VERTEX
 8
PARTS
 10
  2.6300
 20
  5.1000
 30
0.0
 0
SEQEND
 8
PARTS
 0
POLYLINE
 8
PARTS
 66
1
 10
0.0
 20
0.0
 30
0.0
 0
VERTEX
 8
PARTS
 10
  2.5300
 20
  5.2000
 30
0.0
 0
VERTEX
 8
PARTS
 10
  2.7000
 20
  5.2000
 30
0.0
 0
SEQEND
 8
PARTS
 0
POLYLINE
 8
PARTS
 66
1
 10
0.0
 20
0.0
 30
0.0
 0
VERTEX
 8
PARTS
 10
  2.7000
 20
  5.3000
 30
0.0
 0
VERTEX
 8
PARTS
 10
  2.6300
 20
  5.3000
 30
0.0
 0
SEQEND
 8
PARTS
 0
POLYLINE
 8
PARTS
 66
1
 10
0.0
 20
0.0
 30
0.0
 0
VERTEX
 8
PARTS
 10
  2.4100
 20
  2.8700
 30
0.0
 0
VERTEX
 8
PARTS
 10
  2.6400
 20
  2.8000
 30
0.0
 0
SEQEND
 8
PARTS
 0
POLYLINE
 8
PARTS
 66
1
 10
0.0
 20
0.0
 30
0.0
 0
VERTEX
 8
PARTS
 10
  2.7000
 20
  2.8600
 30
0.0
 0
VERTEX
 8
PARTS
 10
  2.7000
 20
  5.3400
 30
0.0
 0
SEQEND
 8
PARTS
 0
POLYLINE
 8
PARTS
 66
1
 10
0.0
 20
0.0
 30
0.0
 0
VERTEX
 8
PARTS
 10
  2.4100
 20
  5.3300
 30
0.0
 0
VERTEX
 8
PARTS
 10
  2.6400
 20
  5.4000
 30
0.0
 0
SEQEND
 8
PARTS
 0
POLYLINE
 8
PARTS
 66
1
 10
0.0
 20
0.0
 30
0.0
 0
VERTEX
 8
PARTS
 10
  2.4000
 20
  5.3000
 30
0.0
 0
VERTEX
 8
PARTS
 10
  2.4000
 20
  2.9000
 30
0.0
 0
SEQEND
 8
PARTS
 0
POLYLINE
 8
PARTS
 66
1
 10
0.0
 20
0.0
 30
0.0
 0
VERTEX
 8
PARTS
 10
  2.6400
 20
  2.8000
 30
0.0
 42
  0.4142
 0
VERTEX
 8
PARTS
 10
  2.7000
 20
  2.8600
 30
0.0
 0
SEQEND
 8
PARTS
 0
POLYLINE
 8
PARTS
 66
1
 10
0.0
 20
0.0
 30
0.0
 0
VERTEX
 8
PARTS
 10
  2.4000
 20
  2.9000
 30
0.0
 42
  0.1989
 0
VERTEX
 8
PARTS
 10
  2.4100
 20
  2.8700
 30
0.0
 0
SEQEND
 8
PARTS
 0
POLYLINE
 8
PARTS
 66
1
 10
0.0
 20
0.0
 30
0.0
 0
VERTEX
 8
PARTS
 10
  2.7000
 20
  5.3400
 30
0.0
 42
  0.4142
 0
VERTEX
 8
PARTS
 10
  2.6400
 20
  5.4000
 30
0.0
 0
SEQEND
 8
PARTS
 0
POLYLINE
 8
PARTS
 66
1
 10
0.0
 20
0.0
 30
0.0
 0
VERTEX
 8
PARTS
 10
  2.4100
 20
  5.3300
 30
0.0
 42
  0.1989
 0
VERTEX
 8
PARTS
 10
  2.4000
 20
  5.3000
 30
0.0
 0
SEQEND
 8
PARTS
 0
POLYLINE
 8
PARTS
 66
1
 70
1
 10
0.0
 20
0.0
 30
0.0
 0
VERTEX
 8
PARTS
 10
  2.6300
 20
  2.9000
 30
0.0
 42
  0.0985
 0
VERTEX
 8
PARTS
 10
  2.6277
 20
  2.9115
 30
0.0
 42
  0.0985
 0
VERTEX
 8
PARTS
 10
  2.6212
 20
  2.9212
 30
0.0
 42
  0.0985
 0
VERTEX
 8
PARTS
 10
  2.6115
 20
  2.9277
 30
0.0
 42
  0.0985
 0
VERTEX
 8
PARTS
 10
  2.6000
 20
  2.9300
 30
0.0
 42
  0.0985
 0
VERTEX
 8
PARTS
 10
  2.5885
 20
  2.9277
 30
0.0
 42
  0.0985
 0
VERTEX
 8
PARTS
 10
  2.5788
 20
  2.9212
 30
0.0
 42
  0.0985
 0
VERTEX
 8
PARTS
 10
  2.5723
 20
  2.9115
 30
0.0
 42
  0.0985
 0
VERTEX
 8
PARTS
 10
  2.5700
 20
  2.9000
 30
0.0
 42
  0.0985
 0
VERTEX
 8
PARTS
 10
  2.5723
 20
  2.8885
 30
0.0
 42
  0.0985
 0
VERTEX
 8
PARTS
 10
  2.5788
 20
  2.8788
 30
0.0
 42
  0.0985
 0
VERTEX
 8
PARTS
 10
  2.5885
 20
  2.8723
 30
0.0
 42
  0.0985
 0
VERTEX
 8
PARTS
 10
  2.6000
 20
  2.8700
 30
0.0
 42
  0.0985
 0
VERTEX
 8
PARTS
 10
  2.6115
 20
  2.8723
 30
0.0
 42
  0.0985
 0
VERTEX
 8
PARTS
 10
  2.6212
 20
  2.8788
 30
0.0
 42
  0.0985
 0
VERTEX
 8
PARTS
 10
  2.6277
 20
  2.8885
 30
0.0
 42
  0.0985
 0
SEQEND
 8
PARTS
 0
POLYLINE
 8
PARTS
 66
1
 70
1
 10
0.0
 20
0.0
 30
0.0
 0
VERTEX
 8
PARTS
 10
  2.6300
 20
  3.1000
 30
0.0
 42
  0.0985
 0
VERTEX
 8
PARTS
 10
  2.6277
 20
  3.1115
 30
0.0
 42
  0.0985
 0
VERTEX
 8
PARTS
 10
  2.6212
 20
  3.1212
 30
0.0
 42
  0.0985
 0
VERTEX
 8
PARTS
 10
  2.6115
 20
  3.1277
 30
0.0
 42
  0.0985
 0
VERTEX
 8
PARTS
 10
  2.6000
 20
  3.1300
 30
0.0
 42
  0.0985
 0
VERTEX
 8
PARTS
 10
  2.5885
 20
  3.1277
 30
0.0
 42
  0.0985
 0
VERTEX
 8
PARTS
 10
  2.5788
 20
  3.1212
 30
0.0
 42
  0.0985
 0
VERTEX
 8
PARTS
 10
  2.5723
 20
  3.1115
 30
0.0
 42
  0.0985
 0
VERTEX
 8
PARTS
 10
  2.5700
 20
  3.1000
 30
0.0
 42
  0.0985
 0
VERTEX
 8
PARTS
 10
  2.5723
 20
  3.0885
 30
0.0
 42
  0.0985
 0
VERTEX
 8
PARTS
 10
  2.5788
 20
  3.0788
 30
0.0
 42
  0.0985
 0
VERTEX
 8
PARTS
 10
  2.5885
 20
  3.0723
 30
0.0
 42
  0.0985
 0
VERTEX
 8
PARTS
 10
  2.6000
 20
  3.0700
 30
0.0
 42
  0.0985
 0
VERTEX
 8
PARTS
 10
  2.6115
 20
  3.0723
 30
0.0
 42
  0.0985
 0
VERTEX
 8
PARTS
 10
  2.6212
 20
  3.0788
 30
0.0
 42
  0.0985
 0
VERTEX
 8
PARTS
 10
  2.6277
 20
  3.0885
 30
0.0
 42
  0.0985
 0
SEQEND
 8
PARTS
 0
POLYLINE
 8
PARTS
 66
1
 70
1
 10
0.0
 20
0.0
 30
0.0
 0
VERTEX
 8
PARTS
 10
  2.6300
 20
  3.3000
 30
0.0
 42
  0.0985
 0
VERTEX
 8
PARTS
 10
  2.6277
 20
  3.3115
 30
0.0
 42
  0.0985
 0
VERTEX
 8
PARTS
 10
  2.6212
 20
  3.3212
 30
0.0
 42
  0.0985
 0
VERTEX
 8
PARTS
 10
  2.6115
 20
  3.3277
 30
0.0
 42
  0.0985
 0
VERTEX
 8
PARTS
 10
  2.6000
 20
  3.3300
 30
0.0
 42
  0.0985
 0
VERTEX
 8
PARTS
 10
  2.5885
 20
  3.3277
 30
0.0
 42
  0.0985
 0
VERTEX
 8
PARTS
 10
  2.5788
 20
  3.3212
 30
0.0
 42
  0.0985
 0
VERTEX
 8
PARTS
 10
  2.5723
 20
  3.3115
 30
0.0
 42
  0.0985
 0
VERTEX
 8
PARTS
 10
  2.5700
 20
  3.3000
 30
0.0
 42
  0.0985
 0
VERTEX
 8
PARTS
 10
  2.5723
 20
  3.2885
 30
0.0
 42
  0.0985
 0
VERTEX
 8
PARTS
 10
  2.5788
 20
  3.2788
 30
0.0
 42
  0.0985
 0
VERTEX
 8
PARTS
 10
  2.5885
 20
  3.2723
 30
0.0
 42
  0.0985
 0
VERTEX
 8
PARTS
 10
  2.6000
 20
  3.2700
 30
0.0
 42
  0.0985
 0
VERTEX
 8
PARTS
 10
  2.6115
 20
  3.2723
 30
0.0
 42
  0.0985
 0
VERTEX
 8
PARTS
 10
  2.6212
 20
  3.2788
 30
0.0
 42
  0.0985
 0
VERTEX
 8
PARTS
 10
  2.6277
 20
  3.2885
 30
0.0
 42
  0.0985
 0
SEQEND
 8
PARTS
 0
POLYLINE
 8
PARTS
 66
1
 70
1
 10
0.0
 20
0.0
 30
0.0
 0
VERTEX
 8
PARTS
 10
  2.6300
 20
  3.5000
 30
0.0
 42
  0.0985
 0
VERTEX
 8
PARTS
 10
  2.6277
 20
  3.5115
 30
0.0
 42
  0.0985
 0
VERTEX
 8
PARTS
 10
  2.6212
 20
  3.5212
 30
0.0
 42
  0.0985
 0
VERTEX
 8
PARTS
 10
  2.6115
 20
  3.5277
 30
0.0
 42
  0.0985
 0
VERTEX
 8
PARTS
 10
  2.6000
 20
  3.5300
 30
0.0
 42
  0.0985
 0
VERTEX
 8
PARTS
 10
  2.5885
 20
  3.5277
 30
0.0
 42
  0.0985
 0
VERTEX
 8
PARTS
 10
  2.5788
 20
  3.5212
 30
0.0
 42
  0.0985
 0
VERTEX
 8
PARTS
 10
  2.5723
 20
  3.5115
 30
0.0
 42
  0.0985
 0
VERTEX
 8
PARTS
 10
  2.5700
 20
  3.5000
 30
0.0
 42
  0.0985
 0
VERTEX
 8
PARTS
 10
  2.5723
 20
  3.4885
 30
0.0
 42
  0.0985
 0
VERTEX
 8
PARTS
 10
  2.5788
 20
  3.4788
 30
0.0
 42
  0.0985
 0
VERTEX
 8
PARTS
 10
  2.5885
 20
  3.4723
 30
0.0
 42
  0.0985
 0
VERTEX
 8
PARTS
 10
  2.6000
 20
  3.4700
 30
0.0
 42
  0.0985
 0
VERTEX
 8
PARTS
 10
  2.6115
 20
  3.4723
 30
0.0
 42
  0.0985
 0
VERTEX
 8
PARTS
 10
  2.6212
 20
  3.4788
 30
0.0
 42
  0.0985
 0
VERTEX
 8
PARTS
 10
  2.6277
 20
  3.4885
 30
0.0
 42
  0.0985
 0
SEQEND
 8
PARTS
 0
POLYLINE
 8
PARTS
 66
1
 70
1
 10
0.0
 20
0.0
 30
0.0
 0
VERTEX
 8
PARTS
 10
  2.6300
 20
  3.7000
 30
0.0
 42
  0.0985
 0
VERTEX
 8
PARTS
 10
  2.6277
 20
  3.7115
 30
0.0
 42
  0.0985
 0
VERTEX
 8
PARTS
 10
  2.6212
 20
  3.7212
 30
0.0
 42
  0.0985
 0
VERTEX
 8
PARTS
 10
  2.6115
 20
  3.7277
 30
0.0
 42
  0.0985
 0
VERTEX
 8
PARTS
 10
  2.6000
 20
  3.7300
 30
0.0
 42
  0.0985
 0
VERTEX
 8
PARTS
 10
  2.5885
 20
  3.7277
 30
0.0
 42
  0.0985
 0
VERTEX
 8
PARTS
 10
  2.5788
 20
  3.7212
 30
0.0
 42
  0.0985
 0
VERTEX
 8
PARTS
 10
  2.5723
 20
  3.7115
 30
0.0
 42
  0.0985
 0
VERTEX
 8
PARTS
 10
  2.5700
 20
  3.7000
 30
0.0
 42
  0.0985
 0
VERTEX
 8
PARTS
 10
  2.5723
 20
  3.6885
 30
0.0
 42
  0.0985
 0
VERTEX
 8
PARTS
 10
  2.5788
 20
  3.6788
 30
0.0
 42
  0.0985
 0
VERTEX
 8
PARTS
 10
  2.5885
 20
  3.6723
 30
0.0
 42
  0.0985
 0
VERTEX
 8
PARTS
 10
  2.6000
 20
  3.6700
 30
0.0
 42
  0.0985
 0
VERTEX
 8
PARTS
 10
  2.6115
 20
  3.6723
 30
0.0
 42
  0.0985
 0
VERTEX
 8
PARTS
 10
  2.6212
 20
  3.6788
 30
0.0
 42
  0.0985
 0
VERTEX
 8
PARTS
 10
  2.6277
 20
  3.6885
 30
0.0
 42
  0.0985
 0
SEQEND
 8
PARTS
 0
POLYLINE
 8
PARTS
 66
1
 70
1
 10
0.0
 20
0.0
 30
0.0
 0
VERTEX
 8
PARTS
 10
  2.6300
 20
  3.9000
 30
0.0
 42
  0.0985
 0
VERTEX
 8
PARTS
 10
  2.6277
 20
  3.9115
 30
0.0
 42
  0.0985
 0
VERTEX
 8
PARTS
 10
  2.6212
 20
  3.9212
 30
0.0
 42
  0.0985
 0
VERTEX
 8
PARTS
 10
  2.6115
 20
  3.9277
 30
0.0
 42
  0.0985
 0
VERTEX
 8
PARTS
 10
  2.6000
 20
  3.9300
 30
0.0
 42
  0.0985
 0
VERTEX
 8
PARTS
 10
  2.5885
 20
  3.9277
 30
0.0
 42
  0.0985
 0
VERTEX
 8
PARTS
 10
  2.5788
 20
  3.9212
 30
0.0
 42
  0.0985
 0
VERTEX
 8
PARTS
 10
  2.5723
 20
  3.9115
 30
0.0
 42
  0.0985
 0
VERTEX
 8
PARTS
 10
  2.5700
 20
  3.9000
 30
0.0
 42
  0.0985
 0
VERTEX
 8
PARTS
 10
  2.5723
 20
  3.8885
 30
0.0
 42
  0.0985
 0
VERTEX
 8
PARTS
 10
  2.5788
 20
  3.8788
 30
0.0
 42
  0.0985
 0
VERTEX
 8
PARTS
 10
  2.5885
 20
  3.8723
 30
0.0
 42
  0.0985
 0
VERTEX
 8
PARTS
 10
  2.6000
 20
  3.8700
 30
0.0
 42
  0.0985
 0
VERTEX
 8
PARTS
 10
  2.6115
 20
  3.8723
 30
0.0
 42
  0.0985
 0
VERTEX
 8
PARTS
 10
  2.6212
 20
  3.8788
 30
0.0
 42
  0.0985
 0
VERTEX
 8
PARTS
 10
  2.6277
 20
  3.8885
 30
0.0
 42
  0.0985
 0
SEQEND
 8
PARTS
 0
POLYLINE
 8
PARTS
 66
1
 70
1
 10
0.0
 20
0.0
 30
0.0
 0
VERTEX
 8
PARTS
 10
  2.6300
 20
  4.1000
 30
0.0
 42
  0.0985
 0
VERTEX
 8
PARTS
 10
  2.6277
 20
  4.1115
 30
0.0
 42
  0.0985
 0
VERTEX
 8
PARTS
 10
  2.6212
 20
  4.1212
 30
0.0
 42
  0.0985
 0
VERTEX
 8
PARTS
 10
  2.6115
 20
  4.1277
 30
0.0
 42
  0.0985
 0
VERTEX
 8
PARTS
 10
  2.6000
 20
  4.1300
 30
0.0
 42
  0.0985
 0
VERTEX
 8
PARTS
 10
  2.5885
 20
  4.1277
 30
0.0
 42
  0.0985
 0
VERTEX
 8
PARTS
 10
  2.5788
 20
  4.1212
 30
0.0
 42
  0.0985
 0
VERTEX
 8
PARTS
 10
  2.5723
 20
  4.1115
 30
0.0
 42
  0.0985
 0
VERTEX
 8
PARTS
 10
  2.5700
 20
  4.1000
 30
0.0
 42
  0.0985
 0
VERTEX
 8
PARTS
 10
  2.5723
 20
  4.0885
 30
0.0
 42
  0.0985
 0
VERTEX
 8
PARTS
 10
  2.5788
 20
  4.0788
 30
0.0
 42
  0.0985
 0
VERTEX
 8
PARTS
 10
  2.5885
 20
  4.0723
 30
0.0
 42
  0.0985
 0
VERTEX
 8
PARTS
 10
  2.6000
 20
  4.0700
 30
0.0
 42
  0.0985
 0
VERTEX
 8
PARTS
 10
  2.6115
 20
  4.0723
 30
0.0
 42
  0.0985
 0
VERTEX
 8
PARTS
 10
  2.6212
 20
  4.0788
 30
0.0
 42
  0.0985
 0
VERTEX
 8
PARTS
 10
  2.6277
 20
  4.0885
 30
0.0
 42
  0.0985
 0
SEQEND
 8
PARTS
 0
POLYLINE
 8
PARTS
 66
1
 70
1
 10
0.0
 20
0.0
 30
0.0
 0
VERTEX
 8
PARTS
 10
  2.6300
 20
  4.3000
 30
0.0
 42
  0.0985
 0
VERTEX
 8
PARTS
 10
  2.6277
 20
  4.3115
 30
0.0
 42
  0.0985
 0
VERTEX
 8
PARTS
 10
  2.6212
 20
  4.3212
 30
0.0
 42
  0.0985
 0
VERTEX
 8
PARTS
 10
  2.6115
 20
  4.3277
 30
0.0
 42
  0.0985
 0
VERTEX
 8
PARTS
 10
  2.6000
 20
  4.3300
 30
0.0
 42
  0.0985
 0
VERTEX
 8
PARTS
 10
  2.5885
 20
  4.3277
 30
0.0
 42
  0.0985
 0
VERTEX
 8
PARTS
 10
  2.5788
 20
  4.3212
 30
0.0
 42
  0.0985
 0
VERTEX
 8
PARTS
 10
  2.5723
 20
  4.3115
 30
0.0
 42
  0.0985
 0
VERTEX
 8
PARTS
 10
  2.5700
 20
  4.3000
 30
0.0
 42
  0.0985
 0
VERTEX
 8
PARTS
 10
  2.5723
 20
  4.2885
 30
0.0
 42
  0.0985
 0
VERTEX
 8
PARTS
 10
  2.5788
 20
  4.2788
 30
0.0
 42
  0.0985
 0
VERTEX
 8
PARTS
 10
  2.5885
 20
  4.2723
 30
0.0
 42
  0.0985
 0
VERTEX
 8
PARTS
 10
  2.6000
 20
  4.2700
 30
0.0
 42
  0.0985
 0
VERTEX
 8
PARTS
 10
  2.6115
 20
  4.2723
 30
0.0
 42
  0.0985
 0
VERTEX
 8
PARTS
 10
  2.6212
 20
  4.2788
 30
0.0
 42
  0.0985
 0
VERTEX
 8
PARTS
 10
  2.6277
 20
  4.2885
 30
0.0
 42
  0.0985
 0
SEQEND
 8
PARTS
 0
POLYLINE
 8
PARTS
 66
1
 70
1
 10
0.0
 20
0.0
 30
0.0
 0
VERTEX
 8
PARTS
 10
  2.6300
 20
  4.5000
 30
0.0
 42
  0.0985
 0
VERTEX
 8
PARTS
 10
  2.6277
 20
  4.5115
 30
0.0
 42
  0.0985
 0
VERTEX
 8
PARTS
 10
  2.6212
 20
  4.5212
 30
0.0
 42
  0.0985
 0
VERTEX
 8
PARTS
 10
  2.6115
 20
  4.5277
 30
0.0
 42
  0.0985
 0
VERTEX
 8
PARTS
 10
  2.6000
 20
  4.5300
 30
0.0
 42
  0.0985
 0
VERTEX
 8
PARTS
 10
  2.5885
 20
  4.5277
 30
0.0
 42
  0.0985
 0
VERTEX
 8
PARTS
 10
  2.5788
 20
  4.5212
 30
0.0
 42
  0.0985
 0
VERTEX
 8
PARTS
 10
  2.5723
 20
  4.5115
 30
0.0
 42
  0.0985
 0
VERTEX
 8
PARTS
 10
  2.5700
 20
  4.5000
 30
0.0
 42
  0.0985
 0
VERTEX
 8
PARTS
 10
  2.5723
 20
  4.4885
 30
0.0
 42
  0.0985
 0
VERTEX
 8
PARTS
 10
  2.5788
 20
  4.4788
 30
0.0
 42
  0.0985
 0
VERTEX
 8
PARTS
 10
  2.5885
 20
  4.4723
 30
0.0
 42
  0.0985
 0
VERTEX
 8
PARTS
 10
  2.6000
 20
  4.4700
 30
0.0
 42
  0.0985
 0
VERTEX
 8
PARTS
 10
  2.6115
 20
  4.4723
 30
0.0
 42
  0.0985
 0
VERTEX
 8
PARTS
 10
  2.6212
 20
  4.4788
 30
0.0
 42
  0.0985
 0
VERTEX
 8
PARTS
 10
  2.6277
 20
  4.4885
 30
0.0
 42
  0.0985
 0
SEQEND
 8
PARTS
 0
POLYLINE
 8
PARTS
 66
1
 70
1
 10
0.0
 20
0.0
 30
0.0
 0
VERTEX
 8
PARTS
 10
  2.6300
 20
  4.7000
 30
0.0
 42
  0.0985
 0
VERTEX
 8
PARTS
 10
  2.6277
 20
  4.7115
 30
0.0
 42
  0.0985
 0
VERTEX
 8
PARTS
 10
  2.6212
 20
  4.7212
 30
0.0
 42
  0.0985
 0
VERTEX
 8
PARTS
 10
  2.6115
 20
  4.7277
 30
0.0
 42
  0.0985
 0
VERTEX
 8
PARTS
 10
  2.6000
 20
  4.7300
 30
0.0
 42
  0.0985
 0
VERTEX
 8
PARTS
 10
  2.5885
 20
  4.7277
 30
0.0
 42
  0.0985
 0
VERTEX
 8
PARTS
 10
  2.5788
 20
  4.7212
 30
0.0
 42
  0.0985
 0
VERTEX
 8
PARTS
 10
  2.5723
 20
  4.7115
 30
0.0
 42
  0.0985
 0
VERTEX
 8
PARTS
 10
  2.5700
 20
  4.7000
 30
0.0
 42
  0.0985
 0
VERTEX
 8
PARTS
 10
  2.5723
 20
  4.6885
 30
0.0
 42
  0.0985
 0
VERTEX
 8
PARTS
 10
  2.5788
 20
  4.6788
 30
0.0
 42
  0.0985
 0
VERTEX
 8
PARTS
 10
  2.5885
 20
  4.6723
 30
0.0
 42
  0.0985
 0
VERTEX
 8
PARTS
 10
  2.6000
 20
  4.6700
 30
0.0
 42
  0.0985
 0
VERTEX
 8
PARTS
 10
  2.6115
 20
  4.6723
 30
0.0
 42
  0.0985
 0
VERTEX
 8
PARTS
 10
  2.6212
 20
  4.6788
 30
0.0
 42
  0.0985
 0
VERTEX
 8
PARTS
 10
  2.6277
 20
  4.6885
 30
0.0
 42
  0.0985
 0
SEQEND
 8
PARTS
 0
POLYLINE
 8
PARTS
 66
1
 70
1
 10
0.0
 20
0.0
 30
0.0
 0
VERTEX
 8
PARTS
 10
  2.6300
 20
  4.9000
 30
0.0
 42
  0.0985
 0
VERTEX
 8
PARTS
 10
  2.6277
 20
  4.9115
 30
0.0
 42
  0.0985
 0
VERTEX
 8
PARTS
 10
  2.6212
 20
  4.9212
 30
0.0
 42
  0.0985
 0
VERTEX
 8
PARTS
 10
  2.6115
 20
  4.9277
 30
0.0
 42
  0.0985
 0
VERTEX
 8
PARTS
 10
  2.6000
 20
  4.9300
 30
0.0
 42
  0.0985
 0
VERTEX
 8
PARTS
 10
  2.5885
 20
  4.9277
 30
0.0
 42
  0.0985
 0
VERTEX
 8
PARTS
 10
  2.5788
 20
  4.9212
 30
0.0
 42
  0.0985
 0
VERTEX
 8
PARTS
 10
  2.5723
 20
  4.9115
 30
0.0
 42
  0.0985
 0
VERTEX
 8
PARTS
 10
  2.5700
 20
  4.9000
 30
0.0
 42
  0.0985
 0
VERTEX
 8
PARTS
 10
  2.5723
 20
  4.8885
 30
0.0
 42
  0.0985
 0
VERTEX
 8
PARTS
 10
  2.5788
 20
  4.8788
 30
0.0
 42
  0.0985
 0
VERTEX
 8
PARTS
 10
  2.5885
 20
  4.8723
 30
0.0
 42
  0.0985
 0
VERTEX
 8
PARTS
 10
  2.6000
 20
  4.8700
 30
0.0
 42
  0.0985
 0
VERTEX
 8
PARTS
 10
  2.6115
 20
  4.8723
 30
0.0
 42
  0.0985
 0
VERTEX
 8
PARTS
 10
  2.6212
 20
  4.8788
 30
0.0
 42
  0.0985
 0
VERTEX
 8
PARTS
 10
  2.6277
 20
  4.8885
 30
0.0
 42
  0.0985
 0
SEQEND
 8
PARTS
 0
POLYLINE
 8
PARTS
 66
1
 70
1
 10
0.0
 20
0.0
 30
0.0
 0
VERTEX
 8
PARTS
 10
  2.6300
 20
  5.1000
 30
0.0
 42
  0.0985
 0
VERTEX
 8
PARTS
 10
  2.6277
 20
  5.1115
 30
0.0
 42
  0.0985
 0
VERTEX
 8
PARTS
 10
  2.6212
 20
  5.1212
 30
0.0
 42
  0.0985
 0
VERTEX
 8
PARTS
 10
  2.6115
 20
  5.1277
 30
0.0
 42
  0.0985
 0
VERTEX
 8
PARTS
 10
  2.6000
 20
  5.1300
 30
0.0
 42
  0.0985
 0
VERTEX
 8
PARTS
 10
  2.5885
 20
  5.1277
 30
0.0
 42
  0.0985
 0
VERTEX
 8
PARTS
 10
  2.5788
 20
  5.1212
 30
0.0
 42
  0.0985
 0
VERTEX
 8
PARTS
 10
  2.5723
 20
  5.1115
 30
0.0
 42
  0.0985
 0
VERTEX
 8
PARTS
 10
  2.5700
 20
  5.1000
 30
0.0
 42
  0.0985
 0
VERTEX
 8
PARTS
 10
  2.5723
 20
  5.0885
 30
0.0
 42
  0.0985
 0
VERTEX
 8
PARTS
 10
  2.5788
 20
  5.0788
 30
0.0
 42
  0.0985
 0
VERTEX
 8
PARTS
 10
  2.5885
 20
  5.0723
 30
0.0
 42
  0.0985
 0
VERTEX
 8
PARTS
 10
  2.6000
 20
  5.0700
 30
0.0
 42
  0.0985
 0
VERTEX
 8
PARTS
 10
  2.6115
 20
  5.0723
 30
0.0
 42
  0.0985
 0
VERTEX
 8
PARTS
 10
  2.6212
 20
  5.0788
 30
0.0
 42
  0.0985
 0
VERTEX
 8
PARTS
 10
  2.6277
 20
  5.0885
 30
0.0
 42
  0.0985
 0
SEQEND
 8
PARTS
 0
POLYLINE
 8
PARTS
 66
1
 70
1
 10
0.0
 20
0.0
 30
0.0
 0
VERTEX
 8
PARTS
 10
  2.6300
 20
  5.3000
 30
0.0
 42
  0.0985
 0
VERTEX
 8
PARTS
 10
  2.6277
 20
  5.3115
 30
0.0
 42
  0.0985
 0
VERTEX
 8
PARTS
 10
  2.6212
 20
  5.3212
 30
0.0
 42
  0.0985
 0
VERTEX
 8
PARTS
 10
  2.6115
 20
  5.3277
 30
0.0
 42
  0.0985
 0
VERTEX
 8
PARTS
 10
  2.6000
 20
  5.3300
 30
0.0
 42
  0.0985
 0
VERTEX
 8
PARTS
 10
  2.5885
 20
  5.3277
 30
0.0
 42
  0.0985
 0
VERTEX
 8
PARTS
 10
  2.5788
 20
  5.3212
 30
0.0
 42
  0.0985
 0
VERTEX
 8
PARTS
 10
  2.5723
 20
  5.3115
 30
0.0
 42
  0.0985
 0
VERTEX
 8
PARTS
 10
  2.5700
 20
  5.3000
 30
0.0
 42
  0.0985
 0
VERTEX
 8
PARTS
 10
  2.5723
 20
  5.2885
 30
0.0
 42
  0.0985
 0
VERTEX
 8
PARTS
 10
  2.5788
 20
  5.2788
 30
0.0
 42
  0.0985
 0
VERTEX
 8
PARTS
 10
  2.5885
 20
  5.2723
 30
0.0
 42
  0.0985
 0
VERTEX
 8
PARTS
 10
  2.6000
 20
  5.2700
 30
0.0
 42
  0.0985
 0
VERTEX
 8
PARTS
 10
  2.6115
 20
  5.2723
 30
0.0
 42
  0.0985
 0
VERTEX
 8
PARTS
 10
  2.6212
 20
  5.2788
 30
0.0
 42
  0.0985
 0
VERTEX
 8
PARTS
 10
  2.6277
 20
  5.2885
 30
0.0
 42
  0.0985
 0
SEQEND
 8
PARTS
 0
POLYLINE
 8
PARTS
 66
1
 70
1
 10
0.0
 20
0.0
 30
0.0
 0
VERTEX
 8
PARTS
 10
  2.5300
 20
  5.2000
 30
0.0
 42
  0.0985
 0
VERTEX
 8
PARTS
 10
  2.5277
 20
  5.2115
 30
0.0
 42
  0.0985
 0
VERTEX
 8
PARTS
 10
  2.5212
 20
  5.2212
 30
0.0
 42
  0.0985
 0
VERTEX
 8
PARTS
 10
  2.5115
 20
  5.2277
 30
0.0
 42
  0.0985
 0
VERTEX
 8
PARTS
 10
  2.5000
 20
  5.2300
 30
0.0
 42
  0.0985
 0
VERTEX
 8
PARTS
 10
  2.4885
 20
  5.2277
 30
0.0
 42
  0.0985
 0
VERTEX
 8
PARTS
 10
  2.4788
 20
  5.2212
 30
0.0
 42
  0.0985
 0
VERTEX
 8
PARTS
 10
  2.4723
 20
  5.2115
 30
0.0
 42
  0.0985
 0
VERTEX
 8
PARTS
 10
  2.4700
 20
  5.2000
 30
0.0
 42
  0.0985
 0
VERTEX
 8
PARTS
 10
  2.4723
 20
  5.1885
 30
0.0
 42
  0.0985
 0
VERTEX
 8
PARTS
 10
  2.4788
 20
  5.1788
 30
0.0
 42
  0.0985
 0
VERTEX
 8
PARTS
 10
  2.4885
 20
  5.1723
 30
0.0
 42
  0.0985
 0
VERTEX
 8
PARTS
 10
  2.5000
 20
  5.1700
 30
0.0
 42
  0.0985
 0
VERTEX
 8
PARTS
 10
  2.5115
 20
  5.1723
 30
0.0
 42
  0.0985
 0
VERTEX
 8
PARTS
 10
  2.5212
 20
  5.1788
 30
0.0
 42
  0.0985
 0
VERTEX
 8
PARTS
 10
  2.5277
 20
  5.1885
 30
0.0
 42
  0.0985
 0
SEQEND
 8
PARTS
 0
POLYLINE
 8
PARTS
 66
1
 70
1
 10
0.0
 20
0.0
 30
0.0
 0
VERTEX
 8
PARTS
 10
  2.5300
 20
  5.0000
 30
0.0
 42
  0.0985
 0
VERTEX
 8
PARTS
 10
  2.5277
 20
  5.0115
 30
0.0
 42
  0.0985
 0
VERTEX
 8
PARTS
 10
  2.5212
 20
  5.0212
 30
0.0
 42
  0.0985
 0
VERTEX
 8
PARTS
 10
  2.5115
 20
  5.0277
 30
0.0
 42
  0.0985
 0
VERTEX
 8
PARTS
 10
  2.5000
 20
  5.0300
 30
0.0
 42
  0.0985
 0
VERTEX
 8
PARTS
 10
  2.4885
 20
  5.0277
 30
0.0
 42
  0.0985
 0
VERTEX
 8
PARTS
 10
  2.4788
 20
  5.0212
 30
0.0
 42
  0.0985
 0
VERTEX
 8
PARTS
 10
  2.4723
 20
  5.0115
 30
0.0
 42
  0.0985
 0
VERTEX
 8
PARTS
 10
  2.4700
 20
  5.0000
 30
0.0
 42
  0.0985
 0
VERTEX
 8
PARTS
 10
  2.4723
 20
  4.9885
 30
0.0
 42
  0.0985
 0
VERTEX
 8
PARTS
 10
  2.4788
 20
  4.9788
 30
0.0
 42
  0.0985
 0
VERTEX
 8
PARTS
 10
  2.4885
 20
  4.9723
 30
0.0
 42
  0.0985
 0
VERTEX
 8
PARTS
 10
  2.5000
 20
  4.9700
 30
0.0
 42
  0.0985
 0
VERTEX
 8
PARTS
 10
  2.5115
 20
  4.9723
 30
0.0
 42
  0.0985
 0
VERTEX
 8
PARTS
 10
  2.5212
 20
  4.9788
 30
0.0
 42
  0.0985
 0
VERTEX
 8
PARTS
 10
  2.5277
 20
  4.9885
 30
0.0
 42
  0.0985
 0
SEQEND
 8
PARTS
 0
POLYLINE
 8
PARTS
 66
1
 70
1
 10
0.0
 20
0.0
 30
0.0
 0
VERTEX
 8
PARTS
 10
  2.5300
 20
  4.8000
 30
0.0
 42
  0.0985
 0
VERTEX
 8
PARTS
 10
  2.5277
 20
  4.8115
 30
0.0
 42
  0.0985
 0
VERTEX
 8
PARTS
 10
  2.5212
 20
  4.8212
 30
0.0
 42
  0.0985
 0
VERTEX
 8
PARTS
 10
  2.5115
 20
  4.8277
 30
0.0
 42
  0.0985
 0
VERTEX
 8
PARTS
 10
  2.5000
 20
  4.8300
 30
0.0
 42
  0.0985
 0
VERTEX
 8
PARTS
 10
  2.4885
 20
  4.8277
 30
0.0
 42
  0.0985
 0
VERTEX
 8
PARTS
 10
  2.4788
 20
  4.8212
 30
0.0
 42
  0.0985
 0
VERTEX
 8
PARTS
 10
  2.4723
 20
  4.8115
 30
0.0
 42
  0.0985
 0
VERTEX
 8
PARTS
 10
  2.4700
 20
  4.8000
 30
0.0
 42
  0.0985
 0
VERTEX
 8
PARTS
 10
  2.4723
 20
  4.7885
 30
0.0
 42
  0.0985
 0
VERTEX
 8
PARTS
 10
  2.4788
 20
  4.7788
 30
0.0
 42
  0.0985
 0
VERTEX
 8
PARTS
 10
  2.4885
 20
  4.7723
 30
0.0
 42
  0.0985
 0
VERTEX
 8
PARTS
 10
  2.5000
 20
  4.7700
 30
0.0
 42
  0.0985
 0
VERTEX
 8
PARTS
 10
  2.5115
 20
  4.7723
 30
0.0
 42
  0.0985
 0
VERTEX
 8
PARTS
 10
  2.5212
 20
  4.7788
 30
0.0
 42
  0.0985
 0
VERTEX
 8
PARTS
 10
  2.5277
 20
  4.7885
 30
0.0
 42
  0.0985
 0
SEQEND
 8
PARTS
 0
POLYLINE
 8
PARTS
 66
1
 70
1
 10
0.0
 20
0.0
 30
0.0
 0
VERTEX
 8
PARTS
 10
  2.5300
 20
  4.6000
 30
0.0
 42
  0.0985
 0
VERTEX
 8
PARTS
 10
  2.5277
 20
  4.6115
 30
0.0
 42
  0.0985
 0
VERTEX
 8
PARTS
 10
  2.5212
 20
  4.6212
 30
0.0
 42
  0.0985
 0
VERTEX
 8
PARTS
 10
  2.5115
 20
  4.6277
 30
0.0
 42
  0.0985
 0
VERTEX
 8
PARTS
 10
  2.5000
 20
  4.6300
 30
0.0
 42
  0.0985
 0
VERTEX
 8
PARTS
 10
  2.4885
 20
  4.6277
 30
0.0
 42
  0.0985
 0
VERTEX
 8
PARTS
 10
  2.4788
 20
  4.6212
 30
0.0
 42
  0.0985
 0
VERTEX
 8
PARTS
 10
  2.4723
 20
  4.6115
 30
0.0
 42
  0.0985
 0
VERTEX
 8
PARTS
 10
  2.4700
 20
  4.6000
 30
0.0
 42
  0.0985
 0
VERTEX
 8
PARTS
 10
  2.4723
 20
  4.5885
 30
0.0
 42
  0.0985
 0
VERTEX
 8
PARTS
 10
  2.4788
 20
  4.5788
 30
0.0
 42
  0.0985
 0
VERTEX
 8
PARTS
 10
  2.4885
 20
  4.5723
 30
0.0
 42
  0.0985
 0
VERTEX
 8
PARTS
 10
  2.5000
 20
  4.5700
 30
0.0
 42
  0.0985
 0
VERTEX
 8
PARTS
 10
  2.5115
 20
  4.5723
 30
0.0
 42
  0.0985
 0
VERTEX
 8
PARTS
 10
  2.5212
 20
  4.5788
 30
0.0
 42
  0.0985
 0
VERTEX
 8
PARTS
 10
  2.5277
 20
  4.5885
 30
0.0
 42
  0.0985
 0
SEQEND
 8
PARTS
 0
POLYLINE
 8
PARTS
 66
1
 70
1
 10
0.0
 20
0.0
 30
0.0
 0
VERTEX
 8
PARTS
 10
  2.5300
 20
  4.4000
 30
0.0
 42
  0.0985
 0
VERTEX
 8
PARTS
 10
  2.5277
 20
  4.4115
 30
0.0
 42
  0.0985
 0
VERTEX
 8
PARTS
 10
  2.5212
 20
  4.4212
 30
0.0
 42
  0.0985
 0
VERTEX
 8
PARTS
 10
  2.5115
 20
  4.4277
 30
0.0
 42
  0.0985
 0
VERTEX
 8
PARTS
 10
  2.5000
 20
  4.4300
 30
0.0
 42
  0.0985
 0
VERTEX
 8
PARTS
 10
  2.4885
 20
  4.4277
 30
0.0
 42
  0.0985
 0
VERTEX
 8
PARTS
 10
  2.4788
 20
  4.4212
 30
0.0
 42
  0.0985
 0
VERTEX
 8
PARTS
 10
  2.4723
 20
  4.4115
 30
0.0
 42
  0.0985
 0
VERTEX
 8
PARTS
 10
  2.4700
 20
  4.4000
 30
0.0
 42
  0.0985
 0
VERTEX
 8
PARTS
 10
  2.4723
 20
  4.3885
 30
0.0
 42
  0.0985
 0
VERTEX
 8
PARTS
 10
  2.4788
 20
  4.3788
 30
0.0
 42
  0.0985
 0
VERTEX
 8
PARTS
 10
  2.4885
 20
  4.3723
 30
0.0
 42
  0.0985
 0
VERTEX
 8
PARTS
 10
  2.5000
 20
  4.3700
 30
0.0
 42
  0.0985
 0
VERTEX
 8
PARTS
 10
  2.5115
 20
  4.3723
 30
0.0
 42
  0.0985
 0
VERTEX
 8
PARTS
 10
  2.5212
 20
  4.3788
 30
0.0
 42
  0.0985
 0
VERTEX
 8
PARTS
 10
  2.5277
 20
  4.3885
 30
0.0
 42
  0.0985
 0
SEQEND
 8
PARTS
 0
POLYLINE
 8
PARTS
 66
1
 70
1
 10
0.0
 20
0.0
 30
0.0
 0
VERTEX
 8
PARTS
 10
  2.5300
 20
  4.2000
 30
0.0
 42
  0.0985
 0
VERTEX
 8
PARTS
 10
  2.5277
 20
  4.2115
 30
0.0
 42
  0.0985
 0
VERTEX
 8
PARTS
 10
  2.5212
 20
  4.2212
 30
0.0
 42
  0.0985
 0
VERTEX
 8
PARTS
 10
  2.5115
 20
  4.2277
 30
0.0
 42
  0.0985
 0
VERTEX
 8
PARTS
 10
  2.5000
 20
  4.2300
 30
0.0
 42
  0.0985
 0
VERTEX
 8
PARTS
 10
  2.4885
 20
  4.2277
 30
0.0
 42
  0.0985
 0
VERTEX
 8
PARTS
 10
  2.4788
 20
  4.2212
 30
0.0
 42
  0.0985
 0
VERTEX
 8
PARTS
 10
  2.4723
 20
  4.2115
 30
0.0
 42
  0.0985
 0
VERTEX
 8
PARTS
 10
  2.4700
 20
  4.2000
 30
0.0
 42
  0.0985
 0
VERTEX
 8
PARTS
 10
  2.4723
 20
  4.1885
 30
0.0
 42
  0.0985
 0
VERTEX
 8
PARTS
 10
  2.4788
 20
  4.1788
 30
0.0
 42
  0.0985
 0
VERTEX
 8
PARTS
 10
  2.4885
 20
  4.1723
 30
0.0
 42
  0.0985
 0
VERTEX
 8
PARTS
 10
  2.5000
 20
  4.1700
 30
0.0
 42
  0.0985
 0
VERTEX
 8
PARTS
 10
  2.5115
 20
  4.1723
 30
0.0
 42
  0.0985
 0
VERTEX
 8
PARTS
 10
  2.5212
 20
  4.1788
 30
0.0
 42
  0.0985
 0
VERTEX
 8
PARTS
 10
  2.5277
 20
  4.1885
 30
0.0
 42
  0.0985
 0
SEQEND
 8
PARTS
 0
POLYLINE
 8
PARTS
 66
1
 70
1
 10
0.0
 20
0.0
 30
0.0
 0
VERTEX
 8
PARTS
 10
  2.5300
 20
  4.0000
 30
0.0
 42
  0.0985
 0
VERTEX
 8
PARTS
 10
  2.5277
 20
  4.0115
 30
0.0
 42
  0.0985
 0
VERTEX
 8
PARTS
 10
  2.5212
 20
  4.0212
 30
0.0
 42
  0.0985
 0
VERTEX
 8
PARTS
 10
  2.5115
 20
  4.0277
 30
0.0
 42
  0.0985
 0
VERTEX
 8
PARTS
 10
  2.5000
 20
  4.0300
 30
0.0
 42
  0.0985
 0
VERTEX
 8
PARTS
 10
  2.4885
 20
  4.0277
 30
0.0
 42
  0.0985
 0
VERTEX
 8
PARTS
 10
  2.4788
 20
  4.0212
 30
0.0
 42
  0.0985
 0
VERTEX
 8
PARTS
 10
  2.4723
 20
  4.0115
 30
0.0
 42
  0.0985
 0
VERTEX
 8
PARTS
 10
  2.4700
 20
  4.0000
 30
0.0
 42
  0.0985
 0
VERTEX
 8
PARTS
 10
  2.4723
 20
  3.9885
 30
0.0
 42
  0.0985
 0
VERTEX
 8
PARTS
 10
  2.4788
 20
  3.9788
 30
0.0
 42
  0.0985
 0
VERTEX
 8
PARTS
 10
  2.4885
 20
  3.9723
 30
0.0
 42
  0.0985
 0
VERTEX
 8
PARTS
 10
  2.5000
 20
  3.9700
 30
0.0
 42
  0.0985
 0
VERTEX
 8
PARTS
 10
  2.5115
 20
  3.9723
 30
0.0
 42
  0.0985
 0
VERTEX
 8
PARTS
 10
  2.5212
 20
  3.9788
 30
0.0
 42
  0.0985
 0
VERTEX
 8
PARTS
 10
  2.5277
 20
  3.9885
 30
0.0
 42
  0.0985
 0
SEQEND
 8
PARTS
 0
POLYLINE
 8
PARTS
 66
1
 70
1
 10
0.0
 20
0.0
 30
0.0
 0
VERTEX
 8
PARTS
 10
  2.5300
 20
  3.8000
 30
0.0
 42
  0.0985
 0
VERTEX
 8
PARTS
 10
  2.5277
 20
  3.8115
 30
0.0
 42
  0.0985
 0
VERTEX
 8
PARTS
 10
  2.5212
 20
  3.8212
 30
0.0
 42
  0.0985
 0
VERTEX
 8
PARTS
 10
  2.5115
 20
  3.8277
 30
0.0
 42
  0.0985
 0
VERTEX
 8
PARTS
 10
  2.5000
 20
  3.8300
 30
0.0
 42
  0.0985
 0
VERTEX
 8
PARTS
 10
  2.4885
 20
  3.8277
 30
0.0
 42
  0.0985
 0
VERTEX
 8
PARTS
 10
  2.4788
 20
  3.8212
 30
0.0
 42
  0.0985
 0
VERTEX
 8
PARTS
 10
  2.4723
 20
  3.8115
 30
0.0
 42
  0.0985
 0
VERTEX
 8
PARTS
 10
  2.4700
 20
  3.8000
 30
0.0
 42
  0.0985
 0
VERTEX
 8
PARTS
 10
  2.4723
 20
  3.7885
 30
0.0
 42
  0.0985
 0
VERTEX
 8
PARTS
 10
  2.4788
 20
  3.7788
 30
0.0
 42
  0.0985
 0
VERTEX
 8
PARTS
 10
  2.4885
 20
  3.7723
 30
0.0
 42
  0.0985
 0
VERTEX
 8
PARTS
 10
  2.5000
 20
  3.7700
 30
0.0
 42
  0.0985
 0
VERTEX
 8
PARTS
 10
  2.5115
 20
  3.7723
 30
0.0
 42
  0.0985
 0
VERTEX
 8
PARTS
 10
  2.5212
 20
  3.7788
 30
0.0
 42
  0.0985
 0
VERTEX
 8
PARTS
 10
  2.5277
 20
  3.7885
 30
0.0
 42
  0.0985
 0
SEQEND
 8
PARTS
 0
POLYLINE
 8
PARTS
 66
1
 70
1
 10
0.0
 20
0.0
 30
0.0
 0
VERTEX
 8
PARTS
 10
  2.5300
 20
  3.6000
 30
0.0
 42
  0.0985
 0
VERTEX
 8
PARTS
 10
  2.5277
 20
  3.6115
 30
0.0
 42
  0.0985
 0
VERTEX
 8
PARTS
 10
  2.5212
 20
  3.6212
 30
0.0
 42
  0.0985
 0
VERTEX
 8
PARTS
 10
  2.5115
 20
  3.6277
 30
0.0
 42
  0.0985
 0
VERTEX
 8
PARTS
 10
  2.5000
 20
  3.6300
 30
0.0
 42
  0.0985
 0
VERTEX
 8
PARTS
 10
  2.4885
 20
  3.6277
 30
0.0
 42
  0.0985
 0
VERTEX
 8
PARTS
 10
  2.4788
 20
  3.6212
 30
0.0
 42
  0.0985
 0
VERTEX
 8
PARTS
 10
  2.4723
 20
  3.6115
 30
0.0
 42
  0.0985
 0
VERTEX
 8
PARTS
 10
  2.4700
 20
  3.6000
 30
0.0
 42
  0.0985
 0
VERTEX
 8
PARTS
 10
  2.4723
 20
  3.5885
 30
0.0
 42
  0.0985
 0
VERTEX
 8
PARTS
 10
  2.4788
 20
  3.5788
 30
0.0
 42
  0.0985
 0
VERTEX
 8
PARTS
 10
  2.4885
 20
  3.5723
 30
0.0
 42
  0.0985
 0
VERTEX
 8
PARTS
 10
  2.5000
 20
  3.5700
 30
0.0
 42
  0.0985
 0
VERTEX
 8
PARTS
 10
  2.5115
 20
  3.5723
 30
0.0
 42
  0.0985
 0
VERTEX
 8
PARTS
 10
  2.5212
 20
  3.5788
 30
0.0
 42
  0.0985
 0
VERTEX
 8
PARTS
 10
  2.5277
 20
  3.5885
 30
0.0
 42
  0.0985
 0
SEQEND
 8
PARTS
 0
POLYLINE
 8
PARTS
 66
1
 70
1
 10
0.0
 20
0.0
 30
0.0
 0
VERTEX
 8
PARTS
 10
  2.5300
 20
  3.4000
 30
0.0
 42
  0.0985
 0
VERTEX
 8
PARTS
 10
  2.5277
 20
  3.4115
 30
0.0
 42
  0.0985
 0
VERTEX
 8
PARTS
 10
  2.5212
 20
  3.4212
 30
0.0
 42
  0.0985
 0
VERTEX
 8
PARTS
 10
  2.5115
 20
  3.4277
 30
0.0
 42
  0.0985
 0
VERTEX
 8
PARTS
 10
  2.5000
 20
  3.4300
 30
0.0
 42
  0.0985
 0
VERTEX
 8
PARTS
 10
  2.4885
 20
  3.4277
 30
0.0
 42
  0.0985
 0
VERTEX
 8
PARTS
 10
  2.4788
 20
  3.4212
 30
0.0
 42
  0.0985
 0
VERTEX
 8
PARTS
 10
  2.4723
 20
  3.4115
 30
0.0
 42
  0.0985
 0
VERTEX
 8
PARTS
 10
  2.4700
 20
  3.4000
 30
0.0
 42
  0.0985
 0
VERTEX
 8
PARTS
 10
  2.4723
 20
  3.3885
 30
0.0
 42
  0.0985
 0
VERTEX
 8
PARTS
 10
  2.4788
 20
  3.3788
 30
0.0
 42
  0.0985
 0
VERTEX
 8
PARTS
 10
  2.4885
 20
  3.3723
 30
0.0
 42
  0.0985
 0
VERTEX
 8
PARTS
 10
  2.5000
 20
  3.3700
 30
0.0
 42
  0.0985
 0
VERTEX
 8
PARTS
 10
  2.5115
 20
  3.3723
 30
0.0
 42
  0.0985
 0
VERTEX
 8
PARTS
 10
  2.5212
 20
  3.3788
 30
0.0
 42
  0.0985
 0
VERTEX
 8
PARTS
 10
  2.5277
 20
  3.3885
 30
0.0
 42
  0.0985
 0
SEQEND
 8
PARTS
 0
POLYLINE
 8
PARTS
 66
1
 70
1
 10
0.0
 20
0.0
 30
0.0
 0
VERTEX
 8
PARTS
 10
  2.5300
 20
  3.2000
 30
0.0
 42
  0.0985
 0
VERTEX
 8
PARTS
 10
  2.5277
 20
  3.2115
 30
0.0
 42
  0.0985
 0
VERTEX
 8
PARTS
 10
  2.5212
 20
  3.2212
 30
0.0
 42
  0.0985
 0
VERTEX
 8
PARTS
 10
  2.5115
 20
  3.2277
 30
0.0
 42
  0.0985
 0
VERTEX
 8
PARTS
 10
  2.5000
 20
  3.2300
 30
0.0
 42
  0.0985
 0
VERTEX
 8
PARTS
 10
  2.4885
 20
  3.2277
 30
0.0
 42
  0.0985
 0
VERTEX
 8
PARTS
 10
  2.4788
 20
  3.2212
 30
0.0
 42
  0.0985
 0
VERTEX
 8
PARTS
 10
  2.4723
 20
  3.2115
 30
0.0
 42
  0.0985
 0
VERTEX
 8
PARTS
 10
  2.4700
 20
  3.2000
 30
0.0
 42
  0.0985
 0
VERTEX
 8
PARTS
 10
  2.4723
 20
  3.1885
 30
0.0
 42
  0.0985
 0
VERTEX
 8
PARTS
 10
  2.4788
 20
  3.1788
 30
0.0
 42
  0.0985
 0
VERTEX
 8
PARTS
 10
  2.4885
 20
  3.1723
 30
0.0
 42
  0.0985
 0
VERTEX
 8
PARTS
 10
  2.5000
 20
  3.1700
 30
0.0
 42
  0.0985
 0
VERTEX
 8
PARTS
 10
  2.5115
 20
  3.1723
 30
0.0
 42
  0.0985
 0
VERTEX
 8
PARTS
 10
  2.5212
 20
  3.1788
 30
0.0
 42
  0.0985
 0
VERTEX
 8
PARTS
 10
  2.5277
 20
  3.1885
 30
0.0
 42
  0.0985
 0
SEQEND
 8
PARTS
 0
POLYLINE
 8
PARTS
 66
1
 70
1
 10
0.0
 20
0.0
 30
0.0
 0
VERTEX
 8
PARTS
 10
  2.5300
 20
  3.0000
 30
0.0
 42
  0.0985
 0
VERTEX
 8
PARTS
 10
  2.5277
 20
  3.0115
 30
0.0
 42
  0.0985
 0
VERTEX
 8
PARTS
 10
  2.5212
 20
  3.0212
 30
0.0
 42
  0.0985
 0
VERTEX
 8
PARTS
 10
  2.5115
 20
  3.0277
 30
0.0
 42
  0.0985
 0
VERTEX
 8
PARTS
 10
  2.5000
 20
  3.0300
 30
0.0
 42
  0.0985
 0
VERTEX
 8
PARTS
 10
  2.4885
 20
  3.0277
 30
0.0
 42
  0.0985
 0
VERTEX
 8
PARTS
 10
  2.4788
 20
  3.0212
 30
0.0
 42
  0.0985
 0
VERTEX
 8
PARTS
 10
  2.4723
 20
  3.0115
 30
0.0
 42
  0.0985
 0
VERTEX
 8
PARTS
 10
  2.4700
 20
  3.0000
 30
0.0
 42
  0.0985
 0
VERTEX
 8
PARTS
 10
  2.4723
 20
  2.9885
 30
0.0
 42
  0.0985
 0
VERTEX
 8
PARTS
 10
  2.4788
 20
  2.9788
 30
0.0
 42
  0.0985
 0
VERTEX
 8
PARTS
 10
  2.4885
 20
  2.9723
 30
0.0
 42
  0.0985
 0
VERTEX
 8
PARTS
 10
  2.5000
 20
  2.9700
 30
0.0
 42
  0.0985
 0
VERTEX
 8
PARTS
 10
  2.5115
 20
  2.9723
 30
0.0
 42
  0.0985
 0
VERTEX
 8
PARTS
 10
  2.5212
 20
  2.9788
 30
0.0
 42
  0.0985
 0
VERTEX
 8
PARTS
 10
  2.5277
 20
  2.9885
 30
0.0
 42
  0.0985
 0
SEQEND
 8
PARTS
 0
TEXT
 8
PARTTEXT
 10
  7.2500
 20
  5.3086
 30
0.0
 40
  0.0514
 1
JP1
 0
TEXT
 8
PARTTEXT
 10
  7.2500
 20
  3.9086
 30
0.0
 40
  0.0514
 1
12 HEADER
 0
CIRCLE
 8
PARTS
 10
  7.1700
 20
  5.2000
 30
0.0
 40
  0.0300
 0
LINE
 8
PARTS
 10
  6.9000
 20
  5.2000
 30
0.0
 11
  7.1400
 21
  5.2000
 31
0.0
 0
TEXT
 8
PARTS
 10
  7.2900
 20
  5.1750
 30
0.0
 40
  0.0500
 1
1
 0
TEXT
 8
PARTS
 10
  7.1400
 20
  5.2300
 30
0.0
 40
  0.0500
 1

 0
CIRCLE
 8
PARTS
 10
  7.1700
 20
  5.1000
 30
0.0
 40
  0.0300
 0
LINE
 8
PARTS
 10
  6.9000
 20
  5.1000
 30
0.0
 11
  7.1400
 21
  5.1000
 31
0.0
 0
TEXT
 8
PARTS
 10
  7.2900
 20
  5.0750
 30
0.0
 40
  0.0500
 1
2
 0
TEXT
 8
PARTS
 10
  7.1400
 20
  5.1300
 30
0.0
 40
  0.0500
 1

 0
CIRCLE
 8
PARTS
 10
  7.1700
 20
  5.0000
 30
0.0
 40
  0.0300
 0
LINE
 8
PARTS
 10
  6.9000
 20
  5.0000
 30
0.0
 11
  7.1400
 21
  5.0000
 31
0.0
 0
TEXT
 8
PARTS
 10
  7.2900
 20
  4.9750
 30
0.0
 40
  0.0500
 1
3
 0
TEXT
 8
PARTS
 10
  7.1400
 20
  5.0300
 30
0.0
 40
  0.0500
 1

 0
CIRCLE
 8
PARTS
 10
  7.1700
 20
  4.9000
 30
0.0
 40
  0.0300
 0
LINE
 8
PARTS
 10
  6.9000
 20
  4.9000
 30
0.0
 11
  7.1400
 21
  4.9000
 31
0.0
 0
TEXT
 8
PARTS
 10
  7.2900
 20
  4.8750
 30
0.0
 40
  0.0500
 1
4
 0
TEXT
 8
PARTS
 10
  7.1400
 20
  4.9300
 30
0.0
 40
  0.0500
 1

 0
CIRCLE
 8
PARTS
 10
  7.1700
 20
  4.8000
 30
0.0
 40
  0.0300
 0
LINE
 8
PARTS
 10
  6.9000
 20
  4.8000
 30
0.0
 11
  7.1400
 21
  4.8000
 31
0.0
 0
TEXT
 8
PARTS
 10
  7.2900
 20
  4.7750
 30
0.0
 40
  0.0500
 1
5
 0
TEXT
 8
PARTS
 10
  7.1400
 20
  4.8300
 30
0.0
 40
  0.0500
 1

 0
CIRCLE
 8
PARTS
 10
  7.1700
 20
  4.7000
 30
0.0
 40
  0.0300
 0
LINE
 8
PARTS
 10
  6.9000
 20
  4.7000
 30
0.0
 11
  7.1400
 21
  4.7000
 31
0.0
 0
TEXT
 8
PARTS
 10
  7.2900
 20
  4.6750
 30
0.0
 40
  0.0500
 1
6
 0
TEXT
 8
PARTS
 10
  7.1400
 20
  4.7300
 30
0.0
 40
  0.0500
 1

 0
CIRCLE
 8
PARTS
 10
  7.1700
 20
  4.6000
 30
0.0
 40
  0.0300
 0
LINE
 8
PARTS
 10
  6.9000
 20
  4.6000
 30
0.0
 11
  7.1400
 21
  4.6000
 31
0.0
 0
TEXT
 8
PARTS
 10
  7.2900
 20
  4.5750
 30
0.0
 40
  0.0500
 1
7
 0
TEXT
 8
PARTS
 10
  7.1400
 20
  4.6300
 30
0.0
 40
  0.0500
 1

 0
CIRCLE
 8
PARTS
 10
  7.1700
 20
  4.5000
 30
0.0
 40
  0.0300
 0
LINE
 8
PARTS
 10
  6.9000
 20
  4.5000
 30
0.0
 11
  7.1400
 21
  4.5000
 31
0.0
 0
TEXT
 8
PARTS
 10
  7.2900
 20
  4.4750
 30
0.0
 40
  0.0500
 1
8
 0
TEXT
 8
PARTS
 10
  7.1400
 20
  4.5300
 30
0.0
 40
  0.0500
 1

 0
CIRCLE
 8
PARTS
 10
  7.1700
 20
  4.4000
 30
0.0
 40
  0.0300
 0
LINE
 8
PARTS
 10
  6.9000
 20
  4.4000
 30
0.0
 11
  7.1400
 21
  4.4000
 31
0.0
 0
TEXT
 8
PARTS
 10
  7.2900
 20
  4.3750
 30
0.0
 40
  0.0500
 1
9
 0
TEXT
 8
PARTS
 10
  7.1400
 20
  4.4300
 30
0.0
 40
  0.0500
 1

 0
CIRCLE
 8
PARTS
 10
  7.1700
 20
  4.3000
 30
0.0
 40
  0.0300
 0
LINE
 8
PARTS
 10
  6.9000
 20
  4.3000
 30
0.0
 11
  7.1400
 21
  4.3000
 31
0.0
 0
TEXT
 8
PARTS
 10
  7.2900
 20
  4.2750
 30
0.0
 40
  0.0500
 1
10
 0
TEXT
 8
PARTS
 10
  7.1400
 20
  4.3300
 30
0.0
 40
  0.0500
 1

 0
CIRCLE
 8
PARTS
 10
  7.1700
 20
  4.2000
 30
0.0
 40
  0.0300
 0
LINE
 8
PARTS
 10
  6.9000
 20
  4.2000
 30
0.0
 11
  7.1400
 21
  4.2000
 31
0.0
 0
TEXT
 8
PARTS
 10
  7.2900
 20
  4.1750
 30
0.0
 40
  0.0500
 1
11
 0
TEXT
 8
PARTS
 10
  7.1400
 20
  4.2300
 30
0.0
 40
  0.0500
 1

 0
CIRCLE
 8
PARTS
 10
  7.1700
 20
  4.1000
 30
0.0
 40
  0.0300
 0
LINE
 8
PARTS
 10
  6.9000
 20
  4.1000
 30
0.0
 11
  7.1400
 21
  4.1000
 31
0.0
 0
TEXT
 8
PARTS
 10
  7.2900
 20
  4.0750
 30
0.0
 40
  0.0500
 1
12
 0
TEXT
 8
PARTS
 10
  7.1400
 20
  4.1300
 30
0.0
 40
  0.0500
 1

 0
POLYLINE
 8
PARTS
 66
1
 70
1
 10
0.0
 20
0.0
 30
0.0
 0
VERTEX
 8
PARTS
 10
  7.2000
 20
  5.3000
 30
0.0
 0
VERTEX
 8
PARTS
 10
  7.5000
 20
  5.3000
 30
0.0
 0
VERTEX
 8
PARTS
 10
  7.5000
 20
  4.0000
 30
0.0
 0
VERTEX
 8
PARTS
 10
  7.2000
 20
  4.0000
 30
0.0
 0
SEQEND
 8
PARTS
 0
TEXT
 8
PARTTEXT
 10
  5.7000
 20
  3.3186
 30
0.0
 40
  0.0514
 1
R1
 0
TEXT
 8
PARTTEXT
 10
  5.7000
 20
  3.2186
 30
0.0
 40
  0.0514
 1
100k
 0
LINE
 8
PARTS
 10
  5.6000
 20
  3.6000
 30
0.0
 11
  5.6000
 21
  3.5000
 31
0.0
 0
LINE
 8
PARTS
 10
  5.6000
 20
  3.1000
 30
0.0
 11
  5.6000
 21
  3.2000
 31
0.0
 0
POLYLINE
 8
PARTS
 66
1
 10
0.0
 20
0.0
 30
0.0
 0
VERTEX
 8
PARTS
 10
  5.6000
 20
  3.5000
 30
0.0
 0
VERTEX
 8
PARTS
 10
  5.6300
 20
  3.4700
 30
0.0
 0
SEQEND
 8
PARTS
 0
POLYLINE
 8
PARTS
 66
1
 10
0.0
 20
0.0
 30
0.0
 0
VERTEX
 8
PARTS
 10
  5.6300
 20
  3.4700
 30
0.0
 0
VERTEX
 8
PARTS
 10
  5.5700
 20
  3.4100
 30
0.0
 0
SEQEND
 8
PARTS
 0
POLYLINE
 8
PARTS
 66
1
 10
0.0
 20
0.0
 30
0.0
 0
VERTEX
 8
PARTS
 10
  5.5700
 20
  3.4100
 30
0.0
 0
VERTEX
 8
PARTS
 10
  5.6300
 20
  3.3500
 30
0.0
 0
SEQEND
 8
PARTS
 0
POLYLINE
 8
PARTS
 66
1
 10
0.0
 20
0.0
 30
0.0
 0
VERTEX
 8
PARTS
 10
  5.6300
 20
  3.3500
 30
0.0
 0
VERTEX
 8
PARTS
 10
  5.5700
 20
  3.2900
 30
0.0
 0
SEQEND
 8
PARTS
 0
POLYLINE
 8
PARTS
 66
1
 10
0.0
 20
0.0
 30
0.0
 0
VERTEX
 8
PARTS
 10
  5.5700
 20
  3.2900
 30
0.0
 0
VERTEX
 8
PARTS
 10
  5.6300
 20
  3.2300
 30
0.0
 0
SEQEND
 8
PARTS
 0
POLYLINE
 8
PARTS
 66
1
 10
0.0
 20
0.0
 30
0.0
 0
VERTEX
 8
PARTS
 10
  5.6300
 20
  3.2300
 30
0.0
 0
VERTEX
 8
PARTS
 10
  5.6000
 20
  3.2000
 30
0.0
 0
SEQEND
 8
PARTS
 0
TEXT
 8
PARTTEXT
 10
  5.7000
 20
  3.8186
 30
0.0
 40
  0.0514
 1
C1
 0
TEXT
 8
PARTTEXT
 10
  5.7000
 20
  3.7186
 30
0.0
 40
  0.0514
 1
100nF
 0
LINE
 8
PARTS
 10
  5.6000
 20
  3.7000
 30
0.0
 11
  5.6000
 21
  3.8000
 31
0.0
 0
LINE
 8
PARTS
 10
  5.6000
 20
  4.0000
 30
0.0
 11
  5.6000
 21
  3.9000
 31
0.0
 0
POLYLINE
 8
PARTS
 66
1
 10
0.0
 20
0.0
 30
0.0
 0
VERTEX
 8
PARTS
 10
  5.5000
 20
  3.8000
 30
0.0
 0
VERTEX
 8
PARTS
 10
  5.7000
 20
  3.8000
 30
0.0
 0
SEQEND
 8
PARTS
 0
POLYLINE
 8
PARTS
 66
1
 10
0.0
 20
0.0
 30
0.0
 0
VERTEX
 8
PARTS
 10
  5.6000
 20
  3.8400
 30
0.0
 0
VERTEX
 8
PARTS
 10
  5.6000
 20
  3.9000
 30
0.0
 0
SEQEND
 8
PARTS
 0
POLYLINE
 8
PARTS
 66
1
 10
0.0
 20
0.0
 30
0.0
 0
VERTEX
 8
PARTS
 10
  5.6000
 20
  3.8400
 30
0.0
 42
  0.1654
 0
VERTEX
 8
PARTS
 10
  5.7000
 20
  3.8700
 30
0.0
 0
SEQEND
 8
PARTS
 0
POLYLINE
 8
PARTS
 66
1
 10
0.0
 20
0.0
 30
0.0
 0
VERTEX
 8
PARTS
 10
  5.5000
 20
  3.8700
 30
0.0
 42
  0.1654
 0
VERTEX
 8
PARTS
 10
  5.6000
 20
  3.8400
 30
0.0
 0
SEQEND
 8
PARTS
 0
TEXT
 8
PARTTEXT
 10
  6.3000
 20
  4.3186
 30
0.0
 40
  0.0514
 1
D1
 0
TEXT
 8
PARTTEXT
 10
  6.3000
 20
  4.2186
 30
0.0
 40
  0.0514
 1
1N4148
 0
LINE
 8
PARTS
 10
  6.2000
 20
  4.5000
 30
0.0
 11
  6.2000
 21
  4.4000
 31
0.0
 0
LINE
 8
PARTS
 10
  6.2000
 20
  4.0000
 30
0.0
 11
  6.2000
 21
  4.1000
 31
0.0
 0
POLYLINE
 8
PARTS
 66
1
 10
0.0
 20
0.0
 30
0.0
 0
VERTEX
 8
PARTS
 10
  6.1300
 20
  4.2000
 30
0.0
 0
VERTEX
 8
PARTS
 10
  6.2700
 20
  4.2000
 30
0.0
 0
SEQEND
 8
PARTS
 0
POLYLINE
 8
PARTS
 66
1
 10
0.0
 20
0.0
 30
0.0
 0
VERTEX
 8
PARTS
 10
  6.2000
 20
  4.4000
 30
0.0
 0
VERTEX
 8
PARTS
 10
  6.2000
 20
  4.3000
 30
0.0
 0
SEQEND
 8
PARTS
 0
POLYLINE
 8
PARTS
 66
1
 10
0.0
 20
0.0
 30
0.0
 0
VERTEX
 8
PARTS
 10
  6.2000
 20
  4.2000
 30
0.0
 0
VERTEX
 8
PARTS
 10
  6.2000
 20
  4.1000
 30
0.0
 0
SEQEND
 8
PARTS
 0
POLYLINE
 8
PARTS
 66
1
 70
1
 10
0.0
 20
0.0
 30
0.0
 0
VERTEX
 8
PARTS
 10
  6.2000
 20
  4.2000
 30
0.0
 0
VERTEX
 8
PARTS
 10
  6.2000
 20
  4.2000
 30
0.0
 0
VERTEX
 8
PARTS
 10
  6.2700
 20
  4.3000
 30
0.0
 0
VERTEX
 8
PARTS
 10
  6.1300
 20
  4.3000
 30
0.0
 0
VERTEX
 8
PARTS
 10
  6.2000
 20
  4.2000
 30
0.0
 0
SEQEND
 8
PARTS
 0
TEXT
 8
PARTTEXT
 10
  4.7000
 20
  3.7186
 30
0.0
 40
  0.0514
 1
74HC244
 0
TEXT
 8
PARTTEXT
 10
  4.7000
 20
  5.3186
 30
0.0
 40
  0.0514
 1
U1
 0
LINE
 8
PARTS
 10
  5.6000
 20
  4.4000
 30
0.0
 11
  5.3000
 21
  4.4000
 31
0.0
 0
TEXT
 8
PARTS
 10
  5.0900
 20
  4.3750
 30
0.0
 40
  0.0500
 1
2Y4
 0
TEXT
 8
PARTS
 10
  5.3600
 20
  4.4300
 30
0.0
 40
  0.0500
 1
3
 0
LINE
 8
PARTS
 10
  5.6000
 20
  4.5000
 30
0.0
 11
  5.3000
 21
  4.5000
 31
0.0
 0
TEXT
 8
PARTS
 10
  5.0900
 20
  4.4750
 30
0.0
 40
  0.0500
 1
2Y3
 0
TEXT
 8
PARTS
 10
  5.3600
 20
  4.5300
 30
0.0
 40
  0.0500
 1
5
 0
LINE
 8
PARTS
 10
  5.6000
 20
  4.6000
 30
0.0
 11
  5.3000
 21
  4.6000
 31
0.0
 0
TEXT
 8
PARTS
 10
  5.0900
 20
  4.5750
 30
0.0
 40
  0.0500
 1
2Y2
 0
TEXT
 8
PARTS
 10
  5.3600
 20
  4.6300
 30
0.0
 40
  0.0500
 1
7
 0
LINE
 8
PARTS
 10
  5.6000
 20
  4.7000
 30
0.0
 11
  5.3000
 21
  4.7000
 31
0.0
 0
TEXT
 8
PARTS
 10
  5.0900
 20
  4.6750
 30
0.0
 40
  0.0500
 1
2Y1
 0
TEXT
 8
PARTS
 10
  5.3600
 20
  4.7300
 30
0.0
 40
  0.0500
 1
9
 0
LINE
 8
PARTS
 10
  5.6000
 20
  4.9000
 30
0.0
 11
  5.3000
 21
  4.9000
 31
0.0
 0
TEXT
 8
PARTS
 10
  5.0900
 20
  4.8750
 30
0.0
 40
  0.0500
 1
1Y4
 0
TEXT
 8
PARTS
 10
  5.3600
 20
  4.9300
 30
0.0
 40
  0.0500
 1
12
 0
LINE
 8
PARTS
 10
  5.6000
 20
  5.0000
 30
0.0
 11
  5.3000
 21
  5.0000
 31
0.0
 0
TEXT
 8
PARTS
 10
  5.0900
 20
  4.9750
 30
0.0
 40
  0.0500
 1
1Y3
 0
TEXT
 8
PARTS
 10
  5.3600
 20
  5.0300
 30
0.0
 40
  0.0500
 1
14
 0
LINE
 8
PARTS
 10
  5.6000
 20
  5.1000
 30
0.0
 11
  5.3000
 21
  5.1000
 31
0.0
 0
TEXT
 8
PARTS
 10
  5.0900
 20
  5.0750
 30
0.0
 40
  0.0500
 1
1Y2
 0
TEXT
 8
PARTS
 10
  5.3600
 20
  5.1300
 30
0.0
 40
  0.0500
 1
16
 0
LINE
 8
PARTS
 10
  5.6000
 20
  5.2000
 30
0.0
 11
  5.3000
 21
  5.2000
 31
0.0
 0
TEXT
 8
PARTS
 10
  5.0900
 20
  5.1750
 30
0.0
 40
  0.0500
 1
1Y1
 0
TEXT
 8
PARTS
 10
  5.3600
 20
  5.2300
 30
0.0
 40
  0.0500
 1
18
 0
LINE
 8
PARTS
 10
  4.4000
 20
  4.4000
 30
0.0
 11
  4.7000
 21
  4.4000
 31
0.0
 0
TEXT
 8
PARTS
 10
  4.7900
 20
  4.3750
 30
0.0
 40
  0.0500
 1
2A4
 0
TEXT
 8
PARTS
 10
  4.5600
 20
  4.4300
 30
0.0
 40
  0.0500
 1
17
 0
LINE
 8
PARTS
 10
  4.4000
 20
  4.5000
 30
0.0
 11
  4.7000
 21
  4.5000
 31
0.0
 0
TEXT
 8
PARTS
 10
  4.7900
 20
  4.4750
 30
0.0
 40
  0.0500
 1
2A3
 0
TEXT
 8
PARTS
 10
  4.5600
 20
  4.5300
 30
0.0
 40
  0.0500
 1
15
 0
LINE
 8
PARTS
 10
  4.4000
 20
  4.6000
 30
0.0
 11
  4.7000
 21
  4.6000
 31
0.0
 0
TEXT
 8
PARTS
 10
  4.7900
 20
  4.5750
 30
0.0
 40
  0.0500
 1
2A2
 0
TEXT
 8
PARTS
 10
  4.5600
 20
  4.6300
 30
0.0
 40
  0.0500
 1
13
 0
LINE
 8
PARTS
 10
  4.4000
 20
  4.7000
 30
0.0
 11
  4.7000
 21
  4.7000
 31
0.0
 0
TEXT
 8
PARTS
 10
  4.7900
 20
  4.6750
 30
0.0
 40
  0.0500
 1
2A1
 0
TEXT
 8
PARTS
 10
  4.5600
 20
  4.7300
 30
0.0
 40
  0.0500
 1
11
 0
LINE
 8
PARTS
 10
  4.4000
 20
  4.9000
 30
0.0
 11
  4.7000
 21
  4.9000
 31
0.0
 0
TEXT
 8
PARTS
 10
  4.7900
 20
  4.8750
 30
0.0
 40
  0.0500
 1
1A4
 0
TEXT
 8
PARTS
 10
  4.6000
 20
  4.9300
 30
0.0
 40
  0.0500
 1
8
 0
LINE
 8
PARTS
 10
  4.4000
 20
  5.0000
 30
0.0
 11
  4.7000
 21
  5.0000
 31
0.0
 0
TEXT
 8
PARTS
 10
  4.7900
 20
  4.9750
 30
0.0
 40
  0.0500
 1
1A3
 0
TEXT
 8
PARTS
 10
  4.6000
 20
  5.0300
 30
0.0
 40
  0.0500
 1
6
 0
LINE
 8
PARTS
 10
  4.4000
 20
  5.1000
 30
0.0
 11
  4.7000
 21
  5.1000
 31
0.0
 0
TEXT
 8
PARTS
 10
  4.7900
 20
  5.0750
 30
0.0
 40
  0.0500
 1
1A2
 0
TEXT
 8
PARTS
 10
  4.6000
 20
  5.1300
 30
0.0
 40
  0.0500
 1
4
 0
LINE
 8
PARTS
 10
  4.4000
 20
  5.2000
 30
0.0
 11
  4.7000
 21
  5.2000
 31
0.0
 0
TEXT
 8
PARTS
 10
  4.7900
 20
  5.1750
 30
0.0
 40
  0.0500
 1
1A1
 0
TEXT
 8
PARTS
 10
  4.6000
 20
  5.2300
 30
0.0
 40
  0.0500
 1
2
 0
LINE
 8
PARTS
 10
  4.4000
 20
  3.9000
 30
0.0
 11
  4.7000
 21
  3.9000
 31
0.0
 0
TEXT
 8
PARTS
 10
  4.7900
 20
  3.8750
 30
0.0
 40
  0.0500
 1
VCC
 0
TEXT
 8
PARTS
 10
  4.5600
 20
  3.9300
 30
0.0
 40
  0.0500
 1
20
 0
LINE
 8
PARTS
 10
  4.4000
 20
  4.1000
 30
0.0
 11
  4.7000
 21
  4.1000
 31
0.0
 0
TEXT
 8
PARTS
 10
  4.7900
 20
  4.0750
 30
0.0
 40
  0.0500
 1
2%%oOE%%o
 0
TEXT
 8
PARTS
 10
  4.5600
 20
  4.1300
 30
0.0
 40
  0.0500
 1
19
 0
LINE
 8
PARTS
 10
  4.4000
 20
  4.2000
 30
0.0
 11
  4.7000
 21
  4.2000
 31
0.0
 0
TEXT
 8
PARTS
 10
  4.7900
 20
  4.1750
 30
0.0
 40
  0.0500
 1
1%%oOE%%o
 0
TEXT
 8
PARTS
 10
  4.6000
 20
  4.2300
 30
0.0
 40
  0.0500
 1
1
 0
POLYLINE
 8
PARTS
 66
1
 70
1
 10
0.0
 20
0.0
 30
0.0
 0
VERTEX
 8
PARTS
 10
  4.7000
 20
  5.3000
 30
0.0
 0
VERTEX
 8
PARTS
 10
  5.3000
 20
  5.3000
 30
0.0
 0
VERTEX
 8
PARTS
 10
  5.3000
 20
  3.8000
 30
0.0
 0
VERTEX
 8
PARTS
 10
  4.7000
 20
  3.8000
 30
0.0
 0
SEQEND
 8
PARTS
 0
TEXT
 8
PARTTEXT
 10
  6.5000
 20
  3.2186
 30
0.0
 40
  0.0514
 1
D2
 0
TEXT
 8
PARTTEXT
 10
  6.5000
 20
  3.1186
 30
0.0
 40
  0.0514
 1
LED
 0
LINE
 8
PARTS
 10
  6.4000
 20
  3.5000
 30
0.0
 11
  6.4000
 21
  3.4000
 31
0.0
 0
LINE
 8
PARTS
 10
  6.4000
 20
  2.9000
 30
0.0
 11
  6.4000
 21
  3.0000
 31
0.0
 0
POLYLINE
 8
PARTS
 66
1
 10
0.0
 20
0.0
 30
0.0
 0
VERTEX
 8
PARTS
 10
  6.3300
 20
  3.2000
 30
0.0
 0
VERTEX
 8
PARTS
 10
  6.4700
 20
  3.2000
 30
0.0
 0
SEQEND
 8
PARTS
 0
POLYLINE
 8
PARTS
 66
1
 10
0.0
 20
0.0
 30
0.0
 0
VERTEX
 8
PARTS
 10
  6.4000
 20
  3.4000
 30
0.0
 0
VERTEX
 8
PARTS
 10
  6.4000
 20
  3.3000
 30
0.0
 0
SEQEND
 8
PARTS
 0
POLYLINE
 8
PARTS
 66
1
 10
0.0
 20
0.0
 30
0.0
 0
VERTEX
 8
PARTS
 10
  6.4000
 20
  3.2000
 30
0.0
 0
VERTEX
 8
PARTS
 10
  6.4000
 20
  3.0000
 30
0.0
 0
SEQEND
 8
PARTS
 0
POLYLINE
 8
PARTS
 66
1
 70
1
 10
0.0
 20
0.0
 30
0.0
 0
VERTEX
 8
PARTS
 10
  6.4000
 20
  3.2000
 30
0.0
 0
VERTEX
 8
PARTS
 10
  6.4000
 20
  3.2000
 30
0.0
 0
VERTEX
 8
PARTS
 10
  6.4700
 20
  3.3000
 30
0.0
 0
VERTEX
 8
PARTS
 10
  6.3300
 20
  3.3000
 30
0.0
 0
VERTEX
 8
PARTS
 10
  6.4000
 20
  3.2000
 30
0.0
 0
SEQEND
 8
PARTS
 0
POLYLINE
 8
PARTS
 66
1
 70
1
 10
0.0
 20
0.0
 30
0.0
 0
VERTEX
 8
PARTS
 10
  6.3200
 20
  3.0800
 30
0.0
 0
VERTEX
 8
PARTS
 10
  6.3200
 20
  3.0800
 30
0.0
 0
VERTEX
 8
PARTS
 10
  6.3000
 20
  3.0400
 30
0.0
 0
VERTEX
 8
PARTS
 10
  6.3400
 20
  3.0600
 30
0.0
 0
VERTEX
 8
PARTS
 10
  6.3200
 20
  3.0800
 30
0.0
 0
SEQEND
 8
PARTS
 0
POLYLINE
 8
PARTS
 66
1
 70
1
 10
0.0
 20
0.0
 30
0.0
 0
VERTEX
 8
PARTS
 10
  6.3200
 20
  3.1400
 30
0.0
 0
VERTEX
 8
PARTS
 10
  6.3200
 20
  3.1400
 30
0.0
 0
VERTEX
 8
PARTS
 10
  6.3000
 20
  3.1000
 30
0.0
 0
VERTEX
 8
PARTS
 10
  6.3400
 20
  3.1200
 30
0.0
 0
VERTEX
 8
PARTS
 10
  6.3200
 20
  3.1400
 30
0.0
 0
SEQEND
 8
PARTS
 0
POLYLINE
 8
PARTS
 66
1
 10
0.0
 20
0.0
 30
0.0
 0
VERTEX
 8
PARTS
 10
  6.3100
 20
  3.1100
 30
0.0
 0
VERTEX
 8
PARTS
 10
  6.3700
 20
  3.1700
 30
0.0
 0
SEQEND
 8
PARTS
 0
POLYLINE
 8
PARTS
 66
1
 10
0.0
 20
0.0
 30
0.0
 0
VERTEX
 8
PARTS
 10
  6.3100
 20
  3.0500
 30
0.0
 0
VERTEX
 8
PARTS
 10
  6.3700
 20
  3.1100
 30
0.0
 0
SEQEND
 8
PARTS
 0
TEXT
 8
PARTTEXT
 10
  6.5000
 20
  3.7186
 30
0.0
 40
  0.0514
 1
R1
 0
TEXT
 8
PARTTEXT
 10
  6.5000
 20
  3.6186
 30
0.0
 40
  0.0514
 1
1k
 0
LINE
 8
PARTS
 10
  6.4000
 20
  4.0000
 30
0.0
 11
  6.4000
 21
  3.9000
 31
0.0
 0
LINE
 8
PARTS
 10
  6.4000
 20
  3.5000
 30
0.0
 11
  6.4000
 21
  3.6000
 31
0.0
 0
POLYLINE
 8
PARTS
 66
1
 10
0.0
 20
0.0
 30
0.0
 0
VERTEX
 8
PARTS
 10
  6.4000
 20
  3.9000
 30
0.0
 0
VERTEX
 8
PARTS
 10
  6.4300
 20
  3.8700
 30
0.0
 0
SEQEND
 8
PARTS
 0
POLYLINE
 8
PARTS
 66
1
 10
0.0
 20
0.0
 30
0.0
 0
VERTEX
 8
PARTS
 10
  6.4300
 20
  3.8700
 30
0.0
 0
VERTEX
 8
PARTS
 10
  6.3700
 20
  3.8100
 30
0.0
 0
SEQEND
 8
PARTS
 0
POLYLINE
 8
PARTS
 66
1
 10
0.0
 20
0.0
 30
0.0
 0
VERTEX
 8
PARTS
 10
  6.3700
 20
  3.8100
 30
0.0
 0
VERTEX
 8
PARTS
 10
  6.4300
 20
  3.7500
 30
0.0
 0
SEQEND
 8
PARTS
 0
POLYLINE
 8
PARTS
 66
1
 10
0.0
 20
0.0
 30
0.0
 0
VERTEX
 8
PARTS
 10
  6.4300
 20
  3.7500
 30
0.0
 0
VERTEX
 8
PARTS
 10
  6.3700
 20
  3.6900
 30
0.0
 0
SEQEND
 8
PARTS
 0
POLYLINE
 8
PARTS
 66
1
 10
0.0
 20
0.0
 30
0.0
 0
VERTEX
 8
PARTS
 10
  6.3700
 20
  3.6900
 30
0.0
 0
VERTEX
 8
PARTS
 10
  6.4300
 20
  3.6300
 30
0.0
 0
SEQEND
 8
PARTS
 0
POLYLINE
 8
PARTS
 66
1
 10
0.0
 20
0.0
 30
0.0
 0
VERTEX
 8
PARTS
 10
  6.4300
 20
  3.6300
 30
0.0
 0
VERTEX
 8
PARTS
 10
  6.4000
 20
  3.6000
 30
0.0
 0
SEQEND
 8
PARTS
 0
POLYLINE
 8
WIRE
 66
1
 10
0.0
 20
0.0
 30
0.0
 0
VERTEX
 8
WIRE
 10
  3.0000
 20
  5.1000
 30
0.0
 0
VERTEX
 8
WIRE
 10
  3.3000
 20
  5.1000
 30
0.0
 0
SEQEND
 8
WIRE
 0
POLYLINE
 8
WIRE
 66
1
 10
0.0
 20
0.0
 30
0.0
 0
VERTEX
 8
WIRE
 10
  3.3000
 20
  5.1000
 30
0.0
 0
VERTEX
 8
WIRE
 10
  3.3000
 20
  3.1000
 30
0.0
 0
SEQEND
 8
WIRE
 0
POLYLINE
 8
WIRE
 66
1
 10
0.0
 20
0.0
 30
0.0
 0
VERTEX
 8
WIRE
 10
  3.0000
 20
  3.1000
 30
0.0
 0
VERTEX
 8
WIRE
 10
  3.3000
 20
  3.1000
 30
0.0
 0
SEQEND
 8
WIRE
 0
POLYLINE
 8
WIRE
 66
1
 10
0.0
 20
0.0
 30
0.0
 0
VERTEX
 8
WIRE
 10
  3.0000
 20
  4.9000
 30
0.0
 0
VERTEX
 8
WIRE
 10
  3.2000
 20
  4.9000
 30
0.0
 0
SEQEND
 8
WIRE
 0
POLYLINE
 8
WIRE
 66
1
 10
0.0
 20
0.0
 30
0.0
 0
VERTEX
 8
WIRE
 10
  3.2000
 20
  4.9000
 30
0.0
 0
VERTEX
 8
WIRE
 10
  3.2000
 20
  3.3000
 30
0.0
 0
SEQEND
 8
WIRE
 0
POLYLINE
 8
WIRE
 66
1
 10
0.0
 20
0.0
 30
0.0
 0
VERTEX
 8
WIRE
 10
  3.0000
 20
  3.3000
 30
0.0
 0
VERTEX
 8
WIRE
 10
  3.2000
 20
  3.3000
 30
0.0
 0
SEQEND
 8
WIRE
 0
POLYLINE
 8
WIRE
 66
1
 10
0.0
 20
0.0
 30
0.0
 0
VERTEX
 8
WIRE
 10
  3.0000
 20
  4.7000
 30
0.0
 0
VERTEX
 8
WIRE
 10
  4.1000
 20
  4.7000
 30
0.0
 0
SEQEND
 8
WIRE
 0
POLYLINE
 8
WIRE
 66
1
 10
0.0
 20
0.0
 30
0.0
 0
VERTEX
 8
WIRE
 10
  4.1000
 20
  4.7000
 30
0.0
 0
VERTEX
 8
WIRE
 10
  4.1000
 20
  4.1000
 30
0.0
 0
SEQEND
 8
WIRE
 0
POLYLINE
 8
WIRE
 66
1
 10
0.0
 20
0.0
 30
0.0
 0
VERTEX
 8
WIRE
 10
  4.1000
 20
  4.1000
 30
0.0
 0
VERTEX
 8
WIRE
 10
  4.4000
 20
  4.1000
 30
0.0
 0
SEQEND
 8
WIRE
 0
POLYLINE
 8
WIRE
 66
1
 10
0.0
 20
0.0
 30
0.0
 0
VERTEX
 8
WIRE
 10
  3.0000
 20
  4.5000
 30
0.0
 0
VERTEX
 8
WIRE
 10
  4.0000
 20
  4.5000
 30
0.0
 0
SEQEND
 8
WIRE
 0
POLYLINE
 8
WIRE
 66
1
 10
0.0
 20
0.0
 30
0.0
 0
VERTEX
 8
WIRE
 10
  4.0000
 20
  4.5000
 30
0.0
 0
VERTEX
 8
WIRE
 10
  4.0000
 20
  4.2000
 30
0.0
 0
SEQEND
 8
WIRE
 0
POLYLINE
 8
WIRE
 66
1
 10
0.0
 20
0.0
 30
0.0
 0
VERTEX
 8
WIRE
 10
  4.0000
 20
  4.2000
 30
0.0
 0
VERTEX
 8
WIRE
 10
  4.4000
 20
  4.2000
 30
0.0
 0
SEQEND
 8
WIRE
 0
POLYLINE
 8
WIRE
 66
1
 10
0.0
 20
0.0
 30
0.0
 0
VERTEX
 8
WIRE
 10
  3.0000
 20
  4.3000
 30
0.0
 0
VERTEX
 8
WIRE
 10
  3.9000
 20
  4.3000
 30
0.0
 0
SEQEND
 8
WIRE
 0
POLYLINE
 8
WIRE
 66
1
 70
1
 10
0.0
 20
0.0
 30
0.0
 40
  0.0200
 41
  0.0200
 0
VERTEX
 8
WIRE
 10
  3.8900
 20
  4.3000
 30
0.0
 42
1.0
 0
VERTEX
 8
WIRE
 10
  3.9100
 20
  4.3000
 30
0.0
 42
1.0
 0
SEQEND
 8
WIRE
 0
POLYLINE
 8
WIRE
 66
1
 10
0.0
 20
0.0
 30
0.0
 0
VERTEX
 8
WIRE
 10
  3.9000
 20
  5.0000
 30
0.0
 0
VERTEX
 8
WIRE
 10
  4.4000
 20
  5.0000
 30
0.0
 0
SEQEND
 8
WIRE
 0
POLYLINE
 8
WIRE
 66
1
 70
1
 10
0.0
 20
0.0
 30
0.0
 40
  0.0200
 41
  0.0200
 0
VERTEX
 8
WIRE
 10
  3.8900
 20
  5.0000
 30
0.0
 42
1.0
 0
VERTEX
 8
WIRE
 10
  3.9100
 20
  5.0000
 30
0.0
 42
1.0
 0
SEQEND
 8
WIRE
 0
POLYLINE
 8
WIRE
 66
1
 10
0.0
 20
0.0
 30
0.0
 0
VERTEX
 8
WIRE
 10
  3.9000
 20
  4.9000
 30
0.0
 0
VERTEX
 8
WIRE
 10
  4.4000
 20
  4.9000
 30
0.0
 0
SEQEND
 8
WIRE
 0
POLYLINE
 8
WIRE
 66
1
 10
0.0
 20
0.0
 30
0.0
 0
VERTEX
 8
WIRE
 10
  3.0000
 20
  4.1000
 30
0.0
 0
VERTEX
 8
WIRE
 10
  3.9000
 20
  4.1000
 30
0.0
 0
SEQEND
 8
WIRE
 0
POLYLINE
 8
WIRE
 66
1
 10
0.0
 20
0.0
 30
0.0
 0
VERTEX
 8
WIRE
 10
  3.9000
 20
  5.2000
 30
0.0
 0
VERTEX
 8
WIRE
 10
  4.4000
 20
  5.2000
 30
0.0
 0
SEQEND
 8
WIRE
 0
POLYLINE
 8
WIRE
 66
1
 10
0.0
 20
0.0
 30
0.0
 0
VERTEX
 8
WIRE
 10
  3.0000
 20
  3.9000
 30
0.0
 0
VERTEX
 8
WIRE
 10
  3.8000
 20
  3.9000
 30
0.0
 0
SEQEND
 8
WIRE
 0
POLYLINE
 8
WIRE
 66
1
 10
0.0
 20
0.0
 30
0.0
 0
VERTEX
 8
WIRE
 10
  3.8000
 20
  5.1000
 30
0.0
 0
VERTEX
 8
WIRE
 10
  3.8000
 20
  3.9000
 30
0.0
 0
SEQEND
 8
WIRE
 0
POLYLINE
 8
WIRE
 66
1
 10
0.0
 20
0.0
 30
0.0
 0
VERTEX
 8
WIRE
 10
  3.8000
 20
  5.1000
 30
0.0
 0
VERTEX
 8
WIRE
 10
  4.4000
 20
  5.1000
 30
0.0
 0
SEQEND
 8
WIRE
 0
POLYLINE
 8
WIRE
 66
1
 10
0.0
 20
0.0
 30
0.0
 0
VERTEX
 8
WIRE
 10
  3.0000
 20
  3.7000
 30
0.0
 0
VERTEX
 8
WIRE
 10
  4.3000
 20
  3.7000
 30
0.0
 0
SEQEND
 8
WIRE
 0
POLYLINE
 8
WIRE
 66
1
 10
0.0
 20
0.0
 30
0.0
 0
VERTEX
 8
WIRE
 10
  4.3000
 20
  4.5000
 30
0.0
 0
VERTEX
 8
WIRE
 10
  4.3000
 20
  4.4000
 30
0.0
 0
SEQEND
 8
WIRE
 0
POLYLINE
 8
WIRE
 66
1
 70
1
 10
0.0
 20
0.0
 30
0.0
 40
  0.0200
 41
  0.0200
 0
VERTEX
 8
WIRE
 10
  4.2900
 20
  4.5000
 30
0.0
 42
1.0
 0
VERTEX
 8
WIRE
 10
  4.3100
 20
  4.5000
 30
0.0
 42
1.0
 0
SEQEND
 8
WIRE
 0
POLYLINE
 8
WIRE
 66
1
 70
1
 10
0.0
 20
0.0
 30
0.0
 40
  0.0200
 41
  0.0200
 0
VERTEX
 8
WIRE
 10
  4.2900
 20
  4.4000
 30
0.0
 42
1.0
 0
VERTEX
 8
WIRE
 10
  4.3100
 20
  4.4000
 30
0.0
 42
1.0
 0
SEQEND
 8
WIRE
 0
POLYLINE
 8
WIRE
 66
1
 10
0.0
 20
0.0
 30
0.0
 0
VERTEX
 8
WIRE
 10
  4.3000
 20
  4.5000
 30
0.0
 0
VERTEX
 8
WIRE
 10
  4.4000
 20
  4.5000
 30
0.0
 0
SEQEND
 8
WIRE
 0
POLYLINE
 8
WIRE
 66
1
 10
0.0
 20
0.0
 30
0.0
 0
VERTEX
 8
WIRE
 10
  4.3000
 20
  4.4000
 30
0.0
 0
VERTEX
 8
WIRE
 10
  4.4000
 20
  4.4000
 30
0.0
 0
SEQEND
 8
WIRE
 0
POLYLINE
 8
WIRE
 66
1
 10
0.0
 20
0.0
 30
0.0
 0
VERTEX
 8
WIRE
 10
  3.0000
 20
  3.5000
 30
0.0
 0
VERTEX
 8
WIRE
 10
  3.6000
 20
  3.5000
 30
0.0
 0
SEQEND
 8
WIRE
 0
POLYLINE
 8
WIRE
 66
1
 10
0.0
 20
0.0
 30
0.0
 0
VERTEX
 8
WIRE
 10
  3.6000
 20
  5.6000
 30
0.0
 0
VERTEX
 8
WIRE
 10
  3.6000
 20
  3.5000
 30
0.0
 0
SEQEND
 8
WIRE
 0
POLYLINE
 8
WIRE
 66
1
 10
0.0
 20
0.0
 30
0.0
 0
VERTEX
 8
WIRE
 10
  3.6000
 20
  5.6000
 30
0.0
 0
VERTEX
 8
WIRE
 10
  5.8000
 20
  5.6000
 30
0.0
 0
SEQEND
 8
WIRE
 0
POLYLINE
 8
WIRE
 66
1
 10
0.0
 20
0.0
 30
0.0
 0
VERTEX
 8
WIRE
 10
  5.8000
 20
  5.6000
 30
0.0
 0
VERTEX
 8
WIRE
 10
  5.8000
 20
  4.7000
 30
0.0
 0
SEQEND
 8
WIRE
 0
POLYLINE
 8
WIRE
 66
1
 10
0.0
 20
0.0
 30
0.0
 0
VERTEX
 8
WIRE
 10
  5.6000
 20
  4.7000
 30
0.0
 0
VERTEX
 8
WIRE
 10
  5.8000
 20
  4.7000
 30
0.0
 0
SEQEND
 8
WIRE
 0
POLYLINE
 8
WIRE
 66
1
 10
0.0
 20
0.0
 30
0.0
 0
VERTEX
 8
WIRE
 10
  3.0000
 20
  4.0000
 30
0.0
 0
VERTEX
 8
WIRE
 10
  3.1000
 20
  4.0000
 30
0.0
 0
SEQEND
 8
WIRE
 0
POLYLINE
 8
WIRE
 66
1
 10
0.0
 20
0.0
 30
0.0
 0
VERTEX
 8
WIRE
 10
  3.1000
 20
  4.0000
 30
0.0
 0
VERTEX
 8
WIRE
 10
  3.1000
 20
  3.8000
 30
0.0
 0
SEQEND
 8
WIRE
 0
POLYLINE
 8
WIRE
 66
1
 70
1
 10
0.0
 20
0.0
 30
0.0
 40
  0.0200
 41
  0.0200
 0
VERTEX
 8
WIRE
 10
  3.0900
 20
  3.8000
 30
0.0
 42
1.0
 0
VERTEX
 8
WIRE
 10
  3.1100
 20
  3.8000
 30
0.0
 42
1.0
 0
SEQEND
 8
WIRE
 0
POLYLINE
 8
WIRE
 66
1
 10
0.0
 20
0.0
 30
0.0
 0
VERTEX
 8
WIRE
 10
  3.0000
 20
  3.8000
 30
0.0
 0
VERTEX
 8
WIRE
 10
  3.1000
 20
  3.8000
 30
0.0
 0
SEQEND
 8
WIRE
 0
POLYLINE
 8
WIRE
 66
1
 10
0.0
 20
0.0
 30
0.0
 0
VERTEX
 8
WIRE
 10
  3.1000
 20
  3.8000
 30
0.0
 0
VERTEX
 8
WIRE
 10
  3.1000
 20
  3.6000
 30
0.0
 0
SEQEND
 8
WIRE
 0
POLYLINE
 8
WIRE
 66
1
 70
1
 10
0.0
 20
0.0
 30
0.0
 40
  0.0200
 41
  0.0200
 0
VERTEX
 8
WIRE
 10
  3.0900
 20
  3.6000
 30
0.0
 42
1.0
 0
VERTEX
 8
WIRE
 10
  3.1100
 20
  3.6000
 30
0.0
 42
1.0
 0
SEQEND
 8
WIRE
 0
POLYLINE
 8
WIRE
 66
1
 10
0.0
 20
0.0
 30
0.0
 0
VERTEX
 8
WIRE
 10
  3.0000
 20
  3.6000
 30
0.0
 0
VERTEX
 8
WIRE
 10
  3.1000
 20
  3.6000
 30
0.0
 0
SEQEND
 8
WIRE
 0
POLYLINE
 8
WIRE
 66
1
 10
0.0
 20
0.0
 30
0.0
 0
VERTEX
 8
WIRE
 10
  3.1000
 20
  3.6000
 30
0.0
 0
VERTEX
 8
WIRE
 10
  3.1000
 20
  3.4000
 30
0.0
 0
SEQEND
 8
WIRE
 0
POLYLINE
 8
WIRE
 66
1
 70
1
 10
0.0
 20
0.0
 30
0.0
 40
  0.0200
 41
  0.0200
 0
VERTEX
 8
WIRE
 10
  3.0900
 20
  3.4000
 30
0.0
 42
1.0
 0
VERTEX
 8
WIRE
 10
  3.1100
 20
  3.4000
 30
0.0
 42
1.0
 0
SEQEND
 8
WIRE
 0
POLYLINE
 8
WIRE
 66
1
 10
0.0
 20
0.0
 30
0.0
 0
VERTEX
 8
WIRE
 10
  3.0000
 20
  3.4000
 30
0.0
 0
VERTEX
 8
WIRE
 10
  3.1000
 20
  3.4000
 30
0.0
 0
SEQEND
 8
WIRE
 0
POLYLINE
 8
WIRE
 66
1
 10
0.0
 20
0.0
 30
0.0
 0
VERTEX
 8
WIRE
 10
  3.1000
 20
  3.4000
 30
0.0
 0
VERTEX
 8
WIRE
 10
  3.1000
 20
  3.2000
 30
0.0
 0
SEQEND
 8
WIRE
 0
POLYLINE
 8
WIRE
 66
1
 10
0.0
 20
0.0
 30
0.0
 0
VERTEX
 8
WIRE
 10
  3.0000
 20
  3.2000
 30
0.0
 0
VERTEX
 8
WIRE
 10
  3.1000
 20
  3.2000
 30
0.0
 0
SEQEND
 8
WIRE
 0
POLYLINE
 8
WIRE
 66
1
 70
1
 10
0.0
 20
0.0
 30
0.0
 40
  0.0200
 41
  0.0200
 0
VERTEX
 8
WIRE
 10
  3.0900
 20
  3.2000
 30
0.0
 42
1.0
 0
VERTEX
 8
WIRE
 10
  3.1100
 20
  3.2000
 30
0.0
 42
1.0
 0
SEQEND
 8
WIRE
 0
POLYLINE
 8
WIRE
 66
1
 10
0.0
 20
0.0
 30
0.0
 0
VERTEX
 8
WIRE
 10
  3.1000
 20
  3.2000
 30
0.0
 0
VERTEX
 8
WIRE
 10
  3.1000
 20
  3.0000
 30
0.0
 0
SEQEND
 8
WIRE
 0
POLYLINE
 8
WIRE
 66
1
 10
0.0
 20
0.0
 30
0.0
 0
VERTEX
 8
WIRE
 10
  3.0000
 20
  3.0000
 30
0.0
 0
VERTEX
 8
WIRE
 10
  3.1000
 20
  3.0000
 30
0.0
 0
SEQEND
 8
WIRE
 0
POLYLINE
 8
WIRE
 66
1
 70
1
 10
0.0
 20
0.0
 30
0.0
 40
  0.0200
 41
  0.0200
 0
VERTEX
 8
WIRE
 10
  3.0900
 20
  3.0000
 30
0.0
 42
1.0
 0
VERTEX
 8
WIRE
 10
  3.1100
 20
  3.0000
 30
0.0
 42
1.0
 0
SEQEND
 8
WIRE
 0
POLYLINE
 8
WIRE
 66
1
 10
0.0
 20
0.0
 30
0.0
 0
VERTEX
 8
WIRE
 10
  3.1000
 20
  3.0000
 30
0.0
 0
VERTEX
 8
WIRE
 10
  3.1000
 20
  2.6000
 30
0.0
 0
SEQEND
 8
WIRE
 0
POLYLINE
 8
WIRE
 66
1
 10
0.0
 20
0.0
 30
0.0
 0
VERTEX
 8
WIRE
 10
  4.3000
 20
  4.4000
 30
0.0
 0
VERTEX
 8
WIRE
 10
  4.3000
 20
  3.7000
 30
0.0
 0
SEQEND
 8
WIRE
 0
POLYLINE
 8
WIRE
 66
1
 10
0.0
 20
0.0
 30
0.0
 0
VERTEX
 8
WIRE
 10
  4.4000
 20
  3.9000
 30
0.0
 0
VERTEX
 8
WIRE
 10
  4.4000
 20
  3.6000
 30
0.0
 0
SEQEND
 8
WIRE
 0
POLYLINE
 8
WIRE
 66
1
 10
0.0
 20
0.0
 30
0.0
 0
VERTEX
 8
WIRE
 10
  5.6000
 20
  4.4000
 30
0.0
 0
VERTEX
 8
WIRE
 10
  5.9000
 20
  4.4000
 30
0.0
 0
SEQEND
 8
WIRE
 0
POLYLINE
 8
WIRE
 66
1
 10
0.0
 20
0.0
 30
0.0
 0
VERTEX
 8
WIRE
 10
  5.6000
 20
  5.0000
 30
0.0
 0
VERTEX
 8
WIRE
 10
  5.7000
 20
  5.0000
 30
0.0
 0
SEQEND
 8
WIRE
 0
POLYLINE
 8
WIRE
 66
1
 10
0.0
 20
0.0
 30
0.0
 0
VERTEX
 8
WIRE
 10
  5.6000
 20
  5.2000
 30
0.0
 0
VERTEX
 8
WIRE
 10
  6.0000
 20
  5.2000
 30
0.0
 0
SEQEND
 8
WIRE
 0
POLYLINE
 8
WIRE
 66
1
 10
0.0
 20
0.0
 30
0.0
 0
VERTEX
 8
WIRE
 10
  4.2000
 20
  3.1000
 30
0.0
 0
VERTEX
 8
WIRE
 10
  5.6000
 20
  3.1000
 30
0.0
 0
SEQEND
 8
WIRE
 0
POLYLINE
 8
WIRE
 66
1
 70
1
 10
0.0
 20
0.0
 30
0.0
 40
  0.0200
 41
  0.0200
 0
VERTEX
 8
WIRE
 10
  5.5900
 20
  3.1000
 30
0.0
 42
1.0
 0
VERTEX
 8
WIRE
 10
  5.6100
 20
  3.1000
 30
0.0
 42
1.0
 0
SEQEND
 8
WIRE
 0
POLYLINE
 8
WIRE
 66
1
 10
0.0
 20
0.0
 30
0.0
 0
VERTEX
 8
WIRE
 10
  4.2000
 20
  4.7000
 30
0.0
 0
VERTEX
 8
WIRE
 10
  4.4000
 20
  4.7000
 30
0.0
 0
SEQEND
 8
WIRE
 0
POLYLINE
 8
WIRE
 66
1
 10
0.0
 20
0.0
 30
0.0
 0
VERTEX
 8
WIRE
 10
  4.3000
 20
  4.6000
 30
0.0
 0
VERTEX
 8
WIRE
 10
  4.3000
 20
  4.5000
 30
0.0
 0
SEQEND
 8
WIRE
 0
POLYLINE
 8
WIRE
 66
1
 10
0.0
 20
0.0
 30
0.0
 0
VERTEX
 8
WIRE
 10
  4.3000
 20
  4.6000
 30
0.0
 0
VERTEX
 8
WIRE
 10
  4.4000
 20
  4.6000
 30
0.0
 0
SEQEND
 8
WIRE
 0
POLYLINE
 8
WIRE
 66
1
 10
0.0
 20
0.0
 30
0.0
 0
VERTEX
 8
WIRE
 10
  6.0000
 20
  4.8000
 30
0.0
 0
VERTEX
 8
WIRE
 10
  6.9000
 20
  4.8000
 30
0.0
 0
SEQEND
 8
WIRE
 0
POLYLINE
 8
WIRE
 66
1
 10
0.0
 20
0.0
 30
0.0
 0
VERTEX
 8
WIRE
 10
  5.7000
 20
  5.0000
 30
0.0
 0
VERTEX
 8
WIRE
 10
  5.7000
 20
  4.9000
 30
0.0
 0
SEQEND
 8
WIRE
 0
POLYLINE
 8
WIRE
 66
1
 10
0.0
 20
0.0
 30
0.0
 0
VERTEX
 8
WIRE
 10
  6.7000
 20
  5.1000
 30
0.0
 0
VERTEX
 8
WIRE
 10
  6.7000
 20
  5.0000
 30
0.0
 0
SEQEND
 8
WIRE
 0
POLYLINE
 8
WIRE
 66
1
 10
0.0
 20
0.0
 30
0.0
 0
VERTEX
 8
WIRE
 10
  6.7000
 20
  5.1000
 30
0.0
 0
VERTEX
 8
WIRE
 10
  6.9000
 20
  5.1000
 30
0.0
 0
SEQEND
 8
WIRE
 0
POLYLINE
 8
WIRE
 66
1
 10
0.0
 20
0.0
 30
0.0
 0
VERTEX
 8
WIRE
 10
  6.0000
 20
  5.2000
 30
0.0
 0
VERTEX
 8
WIRE
 10
  6.0000
 20
  4.8000
 30
0.0
 0
SEQEND
 8
WIRE
 0
POLYLINE
 8
WIRE
 66
1
 10
0.0
 20
0.0
 30
0.0
 0
VERTEX
 8
WIRE
 10
  5.9000
 20
  4.5000
 30
0.0
 0
VERTEX
 8
WIRE
 10
  5.9000
 20
  4.4000
 30
0.0
 0
SEQEND
 8
WIRE
 0
POLYLINE
 8
WIRE
 66
1
 10
0.0
 20
0.0
 30
0.0
 0
VERTEX
 8
WIRE
 10
  6.7000
 20
  5.0000
 30
0.0
 0
VERTEX
 8
WIRE
 10
  6.9000
 20
  5.0000
 30
0.0
 0
SEQEND
 8
WIRE
 0
POLYLINE
 8
WIRE
 66
1
 10
0.0
 20
0.0
 30
0.0
 0
VERTEX
 8
WIRE
 10
  5.9000
 20
  4.6000
 30
0.0
 0
VERTEX
 8
WIRE
 10
  5.9000
 20
  4.5000
 30
0.0
 0
SEQEND
 8
WIRE
 0
POLYLINE
 8
WIRE
 66
1
 70
1
 10
0.0
 20
0.0
 30
0.0
 40
  0.0200
 41
  0.0200
 0
VERTEX
 8
WIRE
 10
  5.8900
 20
  4.6000
 30
0.0
 42
1.0
 0
VERTEX
 8
WIRE
 10
  5.9100
 20
  4.6000
 30
0.0
 42
1.0
 0
SEQEND
 8
WIRE
 0
POLYLINE
 8
WIRE
 66
1
 70
1
 10
0.0
 20
0.0
 30
0.0
 40
  0.0200
 41
  0.0200
 0
VERTEX
 8
WIRE
 10
  5.8900
 20
  4.5000
 30
0.0
 42
1.0
 0
VERTEX
 8
WIRE
 10
  5.9100
 20
  4.5000
 30
0.0
 42
1.0
 0
SEQEND
 8
WIRE
 0
POLYLINE
 8
WIRE
 66
1
 10
0.0
 20
0.0
 30
0.0
 0
VERTEX
 8
WIRE
 10
  5.9000
 20
  5.1000
 30
0.0
 0
VERTEX
 8
WIRE
 10
  6.7000
 20
  5.1000
 30
0.0
 0
SEQEND
 8
WIRE
 0
POLYLINE
 8
WIRE
 66
1
 70
1
 10
0.0
 20
0.0
 30
0.0
 40
  0.0200
 41
  0.0200
 0
VERTEX
 8
WIRE
 10
  6.6900
 20
  5.1000
 30
0.0
 42
1.0
 0
VERTEX
 8
WIRE
 10
  6.7100
 20
  5.1000
 30
0.0
 42
1.0
 0
SEQEND
 8
WIRE
 0
POLYLINE
 8
WIRE
 66
1
 10
0.0
 20
0.0
 30
0.0
 0
VERTEX
 8
WIRE
 10
  5.6000
 20
  4.5000
 30
0.0
 0
VERTEX
 8
WIRE
 10
  5.9000
 20
  4.5000
 30
0.0
 0
SEQEND
 8
WIRE
 0
POLYLINE
 8
WIRE
 66
1
 10
0.0
 20
0.0
 30
0.0
 0
VERTEX
 8
WIRE
 10
  6.0000
 20
  4.7000
 30
0.0
 0
VERTEX
 8
WIRE
 10
  6.0000
 20
  3.1000
 30
0.0
 0
SEQEND
 8
WIRE
 0
POLYLINE
 8
WIRE
 66
1
 10
0.0
 20
0.0
 30
0.0
 0
VERTEX
 8
WIRE
 10
  6.0000
 20
  4.7000
 30
0.0
 0
VERTEX
 8
WIRE
 10
  6.9000
 20
  4.7000
 30
0.0
 0
SEQEND
 8
WIRE
 0
POLYLINE
 8
WIRE
 66
1
 10
0.0
 20
0.0
 30
0.0
 0
VERTEX
 8
WIRE
 10
  5.6000
 20
  4.6000
 30
0.0
 0
VERTEX
 8
WIRE
 10
  5.9000
 20
  4.6000
 30
0.0
 0
SEQEND
 8
WIRE
 0
POLYLINE
 8
WIRE
 66
1
 10
0.0
 20
0.0
 30
0.0
 0
VERTEX
 8
WIRE
 10
  5.6000
 20
  4.9000
 30
0.0
 0
VERTEX
 8
WIRE
 10
  5.7000
 20
  4.9000
 30
0.0
 0
SEQEND
 8
WIRE
 0
POLYLINE
 8
WIRE
 66
1
 70
1
 10
0.0
 20
0.0
 30
0.0
 40
  0.0200
 41
  0.0200
 0
VERTEX
 8
WIRE
 10
  5.6900
 20
  4.9000
 30
0.0
 42
1.0
 0
VERTEX
 8
WIRE
 10
  5.7100
 20
  4.9000
 30
0.0
 42
1.0
 0
SEQEND
 8
WIRE
 0
POLYLINE
 8
WIRE
 66
1
 10
0.0
 20
0.0
 30
0.0
 0
VERTEX
 8
WIRE
 10
  5.7000
 20
  4.9000
 30
0.0
 0
VERTEX
 8
WIRE
 10
  6.9000
 20
  4.9000
 30
0.0
 0
SEQEND
 8
WIRE
 0
POLYLINE
 8
WIRE
 66
1
 10
0.0
 20
0.0
 30
0.0
 0
VERTEX
 8
WIRE
 10
  5.9000
 20
  5.1000
 30
0.0
 0
VERTEX
 8
WIRE
 10
  5.9000
 20
  4.6000
 30
0.0
 0
SEQEND
 8
WIRE
 0
POLYLINE
 8
WIRE
 66
1
 10
0.0
 20
0.0
 30
0.0
 0
VERTEX
 8
WIRE
 10
  6.2000
 20
  5.2000
 30
0.0
 0
VERTEX
 8
WIRE
 10
  6.9000
 20
  5.2000
 30
0.0
 0
SEQEND
 8
WIRE
 0
POLYLINE
 8
WIRE
 66
1
 10
0.0
 20
0.0
 30
0.0
 0
VERTEX
 8
WIRE
 10
  6.2000
 20
  5.2000
 30
0.0
 0
VERTEX
 8
WIRE
 10
  6.2000
 20
  4.5000
 30
0.0
 0
SEQEND
 8
WIRE
 0
POLYLINE
 8
WIRE
 66
1
 10
0.0
 20
0.0
 30
0.0
 0
VERTEX
 8
WIRE
 10
  4.4000
 20
  3.6000
 30
0.0
 0
VERTEX
 8
WIRE
 10
  5.6000
 20
  3.6000
 30
0.0
 0
SEQEND
 8
WIRE
 0
POLYLINE
 8
WIRE
 66
1
 70
1
 10
0.0
 20
0.0
 30
0.0
 40
  0.0200
 41
  0.0200
 0
VERTEX
 8
WIRE
 10
  5.5900
 20
  3.6000
 30
0.0
 42
1.0
 0
VERTEX
 8
WIRE
 10
  5.6100
 20
  3.6000
 30
0.0
 42
1.0
 0
SEQEND
 8
WIRE
 0
POLYLINE
 8
WIRE
 66
1
 10
0.0
 20
0.0
 30
0.0
 0
VERTEX
 8
WIRE
 10
  6.7000
 20
  4.3000
 30
0.0
 0
VERTEX
 8
WIRE
 10
  6.9000
 20
  4.3000
 30
0.0
 0
SEQEND
 8
WIRE
 0
POLYLINE
 8
WIRE
 66
1
 10
0.0
 20
0.0
 30
0.0
 0
VERTEX
 8
WIRE
 10
  6.7000
 20
  4.3000
 30
0.0
 0
VERTEX
 8
WIRE
 10
  6.7000
 20
  2.9000
 30
0.0
 0
SEQEND
 8
WIRE
 0
POLYLINE
 8
WIRE
 66
1
 70
1
 10
0.0
 20
0.0
 30
0.0
 40
  0.0200
 41
  0.0200
 0
VERTEX
 8
WIRE
 10
  6.6900
 20
  2.9000
 30
0.0
 42
1.0
 0
VERTEX
 8
WIRE
 10
  6.7100
 20
  2.9000
 30
0.0
 42
1.0
 0
SEQEND
 8
WIRE
 0
POLYLINE
 8
WIRE
 66
1
 10
0.0
 20
0.0
 30
0.0
 0
VERTEX
 8
WIRE
 10
  3.9000
 20
  5.0000
 30
0.0
 0
VERTEX
 8
WIRE
 10
  3.9000
 20
  4.9000
 30
0.0
 0
SEQEND
 8
WIRE
 0
POLYLINE
 8
WIRE
 66
1
 70
1
 10
0.0
 20
0.0
 30
0.0
 40
  0.0200
 41
  0.0200
 0
VERTEX
 8
WIRE
 10
  3.8900
 20
  5.0000
 30
0.0
 42
1.0
 0
VERTEX
 8
WIRE
 10
  3.9100
 20
  5.0000
 30
0.0
 42
1.0
 0
SEQEND
 8
WIRE
 0
POLYLINE
 8
WIRE
 66
1
 70
1
 10
0.0
 20
0.0
 30
0.0
 40
  0.0200
 41
  0.0200
 0
VERTEX
 8
WIRE
 10
  3.8900
 20
  4.9000
 30
0.0
 42
1.0
 0
VERTEX
 8
WIRE
 10
  3.9100
 20
  4.9000
 30
0.0
 42
1.0
 0
SEQEND
 8
WIRE
 0
POLYLINE
 8
WIRE
 66
1
 10
0.0
 20
0.0
 30
0.0
 0
VERTEX
 8
WIRE
 10
  3.9000
 20
  5.2000
 30
0.0
 0
VERTEX
 8
WIRE
 10
  3.9000
 20
  5.0000
 30
0.0
 0
SEQEND
 8
WIRE
 0
POLYLINE
 8
WIRE
 66
1
 10
0.0
 20
0.0
 30
0.0
 0
VERTEX
 8
WIRE
 10
  3.9000
 20
  4.3000
 30
0.0
 0
VERTEX
 8
WIRE
 10
  3.9000
 20
  4.1000
 30
0.0
 0
SEQEND
 8
WIRE
 0
POLYLINE
 8
WIRE
 66
1
 10
0.0
 20
0.0
 30
0.0
 0
VERTEX
 8
WIRE
 10
  5.6000
 20
  3.6000
 30
0.0
 0
VERTEX
 8
WIRE
 10
  6.2000
 20
  3.6000
 30
0.0
 0
SEQEND
 8
WIRE
 0
POLYLINE
 8
WIRE
 66
1
 70
1
 10
0.0
 20
0.0
 30
0.0
 40
  0.0200
 41
  0.0200
 0
VERTEX
 8
WIRE
 10
  5.5900
 20
  3.6000
 30
0.0
 42
1.0
 0
VERTEX
 8
WIRE
 10
  5.6100
 20
  3.6000
 30
0.0
 42
1.0
 0
SEQEND
 8
WIRE
 0
POLYLINE
 8
WIRE
 66
1
 10
0.0
 20
0.0
 30
0.0
 0
VERTEX
 8
WIRE
 10
  5.6000
 20
  3.1000
 30
0.0
 0
VERTEX
 8
WIRE
 10
  6.0000
 20
  3.1000
 30
0.0
 0
SEQEND
 8
WIRE
 0
POLYLINE
 8
WIRE
 66
1
 10
0.0
 20
0.0
 30
0.0
 0
VERTEX
 8
WIRE
 10
  4.2000
 20
  4.7000
 30
0.0
 0
VERTEX
 8
WIRE
 10
  4.2000
 20
  3.1000
 30
0.0
 0
SEQEND
 8
WIRE
 0
POLYLINE
 8
WIRE
 66
1
 10
0.0
 20
0.0
 30
0.0
 0
VERTEX
 8
WIRE
 10
  5.6000
 20
  4.1000
 30
0.0
 0
VERTEX
 8
WIRE
 10
  5.6000
 20
  4.0000
 30
0.0
 0
SEQEND
 8
WIRE
 0
POLYLINE
 8
WIRE
 66
1
 10
0.0
 20
0.0
 30
0.0
 0
VERTEX
 8
WIRE
 10
  5.6000
 20
  3.7000
 30
0.0
 0
VERTEX
 8
WIRE
 10
  5.6000
 20
  3.6000
 30
0.0
 0
SEQEND
 8
WIRE
 0
POLYLINE
 8
WIRE
 66
1
 10
0.0
 20
0.0
 30
0.0
 0
VERTEX
 8
WIRE
 10
  6.2000
 20
  4.0000
 30
0.0
 0
VERTEX
 8
WIRE
 10
  6.4000
 20
  4.0000
 30
0.0
 0
SEQEND
 8
WIRE
 0
POLYLINE
 8
WIRE
 66
1
 10
0.0
 20
0.0
 30
0.0
 0
VERTEX
 8
WIRE
 10
  6.2000
 20
  4.0000
 30
0.0
 0
VERTEX
 8
WIRE
 10
  6.2000
 20
  3.6000
 30
0.0
 0
SEQEND
 8
WIRE
 0
POLYLINE
 8
WIRE
 66
1
 70
1
 10
0.0
 20
0.0
 30
0.0
 40
  0.0200
 41
  0.0200
 0
VERTEX
 8
WIRE
 10
  6.1900
 20
  4.0000
 30
0.0
 42
1.0
 0
VERTEX
 8
WIRE
 10
  6.2100
 20
  4.0000
 30
0.0
 42
1.0
 0
SEQEND
 8
WIRE
 0
POLYLINE
 8
WIRE
 66
1
 10
0.0
 20
0.0
 30
0.0
 0
VERTEX
 8
WIRE
 10
  6.4000
 20
  2.9000
 30
0.0
 0
VERTEX
 8
WIRE
 10
  6.7000
 20
  2.9000
 30
0.0
 0
SEQEND
 8
WIRE
 0
POLYLINE
 8
WIRE
 66
1
 10
0.0
 20
0.0
 30
0.0
 0
VERTEX
 8
WIRE
 10
  6.7000
 20
  2.9000
 30
0.0
 0
VERTEX
 8
WIRE
 10
  6.7000
 20
  2.6000
 30
0.0
 0
SEQEND
 8
WIRE
 0
POLYLINE
 8
WIRE
 66
1
 10
0.0
 20
0.0
 30
0.0
 0
VERTEX
 8
WIRE
 10
  3.9000
 20
  4.9000
 30
0.0
 0
VERTEX
 8
WIRE
 10
  3.9000
 20
  4.3000
 30
0.0
 0
SEQEND
 8
WIRE
 0
POLYLINE
 8
PARTS
 66
1
 10
0.0
 20
0.0
 30
0.0
 0
VERTEX
 8
PARTS
 10
  3.0000
 20
  2.6000
 30
0.0
 0
VERTEX
 8
PARTS
 10
  3.2000
 20
  2.6000
 30
0.0
 0
SEQEND
 8
PARTS
 0
POLYLINE
 8
PARTS
 66
1
 10
0.0
 20
0.0
 30
0.0
 0
VERTEX
 8
PARTS
 10
  3.2000
 20
  2.6000
 30
0.0
 0
VERTEX
 8
PARTS
 10
  3.1000
 20
  2.5000
 30
0.0
 0
SEQEND
 8
PARTS
 0
POLYLINE
 8
PARTS
 66
1
 10
0.0
 20
0.0
 30
0.0
 0
VERTEX
 8
PARTS
 10
  3.1000
 20
  2.5000
 30
0.0
 0
VERTEX
 8
PARTS
 10
  3.0000
 20
  2.6000
 30
0.0
 0
SEQEND
 8
PARTS
 0
POLYLINE
 8
PARTS
 66
1
 10
0.0
 20
0.0
 30
0.0
 0
VERTEX
 8
PARTS
 10
  6.6000
 20
  2.6000
 30
0.0
 0
VERTEX
 8
PARTS
 10
  6.8000
 20
  2.6000
 30
0.0
 0
SEQEND
 8
PARTS
 0
POLYLINE
 8
PARTS
 66
1
 10
0.0
 20
0.0
 30
0.0
 0
VERTEX
 8
PARTS
 10
  6.8000
 20
  2.6000
 30
0.0
 0
VERTEX
 8
PARTS
 10
  6.7000
 20
  2.5000
 30
0.0
 0
SEQEND
 8
PARTS
 0
POLYLINE
 8
PARTS
 66
1
 10
0.0
 20
0.0
 30
0.0
 0
VERTEX
 8
PARTS
 10
  6.7000
 20
  2.5000
 30
0.0
 0
VERTEX
 8
PARTS
 10
  6.6000
 20
  2.6000
 30
0.0
 0
SEQEND
 8
PARTS
 0
POLYLINE
 8
PARTS
 66
1
 10
0.0
 20
0.0
 30
0.0
 0
VERTEX
 8
PARTS
 10
  5.5000
 20
  4.1000
 30
0.0
 0
VERTEX
 8
PARTS
 10
  5.7000
 20
  4.1000
 30
0.0
 0
SEQEND
 8
PARTS
 0
POLYLINE
 8
PARTS
 66
1
 10
0.0
 20
0.0
 30
0.0
 0
VERTEX
 8
PARTS
 10
  5.7000
 20
  4.1000
 30
0.0
 0
VERTEX
 8
PARTS
 10
  5.6000
 20
  4.2000
 30
0.0
 0
SEQEND
 8
PARTS
 0
POLYLINE
 8
PARTS
 66
1
 10
0.0
 20
0.0
 30
0.0
 0
VERTEX
 8
PARTS
 10
  5.6000
 20
  4.2000
 30
0.0
 0
VERTEX
 8
PARTS
 10
  5.5000
 20
  4.1000
 30
0.0
 0
SEQEND
 8
PARTS
 0
TEXT
 8
COMMENTS
 10
  6.9000
 20
  5.2186
 30
0.0
 40
  0.0514
 1
VDD
 0
TEXT
 8
COMMENTS
 10
  6.9000
 20
  5.1186
 30
0.0
 40
  0.0514
 1
RST
 0
TEXT
 8
COMMENTS
 10
  6.9000
 20
  4.9186
 30
0.0
 40
  0.0514
 1
SCK
 0
TEXT
 8
COMMENTS
 10
  6.9000
 20
  4.8186
 30
0.0
 40
  0.0514
 1
MOSI
 0
TEXT
 8
COMMENTS
 10
  6.9000
 20
  4.7186
 30
0.0
 40
  0.0514
 1
MISO
 0
TEXT
 8
COMMENTS
 10
  6.9000
 20
  4.3186
 30
0.0
 40
  0.0514
 1
GND
 0
ENDSEC
 0
EOF
