 0
SECTION
 2
HEADER
 9
$ACADVER
 1
AC1009
 0
ENDSEC
 0
SECTION
 2
ENTITIES
 0
POLYLINE
 8
TITLE
 66
1
 70
1
 10
0.0
 20
0.0
 30
0.0
 0
VERTEX
 8
TITLE
 10
 -0.1000
 20
  0.1000
 30
0.0
 0
VERTEX
 8
TITLE
 10
  9.6000
 20
  0.1000
 30
0.0
 0
VERTEX
 8
TITLE
 10
  9.6000
 20
  7.3000
 30
0.0
 0
VERTEX
 8
TITLE
 10
 -0.1000
 20
  7.3000
 30
0.0
 0
SEQEND
 8
TITLE
 0
POLYLINE
 8
TITLE
 66
1
 70
1
 10
0.0
 20
0.0
 30
0.0
 0
VERTEX
 8
TITLE
 10
  0.0000
 20
  0.2000
 30
0.0
 0
VERTEX
 8
TITLE
 10
  9.5000
 20
  0.2000
 30
0.0
 0
VERTEX
 8
TITLE
 10
  9.5000
 20
  7.2000
 30
0.0
 0
VERTEX
 8
TITLE
 10
  0.0000
 20
  7.2000
 30
0.0
 0
SEQEND
 8
TITLE
 0
POLYLINE
 8
TITLE
 66
1
 10
0.0
 20
0.0
 30
0.0
 0
VERTEX
 8
TITLE
 10
  2.0600
 20
  0.2000
 30
0.0
 0
VERTEX
 8
TITLE
 10
  2.0600
 20
  0.1000
 30
0.0
 0
SEQEND
 8
TITLE
 0
POLYLINE
 8
TITLE
 66
1
 10
0.0
 20
0.0
 30
0.0
 0
VERTEX
 8
TITLE
 10
  2.0600
 20
  7.2000
 30
0.0
 0
VERTEX
 8
TITLE
 10
  2.0600
 20
  7.3000
 30
0.0
 0
SEQEND
 8
TITLE
 0
POLYLINE
 8
TITLE
 66
1
 10
0.0
 20
0.0
 30
0.0
 0
VERTEX
 8
TITLE
 10
  3.9200
 20
  0.2000
 30
0.0
 0
VERTEX
 8
TITLE
 10
  3.9200
 20
  0.1000
 30
0.0
 0
SEQEND
 8
TITLE
 0
POLYLINE
 8
TITLE
 66
1
 10
0.0
 20
0.0
 30
0.0
 0
VERTEX
 8
TITLE
 10
  3.9200
 20
  7.2000
 30
0.0
 0
VERTEX
 8
TITLE
 10
  3.9200
 20
  7.3000
 30
0.0
 0
SEQEND
 8
TITLE
 0
POLYLINE
 8
TITLE
 66
1
 10
0.0
 20
0.0
 30
0.0
 0
VERTEX
 8
TITLE
 10
  5.7800
 20
  0.2000
 30
0.0
 0
VERTEX
 8
TITLE
 10
  5.7800
 20
  0.1000
 30
0.0
 0
SEQEND
 8
TITLE
 0
POLYLINE
 8
TITLE
 66
1
 10
0.0
 20
0.0
 30
0.0
 0
VERTEX
 8
TITLE
 10
  5.7800
 20
  7.2000
 30
0.0
 0
VERTEX
 8
TITLE
 10
  5.7800
 20
  7.3000
 30
0.0
 0
SEQEND
 8
TITLE
 0
POLYLINE
 8
TITLE
 66
1
 10
0.0
 20
0.0
 30
0.0
 0
VERTEX
 8
TITLE
 10
  7.6400
 20
  0.2000
 30
0.0
 0
VERTEX
 8
TITLE
 10
  7.6400
 20
  0.1000
 30
0.0
 0
SEQEND
 8
TITLE
 0
POLYLINE
 8
TITLE
 66
1
 10
0.0
 20
0.0
 30
0.0
 0
VERTEX
 8
TITLE
 10
  7.6400
 20
  7.2000
 30
0.0
 0
VERTEX
 8
TITLE
 10
  7.6400
 20
  7.3000
 30
0.0
 0
SEQEND
 8
TITLE
 0
TEXT
 8
TITLE
 10
  1.1300
 20
  0.1200
 30
0.0
 40
  0.0500
 1
5
 0
TEXT
 8
TITLE
 10
  1.1300
 20
  7.2200
 30
0.0
 40
  0.0500
 1
5
 0
TEXT
 8
TITLE
 10
  2.9900
 20
  0.1200
 30
0.0
 40
  0.0500
 1
4
 0
TEXT
 8
TITLE
 10
  2.9900
 20
  7.2200
 30
0.0
 40
  0.0500
 1
4
 0
TEXT
 8
TITLE
 10
  4.8500
 20
  0.1200
 30
0.0
 40
  0.0500
 1
3
 0
TEXT
 8
TITLE
 10
  4.8500
 20
  7.2200
 30
0.0
 40
  0.0500
 1
3
 0
TEXT
 8
TITLE
 10
  6.7100
 20
  0.1200
 30
0.0
 40
  0.0500
 1
2
 0
TEXT
 8
TITLE
 10
  6.7100
 20
  7.2200
 30
0.0
 40
  0.0500
 1
2
 0
TEXT
 8
TITLE
 10
  8.5700
 20
  0.1200
 30
0.0
 40
  0.0500
 1
1
 0
TEXT
 8
TITLE
 10
  8.5700
 20
  7.2200
 30
0.0
 40
  0.0500
 1
1
 0
POLYLINE
 8
TITLE
 66
1
 10
0.0
 20
0.0
 30
0.0
 0
VERTEX
 8
TITLE
 10
 -0.1000
 20
  5.3000
 30
0.0
 0
VERTEX
 8
TITLE
 10
  0.0000
 20
  5.3000
 30
0.0
 0
SEQEND
 8
TITLE
 0
POLYLINE
 8
TITLE
 66
1
 10
0.0
 20
0.0
 30
0.0
 0
VERTEX
 8
TITLE
 10
  9.5000
 20
  5.3000
 30
0.0
 0
VERTEX
 8
TITLE
 10
  9.6000
 20
  5.3000
 30
0.0
 0
SEQEND
 8
TITLE
 0
SOLID
 8
TITLE
 10
  0.0000
 20
  3.6000
 30
0.0
 11
 -0.0500
 21
  3.6200
 31
0.0
 12
 -0.0500
 22
  3.5800
 32
0.0
 13
 -0.0500
 23
  3.6000
 33
0.0
 0
SOLID
 8
TITLE
 10
  9.5000
 20
  3.6000
 30
0.0
 11
  9.5500
 21
  3.6200
 31
0.0
 12
  9.5500
 22
  3.5800
 32
0.0
 13
  9.5500
 23
  3.6000
 33
0.0
 0
POLYLINE
 8
TITLE
 66
1
 10
0.0
 20
0.0
 30
0.0
 0
VERTEX
 8
TITLE
 10
 -0.1000
 20
  3.6000
 30
0.0
 0
VERTEX
 8
TITLE
 10
  0.0000
 20
  3.6000
 30
0.0
 0
SEQEND
 8
TITLE
 0
POLYLINE
 8
TITLE
 66
1
 10
0.0
 20
0.0
 30
0.0
 0
VERTEX
 8
TITLE
 10
  9.5000
 20
  3.6000
 30
0.0
 0
VERTEX
 8
TITLE
 10
  9.6000
 20
  3.6000
 30
0.0
 0
SEQEND
 8
TITLE
 0
SOLID
 8
TITLE
 10
  0.0000
 20
  3.6000
 30
0.0
 11
 -0.0500
 21
  3.6200
 31
0.0
 12
 -0.0500
 22
  3.5800
 32
0.0
 13
 -0.0500
 23
  3.6000
 33
0.0
 0
SOLID
 8
TITLE
 10
  9.5000
 20
  3.6000
 30
0.0
 11
  9.5500
 21
  3.6200
 31
0.0
 12
  9.5500
 22
  3.5800
 32
0.0
 13
  9.5500
 23
  3.6000
 33
0.0
 0
POLYLINE
 8
TITLE
 66
1
 10
0.0
 20
0.0
 30
0.0
 0
VERTEX
 8
TITLE
 10
 -0.1000
 20
  1.9000
 30
0.0
 0
VERTEX
 8
TITLE
 10
  0.0000
 20
  1.9000
 30
0.0
 0
SEQEND
 8
TITLE
 0
POLYLINE
 8
TITLE
 66
1
 10
0.0
 20
0.0
 30
0.0
 0
VERTEX
 8
TITLE
 10
  9.5000
 20
  1.9000
 30
0.0
 0
VERTEX
 8
TITLE
 10
  9.6000
 20
  1.9000
 30
0.0
 0
SEQEND
 8
TITLE
 0
SOLID
 8
TITLE
 10
  0.0000
 20
  3.6000
 30
0.0
 11
 -0.0500
 21
  3.6200
 31
0.0
 12
 -0.0500
 22
  3.5800
 32
0.0
 13
 -0.0500
 23
  3.6000
 33
0.0
 0
SOLID
 8
TITLE
 10
  9.5000
 20
  3.6000
 30
0.0
 11
  9.5500
 21
  3.6200
 31
0.0
 12
  9.5500
 22
  3.5800
 32
0.0
 13
  9.5500
 23
  3.6000
 33
0.0
 0
TEXT
 8
TITLE
 10
 -0.0800
 20
  6.1500
 30
0.0
 40
  0.0500
 1
D
 0
TEXT
 8
TITLE
 10
  9.5200
 20
  6.1500
 30
0.0
 40
  0.0500
 1
D
 0
TEXT
 8
TITLE
 10
 -0.0800
 20
  4.4500
 30
0.0
 40
  0.0500
 1
C
 0
TEXT
 8
TITLE
 10
  9.5200
 20
  4.4500
 30
0.0
 40
  0.0500
 1
C
 0
TEXT
 8
TITLE
 10
 -0.0800
 20
  2.7500
 30
0.0
 40
  0.0500
 1
B
 0
TEXT
 8
TITLE
 10
  9.5200
 20
  2.7500
 30
0.0
 40
  0.0500
 1
B
 0
TEXT
 8
TITLE
 10
 -0.0800
 20
  1.0500
 30
0.0
 40
  0.0500
 1
A
 0
TEXT
 8
TITLE
 10
  9.5200
 20
  1.0500
 30
0.0
 40
  0.0500
 1
A
 0
TEXT
 8
TITLE
 10
  6.3000
 20
  0.4186
 30
0.0
 40
  0.0514
 1
<Doc>
 0
TEXT
 8
TITLE
 10
  9.3000
 20
  0.4186
 30
0.0
 40
  0.0514
 1
<RevCode>
 0
TEXT
 8
TITLE
 10
  6.3000
 20
  0.7186
 30
0.0
 40
  0.0514
 1
MAINBOARD - PWM Interface
 0
TEXT
 8
TITLE
 10
  6.0000
 20
  0.4186
 30
0.0
 40
  0.0514
 1
A
 0
TEXT
 8
TITLE
 10
  8.4000
 20
  0.2186
 30
0.0
 40
  0.0514
 1
2
 0
TEXT
 8
TITLE
 10
  9.0000
 20
  0.2186
 30
0.0
 40
  0.0514
 1
2
 0
TEXT
 8
TITLE
 10
  6.4200
 20
  0.2186
 30
0.0
 40
  0.0514
 1
Tuesday, December 18, 2001
 0
TEXT
 8
PARTTEXT
 10
  5.9000
 20
  0.8186
 30
0.0
 40
  0.0514
 1
Title
 0
TEXT
 8
PARTTEXT
 10
  5.9000
 20
  0.5186
 30
0.0
 40
  0.0514
 1
Size
 0
TEXT
 8
PARTTEXT
 10
  6.3000
 20
  0.5186
 30
0.0
 40
  0.0514
 1
Document Number
 0
TEXT
 8
PARTTEXT
 10
  9.2000
 20
  0.5186
 30
0.0
 40
  0.0514
 1
Rev
 0
TEXT
 8
PARTTEXT
 10
  5.9000
 20
  0.2186
 30
0.0
 40
  0.0514
 1
Date:
 0
TEXT
 8
PARTTEXT
 10
  7.9000
 20
  0.2186
 30
0.0
 40
  0.0514
 1
Sheet
 0
POLYLINE
 8
TITLE
 66
1
 70
1
 10
0.0
 20
0.0
 30
0.0
 0
VERTEX
 8
TITLE
 10
  5.9000
 20
  1.1000
 30
0.0
 0
VERTEX
 8
TITLE
 10
  9.5000
 20
  1.1000
 30
0.0
 0
VERTEX
 8
TITLE
 10
  9.5000
 20
  0.9000
 30
0.0
 0
VERTEX
 8
TITLE
 10
  5.9000
 20
  0.9000
 30
0.0
 0
SEQEND
 8
TITLE
 0
POLYLINE
 8
TITLE
 66
1
 70
1
 10
0.0
 20
0.0
 30
0.0
 0
VERTEX
 8
TITLE
 10
  5.9000
 20
  0.9000
 30
0.0
 0
VERTEX
 8
TITLE
 10
  9.5000
 20
  0.9000
 30
0.0
 0
VERTEX
 8
TITLE
 10
  9.5000
 20
  0.6000
 30
0.0
 0
VERTEX
 8
TITLE
 10
  5.9000
 20
  0.6000
 30
0.0
 0
SEQEND
 8
TITLE
 0
POLYLINE
 8
TITLE
 66
1
 70
1
 10
0.0
 20
0.0
 30
0.0
 0
VERTEX
 8
TITLE
 10
  5.9000
 20
  0.6000
 30
0.0
 0
VERTEX
 8
TITLE
 10
  6.2000
 20
  0.6000
 30
0.0
 0
VERTEX
 8
TITLE
 10
  6.2000
 20
  0.3000
 30
0.0
 0
VERTEX
 8
TITLE
 10
  5.9000
 20
  0.3000
 30
0.0
 0
SEQEND
 8
TITLE
 0
POLYLINE
 8
TITLE
 66
1
 70
1
 10
0.0
 20
0.0
 30
0.0
 0
VERTEX
 8
TITLE
 10
  6.2000
 20
  0.6000
 30
0.0
 0
VERTEX
 8
TITLE
 10
  9.2000
 20
  0.6000
 30
0.0
 0
VERTEX
 8
TITLE
 10
  9.2000
 20
  0.3000
 30
0.0
 0
VERTEX
 8
TITLE
 10
  6.2000
 20
  0.3000
 30
0.0
 0
SEQEND
 8
TITLE
 0
POLYLINE
 8
TITLE
 66
1
 70
1
 10
0.0
 20
0.0
 30
0.0
 0
VERTEX
 8
TITLE
 10
  9.2000
 20
  0.6000
 30
0.0
 0
VERTEX
 8
TITLE
 10
  9.5000
 20
  0.6000
 30
0.0
 0
VERTEX
 8
TITLE
 10
  9.5000
 20
  0.3000
 30
0.0
 0
VERTEX
 8
TITLE
 10
  9.2000
 20
  0.3000
 30
0.0
 0
SEQEND
 8
TITLE
 0
POLYLINE
 8
TITLE
 66
1
 70
1
 10
0.0
 20
0.0
 30
0.0
 0
VERTEX
 8
TITLE
 10
  5.9000
 20
  0.3000
 30
0.0
 0
VERTEX
 8
TITLE
 10
  7.9000
 20
  0.3000
 30
0.0
 0
VERTEX
 8
TITLE
 10
  7.9000
 20
  0.2000
 30
0.0
 0
VERTEX
 8
TITLE
 10
  5.9000
 20
  0.2000
 30
0.0
 0
SEQEND
 8
TITLE
 0
POLYLINE
 8
TITLE
 66
1
 70
1
 10
0.0
 20
0.0
 30
0.0
 0
VERTEX
 8
TITLE
 10
  7.9000
 20
  0.3000
 30
0.0
 0
VERTEX
 8
TITLE
 10
  9.5000
 20
  0.3000
 30
0.0
 0
VERTEX
 8
TITLE
 10
  9.5000
 20
  0.2000
 30
0.0
 0
VERTEX
 8
TITLE
 10
  7.9000
 20
  0.2000
 30
0.0
 0
SEQEND
 8
TITLE
 0
TEXT
 8
PARTTEXT
 10
  8.7000
 20
  0.2186
 30
0.0
 40
  0.0514
 1
of
 0
TEXT
 8
PARTTEXT
 10
  4.7000
 20
  2.9186
 30
0.0
 40
  0.0514
 1
U4C
 0
TEXT
 8
PARTTEXT
 10
  4.7000
 20
  2.8186
 30
0.0
 40
  0.0514
 1
74HC32
 0
LINE
 8
PARTS
 10
  3.9000
 20
  3.3000
 30
0.0
 11
  4.2000
 21
  3.3000
 31
0.0
 0
TEXT
 8
PARTS
 10
  4.1000
 20
  3.3300
 30
0.0
 40
  0.0500
 1
9
 0
LINE
 8
PARTS
 10
  3.9000
 20
  3.1000
 30
0.0
 11
  4.2000
 21
  3.1000
 31
0.0
 0
TEXT
 8
PARTS
 10
  4.0600
 20
  3.1300
 30
0.0
 40
  0.0500
 1
10
 0
LINE
 8
PARTS
 10
  5.1000
 20
  3.2000
 30
0.0
 11
  4.8000
 21
  3.2000
 31
0.0
 0
TEXT
 8
PARTS
 10
  4.8600
 20
  3.2300
 30
0.0
 40
  0.0500
 1
8
 0
LINE
 8
PARTS
 10
  4.5000
 20
  3.7000
 30
0.0
 11
  4.5000
 21
  3.4000
 31
0.0
 0
TEXT
 8
PARTS
 10
  4.4700
 20
  3.4600
 30
0.0
 40
  0.0500
 50
 90.0000
 1
14
 0
LINE
 8
PARTS
 10
  4.5000
 20
  2.7000
 30
0.0
 11
  4.5000
 21
  3.0000
 31
0.0
 0
TEXT
 8
PARTS
 10
  4.4700
 20
  2.8800
 30
0.0
 40
  0.0500
 50
 90.0000
 1
7
 0
POLYLINE
 8
PARTS
 66
1
 10
0.0
 20
0.0
 30
0.0
 0
VERTEX
 8
PARTS
 10
  4.2000
 20
  3.1000
 30
0.0
 0
VERTEX
 8
PARTS
 10
  4.2600
 20
  3.1000
 30
0.0
 0
SEQEND
 8
PARTS
 0
POLYLINE
 8
PARTS
 66
1
 10
0.0
 20
0.0
 30
0.0
 0
VERTEX
 8
PARTS
 10
  4.2000
 20
  3.3000
 30
0.0
 0
VERTEX
 8
PARTS
 10
  4.2600
 20
  3.3000
 30
0.0
 0
SEQEND
 8
PARTS
 0
POLYLINE
 8
PARTS
 66
1
 10
0.0
 20
0.0
 30
0.0
 0
VERTEX
 8
PARTS
 10
  4.4500
 20
  3.4000
 30
0.0
 0
VERTEX
 8
PARTS
 10
  4.2000
 20
  3.4000
 30
0.0
 0
SEQEND
 8
PARTS
 0
POLYLINE
 8
PARTS
 66
1
 10
0.0
 20
0.0
 30
0.0
 0
VERTEX
 8
PARTS
 10
  4.4500
 20
  3.0000
 30
0.0
 0
VERTEX
 8
PARTS
 10
  4.2000
 20
  3.0000
 30
0.0
 0
SEQEND
 8
PARTS
 0
POLYLINE
 8
PARTS
 66
1
 10
0.0
 20
0.0
 30
0.0
 0
VERTEX
 8
PARTS
 10
  4.4500
 20
  3.0000
 30
0.0
 42
  0.2691
 0
VERTEX
 8
PARTS
 10
  4.8000
 20
  3.2000
 30
0.0
 0
SEQEND
 8
PARTS
 0
POLYLINE
 8
PARTS
 66
1
 10
0.0
 20
0.0
 30
0.0
 0
VERTEX
 8
PARTS
 10
  4.8000
 20
  3.2000
 30
0.0
 42
  0.2691
 0
VERTEX
 8
PARTS
 10
  4.4500
 20
  3.4000
 30
0.0
 0
SEQEND
 8
PARTS
 0
POLYLINE
 8
PARTS
 66
1
 10
0.0
 20
0.0
 30
0.0
 0
VERTEX
 8
PARTS
 10
  4.2000
 20
  3.0000
 30
0.0
 42
  0.1989
 0
VERTEX
 8
PARTS
 10
  4.2800
 20
  3.2000
 30
0.0
 0
SEQEND
 8
PARTS
 0
POLYLINE
 8
PARTS
 66
1
 10
0.0
 20
0.0
 30
0.0
 0
VERTEX
 8
PARTS
 10
  4.2800
 20
  3.2000
 30
0.0
 42
  0.1989
 0
VERTEX
 8
PARTS
 10
  4.2000
 20
  3.4000
 30
0.0
 0
SEQEND
 8
PARTS
 0
TEXT
 8
PARTTEXT
 10
  6.4000
 20
  3.8186
 30
0.0
 40
  0.0514
 1
R8
 0
TEXT
 8
PARTTEXT
 10
  6.4000
 20
  3.7186
 30
0.0
 40
  0.0514
 1
1k
 0
LINE
 8
PARTS
 10
  6.0000
 20
  3.7000
 30
0.0
 11
  6.1000
 21
  3.7000
 31
0.0
 0
LINE
 8
PARTS
 10
  6.5000
 20
  3.7000
 30
0.0
 11
  6.4000
 21
  3.7000
 31
0.0
 0
POLYLINE
 8
PARTS
 66
1
 10
0.0
 20
0.0
 30
0.0
 0
VERTEX
 8
PARTS
 10
  6.1000
 20
  3.7000
 30
0.0
 0
VERTEX
 8
PARTS
 10
  6.1300
 20
  3.7300
 30
0.0
 0
SEQEND
 8
PARTS
 0
POLYLINE
 8
PARTS
 66
1
 10
0.0
 20
0.0
 30
0.0
 0
VERTEX
 8
PARTS
 10
  6.1300
 20
  3.7300
 30
0.0
 0
VERTEX
 8
PARTS
 10
  6.1900
 20
  3.6700
 30
0.0
 0
SEQEND
 8
PARTS
 0
POLYLINE
 8
PARTS
 66
1
 10
0.0
 20
0.0
 30
0.0
 0
VERTEX
 8
PARTS
 10
  6.1900
 20
  3.6700
 30
0.0
 0
VERTEX
 8
PARTS
 10
  6.2500
 20
  3.7300
 30
0.0
 0
SEQEND
 8
PARTS
 0
POLYLINE
 8
PARTS
 66
1
 10
0.0
 20
0.0
 30
0.0
 0
VERTEX
 8
PARTS
 10
  6.2500
 20
  3.7300
 30
0.0
 0
VERTEX
 8
PARTS
 10
  6.3100
 20
  3.6700
 30
0.0
 0
SEQEND
 8
PARTS
 0
POLYLINE
 8
PARTS
 66
1
 10
0.0
 20
0.0
 30
0.0
 0
VERTEX
 8
PARTS
 10
  6.3100
 20
  3.6700
 30
0.0
 0
VERTEX
 8
PARTS
 10
  6.3700
 20
  3.7300
 30
0.0
 0
SEQEND
 8
PARTS
 0
POLYLINE
 8
PARTS
 66
1
 10
0.0
 20
0.0
 30
0.0
 0
VERTEX
 8
PARTS
 10
  6.3700
 20
  3.7300
 30
0.0
 0
VERTEX
 8
PARTS
 10
  6.4000
 20
  3.7000
 30
0.0
 0
SEQEND
 8
PARTS
 0
TEXT
 8
PARTTEXT
 10
  6.4000
 20
  3.3186
 30
0.0
 40
  0.0514
 1
R9
 0
TEXT
 8
PARTTEXT
 10
  6.4000
 20
  3.2186
 30
0.0
 40
  0.0514
 1
1k
 0
LINE
 8
PARTS
 10
  6.0000
 20
  3.2000
 30
0.0
 11
  6.1000
 21
  3.2000
 31
0.0
 0
LINE
 8
PARTS
 10
  6.5000
 20
  3.2000
 30
0.0
 11
  6.4000
 21
  3.2000
 31
0.0
 0
POLYLINE
 8
PARTS
 66
1
 10
0.0
 20
0.0
 30
0.0
 0
VERTEX
 8
PARTS
 10
  6.1000
 20
  3.2000
 30
0.0
 0
VERTEX
 8
PARTS
 10
  6.1300
 20
  3.2300
 30
0.0
 0
SEQEND
 8
PARTS
 0
POLYLINE
 8
PARTS
 66
1
 10
0.0
 20
0.0
 30
0.0
 0
VERTEX
 8
PARTS
 10
  6.1300
 20
  3.2300
 30
0.0
 0
VERTEX
 8
PARTS
 10
  6.1900
 20
  3.1700
 30
0.0
 0
SEQEND
 8
PARTS
 0
POLYLINE
 8
PARTS
 66
1
 10
0.0
 20
0.0
 30
0.0
 0
VERTEX
 8
PARTS
 10
  6.1900
 20
  3.1700
 30
0.0
 0
VERTEX
 8
PARTS
 10
  6.2500
 20
  3.2300
 30
0.0
 0
SEQEND
 8
PARTS
 0
POLYLINE
 8
PARTS
 66
1
 10
0.0
 20
0.0
 30
0.0
 0
VERTEX
 8
PARTS
 10
  6.2500
 20
  3.2300
 30
0.0
 0
VERTEX
 8
PARTS
 10
  6.3100
 20
  3.1700
 30
0.0
 0
SEQEND
 8
PARTS
 0
POLYLINE
 8
PARTS
 66
1
 10
0.0
 20
0.0
 30
0.0
 0
VERTEX
 8
PARTS
 10
  6.3100
 20
  3.1700
 30
0.0
 0
VERTEX
 8
PARTS
 10
  6.3700
 20
  3.2300
 30
0.0
 0
SEQEND
 8
PARTS
 0
POLYLINE
 8
PARTS
 66
1
 10
0.0
 20
0.0
 30
0.0
 0
VERTEX
 8
PARTS
 10
  6.3700
 20
  3.2300
 30
0.0
 0
VERTEX
 8
PARTS
 10
  6.4000
 20
  3.2000
 30
0.0
 0
SEQEND
 8
PARTS
 0
TEXT
 8
PARTTEXT
 10
  3.2000
 20
  2.9186
 30
0.0
 40
  0.0514
 1
U3B
 0
TEXT
 8
PARTTEXT
 10
  3.2000
 20
  2.8186
 30
0.0
 40
  0.0514
 1
74HC14
 0
LINE
 8
PARTS
 10
  2.6000
 20
  3.1000
 30
0.0
 11
  2.9000
 21
  3.1000
 31
0.0
 0
TEXT
 8
PARTS
 10
  2.8000
 20
  3.1300
 30
0.0
 40
  0.0500
 1
3
 0
CIRCLE
 8
PARTS
 10
  3.3300
 20
  3.1000
 30
0.0
 40
  0.0300
 0
LINE
 8
PARTS
 10
  3.6000
 20
  3.1000
 30
0.0
 11
  3.3600
 21
  3.1000
 31
0.0
 0
TEXT
 8
PARTS
 10
  3.3600
 20
  3.1300
 30
0.0
 40
  0.0500
 1
4
 0
LINE
 8
PARTS
 10
  3.1000
 20
  3.6000
 30
0.0
 11
  3.1000
 21
  3.3000
 31
0.0
 0
TEXT
 8
PARTS
 10
  3.0700
 20
  3.3600
 30
0.0
 40
  0.0500
 50
 90.0000
 1
14
 0
LINE
 8
PARTS
 10
  3.1000
 20
  2.6000
 30
0.0
 11
  3.1000
 21
  2.9000
 31
0.0
 0
TEXT
 8
PARTS
 10
  3.0700
 20
  2.7800
 30
0.0
 40
  0.0500
 50
 90.0000
 1
7
 0
POLYLINE
 8
PARTS
 66
1
 10
0.0
 20
0.0
 30
0.0
 0
VERTEX
 8
PARTS
 10
  2.9000
 20
  3.3000
 30
0.0
 0
VERTEX
 8
PARTS
 10
  2.9000
 20
  2.9000
 30
0.0
 0
SEQEND
 8
PARTS
 0
POLYLINE
 8
PARTS
 66
1
 10
0.0
 20
0.0
 30
0.0
 0
VERTEX
 8
PARTS
 10
  2.9000
 20
  2.9000
 30
0.0
 0
VERTEX
 8
PARTS
 10
  3.3000
 20
  3.1000
 30
0.0
 0
SEQEND
 8
PARTS
 0
POLYLINE
 8
PARTS
 66
1
 10
0.0
 20
0.0
 30
0.0
 0
VERTEX
 8
PARTS
 10
  3.3000
 20
  3.1000
 30
0.0
 0
VERTEX
 8
PARTS
 10
  2.9000
 20
  3.3000
 30
0.0
 0
SEQEND
 8
PARTS
 0
POLYLINE
 8
PARTS
 66
1
 10
0.0
 20
0.0
 30
0.0
 0
VERTEX
 8
PARTS
 10
  3.1000
 20
  3.2000
 30
0.0
 0
VERTEX
 8
PARTS
 10
  3.1000
 20
  3.3000
 30
0.0
 0
SEQEND
 8
PARTS
 0
POLYLINE
 8
PARTS
 66
1
 10
0.0
 20
0.0
 30
0.0
 0
VERTEX
 8
PARTS
 10
  3.1000
 20
  3.0000
 30
0.0
 0
VERTEX
 8
PARTS
 10
  3.1000
 20
  2.9000
 30
0.0
 0
SEQEND
 8
PARTS
 0
POLYLINE
 8
PARTS
 66
1
 10
0.0
 20
0.0
 30
0.0
 0
VERTEX
 8
PARTS
 10
  3.0100
 20
  3.0500
 30
0.0
 0
VERTEX
 8
PARTS
 10
  3.0100
 20
  3.1300
 30
0.0
 0
VERTEX
 8
PARTS
 10
  3.1300
 20
  3.1300
 30
0.0
 0
SEQEND
 8
PARTS
 0
POLYLINE
 8
PARTS
 66
1
 10
0.0
 20
0.0
 30
0.0
 0
VERTEX
 8
PARTS
 10
  3.0900
 20
  3.1300
 30
0.0
 0
VERTEX
 8
PARTS
 10
  3.0900
 20
  3.0500
 30
0.0
 0
VERTEX
 8
PARTS
 10
  2.9700
 20
  3.0500
 30
0.0
 0
SEQEND
 8
PARTS
 0
TEXT
 8
PARTTEXT
 10
  6.4000
 20
  4.8186
 30
0.0
 40
  0.0514
 1
R6
 0
TEXT
 8
PARTTEXT
 10
  6.4000
 20
  4.7186
 30
0.0
 40
  0.0514
 1
1k
 0
LINE
 8
PARTS
 10
  6.0000
 20
  4.7000
 30
0.0
 11
  6.1000
 21
  4.7000
 31
0.0
 0
LINE
 8
PARTS
 10
  6.5000
 20
  4.7000
 30
0.0
 11
  6.4000
 21
  4.7000
 31
0.0
 0
POLYLINE
 8
PARTS
 66
1
 10
0.0
 20
0.0
 30
0.0
 0
VERTEX
 8
PARTS
 10
  6.1000
 20
  4.7000
 30
0.0
 0
VERTEX
 8
PARTS
 10
  6.1300
 20
  4.7300
 30
0.0
 0
SEQEND
 8
PARTS
 0
POLYLINE
 8
PARTS
 66
1
 10
0.0
 20
0.0
 30
0.0
 0
VERTEX
 8
PARTS
 10
  6.1300
 20
  4.7300
 30
0.0
 0
VERTEX
 8
PARTS
 10
  6.1900
 20
  4.6700
 30
0.0
 0
SEQEND
 8
PARTS
 0
POLYLINE
 8
PARTS
 66
1
 10
0.0
 20
0.0
 30
0.0
 0
VERTEX
 8
PARTS
 10
  6.1900
 20
  4.6700
 30
0.0
 0
VERTEX
 8
PARTS
 10
  6.2500
 20
  4.7300
 30
0.0
 0
SEQEND
 8
PARTS
 0
POLYLINE
 8
PARTS
 66
1
 10
0.0
 20
0.0
 30
0.0
 0
VERTEX
 8
PARTS
 10
  6.2500
 20
  4.7300
 30
0.0
 0
VERTEX
 8
PARTS
 10
  6.3100
 20
  4.6700
 30
0.0
 0
SEQEND
 8
PARTS
 0
POLYLINE
 8
PARTS
 66
1
 10
0.0
 20
0.0
 30
0.0
 0
VERTEX
 8
PARTS
 10
  6.3100
 20
  4.6700
 30
0.0
 0
VERTEX
 8
PARTS
 10
  6.3700
 20
  4.7300
 30
0.0
 0
SEQEND
 8
PARTS
 0
POLYLINE
 8
PARTS
 66
1
 10
0.0
 20
0.0
 30
0.0
 0
VERTEX
 8
PARTS
 10
  6.3700
 20
  4.7300
 30
0.0
 0
VERTEX
 8
PARTS
 10
  6.4000
 20
  4.7000
 30
0.0
 0
SEQEND
 8
PARTS
 0
TEXT
 8
PARTTEXT
 10
  5.9000
 20
  3.3186
 30
0.0
 40
  0.0514
 1
D5
 0
LINE
 8
PARTS
 10
  6.0000
 20
  3.2000
 30
0.0
 11
  5.9000
 21
  3.2000
 31
0.0
 0
TEXT
 8
PARTS
 10
  5.9600
 20
  3.2300
 30
0.0
 40
  0.0500
 1
3
 0
LINE
 8
PARTS
 10
  5.4000
 20
  3.2000
 30
0.0
 11
  5.5000
 21
  3.2000
 31
0.0
 0
TEXT
 8
PARTS
 10
  5.4000
 20
  3.2300
 30
0.0
 40
  0.0500
 1
1
 0
POLYLINE
 8
PARTS
 66
1
 10
0.0
 20
0.0
 30
0.0
 0
VERTEX
 8
PARTS
 10
  5.7000
 20
  3.2700
 30
0.0
 0
VERTEX
 8
PARTS
 10
  5.7000
 20
  3.1300
 30
0.0
 0
SEQEND
 8
PARTS
 0
POLYLINE
 8
PARTS
 66
1
 10
0.0
 20
0.0
 30
0.0
 0
VERTEX
 8
PARTS
 10
  5.9000
 20
  3.2000
 30
0.0
 0
VERTEX
 8
PARTS
 10
  5.8000
 20
  3.2000
 30
0.0
 0
SEQEND
 8
PARTS
 0
POLYLINE
 8
PARTS
 66
1
 10
0.0
 20
0.0
 30
0.0
 0
VERTEX
 8
PARTS
 10
  5.7000
 20
  3.2000
 30
0.0
 0
VERTEX
 8
PARTS
 10
  5.5000
 20
  3.2000
 30
0.0
 0
SEQEND
 8
PARTS
 0
POLYLINE
 8
PARTS
 66
1
 70
1
 10
0.0
 20
0.0
 30
0.0
 0
VERTEX
 8
PARTS
 10
  5.7000
 20
  3.2000
 30
0.0
 0
VERTEX
 8
PARTS
 10
  5.7000
 20
  3.2000
 30
0.0
 0
VERTEX
 8
PARTS
 10
  5.8000
 20
  3.1300
 30
0.0
 0
VERTEX
 8
PARTS
 10
  5.8000
 20
  3.2700
 30
0.0
 0
VERTEX
 8
PARTS
 10
  5.7000
 20
  3.2000
 30
0.0
 0
SEQEND
 8
PARTS
 0
POLYLINE
 8
PARTS
 66
1
 70
1
 10
0.0
 20
0.0
 30
0.0
 0
VERTEX
 8
PARTS
 10
  5.5800
 20
  3.2800
 30
0.0
 0
VERTEX
 8
PARTS
 10
  5.5800
 20
  3.2800
 30
0.0
 0
VERTEX
 8
PARTS
 10
  5.5400
 20
  3.3000
 30
0.0
 0
VERTEX
 8
PARTS
 10
  5.5600
 20
  3.2600
 30
0.0
 0
VERTEX
 8
PARTS
 10
  5.5800
 20
  3.2800
 30
0.0
 0
SEQEND
 8
PARTS
 0
POLYLINE
 8
PARTS
 66
1
 70
1
 10
0.0
 20
0.0
 30
0.0
 0
VERTEX
 8
PARTS
 10
  5.6400
 20
  3.2800
 30
0.0
 0
VERTEX
 8
PARTS
 10
  5.6400
 20
  3.2800
 30
0.0
 0
VERTEX
 8
PARTS
 10
  5.6000
 20
  3.3000
 30
0.0
 0
VERTEX
 8
PARTS
 10
  5.6200
 20
  3.2600
 30
0.0
 0
VERTEX
 8
PARTS
 10
  5.6400
 20
  3.2800
 30
0.0
 0
SEQEND
 8
PARTS
 0
POLYLINE
 8
PARTS
 66
1
 10
0.0
 20
0.0
 30
0.0
 0
VERTEX
 8
PARTS
 10
  5.6100
 20
  3.2900
 30
0.0
 0
VERTEX
 8
PARTS
 10
  5.6700
 20
  3.2300
 30
0.0
 0
SEQEND
 8
PARTS
 0
POLYLINE
 8
PARTS
 66
1
 10
0.0
 20
0.0
 30
0.0
 0
VERTEX
 8
PARTS
 10
  5.5500
 20
  3.2900
 30
0.0
 0
VERTEX
 8
PARTS
 10
  5.6100
 20
  3.2300
 30
0.0
 0
SEQEND
 8
PARTS
 0
TEXT
 8
PARTTEXT
 10
  6.4000
 20
  4.3186
 30
0.0
 40
  0.0514
 1
R7
 0
TEXT
 8
PARTTEXT
 10
  6.4000
 20
  4.2186
 30
0.0
 40
  0.0514
 1
1k
 0
LINE
 8
PARTS
 10
  6.0000
 20
  4.2000
 30
0.0
 11
  6.1000
 21
  4.2000
 31
0.0
 0
LINE
 8
PARTS
 10
  6.5000
 20
  4.2000
 30
0.0
 11
  6.4000
 21
  4.2000
 31
0.0
 0
POLYLINE
 8
PARTS
 66
1
 10
0.0
 20
0.0
 30
0.0
 0
VERTEX
 8
PARTS
 10
  6.1000
 20
  4.2000
 30
0.0
 0
VERTEX
 8
PARTS
 10
  6.1300
 20
  4.2300
 30
0.0
 0
SEQEND
 8
PARTS
 0
POLYLINE
 8
PARTS
 66
1
 10
0.0
 20
0.0
 30
0.0
 0
VERTEX
 8
PARTS
 10
  6.1300
 20
  4.2300
 30
0.0
 0
VERTEX
 8
PARTS
 10
  6.1900
 20
  4.1700
 30
0.0
 0
SEQEND
 8
PARTS
 0
POLYLINE
 8
PARTS
 66
1
 10
0.0
 20
0.0
 30
0.0
 0
VERTEX
 8
PARTS
 10
  6.1900
 20
  4.1700
 30
0.0
 0
VERTEX
 8
PARTS
 10
  6.2500
 20
  4.2300
 30
0.0
 0
SEQEND
 8
PARTS
 0
POLYLINE
 8
PARTS
 66
1
 10
0.0
 20
0.0
 30
0.0
 0
VERTEX
 8
PARTS
 10
  6.2500
 20
  4.2300
 30
0.0
 0
VERTEX
 8
PARTS
 10
  6.3100
 20
  4.1700
 30
0.0
 0
SEQEND
 8
PARTS
 0
POLYLINE
 8
PARTS
 66
1
 10
0.0
 20
0.0
 30
0.0
 0
VERTEX
 8
PARTS
 10
  6.3100
 20
  4.1700
 30
0.0
 0
VERTEX
 8
PARTS
 10
  6.3700
 20
  4.2300
 30
0.0
 0
SEQEND
 8
PARTS
 0
POLYLINE
 8
PARTS
 66
1
 10
0.0
 20
0.0
 30
0.0
 0
VERTEX
 8
PARTS
 10
  6.3700
 20
  4.2300
 30
0.0
 0
VERTEX
 8
PARTS
 10
  6.4000
 20
  4.2000
 30
0.0
 0
SEQEND
 8
PARTS
 0
TEXT
 8
PARTTEXT
 10
  4.7000
 20
  4.4186
 30
0.0
 40
  0.0514
 1
U4B
 0
TEXT
 8
PARTTEXT
 10
  4.7000
 20
  4.3186
 30
0.0
 40
  0.0514
 1
74HC32
 0
LINE
 8
PARTS
 10
  3.9000
 20
  4.8000
 30
0.0
 11
  4.2000
 21
  4.8000
 31
0.0
 0
TEXT
 8
PARTS
 10
  4.1000
 20
  4.8300
 30
0.0
 40
  0.0500
 1
4
 0
LINE
 8
PARTS
 10
  3.9000
 20
  4.6000
 30
0.0
 11
  4.2000
 21
  4.6000
 31
0.0
 0
TEXT
 8
PARTS
 10
  4.1000
 20
  4.6300
 30
0.0
 40
  0.0500
 1
5
 0
LINE
 8
PARTS
 10
  5.1000
 20
  4.7000
 30
0.0
 11
  4.8000
 21
  4.7000
 31
0.0
 0
TEXT
 8
PARTS
 10
  4.8600
 20
  4.7300
 30
0.0
 40
  0.0500
 1
6
 0
LINE
 8
PARTS
 10
  4.5000
 20
  5.2000
 30
0.0
 11
  4.5000
 21
  4.9000
 31
0.0
 0
TEXT
 8
PARTS
 10
  4.4700
 20
  4.9600
 30
0.0
 40
  0.0500
 50
 90.0000
 1
14
 0
LINE
 8
PARTS
 10
  4.5000
 20
  4.2000
 30
0.0
 11
  4.5000
 21
  4.5000
 31
0.0
 0
TEXT
 8
PARTS
 10
  4.4700
 20
  4.3800
 30
0.0
 40
  0.0500
 50
 90.0000
 1
7
 0
POLYLINE
 8
PARTS
 66
1
 10
0.0
 20
0.0
 30
0.0
 0
VERTEX
 8
PARTS
 10
  4.2000
 20
  4.6000
 30
0.0
 0
VERTEX
 8
PARTS
 10
  4.2600
 20
  4.6000
 30
0.0
 0
SEQEND
 8
PARTS
 0
POLYLINE
 8
PARTS
 66
1
 10
0.0
 20
0.0
 30
0.0
 0
VERTEX
 8
PARTS
 10
  4.2000
 20
  4.8000
 30
0.0
 0
VERTEX
 8
PARTS
 10
  4.2600
 20
  4.8000
 30
0.0
 0
SEQEND
 8
PARTS
 0
POLYLINE
 8
PARTS
 66
1
 10
0.0
 20
0.0
 30
0.0
 0
VERTEX
 8
PARTS
 10
  4.4500
 20
  4.9000
 30
0.0
 0
VERTEX
 8
PARTS
 10
  4.2000
 20
  4.9000
 30
0.0
 0
SEQEND
 8
PARTS
 0
POLYLINE
 8
PARTS
 66
1
 10
0.0
 20
0.0
 30
0.0
 0
VERTEX
 8
PARTS
 10
  4.4500
 20
  4.5000
 30
0.0
 0
VERTEX
 8
PARTS
 10
  4.2000
 20
  4.5000
 30
0.0
 0
SEQEND
 8
PARTS
 0
POLYLINE
 8
PARTS
 66
1
 10
0.0
 20
0.0
 30
0.0
 0
VERTEX
 8
PARTS
 10
  4.4500
 20
  4.5000
 30
0.0
 42
  0.2691
 0
VERTEX
 8
PARTS
 10
  4.8000
 20
  4.7000
 30
0.0
 0
SEQEND
 8
PARTS
 0
POLYLINE
 8
PARTS
 66
1
 10
0.0
 20
0.0
 30
0.0
 0
VERTEX
 8
PARTS
 10
  4.8000
 20
  4.7000
 30
0.0
 42
  0.2691
 0
VERTEX
 8
PARTS
 10
  4.4500
 20
  4.9000
 30
0.0
 0
SEQEND
 8
PARTS
 0
POLYLINE
 8
PARTS
 66
1
 10
0.0
 20
0.0
 30
0.0
 0
VERTEX
 8
PARTS
 10
  4.2000
 20
  4.5000
 30
0.0
 42
  0.1989
 0
VERTEX
 8
PARTS
 10
  4.2800
 20
  4.7000
 30
0.0
 0
SEQEND
 8
PARTS
 0
POLYLINE
 8
PARTS
 66
1
 10
0.0
 20
0.0
 30
0.0
 0
VERTEX
 8
PARTS
 10
  4.2800
 20
  4.7000
 30
0.0
 42
  0.1989
 0
VERTEX
 8
PARTS
 10
  4.2000
 20
  4.9000
 30
0.0
 0
SEQEND
 8
PARTS
 0
TEXT
 8
PARTTEXT
 10
  3.2000
 20
  5.8186
 30
0.0
 40
  0.0514
 1
U3A
 0
TEXT
 8
PARTTEXT
 10
  3.2000
 20
  5.7186
 30
0.0
 40
  0.0514
 1
74HC14
 0
LINE
 8
PARTS
 10
  2.6000
 20
  6.0000
 30
0.0
 11
  2.9000
 21
  6.0000
 31
0.0
 0
TEXT
 8
PARTS
 10
  2.8000
 20
  6.0300
 30
0.0
 40
  0.0500
 1
1
 0
CIRCLE
 8
PARTS
 10
  3.3300
 20
  6.0000
 30
0.0
 40
  0.0300
 0
LINE
 8
PARTS
 10
  3.6000
 20
  6.0000
 30
0.0
 11
  3.3600
 21
  6.0000
 31
0.0
 0
TEXT
 8
PARTS
 10
  3.3600
 20
  6.0300
 30
0.0
 40
  0.0500
 1
2
 0
LINE
 8
PARTS
 10
  3.1000
 20
  6.5000
 30
0.0
 11
  3.1000
 21
  6.2000
 31
0.0
 0
TEXT
 8
PARTS
 10
  3.0700
 20
  6.2600
 30
0.0
 40
  0.0500
 50
 90.0000
 1
14
 0
LINE
 8
PARTS
 10
  3.1000
 20
  5.5000
 30
0.0
 11
  3.1000
 21
  5.8000
 31
0.0
 0
TEXT
 8
PARTS
 10
  3.0700
 20
  5.6800
 30
0.0
 40
  0.0500
 50
 90.0000
 1
7
 0
POLYLINE
 8
PARTS
 66
1
 10
0.0
 20
0.0
 30
0.0
 0
VERTEX
 8
PARTS
 10
  2.9000
 20
  6.2000
 30
0.0
 0
VERTEX
 8
PARTS
 10
  2.9000
 20
  5.8000
 30
0.0
 0
SEQEND
 8
PARTS
 0
POLYLINE
 8
PARTS
 66
1
 10
0.0
 20
0.0
 30
0.0
 0
VERTEX
 8
PARTS
 10
  2.9000
 20
  5.8000
 30
0.0
 0
VERTEX
 8
PARTS
 10
  3.3000
 20
  6.0000
 30
0.0
 0
SEQEND
 8
PARTS
 0
POLYLINE
 8
PARTS
 66
1
 10
0.0
 20
0.0
 30
0.0
 0
VERTEX
 8
PARTS
 10
  3.3000
 20
  6.0000
 30
0.0
 0
VERTEX
 8
PARTS
 10
  2.9000
 20
  6.2000
 30
0.0
 0
SEQEND
 8
PARTS
 0
POLYLINE
 8
PARTS
 66
1
 10
0.0
 20
0.0
 30
0.0
 0
VERTEX
 8
PARTS
 10
  3.1000
 20
  6.1000
 30
0.0
 0
VERTEX
 8
PARTS
 10
  3.1000
 20
  6.2000
 30
0.0
 0
SEQEND
 8
PARTS
 0
POLYLINE
 8
PARTS
 66
1
 10
0.0
 20
0.0
 30
0.0
 0
VERTEX
 8
PARTS
 10
  3.1000
 20
  5.9000
 30
0.0
 0
VERTEX
 8
PARTS
 10
  3.1000
 20
  5.8000
 30
0.0
 0
SEQEND
 8
PARTS
 0
POLYLINE
 8
PARTS
 66
1
 10
0.0
 20
0.0
 30
0.0
 0
VERTEX
 8
PARTS
 10
  3.0100
 20
  5.9500
 30
0.0
 0
VERTEX
 8
PARTS
 10
  3.0100
 20
  6.0300
 30
0.0
 0
VERTEX
 8
PARTS
 10
  3.1300
 20
  6.0300
 30
0.0
 0
SEQEND
 8
PARTS
 0
POLYLINE
 8
PARTS
 66
1
 10
0.0
 20
0.0
 30
0.0
 0
VERTEX
 8
PARTS
 10
  3.0900
 20
  6.0300
 30
0.0
 0
VERTEX
 8
PARTS
 10
  3.0900
 20
  5.9500
 30
0.0
 0
VERTEX
 8
PARTS
 10
  2.9700
 20
  5.9500
 30
0.0
 0
SEQEND
 8
PARTS
 0
TEXT
 8
PARTTEXT
 10
  5.9000
 20
  3.8186
 30
0.0
 40
  0.0514
 1
D4
 0
LINE
 8
PARTS
 10
  6.0000
 20
  3.7000
 30
0.0
 11
  5.9000
 21
  3.7000
 31
0.0
 0
TEXT
 8
PARTS
 10
  5.9600
 20
  3.7300
 30
0.0
 40
  0.0500
 1
3
 0
LINE
 8
PARTS
 10
  5.4000
 20
  3.7000
 30
0.0
 11
  5.5000
 21
  3.7000
 31
0.0
 0
TEXT
 8
PARTS
 10
  5.4000
 20
  3.7300
 30
0.0
 40
  0.0500
 1
1
 0
POLYLINE
 8
PARTS
 66
1
 10
0.0
 20
0.0
 30
0.0
 0
VERTEX
 8
PARTS
 10
  5.7000
 20
  3.7700
 30
0.0
 0
VERTEX
 8
PARTS
 10
  5.7000
 20
  3.6300
 30
0.0
 0
SEQEND
 8
PARTS
 0
POLYLINE
 8
PARTS
 66
1
 10
0.0
 20
0.0
 30
0.0
 0
VERTEX
 8
PARTS
 10
  5.9000
 20
  3.7000
 30
0.0
 0
VERTEX
 8
PARTS
 10
  5.8000
 20
  3.7000
 30
0.0
 0
SEQEND
 8
PARTS
 0
POLYLINE
 8
PARTS
 66
1
 10
0.0
 20
0.0
 30
0.0
 0
VERTEX
 8
PARTS
 10
  5.7000
 20
  3.7000
 30
0.0
 0
VERTEX
 8
PARTS
 10
  5.5000
 20
  3.7000
 30
0.0
 0
SEQEND
 8
PARTS
 0
POLYLINE
 8
PARTS
 66
1
 70
1
 10
0.0
 20
0.0
 30
0.0
 0
VERTEX
 8
PARTS
 10
  5.7000
 20
  3.7000
 30
0.0
 0
VERTEX
 8
PARTS
 10
  5.7000
 20
  3.7000
 30
0.0
 0
VERTEX
 8
PARTS
 10
  5.8000
 20
  3.6300
 30
0.0
 0
VERTEX
 8
PARTS
 10
  5.8000
 20
  3.7700
 30
0.0
 0
VERTEX
 8
PARTS
 10
  5.7000
 20
  3.7000
 30
0.0
 0
SEQEND
 8
PARTS
 0
POLYLINE
 8
PARTS
 66
1
 70
1
 10
0.0
 20
0.0
 30
0.0
 0
VERTEX
 8
PARTS
 10
  5.5800
 20
  3.7800
 30
0.0
 0
VERTEX
 8
PARTS
 10
  5.5800
 20
  3.7800
 30
0.0
 0
VERTEX
 8
PARTS
 10
  5.5400
 20
  3.8000
 30
0.0
 0
VERTEX
 8
PARTS
 10
  5.5600
 20
  3.7600
 30
0.0
 0
VERTEX
 8
PARTS
 10
  5.5800
 20
  3.7800
 30
0.0
 0
SEQEND
 8
PARTS
 0
POLYLINE
 8
PARTS
 66
1
 70
1
 10
0.0
 20
0.0
 30
0.0
 0
VERTEX
 8
PARTS
 10
  5.6400
 20
  3.7800
 30
0.0
 0
VERTEX
 8
PARTS
 10
  5.6400
 20
  3.7800
 30
0.0
 0
VERTEX
 8
PARTS
 10
  5.6000
 20
  3.8000
 30
0.0
 0
VERTEX
 8
PARTS
 10
  5.6200
 20
  3.7600
 30
0.0
 0
VERTEX
 8
PARTS
 10
  5.6400
 20
  3.7800
 30
0.0
 0
SEQEND
 8
PARTS
 0
POLYLINE
 8
PARTS
 66
1
 10
0.0
 20
0.0
 30
0.0
 0
VERTEX
 8
PARTS
 10
  5.6100
 20
  3.7900
 30
0.0
 0
VERTEX
 8
PARTS
 10
  5.6700
 20
  3.7300
 30
0.0
 0
SEQEND
 8
PARTS
 0
POLYLINE
 8
PARTS
 66
1
 10
0.0
 20
0.0
 30
0.0
 0
VERTEX
 8
PARTS
 10
  5.5500
 20
  3.7900
 30
0.0
 0
VERTEX
 8
PARTS
 10
  5.6100
 20
  3.7300
 30
0.0
 0
SEQEND
 8
PARTS
 0
TEXT
 8
PARTTEXT
 10
  5.9000
 20
  4.3186
 30
0.0
 40
  0.0514
 1
D3
 0
LINE
 8
PARTS
 10
  6.0000
 20
  4.2000
 30
0.0
 11
  5.9000
 21
  4.2000
 31
0.0
 0
TEXT
 8
PARTS
 10
  5.9600
 20
  4.2300
 30
0.0
 40
  0.0500
 1
3
 0
LINE
 8
PARTS
 10
  5.4000
 20
  4.2000
 30
0.0
 11
  5.5000
 21
  4.2000
 31
0.0
 0
TEXT
 8
PARTS
 10
  5.4000
 20
  4.2300
 30
0.0
 40
  0.0500
 1
1
 0
POLYLINE
 8
PARTS
 66
1
 10
0.0
 20
0.0
 30
0.0
 0
VERTEX
 8
PARTS
 10
  5.7000
 20
  4.2700
 30
0.0
 0
VERTEX
 8
PARTS
 10
  5.7000
 20
  4.1300
 30
0.0
 0
SEQEND
 8
PARTS
 0
POLYLINE
 8
PARTS
 66
1
 10
0.0
 20
0.0
 30
0.0
 0
VERTEX
 8
PARTS
 10
  5.9000
 20
  4.2000
 30
0.0
 0
VERTEX
 8
PARTS
 10
  5.8000
 20
  4.2000
 30
0.0
 0
SEQEND
 8
PARTS
 0
POLYLINE
 8
PARTS
 66
1
 10
0.0
 20
0.0
 30
0.0
 0
VERTEX
 8
PARTS
 10
  5.7000
 20
  4.2000
 30
0.0
 0
VERTEX
 8
PARTS
 10
  5.5000
 20
  4.2000
 30
0.0
 0
SEQEND
 8
PARTS
 0
POLYLINE
 8
PARTS
 66
1
 70
1
 10
0.0
 20
0.0
 30
0.0
 0
VERTEX
 8
PARTS
 10
  5.7000
 20
  4.2000
 30
0.0
 0
VERTEX
 8
PARTS
 10
  5.7000
 20
  4.2000
 30
0.0
 0
VERTEX
 8
PARTS
 10
  5.8000
 20
  4.1300
 30
0.0
 0
VERTEX
 8
PARTS
 10
  5.8000
 20
  4.2700
 30
0.0
 0
VERTEX
 8
PARTS
 10
  5.7000
 20
  4.2000
 30
0.0
 0
SEQEND
 8
PARTS
 0
POLYLINE
 8
PARTS
 66
1
 70
1
 10
0.0
 20
0.0
 30
0.0
 0
VERTEX
 8
PARTS
 10
  5.5800
 20
  4.2800
 30
0.0
 0
VERTEX
 8
PARTS
 10
  5.5800
 20
  4.2800
 30
0.0
 0
VERTEX
 8
PARTS
 10
  5.5400
 20
  4.3000
 30
0.0
 0
VERTEX
 8
PARTS
 10
  5.5600
 20
  4.2600
 30
0.0
 0
VERTEX
 8
PARTS
 10
  5.5800
 20
  4.2800
 30
0.0
 0
SEQEND
 8
PARTS
 0
POLYLINE
 8
PARTS
 66
1
 70
1
 10
0.0
 20
0.0
 30
0.0
 0
VERTEX
 8
PARTS
 10
  5.6400
 20
  4.2800
 30
0.0
 0
VERTEX
 8
PARTS
 10
  5.6400
 20
  4.2800
 30
0.0
 0
VERTEX
 8
PARTS
 10
  5.6000
 20
  4.3000
 30
0.0
 0
VERTEX
 8
PARTS
 10
  5.6200
 20
  4.2600
 30
0.0
 0
VERTEX
 8
PARTS
 10
  5.6400
 20
  4.2800
 30
0.0
 0
SEQEND
 8
PARTS
 0
POLYLINE
 8
PARTS
 66
1
 10
0.0
 20
0.0
 30
0.0
 0
VERTEX
 8
PARTS
 10
  5.6100
 20
  4.2900
 30
0.0
 0
VERTEX
 8
PARTS
 10
  5.6700
 20
  4.2300
 30
0.0
 0
SEQEND
 8
PARTS
 0
POLYLINE
 8
PARTS
 66
1
 10
0.0
 20
0.0
 30
0.0
 0
VERTEX
 8
PARTS
 10
  5.5500
 20
  4.2900
 30
0.0
 0
VERTEX
 8
PARTS
 10
  5.6100
 20
  4.2300
 30
0.0
 0
SEQEND
 8
PARTS
 0
TEXT
 8
PARTTEXT
 10
  5.9000
 20
  4.8186
 30
0.0
 40
  0.0514
 1
D2
 0
LINE
 8
PARTS
 10
  6.0000
 20
  4.7000
 30
0.0
 11
  5.9000
 21
  4.7000
 31
0.0
 0
TEXT
 8
PARTS
 10
  5.9600
 20
  4.7300
 30
0.0
 40
  0.0500
 1
3
 0
LINE
 8
PARTS
 10
  5.4000
 20
  4.7000
 30
0.0
 11
  5.5000
 21
  4.7000
 31
0.0
 0
TEXT
 8
PARTS
 10
  5.4000
 20
  4.7300
 30
0.0
 40
  0.0500
 1
1
 0
POLYLINE
 8
PARTS
 66
1
 10
0.0
 20
0.0
 30
0.0
 0
VERTEX
 8
PARTS
 10
  5.7000
 20
  4.7700
 30
0.0
 0
VERTEX
 8
PARTS
 10
  5.7000
 20
  4.6300
 30
0.0
 0
SEQEND
 8
PARTS
 0
POLYLINE
 8
PARTS
 66
1
 10
0.0
 20
0.0
 30
0.0
 0
VERTEX
 8
PARTS
 10
  5.9000
 20
  4.7000
 30
0.0
 0
VERTEX
 8
PARTS
 10
  5.8000
 20
  4.7000
 30
0.0
 0
SEQEND
 8
PARTS
 0
POLYLINE
 8
PARTS
 66
1
 10
0.0
 20
0.0
 30
0.0
 0
VERTEX
 8
PARTS
 10
  5.7000
 20
  4.7000
 30
0.0
 0
VERTEX
 8
PARTS
 10
  5.5000
 20
  4.7000
 30
0.0
 0
SEQEND
 8
PARTS
 0
POLYLINE
 8
PARTS
 66
1
 70
1
 10
0.0
 20
0.0
 30
0.0
 0
VERTEX
 8
PARTS
 10
  5.7000
 20
  4.7000
 30
0.0
 0
VERTEX
 8
PARTS
 10
  5.7000
 20
  4.7000
 30
0.0
 0
VERTEX
 8
PARTS
 10
  5.8000
 20
  4.6300
 30
0.0
 0
VERTEX
 8
PARTS
 10
  5.8000
 20
  4.7700
 30
0.0
 0
VERTEX
 8
PARTS
 10
  5.7000
 20
  4.7000
 30
0.0
 0
SEQEND
 8
PARTS
 0
POLYLINE
 8
PARTS
 66
1
 70
1
 10
0.0
 20
0.0
 30
0.0
 0
VERTEX
 8
PARTS
 10
  5.5800
 20
  4.7800
 30
0.0
 0
VERTEX
 8
PARTS
 10
  5.5800
 20
  4.7800
 30
0.0
 0
VERTEX
 8
PARTS
 10
  5.5400
 20
  4.8000
 30
0.0
 0
VERTEX
 8
PARTS
 10
  5.5600
 20
  4.7600
 30
0.0
 0
VERTEX
 8
PARTS
 10
  5.5800
 20
  4.7800
 30
0.0
 0
SEQEND
 8
PARTS
 0
POLYLINE
 8
PARTS
 66
1
 70
1
 10
0.0
 20
0.0
 30
0.0
 0
VERTEX
 8
PARTS
 10
  5.6400
 20
  4.7800
 30
0.0
 0
VERTEX
 8
PARTS
 10
  5.6400
 20
  4.7800
 30
0.0
 0
VERTEX
 8
PARTS
 10
  5.6000
 20
  4.8000
 30
0.0
 0
VERTEX
 8
PARTS
 10
  5.6200
 20
  4.7600
 30
0.0
 0
VERTEX
 8
PARTS
 10
  5.6400
 20
  4.7800
 30
0.0
 0
SEQEND
 8
PARTS
 0
POLYLINE
 8
PARTS
 66
1
 10
0.0
 20
0.0
 30
0.0
 0
VERTEX
 8
PARTS
 10
  5.6100
 20
  4.7900
 30
0.0
 0
VERTEX
 8
PARTS
 10
  5.6700
 20
  4.7300
 30
0.0
 0
SEQEND
 8
PARTS
 0
POLYLINE
 8
PARTS
 66
1
 10
0.0
 20
0.0
 30
0.0
 0
VERTEX
 8
PARTS
 10
  5.5500
 20
  4.7900
 30
0.0
 0
VERTEX
 8
PARTS
 10
  5.6100
 20
  4.7300
 30
0.0
 0
SEQEND
 8
PARTS
 0
TEXT
 8
PARTTEXT
 10
  4.7000
 20
  5.8186
 30
0.0
 40
  0.0514
 1
U4A
 0
TEXT
 8
PARTTEXT
 10
  4.7000
 20
  5.7186
 30
0.0
 40
  0.0514
 1
74HC32
 0
LINE
 8
PARTS
 10
  3.9000
 20
  6.2000
 30
0.0
 11
  4.2000
 21
  6.2000
 31
0.0
 0
TEXT
 8
PARTS
 10
  4.1000
 20
  6.2300
 30
0.0
 40
  0.0500
 1
1
 0
LINE
 8
PARTS
 10
  3.9000
 20
  6.0000
 30
0.0
 11
  4.2000
 21
  6.0000
 31
0.0
 0
TEXT
 8
PARTS
 10
  4.1000
 20
  6.0300
 30
0.0
 40
  0.0500
 1
2
 0
LINE
 8
PARTS
 10
  5.1000
 20
  6.1000
 30
0.0
 11
  4.8000
 21
  6.1000
 31
0.0
 0
TEXT
 8
PARTS
 10
  4.8600
 20
  6.1300
 30
0.0
 40
  0.0500
 1
3
 0
LINE
 8
PARTS
 10
  4.5000
 20
  6.6000
 30
0.0
 11
  4.5000
 21
  6.3000
 31
0.0
 0
TEXT
 8
PARTS
 10
  4.4700
 20
  6.3600
 30
0.0
 40
  0.0500
 50
 90.0000
 1
14
 0
LINE
 8
PARTS
 10
  4.5000
 20
  5.6000
 30
0.0
 11
  4.5000
 21
  5.9000
 31
0.0
 0
TEXT
 8
PARTS
 10
  4.4700
 20
  5.7800
 30
0.0
 40
  0.0500
 50
 90.0000
 1
7
 0
POLYLINE
 8
PARTS
 66
1
 10
0.0
 20
0.0
 30
0.0
 0
VERTEX
 8
PARTS
 10
  4.2000
 20
  6.0000
 30
0.0
 0
VERTEX
 8
PARTS
 10
  4.2600
 20
  6.0000
 30
0.0
 0
SEQEND
 8
PARTS
 0
POLYLINE
 8
PARTS
 66
1
 10
0.0
 20
0.0
 30
0.0
 0
VERTEX
 8
PARTS
 10
  4.2000
 20
  6.2000
 30
0.0
 0
VERTEX
 8
PARTS
 10
  4.2600
 20
  6.2000
 30
0.0
 0
SEQEND
 8
PARTS
 0
POLYLINE
 8
PARTS
 66
1
 10
0.0
 20
0.0
 30
0.0
 0
VERTEX
 8
PARTS
 10
  4.4500
 20
  6.3000
 30
0.0
 0
VERTEX
 8
PARTS
 10
  4.2000
 20
  6.3000
 30
0.0
 0
SEQEND
 8
PARTS
 0
POLYLINE
 8
PARTS
 66
1
 10
0.0
 20
0.0
 30
0.0
 0
VERTEX
 8
PARTS
 10
  4.4500
 20
  5.9000
 30
0.0
 0
VERTEX
 8
PARTS
 10
  4.2000
 20
  5.9000
 30
0.0
 0
SEQEND
 8
PARTS
 0
POLYLINE
 8
PARTS
 66
1
 10
0.0
 20
0.0
 30
0.0
 0
VERTEX
 8
PARTS
 10
  4.4500
 20
  5.9000
 30
0.0
 42
  0.2691
 0
VERTEX
 8
PARTS
 10
  4.8000
 20
  6.1000
 30
0.0
 0
SEQEND
 8
PARTS
 0
POLYLINE
 8
PARTS
 66
1
 10
0.0
 20
0.0
 30
0.0
 0
VERTEX
 8
PARTS
 10
  4.8000
 20
  6.1000
 30
0.0
 42
  0.2691
 0
VERTEX
 8
PARTS
 10
  4.4500
 20
  6.3000
 30
0.0
 0
SEQEND
 8
PARTS
 0
POLYLINE
 8
PARTS
 66
1
 10
0.0
 20
0.0
 30
0.0
 0
VERTEX
 8
PARTS
 10
  4.2000
 20
  5.9000
 30
0.0
 42
  0.1989
 0
VERTEX
 8
PARTS
 10
  4.2800
 20
  6.1000
 30
0.0
 0
SEQEND
 8
PARTS
 0
POLYLINE
 8
PARTS
 66
1
 10
0.0
 20
0.0
 30
0.0
 0
VERTEX
 8
PARTS
 10
  4.2800
 20
  6.1000
 30
0.0
 42
  0.1989
 0
VERTEX
 8
PARTS
 10
  4.2000
 20
  6.3000
 30
0.0
 0
SEQEND
 8
PARTS
 0
TEXT
 8
PARTTEXT
 10
  4.7000
 20
  1.5186
 30
0.0
 40
  0.0514
 1
U4D
 0
TEXT
 8
PARTTEXT
 10
  4.7000
 20
  1.4186
 30
0.0
 40
  0.0514
 1
74HC32
 0
LINE
 8
PARTS
 10
  3.9000
 20
  1.9000
 30
0.0
 11
  4.2000
 21
  1.9000
 31
0.0
 0
TEXT
 8
PARTS
 10
  4.0600
 20
  1.9300
 30
0.0
 40
  0.0500
 1
12
 0
LINE
 8
PARTS
 10
  3.9000
 20
  1.7000
 30
0.0
 11
  4.2000
 21
  1.7000
 31
0.0
 0
TEXT
 8
PARTS
 10
  4.0600
 20
  1.7300
 30
0.0
 40
  0.0500
 1
13
 0
LINE
 8
PARTS
 10
  5.1000
 20
  1.8000
 30
0.0
 11
  4.8000
 21
  1.8000
 31
0.0
 0
TEXT
 8
PARTS
 10
  4.8600
 20
  1.8300
 30
0.0
 40
  0.0500
 1
11
 0
LINE
 8
PARTS
 10
  4.5000
 20
  2.3000
 30
0.0
 11
  4.5000
 21
  2.0000
 31
0.0
 0
TEXT
 8
PARTS
 10
  4.4700
 20
  2.0600
 30
0.0
 40
  0.0500
 50
 90.0000
 1
14
 0
LINE
 8
PARTS
 10
  4.5000
 20
  1.3000
 30
0.0
 11
  4.5000
 21
  1.6000
 31
0.0
 0
TEXT
 8
PARTS
 10
  4.4700
 20
  1.4800
 30
0.0
 40
  0.0500
 50
 90.0000
 1
7
 0
POLYLINE
 8
PARTS
 66
1
 10
0.0
 20
0.0
 30
0.0
 0
VERTEX
 8
PARTS
 10
  4.2000
 20
  1.7000
 30
0.0
 0
VERTEX
 8
PARTS
 10
  4.2600
 20
  1.7000
 30
0.0
 0
SEQEND
 8
PARTS
 0
POLYLINE
 8
PARTS
 66
1
 10
0.0
 20
0.0
 30
0.0
 0
VERTEX
 8
PARTS
 10
  4.2000
 20
  1.9000
 30
0.0
 0
VERTEX
 8
PARTS
 10
  4.2600
 20
  1.9000
 30
0.0
 0
SEQEND
 8
PARTS
 0
POLYLINE
 8
PARTS
 66
1
 10
0.0
 20
0.0
 30
0.0
 0
VERTEX
 8
PARTS
 10
  4.4500
 20
  2.0000
 30
0.0
 0
VERTEX
 8
PARTS
 10
  4.2000
 20
  2.0000
 30
0.0
 0
SEQEND
 8
PARTS
 0
POLYLINE
 8
PARTS
 66
1
 10
0.0
 20
0.0
 30
0.0
 0
VERTEX
 8
PARTS
 10
  4.4500
 20
  1.6000
 30
0.0
 0
VERTEX
 8
PARTS
 10
  4.2000
 20
  1.6000
 30
0.0
 0
SEQEND
 8
PARTS
 0
POLYLINE
 8
PARTS
 66
1
 10
0.0
 20
0.0
 30
0.0
 0
VERTEX
 8
PARTS
 10
  4.4500
 20
  1.6000
 30
0.0
 42
  0.2691
 0
VERTEX
 8
PARTS
 10
  4.8000
 20
  1.8000
 30
0.0
 0
SEQEND
 8
PARTS
 0
POLYLINE
 8
PARTS
 66
1
 10
0.0
 20
0.0
 30
0.0
 0
VERTEX
 8
PARTS
 10
  4.8000
 20
  1.8000
 30
0.0
 42
  0.2691
 0
VERTEX
 8
PARTS
 10
  4.4500
 20
  2.0000
 30
0.0
 0
SEQEND
 8
PARTS
 0
POLYLINE
 8
PARTS
 66
1
 10
0.0
 20
0.0
 30
0.0
 0
VERTEX
 8
PARTS
 10
  4.2000
 20
  1.6000
 30
0.0
 42
  0.1989
 0
VERTEX
 8
PARTS
 10
  4.2800
 20
  1.8000
 30
0.0
 0
SEQEND
 8
PARTS
 0
POLYLINE
 8
PARTS
 66
1
 10
0.0
 20
0.0
 30
0.0
 0
VERTEX
 8
PARTS
 10
  4.2800
 20
  1.8000
 30
0.0
 42
  0.1989
 0
VERTEX
 8
PARTS
 10
  4.2000
 20
  2.0000
 30
0.0
 0
SEQEND
 8
PARTS
 0
POLYLINE
 8
WIRE
 66
1
 10
0.0
 20
0.0
 30
0.0
 0
VERTEX
 8
WIRE
 10
  2.2000
 20
  4.0000
 30
0.0
 0
VERTEX
 8
WIRE
 10
  2.5000
 20
  4.0000
 30
0.0
 0
SEQEND
 8
WIRE
 0
POLYLINE
 8
WIRE
 66
1
 10
0.0
 20
0.0
 30
0.0
 0
VERTEX
 8
WIRE
 10
  3.9000
 20
  6.8000
 30
0.0
 0
VERTEX
 8
WIRE
 10
  3.9000
 20
  6.2000
 30
0.0
 0
SEQEND
 8
WIRE
 0
POLYLINE
 8
WIRE
 66
1
 10
0.0
 20
0.0
 30
0.0
 0
VERTEX
 8
WIRE
 10
  5.1000
 20
  6.1000
 30
0.0
 0
VERTEX
 8
WIRE
 10
  5.3000
 20
  6.1000
 30
0.0
 0
SEQEND
 8
WIRE
 0
POLYLINE
 8
WIRE
 66
1
 10
0.0
 20
0.0
 30
0.0
 0
VERTEX
 8
WIRE
 10
  5.3000
 20
  6.1000
 30
0.0
 0
VERTEX
 8
WIRE
 10
  5.3000
 20
  4.7000
 30
0.0
 0
SEQEND
 8
WIRE
 0
POLYLINE
 8
WIRE
 66
1
 10
0.0
 20
0.0
 30
0.0
 0
VERTEX
 8
WIRE
 10
  5.3000
 20
  4.7000
 30
0.0
 0
VERTEX
 8
WIRE
 10
  5.4000
 20
  4.7000
 30
0.0
 0
SEQEND
 8
WIRE
 0
POLYLINE
 8
WIRE
 66
1
 70
1
 10
0.0
 20
0.0
 30
0.0
 40
  0.0200
 41
  0.0200
 0
VERTEX
 8
WIRE
 10
  5.3900
 20
  4.7000
 30
0.0
 42
1.0
 0
VERTEX
 8
WIRE
 10
  5.4100
 20
  4.7000
 30
0.0
 42
1.0
 0
SEQEND
 8
WIRE
 0
POLYLINE
 8
WIRE
 66
1
 10
0.0
 20
0.0
 30
0.0
 0
VERTEX
 8
WIRE
 10
  6.5000
 20
  4.7000
 30
0.0
 0
VERTEX
 8
WIRE
 10
  6.6000
 20
  4.7000
 30
0.0
 0
SEQEND
 8
WIRE
 0
POLYLINE
 8
WIRE
 66
1
 10
0.0
 20
0.0
 30
0.0
 0
VERTEX
 8
WIRE
 10
  6.5000
 20
  4.2000
 30
0.0
 0
VERTEX
 8
WIRE
 10
  6.6000
 20
  4.2000
 30
0.0
 0
SEQEND
 8
WIRE
 0
POLYLINE
 8
WIRE
 66
1
 10
0.0
 20
0.0
 30
0.0
 0
VERTEX
 8
WIRE
 10
  6.5000
 20
  3.7000
 30
0.0
 0
VERTEX
 8
WIRE
 10
  6.6000
 20
  3.7000
 30
0.0
 0
SEQEND
 8
WIRE
 0
POLYLINE
 8
WIRE
 66
1
 10
0.0
 20
0.0
 30
0.0
 0
VERTEX
 8
WIRE
 10
  7.1000
 20
  4.6000
 30
0.0
 0
VERTEX
 8
WIRE
 10
  7.1000
 20
  4.0000
 30
0.0
 0
SEQEND
 8
WIRE
 0
POLYLINE
 8
WIRE
 66
1
 10
0.0
 20
0.0
 30
0.0
 0
VERTEX
 8
WIRE
 10
  5.4000
 20
  4.6000
 30
0.0
 0
VERTEX
 8
WIRE
 10
  7.1000
 20
  4.6000
 30
0.0
 0
SEQEND
 8
WIRE
 0
POLYLINE
 8
WIRE
 66
1
 10
0.0
 20
0.0
 30
0.0
 0
VERTEX
 8
WIRE
 10
  5.4000
 20
  4.7000
 30
0.0
 0
VERTEX
 8
WIRE
 10
  5.4000
 20
  4.6000
 30
0.0
 0
SEQEND
 8
WIRE
 0
POLYLINE
 8
WIRE
 66
1
 10
0.0
 20
0.0
 30
0.0
 0
VERTEX
 8
WIRE
 10
  7.0000
 20
  3.9000
 30
0.0
 0
VERTEX
 8
WIRE
 10
  7.2000
 20
  3.9000
 30
0.0
 0
SEQEND
 8
WIRE
 0
POLYLINE
 8
WIRE
 66
1
 10
0.0
 20
0.0
 30
0.0
 0
VERTEX
 8
WIRE
 10
  7.0000
 20
  4.1000
 30
0.0
 0
VERTEX
 8
WIRE
 10
  7.0000
 20
  3.9000
 30
0.0
 0
SEQEND
 8
WIRE
 0
POLYLINE
 8
WIRE
 66
1
 10
0.0
 20
0.0
 30
0.0
 0
VERTEX
 8
WIRE
 10
  5.4000
 20
  4.1000
 30
0.0
 0
VERTEX
 8
WIRE
 10
  7.0000
 20
  4.1000
 30
0.0
 0
SEQEND
 8
WIRE
 0
POLYLINE
 8
WIRE
 66
1
 10
0.0
 20
0.0
 30
0.0
 0
VERTEX
 8
WIRE
 10
  5.4000
 20
  4.2000
 30
0.0
 0
VERTEX
 8
WIRE
 10
  5.4000
 20
  4.1000
 30
0.0
 0
SEQEND
 8
WIRE
 0
POLYLINE
 8
WIRE
 66
1
 10
0.0
 20
0.0
 30
0.0
 0
VERTEX
 8
WIRE
 10
  7.0000
 20
  3.8000
 30
0.0
 0
VERTEX
 8
WIRE
 10
  7.0000
 20
  3.6000
 30
0.0
 0
SEQEND
 8
WIRE
 0
POLYLINE
 8
WIRE
 66
1
 10
0.0
 20
0.0
 30
0.0
 0
VERTEX
 8
WIRE
 10
  5.4000
 20
  3.7000
 30
0.0
 0
VERTEX
 8
WIRE
 10
  5.4000
 20
  3.6000
 30
0.0
 0
SEQEND
 8
WIRE
 0
POLYLINE
 8
WIRE
 66
1
 10
0.0
 20
0.0
 30
0.0
 0
VERTEX
 8
WIRE
 10
  7.1000
 20
  3.7000
 30
0.0
 0
VERTEX
 8
WIRE
 10
  7.1000
 20
  3.1000
 30
0.0
 0
SEQEND
 8
WIRE
 0
POLYLINE
 8
WIRE
 66
1
 10
0.0
 20
0.0
 30
0.0
 0
VERTEX
 8
WIRE
 10
  5.4000
 20
  3.2000
 30
0.0
 0
VERTEX
 8
WIRE
 10
  5.4000
 20
  3.1000
 30
0.0
 0
SEQEND
 8
WIRE
 0
POLYLINE
 8
WIRE
 66
1
 10
0.0
 20
0.0
 30
0.0
 0
VERTEX
 8
WIRE
 10
  6.5000
 20
  3.2000
 30
0.0
 0
VERTEX
 8
WIRE
 10
  6.6000
 20
  3.2000
 30
0.0
 0
SEQEND
 8
WIRE
 0
POLYLINE
 8
WIRE
 66
1
 10
0.0
 20
0.0
 30
0.0
 0
VERTEX
 8
WIRE
 10
  3.6000
 20
  6.0000
 30
0.0
 0
VERTEX
 8
WIRE
 10
  3.9000
 20
  6.0000
 30
0.0
 0
SEQEND
 8
WIRE
 0
POLYLINE
 8
WIRE
 66
1
 10
0.0
 20
0.0
 30
0.0
 0
VERTEX
 8
WIRE
 10
  2.2000
 20
  6.8000
 30
0.0
 0
VERTEX
 8
WIRE
 10
  2.5000
 20
  6.8000
 30
0.0
 0
SEQEND
 8
WIRE
 0
POLYLINE
 8
WIRE
 66
1
 10
0.0
 20
0.0
 30
0.0
 0
VERTEX
 8
WIRE
 10
  7.1000
 20
  4.0000
 30
0.0
 0
VERTEX
 8
WIRE
 10
  7.2000
 20
  4.0000
 30
0.0
 0
SEQEND
 8
WIRE
 0
POLYLINE
 8
WIRE
 66
1
 10
0.0
 20
0.0
 30
0.0
 0
VERTEX
 8
WIRE
 10
  5.2000
 20
  4.7000
 30
0.0
 0
VERTEX
 8
WIRE
 10
  5.2000
 20
  4.2000
 30
0.0
 0
SEQEND
 8
WIRE
 0
POLYLINE
 8
WIRE
 66
1
 10
0.0
 20
0.0
 30
0.0
 0
VERTEX
 8
WIRE
 10
  5.2000
 20
  4.2000
 30
0.0
 0
VERTEX
 8
WIRE
 10
  5.4000
 20
  4.2000
 30
0.0
 0
SEQEND
 8
WIRE
 0
POLYLINE
 8
WIRE
 66
1
 70
1
 10
0.0
 20
0.0
 30
0.0
 40
  0.0200
 41
  0.0200
 0
VERTEX
 8
WIRE
 10
  5.3900
 20
  4.2000
 30
0.0
 42
1.0
 0
VERTEX
 8
WIRE
 10
  5.4100
 20
  4.2000
 30
0.0
 42
1.0
 0
SEQEND
 8
WIRE
 0
POLYLINE
 8
WIRE
 66
1
 10
0.0
 20
0.0
 30
0.0
 0
VERTEX
 8
WIRE
 10
  2.5000
 20
  4.6000
 30
0.0
 0
VERTEX
 8
WIRE
 10
  3.9000
 20
  4.6000
 30
0.0
 0
SEQEND
 8
WIRE
 0
POLYLINE
 8
WIRE
 66
1
 10
0.0
 20
0.0
 30
0.0
 0
VERTEX
 8
WIRE
 10
  2.3000
 20
  4.8000
 30
0.0
 0
VERTEX
 8
WIRE
 10
  3.9000
 20
  4.8000
 30
0.0
 0
SEQEND
 8
WIRE
 0
POLYLINE
 8
WIRE
 66
1
 10
0.0
 20
0.0
 30
0.0
 0
VERTEX
 8
WIRE
 10
  2.5000
 20
  6.8000
 30
0.0
 0
VERTEX
 8
WIRE
 10
  3.9000
 20
  6.8000
 30
0.0
 0
SEQEND
 8
WIRE
 0
POLYLINE
 8
WIRE
 66
1
 10
0.0
 20
0.0
 30
0.0
 0
VERTEX
 8
WIRE
 10
  2.5000
 20
  6.8000
 30
0.0
 0
VERTEX
 8
WIRE
 10
  2.5000
 20
  4.6000
 30
0.0
 0
SEQEND
 8
WIRE
 0
POLYLINE
 8
WIRE
 66
1
 70
1
 10
0.0
 20
0.0
 30
0.0
 40
  0.0200
 41
  0.0200
 0
VERTEX
 8
WIRE
 10
  2.4900
 20
  6.8000
 30
0.0
 42
1.0
 0
VERTEX
 8
WIRE
 10
  2.5100
 20
  6.8000
 30
0.0
 42
1.0
 0
SEQEND
 8
WIRE
 0
POLYLINE
 8
WIRE
 66
1
 10
0.0
 20
0.0
 30
0.0
 0
VERTEX
 8
WIRE
 10
  2.2000
 20
  6.0000
 30
0.0
 0
VERTEX
 8
WIRE
 10
  2.3000
 20
  6.0000
 30
0.0
 0
SEQEND
 8
WIRE
 0
POLYLINE
 8
WIRE
 66
1
 10
0.0
 20
0.0
 30
0.0
 0
VERTEX
 8
WIRE
 10
  2.3000
 20
  6.0000
 30
0.0
 0
VERTEX
 8
WIRE
 10
  2.3000
 20
  4.8000
 30
0.0
 0
SEQEND
 8
WIRE
 0
POLYLINE
 8
WIRE
 66
1
 70
1
 10
0.0
 20
0.0
 30
0.0
 40
  0.0200
 41
  0.0200
 0
VERTEX
 8
WIRE
 10
  2.2900
 20
  6.0000
 30
0.0
 42
1.0
 0
VERTEX
 8
WIRE
 10
  2.3100
 20
  6.0000
 30
0.0
 42
1.0
 0
SEQEND
 8
WIRE
 0
POLYLINE
 8
WIRE
 66
1
 10
0.0
 20
0.0
 30
0.0
 0
VERTEX
 8
WIRE
 10
  2.3000
 20
  6.0000
 30
0.0
 0
VERTEX
 8
WIRE
 10
  2.6000
 20
  6.0000
 30
0.0
 0
SEQEND
 8
WIRE
 0
POLYLINE
 8
WIRE
 66
1
 10
0.0
 20
0.0
 30
0.0
 0
VERTEX
 8
WIRE
 10
  5.1000
 20
  4.7000
 30
0.0
 0
VERTEX
 8
WIRE
 10
  5.2000
 20
  4.7000
 30
0.0
 0
SEQEND
 8
WIRE
 0
POLYLINE
 8
WIRE
 66
1
 10
0.0
 20
0.0
 30
0.0
 0
VERTEX
 8
WIRE
 10
  5.2000
 20
  3.7000
 30
0.0
 0
VERTEX
 8
WIRE
 10
  5.2000
 20
  3.2000
 30
0.0
 0
SEQEND
 8
WIRE
 0
POLYLINE
 8
WIRE
 66
1
 10
0.0
 20
0.0
 30
0.0
 0
VERTEX
 8
WIRE
 10
  5.1000
 20
  1.8000
 30
0.0
 0
VERTEX
 8
WIRE
 10
  5.3000
 20
  1.8000
 30
0.0
 0
SEQEND
 8
WIRE
 0
POLYLINE
 8
WIRE
 66
1
 10
0.0
 20
0.0
 30
0.0
 0
VERTEX
 8
WIRE
 10
  2.5000
 20
  1.7000
 30
0.0
 0
VERTEX
 8
WIRE
 10
  3.9000
 20
  1.7000
 30
0.0
 0
SEQEND
 8
WIRE
 0
POLYLINE
 8
WIRE
 66
1
 10
0.0
 20
0.0
 30
0.0
 0
VERTEX
 8
WIRE
 10
  5.2000
 20
  3.7000
 30
0.0
 0
VERTEX
 8
WIRE
 10
  5.4000
 20
  3.7000
 30
0.0
 0
SEQEND
 8
WIRE
 0
POLYLINE
 8
WIRE
 66
1
 70
1
 10
0.0
 20
0.0
 30
0.0
 40
  0.0200
 41
  0.0200
 0
VERTEX
 8
WIRE
 10
  5.3900
 20
  3.7000
 30
0.0
 42
1.0
 0
VERTEX
 8
WIRE
 10
  5.4100
 20
  3.7000
 30
0.0
 42
1.0
 0
SEQEND
 8
WIRE
 0
POLYLINE
 8
WIRE
 66
1
 10
0.0
 20
0.0
 30
0.0
 0
VERTEX
 8
WIRE
 10
  3.8000
 20
  4.0000
 30
0.0
 0
VERTEX
 8
WIRE
 10
  3.8000
 20
  3.3000
 30
0.0
 0
SEQEND
 8
WIRE
 0
POLYLINE
 8
WIRE
 66
1
 10
0.0
 20
0.0
 30
0.0
 0
VERTEX
 8
WIRE
 10
  2.2000
 20
  3.1000
 30
0.0
 0
VERTEX
 8
WIRE
 10
  2.3000
 20
  3.1000
 30
0.0
 0
SEQEND
 8
WIRE
 0
POLYLINE
 8
WIRE
 66
1
 10
0.0
 20
0.0
 30
0.0
 0
VERTEX
 8
WIRE
 10
  3.6000
 20
  3.1000
 30
0.0
 0
VERTEX
 8
WIRE
 10
  3.9000
 20
  3.1000
 30
0.0
 0
SEQEND
 8
WIRE
 0
POLYLINE
 8
WIRE
 66
1
 10
0.0
 20
0.0
 30
0.0
 0
VERTEX
 8
WIRE
 10
  3.8000
 20
  3.3000
 30
0.0
 0
VERTEX
 8
WIRE
 10
  3.9000
 20
  3.3000
 30
0.0
 0
SEQEND
 8
WIRE
 0
POLYLINE
 8
WIRE
 66
1
 10
0.0
 20
0.0
 30
0.0
 0
VERTEX
 8
WIRE
 10
  7.0000
 20
  3.8000
 30
0.0
 0
VERTEX
 8
WIRE
 10
  7.2000
 20
  3.8000
 30
0.0
 0
SEQEND
 8
WIRE
 0
POLYLINE
 8
WIRE
 66
1
 10
0.0
 20
0.0
 30
0.0
 0
VERTEX
 8
WIRE
 10
  5.3000
 20
  3.2000
 30
0.0
 0
VERTEX
 8
WIRE
 10
  5.3000
 20
  1.8000
 30
0.0
 0
SEQEND
 8
WIRE
 0
POLYLINE
 8
WIRE
 66
1
 10
0.0
 20
0.0
 30
0.0
 0
VERTEX
 8
WIRE
 10
  7.1000
 20
  3.7000
 30
0.0
 0
VERTEX
 8
WIRE
 10
  7.2000
 20
  3.7000
 30
0.0
 0
SEQEND
 8
WIRE
 0
POLYLINE
 8
WIRE
 66
1
 10
0.0
 20
0.0
 30
0.0
 0
VERTEX
 8
WIRE
 10
  5.4000
 20
  3.6000
 30
0.0
 0
VERTEX
 8
WIRE
 10
  7.0000
 20
  3.6000
 30
0.0
 0
SEQEND
 8
WIRE
 0
POLYLINE
 8
WIRE
 66
1
 10
0.0
 20
0.0
 30
0.0
 0
VERTEX
 8
WIRE
 10
  2.3000
 20
  1.9000
 30
0.0
 0
VERTEX
 8
WIRE
 10
  3.9000
 20
  1.9000
 30
0.0
 0
SEQEND
 8
WIRE
 0
POLYLINE
 8
WIRE
 66
1
 10
0.0
 20
0.0
 30
0.0
 0
VERTEX
 8
WIRE
 10
  5.1000
 20
  3.2000
 30
0.0
 0
VERTEX
 8
WIRE
 10
  5.2000
 20
  3.2000
 30
0.0
 0
SEQEND
 8
WIRE
 0
POLYLINE
 8
WIRE
 66
1
 10
0.0
 20
0.0
 30
0.0
 0
VERTEX
 8
WIRE
 10
  2.5000
 20
  4.0000
 30
0.0
 0
VERTEX
 8
WIRE
 10
  3.8000
 20
  4.0000
 30
0.0
 0
SEQEND
 8
WIRE
 0
POLYLINE
 8
WIRE
 66
1
 10
0.0
 20
0.0
 30
0.0
 0
VERTEX
 8
WIRE
 10
  5.3000
 20
  3.2000
 30
0.0
 0
VERTEX
 8
WIRE
 10
  5.4000
 20
  3.2000
 30
0.0
 0
SEQEND
 8
WIRE
 0
POLYLINE
 8
WIRE
 66
1
 70
1
 10
0.0
 20
0.0
 30
0.0
 40
  0.0200
 41
  0.0200
 0
VERTEX
 8
WIRE
 10
  5.3900
 20
  3.2000
 30
0.0
 42
1.0
 0
VERTEX
 8
WIRE
 10
  5.4100
 20
  3.2000
 30
0.0
 42
1.0
 0
SEQEND
 8
WIRE
 0
POLYLINE
 8
WIRE
 66
1
 10
0.0
 20
0.0
 30
0.0
 0
VERTEX
 8
WIRE
 10
  2.5000
 20
  4.0000
 30
0.0
 0
VERTEX
 8
WIRE
 10
  2.5000
 20
  1.7000
 30
0.0
 0
SEQEND
 8
WIRE
 0
POLYLINE
 8
WIRE
 66
1
 70
1
 10
0.0
 20
0.0
 30
0.0
 40
  0.0200
 41
  0.0200
 0
VERTEX
 8
WIRE
 10
  2.4900
 20
  4.0000
 30
0.0
 42
1.0
 0
VERTEX
 8
WIRE
 10
  2.5100
 20
  4.0000
 30
0.0
 42
1.0
 0
SEQEND
 8
WIRE
 0
POLYLINE
 8
WIRE
 66
1
 10
0.0
 20
0.0
 30
0.0
 0
VERTEX
 8
WIRE
 10
  2.3000
 20
  3.1000
 30
0.0
 0
VERTEX
 8
WIRE
 10
  2.3000
 20
  1.9000
 30
0.0
 0
SEQEND
 8
WIRE
 0
POLYLINE
 8
WIRE
 66
1
 70
1
 10
0.0
 20
0.0
 30
0.0
 40
  0.0200
 41
  0.0200
 0
VERTEX
 8
WIRE
 10
  2.2900
 20
  3.1000
 30
0.0
 42
1.0
 0
VERTEX
 8
WIRE
 10
  2.3100
 20
  3.1000
 30
0.0
 42
1.0
 0
SEQEND
 8
WIRE
 0
POLYLINE
 8
WIRE
 66
1
 10
0.0
 20
0.0
 30
0.0
 0
VERTEX
 8
WIRE
 10
  5.4000
 20
  3.1000
 30
0.0
 0
VERTEX
 8
WIRE
 10
  7.1000
 20
  3.1000
 30
0.0
 0
SEQEND
 8
WIRE
 0
POLYLINE
 8
WIRE
 66
1
 10
0.0
 20
0.0
 30
0.0
 0
VERTEX
 8
WIRE
 10
  2.3000
 20
  3.1000
 30
0.0
 0
VERTEX
 8
WIRE
 10
  2.6000
 20
  3.1000
 30
0.0
 0
SEQEND
 8
WIRE
 0
POLYLINE
 8
PARTS
 66
1
 10
0.0
 20
0.0
 30
0.0
 0
VERTEX
 8
PARTS
 10
  3.2000
 20
  2.6000
 30
0.0
 0
VERTEX
 8
PARTS
 10
  3.0000
 20
  2.6000
 30
0.0
 0
SEQEND
 8
PARTS
 0
POLYLINE
 8
PARTS
 66
1
 10
0.0
 20
0.0
 30
0.0
 0
VERTEX
 8
PARTS
 10
  3.1700
 20
  2.5700
 30
0.0
 0
VERTEX
 8
PARTS
 10
  3.0300
 20
  2.5700
 30
0.0
 0
SEQEND
 8
PARTS
 0
POLYLINE
 8
PARTS
 66
1
 10
0.0
 20
0.0
 30
0.0
 0
VERTEX
 8
PARTS
 10
  3.0600
 20
  2.5400
 30
0.0
 0
VERTEX
 8
PARTS
 10
  3.1400
 20
  2.5400
 30
0.0
 0
SEQEND
 8
PARTS
 0
POLYLINE
 8
PARTS
 66
1
 10
0.0
 20
0.0
 30
0.0
 0
VERTEX
 8
PARTS
 10
  3.1100
 20
  2.5100
 30
0.0
 0
VERTEX
 8
PARTS
 10
  3.0900
 20
  2.5100
 30
0.0
 0
SEQEND
 8
PARTS
 0
POLYLINE
 8
PARTS
 66
1
 10
0.0
 20
0.0
 30
0.0
 0
VERTEX
 8
PARTS
 10
  6.6000
 20
  4.8000
 30
0.0
 0
VERTEX
 8
PARTS
 10
  6.6000
 20
  4.6000
 30
0.0
 0
SEQEND
 8
PARTS
 0
POLYLINE
 8
PARTS
 66
1
 10
0.0
 20
0.0
 30
0.0
 0
VERTEX
 8
PARTS
 10
  6.6300
 20
  4.7700
 30
0.0
 0
VERTEX
 8
PARTS
 10
  6.6300
 20
  4.6300
 30
0.0
 0
SEQEND
 8
PARTS
 0
POLYLINE
 8
PARTS
 66
1
 10
0.0
 20
0.0
 30
0.0
 0
VERTEX
 8
PARTS
 10
  6.6600
 20
  4.6600
 30
0.0
 0
VERTEX
 8
PARTS
 10
  6.6600
 20
  4.7400
 30
0.0
 0
SEQEND
 8
PARTS
 0
POLYLINE
 8
PARTS
 66
1
 10
0.0
 20
0.0
 30
0.0
 0
VERTEX
 8
PARTS
 10
  6.6900
 20
  4.7100
 30
0.0
 0
VERTEX
 8
PARTS
 10
  6.6900
 20
  4.6900
 30
0.0
 0
SEQEND
 8
PARTS
 0
POLYLINE
 8
PARTS
 66
1
 10
0.0
 20
0.0
 30
0.0
 0
VERTEX
 8
PARTS
 10
  4.6000
 20
  4.2000
 30
0.0
 0
VERTEX
 8
PARTS
 10
  4.4000
 20
  4.2000
 30
0.0
 0
SEQEND
 8
PARTS
 0
POLYLINE
 8
PARTS
 66
1
 10
0.0
 20
0.0
 30
0.0
 0
VERTEX
 8
PARTS
 10
  4.5700
 20
  4.1700
 30
0.0
 0
VERTEX
 8
PARTS
 10
  4.4300
 20
  4.1700
 30
0.0
 0
SEQEND
 8
PARTS
 0
POLYLINE
 8
PARTS
 66
1
 10
0.0
 20
0.0
 30
0.0
 0
VERTEX
 8
PARTS
 10
  4.4600
 20
  4.1400
 30
0.0
 0
VERTEX
 8
PARTS
 10
  4.5400
 20
  4.1400
 30
0.0
 0
SEQEND
 8
PARTS
 0
POLYLINE
 8
PARTS
 66
1
 10
0.0
 20
0.0
 30
0.0
 0
VERTEX
 8
PARTS
 10
  4.5100
 20
  4.1100
 30
0.0
 0
VERTEX
 8
PARTS
 10
  4.4900
 20
  4.1100
 30
0.0
 0
SEQEND
 8
PARTS
 0
TEXT
 8
PARTTEXT
 10
  4.4000
 20
  2.4186
 30
0.0
 40
  0.0514
 1
VCC
 0
POLYLINE
 8
PARTS
 66
1
 10
0.0
 20
0.0
 30
0.0
 0
VERTEX
 8
PARTS
 10
  4.5000
 20
  2.3400
 30
0.0
 0
VERTEX
 8
PARTS
 10
  4.5000
 20
  2.3000
 30
0.0
 0
SEQEND
 8
PARTS
 0
POLYLINE
 8
PARTS
 66
1
 70
1
 10
0.0
 20
0.0
 30
0.0
 0
VERTEX
 8
PARTS
 10
  4.5300
 20
  2.3700
 30
0.0
 42
  0.0985
 0
VERTEX
 8
PARTS
 10
  4.5277
 20
  2.3815
 30
0.0
 42
  0.0985
 0
VERTEX
 8
PARTS
 10
  4.5212
 20
  2.3912
 30
0.0
 42
  0.0985
 0
VERTEX
 8
PARTS
 10
  4.5115
 20
  2.3977
 30
0.0
 42
  0.0985
 0
VERTEX
 8
PARTS
 10
  4.5000
 20
  2.4000
 30
0.0
 42
  0.0985
 0
VERTEX
 8
PARTS
 10
  4.4885
 20
  2.3977
 30
0.0
 42
  0.0985
 0
VERTEX
 8
PARTS
 10
  4.4788
 20
  2.3912
 30
0.0
 42
  0.0985
 0
VERTEX
 8
PARTS
 10
  4.4723
 20
  2.3815
 30
0.0
 42
  0.0985
 0
VERTEX
 8
PARTS
 10
  4.4700
 20
  2.3700
 30
0.0
 42
  0.0985
 0
VERTEX
 8
PARTS
 10
  4.4723
 20
  2.3585
 30
0.0
 42
  0.0985
 0
VERTEX
 8
PARTS
 10
  4.4788
 20
  2.3488
 30
0.0
 42
  0.0985
 0
VERTEX
 8
PARTS
 10
  4.4885
 20
  2.3423
 30
0.0
 42
  0.0985
 0
VERTEX
 8
PARTS
 10
  4.5000
 20
  2.3400
 30
0.0
 42
  0.0985
 0
VERTEX
 8
PARTS
 10
  4.5115
 20
  2.3423
 30
0.0
 42
  0.0985
 0
VERTEX
 8
PARTS
 10
  4.5212
 20
  2.3488
 30
0.0
 42
  0.0985
 0
VERTEX
 8
PARTS
 10
  4.5277
 20
  2.3585
 30
0.0
 42
  0.0985
 0
SEQEND
 8
PARTS
 0
TEXT
 8
PARTTEXT
 10
  4.4000
 20
  6.7186
 30
0.0
 40
  0.0514
 1
VCC
 0
POLYLINE
 8
PARTS
 66
1
 10
0.0
 20
0.0
 30
0.0
 0
VERTEX
 8
PARTS
 10
  4.5000
 20
  6.6400
 30
0.0
 0
VERTEX
 8
PARTS
 10
  4.5000
 20
  6.6000
 30
0.0
 0
SEQEND
 8
PARTS
 0
POLYLINE
 8
PARTS
 66
1
 70
1
 10
0.0
 20
0.0
 30
0.0
 0
VERTEX
 8
PARTS
 10
  4.5300
 20
  6.6700
 30
0.0
 42
  0.0985
 0
VERTEX
 8
PARTS
 10
  4.5277
 20
  6.6815
 30
0.0
 42
  0.0985
 0
VERTEX
 8
PARTS
 10
  4.5212
 20
  6.6912
 30
0.0
 42
  0.0985
 0
VERTEX
 8
PARTS
 10
  4.5115
 20
  6.6977
 30
0.0
 42
  0.0985
 0
VERTEX
 8
PARTS
 10
  4.5000
 20
  6.7000
 30
0.0
 42
  0.0985
 0
VERTEX
 8
PARTS
 10
  4.4885
 20
  6.6977
 30
0.0
 42
  0.0985
 0
VERTEX
 8
PARTS
 10
  4.4788
 20
  6.6912
 30
0.0
 42
  0.0985
 0
VERTEX
 8
PARTS
 10
  4.4723
 20
  6.6815
 30
0.0
 42
  0.0985
 0
VERTEX
 8
PARTS
 10
  4.4700
 20
  6.6700
 30
0.0
 42
  0.0985
 0
VERTEX
 8
PARTS
 10
  4.4723
 20
  6.6585
 30
0.0
 42
  0.0985
 0
VERTEX
 8
PARTS
 10
  4.4788
 20
  6.6488
 30
0.0
 42
  0.0985
 0
VERTEX
 8
PARTS
 10
  4.4885
 20
  6.6423
 30
0.0
 42
  0.0985
 0
VERTEX
 8
PARTS
 10
  4.5000
 20
  6.6400
 30
0.0
 42
  0.0985
 0
VERTEX
 8
PARTS
 10
  4.5115
 20
  6.6423
 30
0.0
 42
  0.0985
 0
VERTEX
 8
PARTS
 10
  4.5212
 20
  6.6488
 30
0.0
 42
  0.0985
 0
VERTEX
 8
PARTS
 10
  4.5277
 20
  6.6585
 30
0.0
 42
  0.0985
 0
SEQEND
 8
PARTS
 0
TEXT
 8
PARTTEXT
 10
  4.4000
 20
  5.3186
 30
0.0
 40
  0.0514
 1
VCC
 0
POLYLINE
 8
PARTS
 66
1
 10
0.0
 20
0.0
 30
0.0
 0
VERTEX
 8
PARTS
 10
  4.5000
 20
  5.2400
 30
0.0
 0
VERTEX
 8
PARTS
 10
  4.5000
 20
  5.2000
 30
0.0
 0
SEQEND
 8
PARTS
 0
POLYLINE
 8
PARTS
 66
1
 70
1
 10
0.0
 20
0.0
 30
0.0
 0
VERTEX
 8
PARTS
 10
  4.5300
 20
  5.2700
 30
0.0
 42
  0.0985
 0
VERTEX
 8
PARTS
 10
  4.5277
 20
  5.2815
 30
0.0
 42
  0.0985
 0
VERTEX
 8
PARTS
 10
  4.5212
 20
  5.2912
 30
0.0
 42
  0.0985
 0
VERTEX
 8
PARTS
 10
  4.5115
 20
  5.2977
 30
0.0
 42
  0.0985
 0
VERTEX
 8
PARTS
 10
  4.5000
 20
  5.3000
 30
0.0
 42
  0.0985
 0
VERTEX
 8
PARTS
 10
  4.4885
 20
  5.2977
 30
0.0
 42
  0.0985
 0
VERTEX
 8
PARTS
 10
  4.4788
 20
  5.2912
 30
0.0
 42
  0.0985
 0
VERTEX
 8
PARTS
 10
  4.4723
 20
  5.2815
 30
0.0
 42
  0.0985
 0
VERTEX
 8
PARTS
 10
  4.4700
 20
  5.2700
 30
0.0
 42
  0.0985
 0
VERTEX
 8
PARTS
 10
  4.4723
 20
  5.2585
 30
0.0
 42
  0.0985
 0
VERTEX
 8
PARTS
 10
  4.4788
 20
  5.2488
 30
0.0
 42
  0.0985
 0
VERTEX
 8
PARTS
 10
  4.4885
 20
  5.2423
 30
0.0
 42
  0.0985
 0
VERTEX
 8
PARTS
 10
  4.5000
 20
  5.2400
 30
0.0
 42
  0.0985
 0
VERTEX
 8
PARTS
 10
  4.5115
 20
  5.2423
 30
0.0
 42
  0.0985
 0
VERTEX
 8
PARTS
 10
  4.5212
 20
  5.2488
 30
0.0
 42
  0.0985
 0
VERTEX
 8
PARTS
 10
  4.5277
 20
  5.2585
 30
0.0
 42
  0.0985
 0
SEQEND
 8
PARTS
 0
POLYLINE
 8
PARTS
 66
1
 10
0.0
 20
0.0
 30
0.0
 0
VERTEX
 8
PARTS
 10
  3.2000
 20
  5.5000
 30
0.0
 0
VERTEX
 8
PARTS
 10
  3.0000
 20
  5.5000
 30
0.0
 0
SEQEND
 8
PARTS
 0
POLYLINE
 8
PARTS
 66
1
 10
0.0
 20
0.0
 30
0.0
 0
VERTEX
 8
PARTS
 10
  3.1700
 20
  5.4700
 30
0.0
 0
VERTEX
 8
PARTS
 10
  3.0300
 20
  5.4700
 30
0.0
 0
SEQEND
 8
PARTS
 0
POLYLINE
 8
PARTS
 66
1
 10
0.0
 20
0.0
 30
0.0
 0
VERTEX
 8
PARTS
 10
  3.0600
 20
  5.4400
 30
0.0
 0
VERTEX
 8
PARTS
 10
  3.1400
 20
  5.4400
 30
0.0
 0
SEQEND
 8
PARTS
 0
POLYLINE
 8
PARTS
 66
1
 10
0.0
 20
0.0
 30
0.0
 0
VERTEX
 8
PARTS
 10
  3.1100
 20
  5.4100
 30
0.0
 0
VERTEX
 8
PARTS
 10
  3.0900
 20
  5.4100
 30
0.0
 0
SEQEND
 8
PARTS
 0
TEXT
 8
PARTTEXT
 10
  3.0000
 20
  3.7186
 30
0.0
 40
  0.0514
 1
VCC
 0
POLYLINE
 8
PARTS
 66
1
 10
0.0
 20
0.0
 30
0.0
 0
VERTEX
 8
PARTS
 10
  3.1000
 20
  3.6400
 30
0.0
 0
VERTEX
 8
PARTS
 10
  3.1000
 20
  3.6000
 30
0.0
 0
SEQEND
 8
PARTS
 0
POLYLINE
 8
PARTS
 66
1
 70
1
 10
0.0
 20
0.0
 30
0.0
 0
VERTEX
 8
PARTS
 10
  3.1300
 20
  3.6700
 30
0.0
 42
  0.0985
 0
VERTEX
 8
PARTS
 10
  3.1277
 20
  3.6815
 30
0.0
 42
  0.0985
 0
VERTEX
 8
PARTS
 10
  3.1212
 20
  3.6912
 30
0.0
 42
  0.0985
 0
VERTEX
 8
PARTS
 10
  3.1115
 20
  3.6977
 30
0.0
 42
  0.0985
 0
VERTEX
 8
PARTS
 10
  3.1000
 20
  3.7000
 30
0.0
 42
  0.0985
 0
VERTEX
 8
PARTS
 10
  3.0885
 20
  3.6977
 30
0.0
 42
  0.0985
 0
VERTEX
 8
PARTS
 10
  3.0788
 20
  3.6912
 30
0.0
 42
  0.0985
 0
VERTEX
 8
PARTS
 10
  3.0723
 20
  3.6815
 30
0.0
 42
  0.0985
 0
VERTEX
 8
PARTS
 10
  3.0700
 20
  3.6700
 30
0.0
 42
  0.0985
 0
VERTEX
 8
PARTS
 10
  3.0723
 20
  3.6585
 30
0.0
 42
  0.0985
 0
VERTEX
 8
PARTS
 10
  3.0788
 20
  3.6488
 30
0.0
 42
  0.0985
 0
VERTEX
 8
PARTS
 10
  3.0885
 20
  3.6423
 30
0.0
 42
  0.0985
 0
VERTEX
 8
PARTS
 10
  3.1000
 20
  3.6400
 30
0.0
 42
  0.0985
 0
VERTEX
 8
PARTS
 10
  3.1115
 20
  3.6423
 30
0.0
 42
  0.0985
 0
VERTEX
 8
PARTS
 10
  3.1212
 20
  3.6488
 30
0.0
 42
  0.0985
 0
VERTEX
 8
PARTS
 10
  3.1277
 20
  3.6585
 30
0.0
 42
  0.0985
 0
SEQEND
 8
PARTS
 0
POLYLINE
 8
PARTS
 66
1
 10
0.0
 20
0.0
 30
0.0
 0
VERTEX
 8
PARTS
 10
  4.6000
 20
  5.6000
 30
0.0
 0
VERTEX
 8
PARTS
 10
  4.4000
 20
  5.6000
 30
0.0
 0
SEQEND
 8
PARTS
 0
POLYLINE
 8
PARTS
 66
1
 10
0.0
 20
0.0
 30
0.0
 0
VERTEX
 8
PARTS
 10
  4.5700
 20
  5.5700
 30
0.0
 0
VERTEX
 8
PARTS
 10
  4.4300
 20
  5.5700
 30
0.0
 0
SEQEND
 8
PARTS
 0
POLYLINE
 8
PARTS
 66
1
 10
0.0
 20
0.0
 30
0.0
 0
VERTEX
 8
PARTS
 10
  4.4600
 20
  5.5400
 30
0.0
 0
VERTEX
 8
PARTS
 10
  4.5400
 20
  5.5400
 30
0.0
 0
SEQEND
 8
PARTS
 0
POLYLINE
 8
PARTS
 66
1
 10
0.0
 20
0.0
 30
0.0
 0
VERTEX
 8
PARTS
 10
  4.5100
 20
  5.5100
 30
0.0
 0
VERTEX
 8
PARTS
 10
  4.4900
 20
  5.5100
 30
0.0
 0
SEQEND
 8
PARTS
 0
POLYLINE
 8
PARTS
 66
1
 10
0.0
 20
0.0
 30
0.0
 0
VERTEX
 8
PARTS
 10
  4.6000
 20
  2.7000
 30
0.0
 0
VERTEX
 8
PARTS
 10
  4.4000
 20
  2.7000
 30
0.0
 0
SEQEND
 8
PARTS
 0
POLYLINE
 8
PARTS
 66
1
 10
0.0
 20
0.0
 30
0.0
 0
VERTEX
 8
PARTS
 10
  4.5700
 20
  2.6700
 30
0.0
 0
VERTEX
 8
PARTS
 10
  4.4300
 20
  2.6700
 30
0.0
 0
SEQEND
 8
PARTS
 0
POLYLINE
 8
PARTS
 66
1
 10
0.0
 20
0.0
 30
0.0
 0
VERTEX
 8
PARTS
 10
  4.4600
 20
  2.6400
 30
0.0
 0
VERTEX
 8
PARTS
 10
  4.5400
 20
  2.6400
 30
0.0
 0
SEQEND
 8
PARTS
 0
POLYLINE
 8
PARTS
 66
1
 10
0.0
 20
0.0
 30
0.0
 0
VERTEX
 8
PARTS
 10
  4.5100
 20
  2.6100
 30
0.0
 0
VERTEX
 8
PARTS
 10
  4.4900
 20
  2.6100
 30
0.0
 0
SEQEND
 8
PARTS
 0
TEXT
 8
PARTTEXT
 10
  3.0000
 20
  6.6186
 30
0.0
 40
  0.0514
 1
VCC
 0
POLYLINE
 8
PARTS
 66
1
 10
0.0
 20
0.0
 30
0.0
 0
VERTEX
 8
PARTS
 10
  3.1000
 20
  6.5400
 30
0.0
 0
VERTEX
 8
PARTS
 10
  3.1000
 20
  6.5000
 30
0.0
 0
SEQEND
 8
PARTS
 0
POLYLINE
 8
PARTS
 66
1
 70
1
 10
0.0
 20
0.0
 30
0.0
 0
VERTEX
 8
PARTS
 10
  3.1300
 20
  6.5700
 30
0.0
 42
  0.0985
 0
VERTEX
 8
PARTS
 10
  3.1277
 20
  6.5815
 30
0.0
 42
  0.0985
 0
VERTEX
 8
PARTS
 10
  3.1212
 20
  6.5912
 30
0.0
 42
  0.0985
 0
VERTEX
 8
PARTS
 10
  3.1115
 20
  6.5977
 30
0.0
 42
  0.0985
 0
VERTEX
 8
PARTS
 10
  3.1000
 20
  6.6000
 30
0.0
 42
  0.0985
 0
VERTEX
 8
PARTS
 10
  3.0885
 20
  6.5977
 30
0.0
 42
  0.0985
 0
VERTEX
 8
PARTS
 10
  3.0788
 20
  6.5912
 30
0.0
 42
  0.0985
 0
VERTEX
 8
PARTS
 10
  3.0723
 20
  6.5815
 30
0.0
 42
  0.0985
 0
VERTEX
 8
PARTS
 10
  3.0700
 20
  6.5700
 30
0.0
 42
  0.0985
 0
VERTEX
 8
PARTS
 10
  3.0723
 20
  6.5585
 30
0.0
 42
  0.0985
 0
VERTEX
 8
PARTS
 10
  3.0788
 20
  6.5488
 30
0.0
 42
  0.0985
 0
VERTEX
 8
PARTS
 10
  3.0885
 20
  6.5423
 30
0.0
 42
  0.0985
 0
VERTEX
 8
PARTS
 10
  3.1000
 20
  6.5400
 30
0.0
 42
  0.0985
 0
VERTEX
 8
PARTS
 10
  3.1115
 20
  6.5423
 30
0.0
 42
  0.0985
 0
VERTEX
 8
PARTS
 10
  3.1212
 20
  6.5488
 30
0.0
 42
  0.0985
 0
VERTEX
 8
PARTS
 10
  3.1277
 20
  6.5585
 30
0.0
 42
  0.0985
 0
SEQEND
 8
PARTS
 0
TEXT
 8
PARTTEXT
 10
  4.4000
 20
  3.8186
 30
0.0
 40
  0.0514
 1
VCC
 0
POLYLINE
 8
PARTS
 66
1
 10
0.0
 20
0.0
 30
0.0
 0
VERTEX
 8
PARTS
 10
  4.5000
 20
  3.7400
 30
0.0
 0
VERTEX
 8
PARTS
 10
  4.5000
 20
  3.7000
 30
0.0
 0
SEQEND
 8
PARTS
 0
POLYLINE
 8
PARTS
 66
1
 70
1
 10
0.0
 20
0.0
 30
0.0
 0
VERTEX
 8
PARTS
 10
  4.5300
 20
  3.7700
 30
0.0
 42
  0.0985
 0
VERTEX
 8
PARTS
 10
  4.5277
 20
  3.7815
 30
0.0
 42
  0.0985
 0
VERTEX
 8
PARTS
 10
  4.5212
 20
  3.7912
 30
0.0
 42
  0.0985
 0
VERTEX
 8
PARTS
 10
  4.5115
 20
  3.7977
 30
0.0
 42
  0.0985
 0
VERTEX
 8
PARTS
 10
  4.5000
 20
  3.8000
 30
0.0
 42
  0.0985
 0
VERTEX
 8
PARTS
 10
  4.4885
 20
  3.7977
 30
0.0
 42
  0.0985
 0
VERTEX
 8
PARTS
 10
  4.4788
 20
  3.7912
 30
0.0
 42
  0.0985
 0
VERTEX
 8
PARTS
 10
  4.4723
 20
  3.7815
 30
0.0
 42
  0.0985
 0
VERTEX
 8
PARTS
 10
  4.4700
 20
  3.7700
 30
0.0
 42
  0.0985
 0
VERTEX
 8
PARTS
 10
  4.4723
 20
  3.7585
 30
0.0
 42
  0.0985
 0
VERTEX
 8
PARTS
 10
  4.4788
 20
  3.7488
 30
0.0
 42
  0.0985
 0
VERTEX
 8
PARTS
 10
  4.4885
 20
  3.7423
 30
0.0
 42
  0.0985
 0
VERTEX
 8
PARTS
 10
  4.5000
 20
  3.7400
 30
0.0
 42
  0.0985
 0
VERTEX
 8
PARTS
 10
  4.5115
 20
  3.7423
 30
0.0
 42
  0.0985
 0
VERTEX
 8
PARTS
 10
  4.5212
 20
  3.7488
 30
0.0
 42
  0.0985
 0
VERTEX
 8
PARTS
 10
  4.5277
 20
  3.7585
 30
0.0
 42
  0.0985
 0
SEQEND
 8
PARTS
 0
POLYLINE
 8
PARTS
 66
1
 10
0.0
 20
0.0
 30
0.0
 0
VERTEX
 8
PARTS
 10
  4.6000
 20
  1.3000
 30
0.0
 0
VERTEX
 8
PARTS
 10
  4.4000
 20
  1.3000
 30
0.0
 0
SEQEND
 8
PARTS
 0
POLYLINE
 8
PARTS
 66
1
 10
0.0
 20
0.0
 30
0.0
 0
VERTEX
 8
PARTS
 10
  4.5700
 20
  1.2700
 30
0.0
 0
VERTEX
 8
PARTS
 10
  4.4300
 20
  1.2700
 30
0.0
 0
SEQEND
 8
PARTS
 0
POLYLINE
 8
PARTS
 66
1
 10
0.0
 20
0.0
 30
0.0
 0
VERTEX
 8
PARTS
 10
  4.4600
 20
  1.2400
 30
0.0
 0
VERTEX
 8
PARTS
 10
  4.5400
 20
  1.2400
 30
0.0
 0
SEQEND
 8
PARTS
 0
POLYLINE
 8
PARTS
 66
1
 10
0.0
 20
0.0
 30
0.0
 0
VERTEX
 8
PARTS
 10
  4.5100
 20
  1.2100
 30
0.0
 0
VERTEX
 8
PARTS
 10
  4.4900
 20
  1.2100
 30
0.0
 0
SEQEND
 8
PARTS
 0
POLYLINE
 8
PARTS
 66
1
 10
0.0
 20
0.0
 30
0.0
 0
VERTEX
 8
PARTS
 10
  6.6000
 20
  4.3000
 30
0.0
 0
VERTEX
 8
PARTS
 10
  6.6000
 20
  4.1000
 30
0.0
 0
SEQEND
 8
PARTS
 0
POLYLINE
 8
PARTS
 66
1
 10
0.0
 20
0.0
 30
0.0
 0
VERTEX
 8
PARTS
 10
  6.6300
 20
  4.2700
 30
0.0
 0
VERTEX
 8
PARTS
 10
  6.6300
 20
  4.1300
 30
0.0
 0
SEQEND
 8
PARTS
 0
POLYLINE
 8
PARTS
 66
1
 10
0.0
 20
0.0
 30
0.0
 0
VERTEX
 8
PARTS
 10
  6.6600
 20
  4.1600
 30
0.0
 0
VERTEX
 8
PARTS
 10
  6.6600
 20
  4.2400
 30
0.0
 0
SEQEND
 8
PARTS
 0
POLYLINE
 8
PARTS
 66
1
 10
0.0
 20
0.0
 30
0.0
 0
VERTEX
 8
PARTS
 10
  6.6900
 20
  4.2100
 30
0.0
 0
VERTEX
 8
PARTS
 10
  6.6900
 20
  4.1900
 30
0.0
 0
SEQEND
 8
PARTS
 0
POLYLINE
 8
PARTS
 66
1
 10
0.0
 20
0.0
 30
0.0
 0
VERTEX
 8
PARTS
 10
  6.6000
 20
  3.8000
 30
0.0
 0
VERTEX
 8
PARTS
 10
  6.6000
 20
  3.6000
 30
0.0
 0
SEQEND
 8
PARTS
 0
POLYLINE
 8
PARTS
 66
1
 10
0.0
 20
0.0
 30
0.0
 0
VERTEX
 8
PARTS
 10
  6.6300
 20
  3.7700
 30
0.0
 0
VERTEX
 8
PARTS
 10
  6.6300
 20
  3.6300
 30
0.0
 0
SEQEND
 8
PARTS
 0
POLYLINE
 8
PARTS
 66
1
 10
0.0
 20
0.0
 30
0.0
 0
VERTEX
 8
PARTS
 10
  6.6600
 20
  3.6600
 30
0.0
 0
VERTEX
 8
PARTS
 10
  6.6600
 20
  3.7400
 30
0.0
 0
SEQEND
 8
PARTS
 0
POLYLINE
 8
PARTS
 66
1
 10
0.0
 20
0.0
 30
0.0
 0
VERTEX
 8
PARTS
 10
  6.6900
 20
  3.7100
 30
0.0
 0
VERTEX
 8
PARTS
 10
  6.6900
 20
  3.6900
 30
0.0
 0
SEQEND
 8
PARTS
 0
POLYLINE
 8
PARTS
 66
1
 10
0.0
 20
0.0
 30
0.0
 0
VERTEX
 8
PARTS
 10
  6.6000
 20
  3.3000
 30
0.0
 0
VERTEX
 8
PARTS
 10
  6.6000
 20
  3.1000
 30
0.0
 0
SEQEND
 8
PARTS
 0
POLYLINE
 8
PARTS
 66
1
 10
0.0
 20
0.0
 30
0.0
 0
VERTEX
 8
PARTS
 10
  6.6300
 20
  3.2700
 30
0.0
 0
VERTEX
 8
PARTS
 10
  6.6300
 20
  3.1300
 30
0.0
 0
SEQEND
 8
PARTS
 0
POLYLINE
 8
PARTS
 66
1
 10
0.0
 20
0.0
 30
0.0
 0
VERTEX
 8
PARTS
 10
  6.6600
 20
  3.1600
 30
0.0
 0
VERTEX
 8
PARTS
 10
  6.6600
 20
  3.2400
 30
0.0
 0
SEQEND
 8
PARTS
 0
POLYLINE
 8
PARTS
 66
1
 10
0.0
 20
0.0
 30
0.0
 0
VERTEX
 8
PARTS
 10
  6.6900
 20
  3.2100
 30
0.0
 0
VERTEX
 8
PARTS
 10
  6.6900
 20
  3.1900
 30
0.0
 0
SEQEND
 8
PARTS
 0
TEXT
 8
PARTTEXT
 10
  1.6100
 20
  5.9686
 30
0.0
 40
  0.0514
 1
DIR-1
 0
POLYLINE
 8
PARTS
 66
1
 10
0.0
 20
0.0
 30
0.0
 0
VERTEX
 8
PARTS
 10
  1.9000
 20
  6.0500
 30
0.0
 0
VERTEX
 8
PARTS
 10
  2.1000
 20
  6.0500
 30
0.0
 0
SEQEND
 8
PARTS
 0
POLYLINE
 8
PARTS
 66
1
 10
0.0
 20
0.0
 30
0.0
 0
VERTEX
 8
PARTS
 10
  2.1000
 20
  6.0500
 30
0.0
 0
VERTEX
 8
PARTS
 10
  2.2000
 20
  6.0000
 30
0.0
 0
SEQEND
 8
PARTS
 0
POLYLINE
 8
PARTS
 66
1
 10
0.0
 20
0.0
 30
0.0
 0
VERTEX
 8
PARTS
 10
  2.2000
 20
  6.0000
 30
0.0
 0
VERTEX
 8
PARTS
 10
  2.1000
 20
  5.9500
 30
0.0
 0
SEQEND
 8
PARTS
 0
POLYLINE
 8
PARTS
 66
1
 10
0.0
 20
0.0
 30
0.0
 0
VERTEX
 8
PARTS
 10
  2.1000
 20
  5.9500
 30
0.0
 0
VERTEX
 8
PARTS
 10
  1.9000
 20
  5.9500
 30
0.0
 0
SEQEND
 8
PARTS
 0
POLYLINE
 8
PARTS
 66
1
 10
0.0
 20
0.0
 30
0.0
 0
VERTEX
 8
PARTS
 10
  1.9000
 20
  5.9500
 30
0.0
 0
VERTEX
 8
PARTS
 10
  1.9000
 20
  6.0500
 30
0.0
 0
SEQEND
 8
PARTS
 0
TEXT
 8
PARTTEXT
 10
  1.5100
 20
  3.9686
 30
0.0
 40
  0.0514
 1
PWM-2
 0
POLYLINE
 8
PARTS
 66
1
 10
0.0
 20
0.0
 30
0.0
 0
VERTEX
 8
PARTS
 10
  1.9000
 20
  4.0500
 30
0.0
 0
VERTEX
 8
PARTS
 10
  2.1000
 20
  4.0500
 30
0.0
 0
SEQEND
 8
PARTS
 0
POLYLINE
 8
PARTS
 66
1
 10
0.0
 20
0.0
 30
0.0
 0
VERTEX
 8
PARTS
 10
  2.1000
 20
  4.0500
 30
0.0
 0
VERTEX
 8
PARTS
 10
  2.2000
 20
  4.0000
 30
0.0
 0
SEQEND
 8
PARTS
 0
POLYLINE
 8
PARTS
 66
1
 10
0.0
 20
0.0
 30
0.0
 0
VERTEX
 8
PARTS
 10
  2.2000
 20
  4.0000
 30
0.0
 0
VERTEX
 8
PARTS
 10
  2.1000
 20
  3.9500
 30
0.0
 0
SEQEND
 8
PARTS
 0
POLYLINE
 8
PARTS
 66
1
 10
0.0
 20
0.0
 30
0.0
 0
VERTEX
 8
PARTS
 10
  2.1000
 20
  3.9500
 30
0.0
 0
VERTEX
 8
PARTS
 10
  1.9000
 20
  3.9500
 30
0.0
 0
SEQEND
 8
PARTS
 0
POLYLINE
 8
PARTS
 66
1
 10
0.0
 20
0.0
 30
0.0
 0
VERTEX
 8
PARTS
 10
  1.9000
 20
  3.9500
 30
0.0
 0
VERTEX
 8
PARTS
 10
  1.9000
 20
  4.0500
 30
0.0
 0
SEQEND
 8
PARTS
 0
TEXT
 8
PARTTEXT
 10
  1.6100
 20
  3.0686
 30
0.0
 40
  0.0514
 1
DIR-2
 0
POLYLINE
 8
PARTS
 66
1
 10
0.0
 20
0.0
 30
0.0
 0
VERTEX
 8
PARTS
 10
  1.9000
 20
  3.1500
 30
0.0
 0
VERTEX
 8
PARTS
 10
  2.1000
 20
  3.1500
 30
0.0
 0
SEQEND
 8
PARTS
 0
POLYLINE
 8
PARTS
 66
1
 10
0.0
 20
0.0
 30
0.0
 0
VERTEX
 8
PARTS
 10
  2.1000
 20
  3.1500
 30
0.0
 0
VERTEX
 8
PARTS
 10
  2.2000
 20
  3.1000
 30
0.0
 0
SEQEND
 8
PARTS
 0
POLYLINE
 8
PARTS
 66
1
 10
0.0
 20
0.0
 30
0.0
 0
VERTEX
 8
PARTS
 10
  2.2000
 20
  3.1000
 30
0.0
 0
VERTEX
 8
PARTS
 10
  2.1000
 20
  3.0500
 30
0.0
 0
SEQEND
 8
PARTS
 0
POLYLINE
 8
PARTS
 66
1
 10
0.0
 20
0.0
 30
0.0
 0
VERTEX
 8
PARTS
 10
  2.1000
 20
  3.0500
 30
0.0
 0
VERTEX
 8
PARTS
 10
  1.9000
 20
  3.0500
 30
0.0
 0
SEQEND
 8
PARTS
 0
POLYLINE
 8
PARTS
 66
1
 10
0.0
 20
0.0
 30
0.0
 0
VERTEX
 8
PARTS
 10
  1.9000
 20
  3.0500
 30
0.0
 0
VERTEX
 8
PARTS
 10
  1.9000
 20
  3.1500
 30
0.0
 0
SEQEND
 8
PARTS
 0
TEXT
 8
PARTTEXT
 10
  1.5100
 20
  6.7686
 30
0.0
 40
  0.0514
 1
PWM-1
 0
POLYLINE
 8
PARTS
 66
1
 10
0.0
 20
0.0
 30
0.0
 0
VERTEX
 8
PARTS
 10
  1.9000
 20
  6.8500
 30
0.0
 0
VERTEX
 8
PARTS
 10
  2.1000
 20
  6.8500
 30
0.0
 0
SEQEND
 8
PARTS
 0
POLYLINE
 8
PARTS
 66
1
 10
0.0
 20
0.0
 30
0.0
 0
VERTEX
 8
PARTS
 10
  2.1000
 20
  6.8500
 30
0.0
 0
VERTEX
 8
PARTS
 10
  2.2000
 20
  6.8000
 30
0.0
 0
SEQEND
 8
PARTS
 0
POLYLINE
 8
PARTS
 66
1
 10
0.0
 20
0.0
 30
0.0
 0
VERTEX
 8
PARTS
 10
  2.2000
 20
  6.8000
 30
0.0
 0
VERTEX
 8
PARTS
 10
  2.1000
 20
  6.7500
 30
0.0
 0
SEQEND
 8
PARTS
 0
POLYLINE
 8
PARTS
 66
1
 10
0.0
 20
0.0
 30
0.0
 0
VERTEX
 8
PARTS
 10
  2.1000
 20
  6.7500
 30
0.0
 0
VERTEX
 8
PARTS
 10
  1.9000
 20
  6.7500
 30
0.0
 0
SEQEND
 8
PARTS
 0
POLYLINE
 8
PARTS
 66
1
 10
0.0
 20
0.0
 30
0.0
 0
VERTEX
 8
PARTS
 10
  1.9000
 20
  6.7500
 30
0.0
 0
VERTEX
 8
PARTS
 10
  1.9000
 20
  6.8500
 30
0.0
 0
SEQEND
 8
PARTS
 0
TEXT
 8
PARTTEXT
 10
  7.5200
 20
  3.9686
 30
0.0
 40
  0.0514
 1
MOTOR inA1
 0
POLYLINE
 8
PARTS
 66
1
 10
0.0
 20
0.0
 30
0.0
 0
VERTEX
 8
PARTS
 10
  7.5000
 20
  4.0000
 30
0.0
 0
VERTEX
 8
PARTS
 10
  7.4000
 20
  4.0500
 30
0.0
 0
SEQEND
 8
PARTS
 0
POLYLINE
 8
PARTS
 66
1
 10
0.0
 20
0.0
 30
0.0
 0
VERTEX
 8
PARTS
 10
  7.4000
 20
  4.0500
 30
0.0
 0
VERTEX
 8
PARTS
 10
  7.2000
 20
  4.0500
 30
0.0
 0
SEQEND
 8
PARTS
 0
POLYLINE
 8
PARTS
 66
1
 10
0.0
 20
0.0
 30
0.0
 0
VERTEX
 8
PARTS
 10
  7.2000
 20
  4.0500
 30
0.0
 0
VERTEX
 8
PARTS
 10
  7.2000
 20
  3.9500
 30
0.0
 0
SEQEND
 8
PARTS
 0
POLYLINE
 8
PARTS
 66
1
 10
0.0
 20
0.0
 30
0.0
 0
VERTEX
 8
PARTS
 10
  7.2000
 20
  3.9500
 30
0.0
 0
VERTEX
 8
PARTS
 10
  7.4000
 20
  3.9500
 30
0.0
 0
SEQEND
 8
PARTS
 0
POLYLINE
 8
PARTS
 66
1
 10
0.0
 20
0.0
 30
0.0
 0
VERTEX
 8
PARTS
 10
  7.4000
 20
  3.9500
 30
0.0
 0
VERTEX
 8
PARTS
 10
  7.5000
 20
  4.0000
 30
0.0
 0
SEQEND
 8
PARTS
 0
TEXT
 8
PARTTEXT
 10
  7.5200
 20
  3.8686
 30
0.0
 40
  0.0514
 1
MOTOR inB1
 0
POLYLINE
 8
PARTS
 66
1
 10
0.0
 20
0.0
 30
0.0
 0
VERTEX
 8
PARTS
 10
  7.5000
 20
  3.9000
 30
0.0
 0
VERTEX
 8
PARTS
 10
  7.4000
 20
  3.9500
 30
0.0
 0
SEQEND
 8
PARTS
 0
POLYLINE
 8
PARTS
 66
1
 10
0.0
 20
0.0
 30
0.0
 0
VERTEX
 8
PARTS
 10
  7.4000
 20
  3.9500
 30
0.0
 0
VERTEX
 8
PARTS
 10
  7.2000
 20
  3.9500
 30
0.0
 0
SEQEND
 8
PARTS
 0
POLYLINE
 8
PARTS
 66
1
 10
0.0
 20
0.0
 30
0.0
 0
VERTEX
 8
PARTS
 10
  7.2000
 20
  3.9500
 30
0.0
 0
VERTEX
 8
PARTS
 10
  7.2000
 20
  3.8500
 30
0.0
 0
SEQEND
 8
PARTS
 0
POLYLINE
 8
PARTS
 66
1
 10
0.0
 20
0.0
 30
0.0
 0
VERTEX
 8
PARTS
 10
  7.2000
 20
  3.8500
 30
0.0
 0
VERTEX
 8
PARTS
 10
  7.4000
 20
  3.8500
 30
0.0
 0
SEQEND
 8
PARTS
 0
POLYLINE
 8
PARTS
 66
1
 10
0.0
 20
0.0
 30
0.0
 0
VERTEX
 8
PARTS
 10
  7.4000
 20
  3.8500
 30
0.0
 0
VERTEX
 8
PARTS
 10
  7.5000
 20
  3.9000
 30
0.0
 0
SEQEND
 8
PARTS
 0
TEXT
 8
PARTTEXT
 10
  7.5200
 20
  3.7686
 30
0.0
 40
  0.0514
 1
MOTOR inA2
 0
POLYLINE
 8
PARTS
 66
1
 10
0.0
 20
0.0
 30
0.0
 0
VERTEX
 8
PARTS
 10
  7.5000
 20
  3.8000
 30
0.0
 0
VERTEX
 8
PARTS
 10
  7.4000
 20
  3.8500
 30
0.0
 0
SEQEND
 8
PARTS
 0
POLYLINE
 8
PARTS
 66
1
 10
0.0
 20
0.0
 30
0.0
 0
VERTEX
 8
PARTS
 10
  7.4000
 20
  3.8500
 30
0.0
 0
VERTEX
 8
PARTS
 10
  7.2000
 20
  3.8500
 30
0.0
 0
SEQEND
 8
PARTS
 0
POLYLINE
 8
PARTS
 66
1
 10
0.0
 20
0.0
 30
0.0
 0
VERTEX
 8
PARTS
 10
  7.2000
 20
  3.8500
 30
0.0
 0
VERTEX
 8
PARTS
 10
  7.2000
 20
  3.7500
 30
0.0
 0
SEQEND
 8
PARTS
 0
POLYLINE
 8
PARTS
 66
1
 10
0.0
 20
0.0
 30
0.0
 0
VERTEX
 8
PARTS
 10
  7.2000
 20
  3.7500
 30
0.0
 0
VERTEX
 8
PARTS
 10
  7.4000
 20
  3.7500
 30
0.0
 0
SEQEND
 8
PARTS
 0
POLYLINE
 8
PARTS
 66
1
 10
0.0
 20
0.0
 30
0.0
 0
VERTEX
 8
PARTS
 10
  7.4000
 20
  3.7500
 30
0.0
 0
VERTEX
 8
PARTS
 10
  7.5000
 20
  3.8000
 30
0.0
 0
SEQEND
 8
PARTS
 0
TEXT
 8
PARTTEXT
 10
  7.5200
 20
  3.6686
 30
0.0
 40
  0.0514
 1
MOTOR inB2
 0
POLYLINE
 8
PARTS
 66
1
 10
0.0
 20
0.0
 30
0.0
 0
VERTEX
 8
PARTS
 10
  7.5000
 20
  3.7000
 30
0.0
 0
VERTEX
 8
PARTS
 10
  7.4000
 20
  3.7500
 30
0.0
 0
SEQEND
 8
PARTS
 0
POLYLINE
 8
PARTS
 66
1
 10
0.0
 20
0.0
 30
0.0
 0
VERTEX
 8
PARTS
 10
  7.4000
 20
  3.7500
 30
0.0
 0
VERTEX
 8
PARTS
 10
  7.2000
 20
  3.7500
 30
0.0
 0
SEQEND
 8
PARTS
 0
POLYLINE
 8
PARTS
 66
1
 10
0.0
 20
0.0
 30
0.0
 0
VERTEX
 8
PARTS
 10
  7.2000
 20
  3.7500
 30
0.0
 0
VERTEX
 8
PARTS
 10
  7.2000
 20
  3.6500
 30
0.0
 0
SEQEND
 8
PARTS
 0
POLYLINE
 8
PARTS
 66
1
 10
0.0
 20
0.0
 30
0.0
 0
VERTEX
 8
PARTS
 10
  7.2000
 20
  3.6500
 30
0.0
 0
VERTEX
 8
PARTS
 10
  7.4000
 20
  3.6500
 30
0.0
 0
SEQEND
 8
PARTS
 0
POLYLINE
 8
PARTS
 66
1
 10
0.0
 20
0.0
 30
0.0
 0
VERTEX
 8
PARTS
 10
  7.4000
 20
  3.6500
 30
0.0
 0
VERTEX
 8
PARTS
 10
  7.5000
 20
  3.7000
 30
0.0
 0
SEQEND
 8
PARTS
 0
TEXT
 8
COMMENTS
 10
  3.3000
 20
  6.1958
 30
0.0
 40
  0.0742
 1
12
 0
TEXT
 8
COMMENTS
 10
  2.7000
 20
  6.1958
 30
0.0
 40
  0.0742
 1
13
 0
TEXT
 8
COMMENTS
 10
  3.3000
 20
  3.2958
 30
0.0
 40
  0.0742
 1
8
 0
TEXT
 8
COMMENTS
 10
  2.7000
 20
  3.2958
 30
0.0
 40
  0.0742
 1
9
 0
TEXT
 8
COMMENTS
 10
  7.5000
 20
  3.3958
 30
0.0
 40
  0.0742
 1
PRINT ERROR :
 0
TEXT
 8
COMMENTS
 10
  7.5000
 20
  3.2558
 30
0.0
 40
  0.0742
 1
MR-RM02 Board
 0
ENDSEC
 0
EOF
