 0
SECTION
 2
HEADER
 9
$ACADVER
 1
AC1009
 0
ENDSEC
 0
SECTION
 2
ENTITIES
 0
POLYLINE
 8
TITLE
 66
1
 70
1
 10
0.0
 20
0.0
 30
0.0
 0
VERTEX
 8
TITLE
 10
 -0.1000
 20
  0.1000
 30
0.0
 0
VERTEX
 8
TITLE
 10
  9.6000
 20
  0.1000
 30
0.0
 0
VERTEX
 8
TITLE
 10
  9.6000
 20
  7.3000
 30
0.0
 0
VERTEX
 8
TITLE
 10
 -0.1000
 20
  7.3000
 30
0.0
 0
SEQEND
 8
TITLE
 0
POLYLINE
 8
TITLE
 66
1
 70
1
 10
0.0
 20
0.0
 30
0.0
 0
VERTEX
 8
TITLE
 10
  0.0000
 20
  0.2000
 30
0.0
 0
VERTEX
 8
TITLE
 10
  9.5000
 20
  0.2000
 30
0.0
 0
VERTEX
 8
TITLE
 10
  9.5000
 20
  7.2000
 30
0.0
 0
VERTEX
 8
TITLE
 10
  0.0000
 20
  7.2000
 30
0.0
 0
SEQEND
 8
TITLE
 0
POLYLINE
 8
TITLE
 66
1
 10
0.0
 20
0.0
 30
0.0
 0
VERTEX
 8
TITLE
 10
  2.0600
 20
  0.2000
 30
0.0
 0
VERTEX
 8
TITLE
 10
  2.0600
 20
  0.1000
 30
0.0
 0
SEQEND
 8
TITLE
 0
POLYLINE
 8
TITLE
 66
1
 10
0.0
 20
0.0
 30
0.0
 0
VERTEX
 8
TITLE
 10
  2.0600
 20
  7.2000
 30
0.0
 0
VERTEX
 8
TITLE
 10
  2.0600
 20
  7.3000
 30
0.0
 0
SEQEND
 8
TITLE
 0
POLYLINE
 8
TITLE
 66
1
 10
0.0
 20
0.0
 30
0.0
 0
VERTEX
 8
TITLE
 10
  3.9200
 20
  0.2000
 30
0.0
 0
VERTEX
 8
TITLE
 10
  3.9200
 20
  0.1000
 30
0.0
 0
SEQEND
 8
TITLE
 0
POLYLINE
 8
TITLE
 66
1
 10
0.0
 20
0.0
 30
0.0
 0
VERTEX
 8
TITLE
 10
  3.9200
 20
  7.2000
 30
0.0
 0
VERTEX
 8
TITLE
 10
  3.9200
 20
  7.3000
 30
0.0
 0
SEQEND
 8
TITLE
 0
POLYLINE
 8
TITLE
 66
1
 10
0.0
 20
0.0
 30
0.0
 0
VERTEX
 8
TITLE
 10
  5.7800
 20
  0.2000
 30
0.0
 0
VERTEX
 8
TITLE
 10
  5.7800
 20
  0.1000
 30
0.0
 0
SEQEND
 8
TITLE
 0
POLYLINE
 8
TITLE
 66
1
 10
0.0
 20
0.0
 30
0.0
 0
VERTEX
 8
TITLE
 10
  5.7800
 20
  7.2000
 30
0.0
 0
VERTEX
 8
TITLE
 10
  5.7800
 20
  7.3000
 30
0.0
 0
SEQEND
 8
TITLE
 0
POLYLINE
 8
TITLE
 66
1
 10
0.0
 20
0.0
 30
0.0
 0
VERTEX
 8
TITLE
 10
  7.6400
 20
  0.2000
 30
0.0
 0
VERTEX
 8
TITLE
 10
  7.6400
 20
  0.1000
 30
0.0
 0
SEQEND
 8
TITLE
 0
POLYLINE
 8
TITLE
 66
1
 10
0.0
 20
0.0
 30
0.0
 0
VERTEX
 8
TITLE
 10
  7.6400
 20
  7.2000
 30
0.0
 0
VERTEX
 8
TITLE
 10
  7.6400
 20
  7.3000
 30
0.0
 0
SEQEND
 8
TITLE
 0
TEXT
 8
TITLE
 10
  1.1300
 20
  0.1200
 30
0.0
 40
  0.0500
 1
5
 0
TEXT
 8
TITLE
 10
  1.1300
 20
  7.2200
 30
0.0
 40
  0.0500
 1
5
 0
TEXT
 8
TITLE
 10
  2.9900
 20
  0.1200
 30
0.0
 40
  0.0500
 1
4
 0
TEXT
 8
TITLE
 10
  2.9900
 20
  7.2200
 30
0.0
 40
  0.0500
 1
4
 0
TEXT
 8
TITLE
 10
  4.8500
 20
  0.1200
 30
0.0
 40
  0.0500
 1
3
 0
TEXT
 8
TITLE
 10
  4.8500
 20
  7.2200
 30
0.0
 40
  0.0500
 1
3
 0
TEXT
 8
TITLE
 10
  6.7100
 20
  0.1200
 30
0.0
 40
  0.0500
 1
2
 0
TEXT
 8
TITLE
 10
  6.7100
 20
  7.2200
 30
0.0
 40
  0.0500
 1
2
 0
TEXT
 8
TITLE
 10
  8.5700
 20
  0.1200
 30
0.0
 40
  0.0500
 1
1
 0
TEXT
 8
TITLE
 10
  8.5700
 20
  7.2200
 30
0.0
 40
  0.0500
 1
1
 0
POLYLINE
 8
TITLE
 66
1
 10
0.0
 20
0.0
 30
0.0
 0
VERTEX
 8
TITLE
 10
 -0.1000
 20
  5.3000
 30
0.0
 0
VERTEX
 8
TITLE
 10
  0.0000
 20
  5.3000
 30
0.0
 0
SEQEND
 8
TITLE
 0
POLYLINE
 8
TITLE
 66
1
 10
0.0
 20
0.0
 30
0.0
 0
VERTEX
 8
TITLE
 10
  9.5000
 20
  5.3000
 30
0.0
 0
VERTEX
 8
TITLE
 10
  9.6000
 20
  5.3000
 30
0.0
 0
SEQEND
 8
TITLE
 0
SOLID
 8
TITLE
 10
  0.0000
 20
  3.6000
 30
0.0
 11
 -0.0500
 21
  3.6200
 31
0.0
 12
 -0.0500
 22
  3.5800
 32
0.0
 13
 -0.0500
 23
  3.6000
 33
0.0
 0
SOLID
 8
TITLE
 10
  9.5000
 20
  3.6000
 30
0.0
 11
  9.5500
 21
  3.6200
 31
0.0
 12
  9.5500
 22
  3.5800
 32
0.0
 13
  9.5500
 23
  3.6000
 33
0.0
 0
POLYLINE
 8
TITLE
 66
1
 10
0.0
 20
0.0
 30
0.0
 0
VERTEX
 8
TITLE
 10
 -0.1000
 20
  3.6000
 30
0.0
 0
VERTEX
 8
TITLE
 10
  0.0000
 20
  3.6000
 30
0.0
 0
SEQEND
 8
TITLE
 0
POLYLINE
 8
TITLE
 66
1
 10
0.0
 20
0.0
 30
0.0
 0
VERTEX
 8
TITLE
 10
  9.5000
 20
  3.6000
 30
0.0
 0
VERTEX
 8
TITLE
 10
  9.6000
 20
  3.6000
 30
0.0
 0
SEQEND
 8
TITLE
 0
SOLID
 8
TITLE
 10
  0.0000
 20
  3.6000
 30
0.0
 11
 -0.0500
 21
  3.6200
 31
0.0
 12
 -0.0500
 22
  3.5800
 32
0.0
 13
 -0.0500
 23
  3.6000
 33
0.0
 0
SOLID
 8
TITLE
 10
  9.5000
 20
  3.6000
 30
0.0
 11
  9.5500
 21
  3.6200
 31
0.0
 12
  9.5500
 22
  3.5800
 32
0.0
 13
  9.5500
 23
  3.6000
 33
0.0
 0
POLYLINE
 8
TITLE
 66
1
 10
0.0
 20
0.0
 30
0.0
 0
VERTEX
 8
TITLE
 10
 -0.1000
 20
  1.9000
 30
0.0
 0
VERTEX
 8
TITLE
 10
  0.0000
 20
  1.9000
 30
0.0
 0
SEQEND
 8
TITLE
 0
POLYLINE
 8
TITLE
 66
1
 10
0.0
 20
0.0
 30
0.0
 0
VERTEX
 8
TITLE
 10
  9.5000
 20
  1.9000
 30
0.0
 0
VERTEX
 8
TITLE
 10
  9.6000
 20
  1.9000
 30
0.0
 0
SEQEND
 8
TITLE
 0
SOLID
 8
TITLE
 10
  0.0000
 20
  3.6000
 30
0.0
 11
 -0.0500
 21
  3.6200
 31
0.0
 12
 -0.0500
 22
  3.5800
 32
0.0
 13
 -0.0500
 23
  3.6000
 33
0.0
 0
SOLID
 8
TITLE
 10
  9.5000
 20
  3.6000
 30
0.0
 11
  9.5500
 21
  3.6200
 31
0.0
 12
  9.5500
 22
  3.5800
 32
0.0
 13
  9.5500
 23
  3.6000
 33
0.0
 0
TEXT
 8
TITLE
 10
 -0.0800
 20
  6.1500
 30
0.0
 40
  0.0500
 1
D
 0
TEXT
 8
TITLE
 10
  9.5200
 20
  6.1500
 30
0.0
 40
  0.0500
 1
D
 0
TEXT
 8
TITLE
 10
 -0.0800
 20
  4.4500
 30
0.0
 40
  0.0500
 1
C
 0
TEXT
 8
TITLE
 10
  9.5200
 20
  4.4500
 30
0.0
 40
  0.0500
 1
C
 0
TEXT
 8
TITLE
 10
 -0.0800
 20
  2.7500
 30
0.0
 40
  0.0500
 1
B
 0
TEXT
 8
TITLE
 10
  9.5200
 20
  2.7500
 30
0.0
 40
  0.0500
 1
B
 0
TEXT
 8
TITLE
 10
 -0.0800
 20
  1.0500
 30
0.0
 40
  0.0500
 1
A
 0
TEXT
 8
TITLE
 10
  9.5200
 20
  1.0500
 30
0.0
 40
  0.0500
 1
A
 0
TEXT
 8
TITLE
 10
  6.3000
 20
  0.4186
 30
0.0
 40
  0.0514
 1
<Doc>
 0
TEXT
 8
TITLE
 10
  9.3000
 20
  0.4186
 30
0.0
 40
  0.0514
 1
<RevCode>
 0
TEXT
 8
TITLE
 10
  6.3000
 20
  0.7186
 30
0.0
 40
  0.0514
 1
MAINBOARD - AT90S8515
 0
TEXT
 8
TITLE
 10
  6.0000
 20
  0.4186
 30
0.0
 40
  0.0514
 1
A
 0
TEXT
 8
TITLE
 10
  8.4000
 20
  0.2186
 30
0.0
 40
  0.0514
 1
1
 0
TEXT
 8
TITLE
 10
  9.0000
 20
  0.2186
 30
0.0
 40
  0.0514
 1
2
 0
TEXT
 8
TITLE
 10
  6.4200
 20
  0.2186
 30
0.0
 40
  0.0514
 1
Monday, December 17, 2001
 0
TEXT
 8
PARTTEXT
 10
  5.9000
 20
  0.8186
 30
0.0
 40
  0.0514
 1
Title
 0
TEXT
 8
PARTTEXT
 10
  5.9000
 20
  0.5186
 30
0.0
 40
  0.0514
 1
Size
 0
TEXT
 8
PARTTEXT
 10
  6.3000
 20
  0.5186
 30
0.0
 40
  0.0514
 1
Document Number
 0
TEXT
 8
PARTTEXT
 10
  9.2000
 20
  0.5186
 30
0.0
 40
  0.0514
 1
Rev
 0
TEXT
 8
PARTTEXT
 10
  5.9000
 20
  0.2186
 30
0.0
 40
  0.0514
 1
Date:
 0
TEXT
 8
PARTTEXT
 10
  7.9000
 20
  0.2186
 30
0.0
 40
  0.0514
 1
Sheet
 0
POLYLINE
 8
TITLE
 66
1
 70
1
 10
0.0
 20
0.0
 30
0.0
 0
VERTEX
 8
TITLE
 10
  5.9000
 20
  1.1000
 30
0.0
 0
VERTEX
 8
TITLE
 10
  9.5000
 20
  1.1000
 30
0.0
 0
VERTEX
 8
TITLE
 10
  9.5000
 20
  0.9000
 30
0.0
 0
VERTEX
 8
TITLE
 10
  5.9000
 20
  0.9000
 30
0.0
 0
SEQEND
 8
TITLE
 0
POLYLINE
 8
TITLE
 66
1
 70
1
 10
0.0
 20
0.0
 30
0.0
 0
VERTEX
 8
TITLE
 10
  5.9000
 20
  0.9000
 30
0.0
 0
VERTEX
 8
TITLE
 10
  9.5000
 20
  0.9000
 30
0.0
 0
VERTEX
 8
TITLE
 10
  9.5000
 20
  0.6000
 30
0.0
 0
VERTEX
 8
TITLE
 10
  5.9000
 20
  0.6000
 30
0.0
 0
SEQEND
 8
TITLE
 0
POLYLINE
 8
TITLE
 66
1
 70
1
 10
0.0
 20
0.0
 30
0.0
 0
VERTEX
 8
TITLE
 10
  5.9000
 20
  0.6000
 30
0.0
 0
VERTEX
 8
TITLE
 10
  6.2000
 20
  0.6000
 30
0.0
 0
VERTEX
 8
TITLE
 10
  6.2000
 20
  0.3000
 30
0.0
 0
VERTEX
 8
TITLE
 10
  5.9000
 20
  0.3000
 30
0.0
 0
SEQEND
 8
TITLE
 0
POLYLINE
 8
TITLE
 66
1
 70
1
 10
0.0
 20
0.0
 30
0.0
 0
VERTEX
 8
TITLE
 10
  6.2000
 20
  0.6000
 30
0.0
 0
VERTEX
 8
TITLE
 10
  9.2000
 20
  0.6000
 30
0.0
 0
VERTEX
 8
TITLE
 10
  9.2000
 20
  0.3000
 30
0.0
 0
VERTEX
 8
TITLE
 10
  6.2000
 20
  0.3000
 30
0.0
 0
SEQEND
 8
TITLE
 0
POLYLINE
 8
TITLE
 66
1
 70
1
 10
0.0
 20
0.0
 30
0.0
 0
VERTEX
 8
TITLE
 10
  9.2000
 20
  0.6000
 30
0.0
 0
VERTEX
 8
TITLE
 10
  9.5000
 20
  0.6000
 30
0.0
 0
VERTEX
 8
TITLE
 10
  9.5000
 20
  0.3000
 30
0.0
 0
VERTEX
 8
TITLE
 10
  9.2000
 20
  0.3000
 30
0.0
 0
SEQEND
 8
TITLE
 0
POLYLINE
 8
TITLE
 66
1
 70
1
 10
0.0
 20
0.0
 30
0.0
 0
VERTEX
 8
TITLE
 10
  5.9000
 20
  0.3000
 30
0.0
 0
VERTEX
 8
TITLE
 10
  7.9000
 20
  0.3000
 30
0.0
 0
VERTEX
 8
TITLE
 10
  7.9000
 20
  0.2000
 30
0.0
 0
VERTEX
 8
TITLE
 10
  5.9000
 20
  0.2000
 30
0.0
 0
SEQEND
 8
TITLE
 0
POLYLINE
 8
TITLE
 66
1
 70
1
 10
0.0
 20
0.0
 30
0.0
 0
VERTEX
 8
TITLE
 10
  7.9000
 20
  0.3000
 30
0.0
 0
VERTEX
 8
TITLE
 10
  9.5000
 20
  0.3000
 30
0.0
 0
VERTEX
 8
TITLE
 10
  9.5000
 20
  0.2000
 30
0.0
 0
VERTEX
 8
TITLE
 10
  7.9000
 20
  0.2000
 30
0.0
 0
SEQEND
 8
TITLE
 0
TEXT
 8
PARTTEXT
 10
  8.7000
 20
  0.2186
 30
0.0
 40
  0.0514
 1
of
 0
TEXT
 8
PARTTEXT
 10
  4.7000
 20
  5.3186
 30
0.0
 40
  0.0514
 1
U1
 0
TEXT
 8
PARTTEXT
 10
  4.7000
 20
  2.6186
 30
0.0
 40
  0.0514
 1
AT90S8515
 0
LINE
 8
PARTS
 10
  4.4000
 20
  3.2000
 30
0.0
 11
  4.7000
 21
  3.2000
 31
0.0
 0
TEXT
 8
PARTS
 10
  4.7900
 20
  3.1750
 30
0.0
 40
  0.0500
 1
%%oRESET%%o
 0
TEXT
 8
PARTS
 10
  4.6000
 20
  3.2300
 30
0.0
 40
  0.0500
 1
9
 0
LINE
 8
PARTS
 10
  4.4000
 20
  3.3000
 30
0.0
 11
  4.7000
 21
  3.3000
 31
0.0
 0
TEXT
 8
PARTS
 10
  4.7900
 20
  3.2750
 30
0.0
 40
  0.0500
 1
XTAL2
 0
TEXT
 8
PARTS
 10
  4.5600
 20
  3.3300
 30
0.0
 40
  0.0500
 1
18
 0
LINE
 8
PARTS
 10
  4.4000
 20
  3.4000
 30
0.0
 11
  4.7000
 21
  3.4000
 31
0.0
 0
TEXT
 8
PARTS
 10
  4.7900
 20
  3.3750
 30
0.0
 40
  0.0500
 1
XTAL1
 0
TEXT
 8
PARTS
 10
  4.5600
 20
  3.4300
 30
0.0
 40
  0.0500
 1
19
 0
LINE
 8
PARTS
 10
  6.2000
 20
  3.4000
 30
0.0
 11
  5.9000
 21
  3.4000
 31
0.0
 0
TEXT
 8
PARTS
 10
  5.6500
 20
  3.3750
 30
0.0
 40
  0.0500
 1
OC1B
 0
TEXT
 8
PARTS
 10
  5.9600
 20
  3.4300
 30
0.0
 40
  0.0500
 1
29
 0
LINE
 8
PARTS
 10
  6.2000
 20
  3.2000
 30
0.0
 11
  5.9000
 21
  3.2000
 31
0.0
 0
TEXT
 8
PARTS
 10
  5.6900
 20
  3.1750
 30
0.0
 40
  0.0500
 1
ALE
 0
TEXT
 8
PARTS
 10
  5.9600
 20
  3.2300
 30
0.0
 40
  0.0500
 1
30
 0
LINE
 8
PARTS
 10
  4.4000
 20
  3.0000
 30
0.0
 11
  4.7000
 21
  3.0000
 31
0.0
 0
TEXT
 8
PARTS
 10
  4.7900
 20
  2.9750
 30
0.0
 40
  0.0500
 1
ICP
 0
TEXT
 8
PARTS
 10
  4.5600
 20
  3.0300
 30
0.0
 40
  0.0500
 1
31
 0
LINE
 8
PARTS
 10
  4.4000
 20
  2.8000
 30
0.0
 11
  4.7000
 21
  2.8000
 31
0.0
 0
TEXT
 8
PARTS
 10
  4.7900
 20
  2.7750
 30
0.0
 40
  0.0500
 1
VCC
 0
TEXT
 8
PARTS
 10
  4.5600
 20
  2.8300
 30
0.0
 40
  0.0500
 1
40
 0
LINE
 8
PARTS
 10
  6.2000
 20
  5.2000
 30
0.0
 11
  5.9000
 21
  5.2000
 31
0.0
 0
TEXT
 8
PARTS
 10
  5.5700
 20
  5.1750
 30
0.0
 40
  0.0500
 1
PC0/A8
 0
TEXT
 8
PARTS
 10
  5.9600
 20
  5.2300
 30
0.0
 40
  0.0500
 1
21
 0
LINE
 8
PARTS
 10
  6.2000
 20
  5.1000
 30
0.0
 11
  5.9000
 21
  5.1000
 31
0.0
 0
TEXT
 8
PARTS
 10
  5.5700
 20
  5.0750
 30
0.0
 40
  0.0500
 1
PC1/A9
 0
TEXT
 8
PARTS
 10
  5.9600
 20
  5.1300
 30
0.0
 40
  0.0500
 1
22
 0
LINE
 8
PARTS
 10
  6.2000
 20
  5.0000
 30
0.0
 11
  5.9000
 21
  5.0000
 31
0.0
 0
TEXT
 8
PARTS
 10
  5.5300
 20
  4.9750
 30
0.0
 40
  0.0500
 1
PC2/A10
 0
TEXT
 8
PARTS
 10
  5.9600
 20
  5.0300
 30
0.0
 40
  0.0500
 1
23
 0
LINE
 8
PARTS
 10
  6.2000
 20
  4.9000
 30
0.0
 11
  5.9000
 21
  4.9000
 31
0.0
 0
TEXT
 8
PARTS
 10
  5.5300
 20
  4.8750
 30
0.0
 40
  0.0500
 1
PC3/A11
 0
TEXT
 8
PARTS
 10
  5.9600
 20
  4.9300
 30
0.0
 40
  0.0500
 1
24
 0
LINE
 8
PARTS
 10
  6.2000
 20
  4.8000
 30
0.0
 11
  5.9000
 21
  4.8000
 31
0.0
 0
TEXT
 8
PARTS
 10
  5.5300
 20
  4.7750
 30
0.0
 40
  0.0500
 1
PC4/A12
 0
TEXT
 8
PARTS
 10
  5.9600
 20
  4.8300
 30
0.0
 40
  0.0500
 1
25
 0
LINE
 8
PARTS
 10
  6.2000
 20
  4.7000
 30
0.0
 11
  5.9000
 21
  4.7000
 31
0.0
 0
TEXT
 8
PARTS
 10
  5.5300
 20
  4.6750
 30
0.0
 40
  0.0500
 1
PC5/A13
 0
TEXT
 8
PARTS
 10
  5.9600
 20
  4.7300
 30
0.0
 40
  0.0500
 1
26
 0
LINE
 8
PARTS
 10
  6.2000
 20
  4.6000
 30
0.0
 11
  5.9000
 21
  4.6000
 31
0.0
 0
TEXT
 8
PARTS
 10
  5.5300
 20
  4.5750
 30
0.0
 40
  0.0500
 1
PC6/A14
 0
TEXT
 8
PARTS
 10
  5.9600
 20
  4.6300
 30
0.0
 40
  0.0500
 1
27
 0
LINE
 8
PARTS
 10
  6.2000
 20
  4.5000
 30
0.0
 11
  5.9000
 21
  4.5000
 31
0.0
 0
TEXT
 8
PARTS
 10
  5.5300
 20
  4.4750
 30
0.0
 40
  0.0500
 1
PC7/A15
 0
TEXT
 8
PARTS
 10
  5.9600
 20
  4.5300
 30
0.0
 40
  0.0500
 1
28
 0
LINE
 8
PARTS
 10
  6.2000
 20
  4.3000
 30
0.0
 11
  5.9000
 21
  4.3000
 31
0.0
 0
TEXT
 8
PARTS
 10
  5.5300
 20
  4.2750
 30
0.0
 40
  0.0500
 1
PD0/RXD
 0
TEXT
 8
PARTS
 10
  5.9600
 20
  4.3300
 30
0.0
 40
  0.0500
 1
10
 0
LINE
 8
PARTS
 10
  6.2000
 20
  4.2000
 30
0.0
 11
  5.9000
 21
  4.2000
 31
0.0
 0
TEXT
 8
PARTS
 10
  5.5300
 20
  4.1750
 30
0.0
 40
  0.0500
 1
PD1/TXD
 0
TEXT
 8
PARTS
 10
  5.9600
 20
  4.2300
 30
0.0
 40
  0.0500
 1
11
 0
LINE
 8
PARTS
 10
  6.2000
 20
  4.1000
 30
0.0
 11
  5.9000
 21
  4.1000
 31
0.0
 0
TEXT
 8
PARTS
 10
  5.4900
 20
  4.0750
 30
0.0
 40
  0.0500
 1
PD2/INT0
 0
TEXT
 8
PARTS
 10
  5.9600
 20
  4.1300
 30
0.0
 40
  0.0500
 1
12
 0
LINE
 8
PARTS
 10
  6.2000
 20
  4.0000
 30
0.0
 11
  5.9000
 21
  4.0000
 31
0.0
 0
TEXT
 8
PARTS
 10
  5.4900
 20
  3.9750
 30
0.0
 40
  0.0500
 1
PD3/INT1
 0
TEXT
 8
PARTS
 10
  5.9600
 20
  4.0300
 30
0.0
 40
  0.0500
 1
13
 0
LINE
 8
PARTS
 10
  6.2000
 20
  3.9000
 30
0.0
 11
  5.9000
 21
  3.9000
 31
0.0
 0
TEXT
 8
PARTS
 10
  5.6900
 20
  3.8750
 30
0.0
 40
  0.0500
 1
PD4
 0
TEXT
 8
PARTS
 10
  5.9600
 20
  3.9300
 30
0.0
 40
  0.0500
 1
14
 0
LINE
 8
PARTS
 10
  6.2000
 20
  3.8000
 30
0.0
 11
  5.9000
 21
  3.8000
 31
0.0
 0
TEXT
 8
PARTS
 10
  5.4900
 20
  3.7750
 30
0.0
 40
  0.0500
 1
PD5/OC1A
 0
TEXT
 8
PARTS
 10
  5.9600
 20
  3.8300
 30
0.0
 40
  0.0500
 1
15
 0
LINE
 8
PARTS
 10
  6.2000
 20
  3.7000
 30
0.0
 11
  5.9000
 21
  3.7000
 31
0.0
 0
TEXT
 8
PARTS
 10
  5.5700
 20
  3.6750
 30
0.0
 40
  0.0500
 1
PD6/%%oWR%%o
 0
TEXT
 8
PARTS
 10
  5.9600
 20
  3.7300
 30
0.0
 40
  0.0500
 1
16
 0
LINE
 8
PARTS
 10
  6.2000
 20
  3.6000
 30
0.0
 11
  5.9000
 21
  3.6000
 31
0.0
 0
TEXT
 8
PARTS
 10
  5.5700
 20
  3.5750
 30
0.0
 40
  0.0500
 1
PD7/%%oRD%%o
 0
TEXT
 8
PARTS
 10
  5.9600
 20
  3.6300
 30
0.0
 40
  0.0500
 1
17
 0
LINE
 8
PARTS
 10
  4.4000
 20
  4.3000
 30
0.0
 11
  4.7000
 21
  4.3000
 31
0.0
 0
TEXT
 8
PARTS
 10
  4.7900
 20
  4.2750
 30
0.0
 40
  0.0500
 1
PB0/T0
 0
TEXT
 8
PARTS
 10
  4.6000
 20
  4.3300
 30
0.0
 40
  0.0500
 1
1
 0
LINE
 8
PARTS
 10
  4.4000
 20
  4.2000
 30
0.0
 11
  4.7000
 21
  4.2000
 31
0.0
 0
TEXT
 8
PARTS
 10
  4.7900
 20
  4.1750
 30
0.0
 40
  0.0500
 1
PB1/T1
 0
TEXT
 8
PARTS
 10
  4.6000
 20
  4.2300
 30
0.0
 40
  0.0500
 1
2
 0
LINE
 8
PARTS
 10
  4.4000
 20
  4.1000
 30
0.0
 11
  4.7000
 21
  4.1000
 31
0.0
 0
TEXT
 8
PARTS
 10
  4.7900
 20
  4.0750
 30
0.0
 40
  0.0500
 1
PB2/AIN0
 0
TEXT
 8
PARTS
 10
  4.6000
 20
  4.1300
 30
0.0
 40
  0.0500
 1
3
 0
LINE
 8
PARTS
 10
  4.4000
 20
  4.0000
 30
0.0
 11
  4.7000
 21
  4.0000
 31
0.0
 0
TEXT
 8
PARTS
 10
  4.7900
 20
  3.9750
 30
0.0
 40
  0.0500
 1
PB3/AIN1
 0
TEXT
 8
PARTS
 10
  4.6000
 20
  4.0300
 30
0.0
 40
  0.0500
 1
4
 0
LINE
 8
PARTS
 10
  4.4000
 20
  3.9000
 30
0.0
 11
  4.7000
 21
  3.9000
 31
0.0
 0
TEXT
 8
PARTS
 10
  4.7900
 20
  3.8750
 30
0.0
 40
  0.0500
 1
PB4/%%oSS%%o
 0
TEXT
 8
PARTS
 10
  4.6000
 20
  3.9300
 30
0.0
 40
  0.0500
 1
5
 0
LINE
 8
PARTS
 10
  4.4000
 20
  3.8000
 30
0.0
 11
  4.7000
 21
  3.8000
 31
0.0
 0
TEXT
 8
PARTS
 10
  4.7900
 20
  3.7750
 30
0.0
 40
  0.0500
 1
PB5/MOSI
 0
TEXT
 8
PARTS
 10
  4.6000
 20
  3.8300
 30
0.0
 40
  0.0500
 1
6
 0
LINE
 8
PARTS
 10
  4.4000
 20
  3.7000
 30
0.0
 11
  4.7000
 21
  3.7000
 31
0.0
 0
TEXT
 8
PARTS
 10
  4.7900
 20
  3.6750
 30
0.0
 40
  0.0500
 1
PB6/MISO
 0
TEXT
 8
PARTS
 10
  4.6000
 20
  3.7300
 30
0.0
 40
  0.0500
 1
7
 0
LINE
 8
PARTS
 10
  4.4000
 20
  3.6000
 30
0.0
 11
  4.7000
 21
  3.6000
 31
0.0
 0
TEXT
 8
PARTS
 10
  4.7900
 20
  3.5750
 30
0.0
 40
  0.0500
 1
PB7/SCK
 0
TEXT
 8
PARTS
 10
  4.6000
 20
  3.6300
 30
0.0
 40
  0.0500
 1
8
 0
LINE
 8
PARTS
 10
  4.4000
 20
  5.2000
 30
0.0
 11
  4.7000
 21
  5.2000
 31
0.0
 0
TEXT
 8
PARTS
 10
  4.7900
 20
  5.1750
 30
0.0
 40
  0.0500
 1
PA0/AD0
 0
TEXT
 8
PARTS
 10
  4.5600
 20
  5.2300
 30
0.0
 40
  0.0500
 1
39
 0
LINE
 8
PARTS
 10
  4.4000
 20
  5.1000
 30
0.0
 11
  4.7000
 21
  5.1000
 31
0.0
 0
TEXT
 8
PARTS
 10
  4.7900
 20
  5.0750
 30
0.0
 40
  0.0500
 1
PA1/AD1
 0
TEXT
 8
PARTS
 10
  4.5600
 20
  5.1300
 30
0.0
 40
  0.0500
 1
38
 0
LINE
 8
PARTS
 10
  4.4000
 20
  5.0000
 30
0.0
 11
  4.7000
 21
  5.0000
 31
0.0
 0
TEXT
 8
PARTS
 10
  4.7900
 20
  4.9750
 30
0.0
 40
  0.0500
 1
PA2/AD2
 0
TEXT
 8
PARTS
 10
  4.5600
 20
  5.0300
 30
0.0
 40
  0.0500
 1
37
 0
LINE
 8
PARTS
 10
  4.4000
 20
  4.9000
 30
0.0
 11
  4.7000
 21
  4.9000
 31
0.0
 0
TEXT
 8
PARTS
 10
  4.7900
 20
  4.8750
 30
0.0
 40
  0.0500
 1
PA3/AD3
 0
TEXT
 8
PARTS
 10
  4.5600
 20
  4.9300
 30
0.0
 40
  0.0500
 1
36
 0
LINE
 8
PARTS
 10
  4.4000
 20
  4.8000
 30
0.0
 11
  4.7000
 21
  4.8000
 31
0.0
 0
TEXT
 8
PARTS
 10
  4.7900
 20
  4.7750
 30
0.0
 40
  0.0500
 1
PA4/AD4
 0
TEXT
 8
PARTS
 10
  4.5600
 20
  4.8300
 30
0.0
 40
  0.0500
 1
35
 0
LINE
 8
PARTS
 10
  4.4000
 20
  4.7000
 30
0.0
 11
  4.7000
 21
  4.7000
 31
0.0
 0
TEXT
 8
PARTS
 10
  4.7900
 20
  4.6750
 30
0.0
 40
  0.0500
 1
PA5/AD5
 0
TEXT
 8
PARTS
 10
  4.5600
 20
  4.7300
 30
0.0
 40
  0.0500
 1
34
 0
LINE
 8
PARTS
 10
  4.4000
 20
  4.6000
 30
0.0
 11
  4.7000
 21
  4.6000
 31
0.0
 0
TEXT
 8
PARTS
 10
  4.7900
 20
  4.5750
 30
0.0
 40
  0.0500
 1
PA6/AD6
 0
TEXT
 8
PARTS
 10
  4.5600
 20
  4.6300
 30
0.0
 40
  0.0500
 1
33
 0
LINE
 8
PARTS
 10
  4.4000
 20
  4.5000
 30
0.0
 11
  4.7000
 21
  4.5000
 31
0.0
 0
TEXT
 8
PARTS
 10
  4.7900
 20
  4.4750
 30
0.0
 40
  0.0500
 1
PA7/AD7
 0
TEXT
 8
PARTS
 10
  4.5600
 20
  4.5300
 30
0.0
 40
  0.0500
 1
32
 0
POLYLINE
 8
PARTS
 66
1
 70
1
 10
0.0
 20
0.0
 30
0.0
 0
VERTEX
 8
PARTS
 10
  4.7000
 20
  5.3000
 30
0.0
 0
VERTEX
 8
PARTS
 10
  5.9000
 20
  5.3000
 30
0.0
 0
VERTEX
 8
PARTS
 10
  5.9000
 20
  2.7000
 30
0.0
 0
VERTEX
 8
PARTS
 10
  4.7000
 20
  2.7000
 30
0.0
 0
SEQEND
 8
PARTS
 0
TEXT
 8
PARTTEXT
 10
  8.6500
 20
  5.3086
 30
0.0
 40
  0.0514
 1
JP3
 0
TEXT
 8
PARTTEXT
 10
  8.6500
 20
  3.9086
 30
0.0
 40
  0.0514
 1
AVR ISP
 0
CIRCLE
 8
PARTS
 10
  8.5700
 20
  5.2000
 30
0.0
 40
  0.0300
 0
LINE
 8
PARTS
 10
  8.3000
 20
  5.2000
 30
0.0
 11
  8.5400
 21
  5.2000
 31
0.0
 0
TEXT
 8
PARTS
 10
  8.6900
 20
  5.1750
 30
0.0
 40
  0.0500
 1
1
 0
TEXT
 8
PARTS
 10
  8.5400
 20
  5.2300
 30
0.0
 40
  0.0500
 1

 0
CIRCLE
 8
PARTS
 10
  8.5700
 20
  5.1000
 30
0.0
 40
  0.0300
 0
LINE
 8
PARTS
 10
  8.3000
 20
  5.1000
 30
0.0
 11
  8.5400
 21
  5.1000
 31
0.0
 0
TEXT
 8
PARTS
 10
  8.6900
 20
  5.0750
 30
0.0
 40
  0.0500
 1
2
 0
TEXT
 8
PARTS
 10
  8.5400
 20
  5.1300
 30
0.0
 40
  0.0500
 1

 0
CIRCLE
 8
PARTS
 10
  8.5700
 20
  5.0000
 30
0.0
 40
  0.0300
 0
LINE
 8
PARTS
 10
  8.3000
 20
  5.0000
 30
0.0
 11
  8.5400
 21
  5.0000
 31
0.0
 0
TEXT
 8
PARTS
 10
  8.6900
 20
  4.9750
 30
0.0
 40
  0.0500
 1
3
 0
TEXT
 8
PARTS
 10
  8.5400
 20
  5.0300
 30
0.0
 40
  0.0500
 1

 0
CIRCLE
 8
PARTS
 10
  8.5700
 20
  4.9000
 30
0.0
 40
  0.0300
 0
LINE
 8
PARTS
 10
  8.3000
 20
  4.9000
 30
0.0
 11
  8.5400
 21
  4.9000
 31
0.0
 0
TEXT
 8
PARTS
 10
  8.6900
 20
  4.8750
 30
0.0
 40
  0.0500
 1
4
 0
TEXT
 8
PARTS
 10
  8.5400
 20
  4.9300
 30
0.0
 40
  0.0500
 1

 0
CIRCLE
 8
PARTS
 10
  8.5700
 20
  4.8000
 30
0.0
 40
  0.0300
 0
LINE
 8
PARTS
 10
  8.3000
 20
  4.8000
 30
0.0
 11
  8.5400
 21
  4.8000
 31
0.0
 0
TEXT
 8
PARTS
 10
  8.6900
 20
  4.7750
 30
0.0
 40
  0.0500
 1
5
 0
TEXT
 8
PARTS
 10
  8.5400
 20
  4.8300
 30
0.0
 40
  0.0500
 1

 0
CIRCLE
 8
PARTS
 10
  8.5700
 20
  4.7000
 30
0.0
 40
  0.0300
 0
LINE
 8
PARTS
 10
  8.3000
 20
  4.7000
 30
0.0
 11
  8.5400
 21
  4.7000
 31
0.0
 0
TEXT
 8
PARTS
 10
  8.6900
 20
  4.6750
 30
0.0
 40
  0.0500
 1
6
 0
TEXT
 8
PARTS
 10
  8.5400
 20
  4.7300
 30
0.0
 40
  0.0500
 1

 0
CIRCLE
 8
PARTS
 10
  8.5700
 20
  4.6000
 30
0.0
 40
  0.0300
 0
LINE
 8
PARTS
 10
  8.3000
 20
  4.6000
 30
0.0
 11
  8.5400
 21
  4.6000
 31
0.0
 0
TEXT
 8
PARTS
 10
  8.6900
 20
  4.5750
 30
0.0
 40
  0.0500
 1
7
 0
TEXT
 8
PARTS
 10
  8.5400
 20
  4.6300
 30
0.0
 40
  0.0500
 1

 0
CIRCLE
 8
PARTS
 10
  8.5700
 20
  4.5000
 30
0.0
 40
  0.0300
 0
LINE
 8
PARTS
 10
  8.3000
 20
  4.5000
 30
0.0
 11
  8.5400
 21
  4.5000
 31
0.0
 0
TEXT
 8
PARTS
 10
  8.6900
 20
  4.4750
 30
0.0
 40
  0.0500
 1
8
 0
TEXT
 8
PARTS
 10
  8.5400
 20
  4.5300
 30
0.0
 40
  0.0500
 1

 0
CIRCLE
 8
PARTS
 10
  8.5700
 20
  4.4000
 30
0.0
 40
  0.0300
 0
LINE
 8
PARTS
 10
  8.3000
 20
  4.4000
 30
0.0
 11
  8.5400
 21
  4.4000
 31
0.0
 0
TEXT
 8
PARTS
 10
  8.6900
 20
  4.3750
 30
0.0
 40
  0.0500
 1
9
 0
TEXT
 8
PARTS
 10
  8.5400
 20
  4.4300
 30
0.0
 40
  0.0500
 1

 0
CIRCLE
 8
PARTS
 10
  8.5700
 20
  4.3000
 30
0.0
 40
  0.0300
 0
LINE
 8
PARTS
 10
  8.3000
 20
  4.3000
 30
0.0
 11
  8.5400
 21
  4.3000
 31
0.0
 0
TEXT
 8
PARTS
 10
  8.6900
 20
  4.2750
 30
0.0
 40
  0.0500
 1
10
 0
TEXT
 8
PARTS
 10
  8.5400
 20
  4.3300
 30
0.0
 40
  0.0500
 1

 0
CIRCLE
 8
PARTS
 10
  8.5700
 20
  4.2000
 30
0.0
 40
  0.0300
 0
LINE
 8
PARTS
 10
  8.3000
 20
  4.2000
 30
0.0
 11
  8.5400
 21
  4.2000
 31
0.0
 0
TEXT
 8
PARTS
 10
  8.6900
 20
  4.1750
 30
0.0
 40
  0.0500
 1
11
 0
TEXT
 8
PARTS
 10
  8.5400
 20
  4.2300
 30
0.0
 40
  0.0500
 1

 0
CIRCLE
 8
PARTS
 10
  8.5700
 20
  4.1000
 30
0.0
 40
  0.0300
 0
LINE
 8
PARTS
 10
  8.3000
 20
  4.1000
 30
0.0
 11
  8.5400
 21
  4.1000
 31
0.0
 0
TEXT
 8
PARTS
 10
  8.6900
 20
  4.0750
 30
0.0
 40
  0.0500
 1
12
 0
TEXT
 8
PARTS
 10
  8.5400
 20
  4.1300
 30
0.0
 40
  0.0500
 1

 0
POLYLINE
 8
PARTS
 66
1
 70
1
 10
0.0
 20
0.0
 30
0.0
 0
VERTEX
 8
PARTS
 10
  8.6000
 20
  5.3000
 30
0.0
 0
VERTEX
 8
PARTS
 10
  8.9000
 20
  5.3000
 30
0.0
 0
VERTEX
 8
PARTS
 10
  8.9000
 20
  4.0000
 30
0.0
 0
VERTEX
 8
PARTS
 10
  8.6000
 20
  4.0000
 30
0.0
 0
SEQEND
 8
PARTS
 0
TEXT
 8
PARTTEXT
 10
  2.8000
 20
  2.7186
 30
0.0
 40
  0.0514
 1
R1
 0
TEXT
 8
PARTTEXT
 10
  2.8000
 20
  2.6186
 30
0.0
 40
  0.0514
 1
100k
 0
LINE
 8
PARTS
 10
  2.7000
 20
  2.9000
 30
0.0
 11
  2.7000
 21
  2.8000
 31
0.0
 0
LINE
 8
PARTS
 10
  2.7000
 20
  2.4000
 30
0.0
 11
  2.7000
 21
  2.5000
 31
0.0
 0
POLYLINE
 8
PARTS
 66
1
 10
0.0
 20
0.0
 30
0.0
 0
VERTEX
 8
PARTS
 10
  2.7000
 20
  2.8000
 30
0.0
 0
VERTEX
 8
PARTS
 10
  2.7300
 20
  2.7700
 30
0.0
 0
SEQEND
 8
PARTS
 0
POLYLINE
 8
PARTS
 66
1
 10
0.0
 20
0.0
 30
0.0
 0
VERTEX
 8
PARTS
 10
  2.7300
 20
  2.7700
 30
0.0
 0
VERTEX
 8
PARTS
 10
  2.6700
 20
  2.7100
 30
0.0
 0
SEQEND
 8
PARTS
 0
POLYLINE
 8
PARTS
 66
1
 10
0.0
 20
0.0
 30
0.0
 0
VERTEX
 8
PARTS
 10
  2.6700
 20
  2.7100
 30
0.0
 0
VERTEX
 8
PARTS
 10
  2.7300
 20
  2.6500
 30
0.0
 0
SEQEND
 8
PARTS
 0
POLYLINE
 8
PARTS
 66
1
 10
0.0
 20
0.0
 30
0.0
 0
VERTEX
 8
PARTS
 10
  2.7300
 20
  2.6500
 30
0.0
 0
VERTEX
 8
PARTS
 10
  2.6700
 20
  2.5900
 30
0.0
 0
SEQEND
 8
PARTS
 0
POLYLINE
 8
PARTS
 66
1
 10
0.0
 20
0.0
 30
0.0
 0
VERTEX
 8
PARTS
 10
  2.6700
 20
  2.5900
 30
0.0
 0
VERTEX
 8
PARTS
 10
  2.7300
 20
  2.5300
 30
0.0
 0
SEQEND
 8
PARTS
 0
POLYLINE
 8
PARTS
 66
1
 10
0.0
 20
0.0
 30
0.0
 0
VERTEX
 8
PARTS
 10
  2.7300
 20
  2.5300
 30
0.0
 0
VERTEX
 8
PARTS
 10
  2.7000
 20
  2.5000
 30
0.0
 0
SEQEND
 8
PARTS
 0
TEXT
 8
PARTTEXT
 10
  3.3000
 20
  2.6186
 30
0.0
 40
  0.0514
 1
C2
 0
TEXT
 8
PARTTEXT
 10
  3.5000
 20
  2.6186
 30
0.0
 40
  0.0514
 1
27pF
 0
LINE
 8
PARTS
 10
  3.5000
 20
  2.8000
 30
0.0
 11
  3.4000
 21
  2.8000
 31
0.0
 0
LINE
 8
PARTS
 10
  3.2000
 20
  2.8000
 30
0.0
 11
  3.3000
 21
  2.8000
 31
0.0
 0
POLYLINE
 8
PARTS
 66
1
 10
0.0
 20
0.0
 30
0.0
 0
VERTEX
 8
PARTS
 10
  3.4000
 20
  2.7000
 30
0.0
 0
VERTEX
 8
PARTS
 10
  3.4000
 20
  2.9000
 30
0.0
 0
SEQEND
 8
PARTS
 0
POLYLINE
 8
PARTS
 66
1
 10
0.0
 20
0.0
 30
0.0
 0
VERTEX
 8
PARTS
 10
  3.3600
 20
  2.8000
 30
0.0
 0
VERTEX
 8
PARTS
 10
  3.3000
 20
  2.8000
 30
0.0
 0
SEQEND
 8
PARTS
 0
POLYLINE
 8
PARTS
 66
1
 10
0.0
 20
0.0
 30
0.0
 0
VERTEX
 8
PARTS
 10
  3.3300
 20
  2.9000
 30
0.0
 42
 -0.1654
 0
VERTEX
 8
PARTS
 10
  3.3600
 20
  2.8000
 30
0.0
 0
SEQEND
 8
PARTS
 0
POLYLINE
 8
PARTS
 66
1
 10
0.0
 20
0.0
 30
0.0
 0
VERTEX
 8
PARTS
 10
  3.3600
 20
  2.8000
 30
0.0
 42
 -0.1654
 0
VERTEX
 8
PARTS
 10
  3.3300
 20
  2.7000
 30
0.0
 0
SEQEND
 8
PARTS
 0
TEXT
 8
PARTTEXT
 10
  1.6500
 20
  6.4986
 30
0.0
 40
  0.0514
 1
U2
 0
TEXT
 8
PARTTEXT
 10
  1.6500
 20
  6.4086
 30
0.0
 40
  0.0514
 1
MC7805CT
 0
LINE
 8
PARTS
 10
  1.3000
 20
  6.3000
 30
0.0
 11
  1.6000
 21
  6.3000
 31
0.0
 0
TEXT
 8
PARTS
 10
  1.6900
 20
  6.2750
 30
0.0
 40
  0.0500
 1
IN
 0
TEXT
 8
PARTS
 10
  1.5000
 20
  6.3300
 30
0.0
 40
  0.0500
 1
1
 0
LINE
 8
PARTS
 10
  2.9000
 20
  6.3000
 30
0.0
 11
  2.6000
 21
  6.3000
 31
0.0
 0
TEXT
 8
PARTS
 10
  2.3900
 20
  6.2750
 30
0.0
 40
  0.0500
 1
OUT
 0
TEXT
 8
PARTS
 10
  2.6600
 20
  6.3300
 30
0.0
 40
  0.0500
 1
2
 0
LINE
 8
PARTS
 10
  2.0000
 20
  5.6000
 30
0.0
 11
  2.0000
 21
  5.9000
 31
0.0
 0
TEXT
 8
PARTS
 10
  2.0250
 20
  5.9900
 30
0.0
 40
  0.0500
 50
 90.0000
 1
GND
 0
TEXT
 8
PARTS
 10
  1.9700
 20
  5.7800
 30
0.0
 40
  0.0500
 50
 90.0000
 1
3
 0
POLYLINE
 8
PARTS
 66
1
 70
1
 10
0.0
 20
0.0
 30
0.0
 0
VERTEX
 8
PARTS
 10
  1.6000
 20
  6.4000
 30
0.0
 0
VERTEX
 8
PARTS
 10
  2.6000
 20
  6.4000
 30
0.0
 0
VERTEX
 8
PARTS
 10
  2.6000
 20
  5.9000
 30
0.0
 0
VERTEX
 8
PARTS
 10
  1.6000
 20
  5.9000
 30
0.0
 0
SEQEND
 8
PARTS
 0
TEXT
 8
PARTTEXT
 10
  2.8000
 20
  2.1186
 30
0.0
 40
  0.0514
 1
SW1
 0
TEXT
 8
PARTTEXT
 10
  2.8000
 20
  2.0186
 30
0.0
 40
  0.0514
 1
RST
 0
LINE
 8
PARTS
 10
  2.7000
 20
  1.8000
 30
0.0
 11
  2.7000
 21
  1.9000
 31
0.0
 0
TEXT
 8
PARTS
 10
  2.6700
 20
  1.7800
 30
0.0
 40
  0.0500
 50
 90.0000
 1
1
 0
LINE
 8
PARTS
 10
  2.7000
 20
  2.3000
 30
0.0
 11
  2.7000
 21
  2.2000
 31
0.0
 0
TEXT
 8
PARTS
 10
  2.6700
 20
  2.2600
 30
0.0
 40
  0.0500
 50
 90.0000
 1
2
 0
POLYLINE
 8
PARTS
 66
1
 10
0.0
 20
0.0
 30
0.0
 0
VERTEX
 8
PARTS
 10
  2.6400
 20
  1.9000
 30
0.0
 0
VERTEX
 8
PARTS
 10
  2.6400
 20
  2.2000
 30
0.0
 0
SEQEND
 8
PARTS
 0
POLYLINE
 8
PARTS
 66
1
 10
0.0
 20
0.0
 30
0.0
 0
VERTEX
 8
PARTS
 10
  2.6400
 20
  2.2000
 30
0.0
 0
VERTEX
 8
PARTS
 10
  2.6300
 20
  2.2000
 30
0.0
 0
SEQEND
 8
PARTS
 0
POLYLINE
 8
PARTS
 66
1
 10
0.0
 20
0.0
 30
0.0
 0
VERTEX
 8
PARTS
 10
  2.6300
 20
  2.2000
 30
0.0
 0
VERTEX
 8
PARTS
 10
  2.6300
 20
  2.0800
 30
0.0
 0
SEQEND
 8
PARTS
 0
POLYLINE
 8
PARTS
 66
1
 10
0.0
 20
0.0
 30
0.0
 0
VERTEX
 8
PARTS
 10
  2.6300
 20
  2.0800
 30
0.0
 0
VERTEX
 8
PARTS
 10
  2.6000
 20
  2.0800
 30
0.0
 0
SEQEND
 8
PARTS
 0
POLYLINE
 8
PARTS
 66
1
 10
0.0
 20
0.0
 30
0.0
 0
VERTEX
 8
PARTS
 10
  2.6000
 20
  2.0800
 30
0.0
 0
VERTEX
 8
PARTS
 10
  2.6000
 20
  2.0200
 30
0.0
 0
SEQEND
 8
PARTS
 0
POLYLINE
 8
PARTS
 66
1
 10
0.0
 20
0.0
 30
0.0
 0
VERTEX
 8
PARTS
 10
  2.6000
 20
  2.0200
 30
0.0
 0
VERTEX
 8
PARTS
 10
  2.6300
 20
  2.0200
 30
0.0
 0
SEQEND
 8
PARTS
 0
POLYLINE
 8
PARTS
 66
1
 10
0.0
 20
0.0
 30
0.0
 0
VERTEX
 8
PARTS
 10
  2.6300
 20
  2.0200
 30
0.0
 0
VERTEX
 8
PARTS
 10
  2.6300
 20
  1.9000
 30
0.0
 0
SEQEND
 8
PARTS
 0
POLYLINE
 8
PARTS
 66
1
 10
0.0
 20
0.0
 30
0.0
 0
VERTEX
 8
PARTS
 10
  2.6300
 20
  1.9000
 30
0.0
 0
VERTEX
 8
PARTS
 10
  2.6400
 20
  1.9000
 30
0.0
 0
SEQEND
 8
PARTS
 0
POLYLINE
 8
PARTS
 66
1
 70
1
 10
0.0
 20
0.0
 30
0.0
 0
VERTEX
 8
PARTS
 10
  2.7300
 20
  1.9300
 30
0.0
 42
  0.0985
 0
VERTEX
 8
PARTS
 10
  2.7277
 20
  1.9415
 30
0.0
 42
  0.0985
 0
VERTEX
 8
PARTS
 10
  2.7212
 20
  1.9512
 30
0.0
 42
  0.0985
 0
VERTEX
 8
PARTS
 10
  2.7115
 20
  1.9577
 30
0.0
 42
  0.0985
 0
VERTEX
 8
PARTS
 10
  2.7000
 20
  1.9600
 30
0.0
 42
  0.0985
 0
VERTEX
 8
PARTS
 10
  2.6885
 20
  1.9577
 30
0.0
 42
  0.0985
 0
VERTEX
 8
PARTS
 10
  2.6788
 20
  1.9512
 30
0.0
 42
  0.0985
 0
VERTEX
 8
PARTS
 10
  2.6723
 20
  1.9415
 30
0.0
 42
  0.0985
 0
VERTEX
 8
PARTS
 10
  2.6700
 20
  1.9300
 30
0.0
 42
  0.0985
 0
VERTEX
 8
PARTS
 10
  2.6723
 20
  1.9185
 30
0.0
 42
  0.0985
 0
VERTEX
 8
PARTS
 10
  2.6788
 20
  1.9088
 30
0.0
 42
  0.0985
 0
VERTEX
 8
PARTS
 10
  2.6885
 20
  1.9023
 30
0.0
 42
  0.0985
 0
VERTEX
 8
PARTS
 10
  2.7000
 20
  1.9000
 30
0.0
 42
  0.0985
 0
VERTEX
 8
PARTS
 10
  2.7115
 20
  1.9023
 30
0.0
 42
  0.0985
 0
VERTEX
 8
PARTS
 10
  2.7212
 20
  1.9088
 30
0.0
 42
  0.0985
 0
VERTEX
 8
PARTS
 10
  2.7277
 20
  1.9185
 30
0.0
 42
  0.0985
 0
SEQEND
 8
PARTS
 0
POLYLINE
 8
PARTS
 66
1
 70
1
 10
0.0
 20
0.0
 30
0.0
 0
VERTEX
 8
PARTS
 10
  2.7300
 20
  2.1700
 30
0.0
 42
  0.0985
 0
VERTEX
 8
PARTS
 10
  2.7277
 20
  2.1815
 30
0.0
 42
  0.0985
 0
VERTEX
 8
PARTS
 10
  2.7212
 20
  2.1912
 30
0.0
 42
  0.0985
 0
VERTEX
 8
PARTS
 10
  2.7115
 20
  2.1977
 30
0.0
 42
  0.0985
 0
VERTEX
 8
PARTS
 10
  2.7000
 20
  2.2000
 30
0.0
 42
  0.0985
 0
VERTEX
 8
PARTS
 10
  2.6885
 20
  2.1977
 30
0.0
 42
  0.0985
 0
VERTEX
 8
PARTS
 10
  2.6788
 20
  2.1912
 30
0.0
 42
  0.0985
 0
VERTEX
 8
PARTS
 10
  2.6723
 20
  2.1815
 30
0.0
 42
  0.0985
 0
VERTEX
 8
PARTS
 10
  2.6700
 20
  2.1700
 30
0.0
 42
  0.0985
 0
VERTEX
 8
PARTS
 10
  2.6723
 20
  2.1585
 30
0.0
 42
  0.0985
 0
VERTEX
 8
PARTS
 10
  2.6788
 20
  2.1488
 30
0.0
 42
  0.0985
 0
VERTEX
 8
PARTS
 10
  2.6885
 20
  2.1423
 30
0.0
 42
  0.0985
 0
VERTEX
 8
PARTS
 10
  2.7000
 20
  2.1400
 30
0.0
 42
  0.0985
 0
VERTEX
 8
PARTS
 10
  2.7115
 20
  2.1423
 30
0.0
 42
  0.0985
 0
VERTEX
 8
PARTS
 10
  2.7212
 20
  2.1488
 30
0.0
 42
  0.0985
 0
VERTEX
 8
PARTS
 10
  2.7277
 20
  2.1585
 30
0.0
 42
  0.0985
 0
SEQEND
 8
PARTS
 0
TEXT
 8
PARTTEXT
 10
  0.2500
 20
  6.1086
 30
0.0
 40
  0.0514
 1
J1
 0
TEXT
 8
PARTTEXT
 10
  0.2000
 20
  5.7186
 30
0.0
 40
  0.0514
 1
CON2
 0
LINE
 8
PARTS
 10
  0.5000
 20
  6.0000
 30
0.0
 11
  0.4000
 21
  6.0000
 31
0.0
 0
TEXT
 8
PARTS
 10
  0.2700
 20
  5.9750
 30
0.0
 40
  0.0500
 1
1
 0
TEXT
 8
PARTS
 10
  0.4600
 20
  6.0300
 30
0.0
 40
  0.0500
 1

 0
LINE
 8
PARTS
 10
  0.5000
 20
  5.9000
 30
0.0
 11
  0.4000
 21
  5.9000
 31
0.0
 0
TEXT
 8
PARTS
 10
  0.2700
 20
  5.8750
 30
0.0
 40
  0.0500
 1
2
 0
TEXT
 8
PARTS
 10
  0.4600
 20
  5.9300
 30
0.0
 40
  0.0500
 1

 0
POLYLINE
 8
PARTS
 66
1
 70
1
 10
0.0
 20
0.0
 30
0.0
 0
VERTEX
 8
PARTS
 10
  0.4000
 20
  6.1000
 30
0.0
 0
VERTEX
 8
PARTS
 10
  0.2000
 20
  6.1000
 30
0.0
 0
VERTEX
 8
PARTS
 10
  0.2000
 20
  5.8000
 30
0.0
 0
VERTEX
 8
PARTS
 10
  0.4000
 20
  5.8000
 30
0.0
 0
SEQEND
 8
PARTS
 0
TEXT
 8
PARTTEXT
 10
  3.8800
 20
  3.0186
 30
0.0
 40
  0.0514
 1
Y1
 0
TEXT
 8
PARTTEXT
 10
  3.9000
 20
  2.9186
 30
0.0
 40
  0.0514
 1
4MHz
 0
LINE
 8
PARTS
 10
  3.7000
 20
  2.8000
 30
0.0
 11
  3.7000
 21
  2.9000
 31
0.0
 0
LINE
 8
PARTS
 10
  3.7000
 20
  3.2000
 30
0.0
 11
  3.7000
 21
  3.1000
 31
0.0
 0
POLYLINE
 8
PARTS
 66
1
 10
0.0
 20
0.0
 30
0.0
 0
VERTEX
 8
PARTS
 10
  3.7500
 20
  2.9000
 30
0.0
 0
VERTEX
 8
PARTS
 10
  3.6500
 20
  2.9000
 30
0.0
 0
SEQEND
 8
PARTS
 0
POLYLINE
 8
PARTS
 66
1
 10
0.0
 20
0.0
 30
0.0
 0
VERTEX
 8
PARTS
 10
  3.8000
 20
  2.9400
 30
0.0
 0
VERTEX
 8
PARTS
 10
  3.6000
 20
  2.9400
 30
0.0
 0
SEQEND
 8
PARTS
 0
POLYLINE
 8
PARTS
 66
1
 10
0.0
 20
0.0
 30
0.0
 0
VERTEX
 8
PARTS
 10
  3.6000
 20
  2.9400
 30
0.0
 0
VERTEX
 8
PARTS
 10
  3.6000
 20
  3.0600
 30
0.0
 0
SEQEND
 8
PARTS
 0
POLYLINE
 8
PARTS
 66
1
 10
0.0
 20
0.0
 30
0.0
 0
VERTEX
 8
PARTS
 10
  3.6000
 20
  3.0600
 30
0.0
 0
VERTEX
 8
PARTS
 10
  3.8000
 20
  3.0600
 30
0.0
 0
SEQEND
 8
PARTS
 0
POLYLINE
 8
PARTS
 66
1
 10
0.0
 20
0.0
 30
0.0
 0
VERTEX
 8
PARTS
 10
  3.8000
 20
  3.0600
 30
0.0
 0
VERTEX
 8
PARTS
 10
  3.8000
 20
  2.9400
 30
0.0
 0
SEQEND
 8
PARTS
 0
POLYLINE
 8
PARTS
 66
1
 10
0.0
 20
0.0
 30
0.0
 0
VERTEX
 8
PARTS
 10
  3.7500
 20
  3.1000
 30
0.0
 0
VERTEX
 8
PARTS
 10
  3.6500
 20
  3.1000
 30
0.0
 0
SEQEND
 8
PARTS
 0
TEXT
 8
PARTTEXT
 10
  1.0000
 20
  5.9186
 30
0.0
 40
  0.0514
 1
C4
 0
TEXT
 8
PARTTEXT
 10
  0.9000
 20
  5.8186
 30
0.0
 40
  0.0514
 1
0.1uF
 0
LINE
 8
PARTS
 10
  1.3000
 20
  6.1000
 30
0.0
 11
  1.3000
 21
  6.0000
 31
0.0
 0
LINE
 8
PARTS
 10
  1.3000
 20
  5.8000
 30
0.0
 11
  1.3000
 21
  5.9000
 31
0.0
 0
POLYLINE
 8
PARTS
 66
1
 10
0.0
 20
0.0
 30
0.0
 0
VERTEX
 8
PARTS
 10
  1.4000
 20
  6.0000
 30
0.0
 0
VERTEX
 8
PARTS
 10
  1.2000
 20
  6.0000
 30
0.0
 0
SEQEND
 8
PARTS
 0
POLYLINE
 8
PARTS
 66
1
 10
0.0
 20
0.0
 30
0.0
 0
VERTEX
 8
PARTS
 10
  1.3000
 20
  5.9600
 30
0.0
 0
VERTEX
 8
PARTS
 10
  1.3000
 20
  5.9000
 30
0.0
 0
SEQEND
 8
PARTS
 0
POLYLINE
 8
PARTS
 66
1
 10
0.0
 20
0.0
 30
0.0
 0
VERTEX
 8
PARTS
 10
  1.3000
 20
  5.9600
 30
0.0
 42
  0.1654
 0
VERTEX
 8
PARTS
 10
  1.2000
 20
  5.9300
 30
0.0
 0
SEQEND
 8
PARTS
 0
POLYLINE
 8
PARTS
 66
1
 10
0.0
 20
0.0
 30
0.0
 0
VERTEX
 8
PARTS
 10
  1.4000
 20
  5.9300
 30
0.0
 42
  0.1654
 0
VERTEX
 8
PARTS
 10
  1.3000
 20
  5.9600
 30
0.0
 0
SEQEND
 8
PARTS
 0
TEXT
 8
PARTTEXT
 10
  3.0800
 20
  6.0186
 30
0.0
 40
  0.0514
 1
C5
 0
TEXT
 8
PARTTEXT
 10
  3.1000
 20
  5.9186
 30
0.0
 40
  0.0514
 1
0.1uF
 0
LINE
 8
PARTS
 10
  2.9000
 20
  6.1000
 30
0.0
 11
  2.9000
 21
  6.0000
 31
0.0
 0
LINE
 8
PARTS
 10
  2.9000
 20
  5.8000
 30
0.0
 11
  2.9000
 21
  5.9000
 31
0.0
 0
POLYLINE
 8
PARTS
 66
1
 10
0.0
 20
0.0
 30
0.0
 0
VERTEX
 8
PARTS
 10
  3.0000
 20
  6.0000
 30
0.0
 0
VERTEX
 8
PARTS
 10
  2.8000
 20
  6.0000
 30
0.0
 0
SEQEND
 8
PARTS
 0
POLYLINE
 8
PARTS
 66
1
 10
0.0
 20
0.0
 30
0.0
 0
VERTEX
 8
PARTS
 10
  2.9000
 20
  5.9600
 30
0.0
 0
VERTEX
 8
PARTS
 10
  2.9000
 20
  5.9000
 30
0.0
 0
SEQEND
 8
PARTS
 0
POLYLINE
 8
PARTS
 66
1
 10
0.0
 20
0.0
 30
0.0
 0
VERTEX
 8
PARTS
 10
  2.9000
 20
  5.9600
 30
0.0
 42
  0.1654
 0
VERTEX
 8
PARTS
 10
  2.8000
 20
  5.9300
 30
0.0
 0
SEQEND
 8
PARTS
 0
POLYLINE
 8
PARTS
 66
1
 10
0.0
 20
0.0
 30
0.0
 0
VERTEX
 8
PARTS
 10
  3.0000
 20
  5.9300
 30
0.0
 42
  0.1654
 0
VERTEX
 8
PARTS
 10
  2.9000
 20
  5.9600
 30
0.0
 0
SEQEND
 8
PARTS
 0
TEXT
 8
PARTTEXT
 10
  3.3000
 20
  3.3186
 30
0.0
 40
  0.0514
 1
C1
 0
TEXT
 8
PARTTEXT
 10
  3.5000
 20
  3.3186
 30
0.0
 40
  0.0514
 1
27pF
 0
LINE
 8
PARTS
 10
  3.5000
 20
  3.2000
 30
0.0
 11
  3.4000
 21
  3.2000
 31
0.0
 0
LINE
 8
PARTS
 10
  3.2000
 20
  3.2000
 30
0.0
 11
  3.3000
 21
  3.2000
 31
0.0
 0
POLYLINE
 8
PARTS
 66
1
 10
0.0
 20
0.0
 30
0.0
 0
VERTEX
 8
PARTS
 10
  3.4000
 20
  3.1000
 30
0.0
 0
VERTEX
 8
PARTS
 10
  3.4000
 20
  3.3000
 30
0.0
 0
SEQEND
 8
PARTS
 0
POLYLINE
 8
PARTS
 66
1
 10
0.0
 20
0.0
 30
0.0
 0
VERTEX
 8
PARTS
 10
  3.3600
 20
  3.2000
 30
0.0
 0
VERTEX
 8
PARTS
 10
  3.3000
 20
  3.2000
 30
0.0
 0
SEQEND
 8
PARTS
 0
POLYLINE
 8
PARTS
 66
1
 10
0.0
 20
0.0
 30
0.0
 0
VERTEX
 8
PARTS
 10
  3.3300
 20
  3.3000
 30
0.0
 42
 -0.1654
 0
VERTEX
 8
PARTS
 10
  3.3600
 20
  3.2000
 30
0.0
 0
SEQEND
 8
PARTS
 0
POLYLINE
 8
PARTS
 66
1
 10
0.0
 20
0.0
 30
0.0
 0
VERTEX
 8
PARTS
 10
  3.3600
 20
  3.2000
 30
0.0
 42
 -0.1654
 0
VERTEX
 8
PARTS
 10
  3.3300
 20
  3.1000
 30
0.0
 0
SEQEND
 8
PARTS
 0
TEXT
 8
PARTTEXT
 10
  8.6500
 20
  6.1086
 30
0.0
 40
  0.0514
 1
JP2
 0
TEXT
 8
PARTTEXT
 10
  8.6500
 20
  5.5086
 30
0.0
 40
  0.0514
 1
Encoder Board
 0
CIRCLE
 8
PARTS
 10
  8.5700
 20
  6.0000
 30
0.0
 40
  0.0300
 0
LINE
 8
PARTS
 10
  8.3000
 20
  6.0000
 30
0.0
 11
  8.5400
 21
  6.0000
 31
0.0
 0
TEXT
 8
PARTS
 10
  8.6900
 20
  5.9750
 30
0.0
 40
  0.0500
 1
1
 0
TEXT
 8
PARTS
 10
  8.5400
 20
  6.0300
 30
0.0
 40
  0.0500
 1

 0
CIRCLE
 8
PARTS
 10
  8.5700
 20
  5.9000
 30
0.0
 40
  0.0300
 0
LINE
 8
PARTS
 10
  8.3000
 20
  5.9000
 30
0.0
 11
  8.5400
 21
  5.9000
 31
0.0
 0
TEXT
 8
PARTS
 10
  8.6900
 20
  5.8750
 30
0.0
 40
  0.0500
 1
2
 0
TEXT
 8
PARTS
 10
  8.5400
 20
  5.9300
 30
0.0
 40
  0.0500
 1

 0
CIRCLE
 8
PARTS
 10
  8.5700
 20
  5.8000
 30
0.0
 40
  0.0300
 0
LINE
 8
PARTS
 10
  8.3000
 20
  5.8000
 30
0.0
 11
  8.5400
 21
  5.8000
 31
0.0
 0
TEXT
 8
PARTS
 10
  8.6900
 20
  5.7750
 30
0.0
 40
  0.0500
 1
3
 0
TEXT
 8
PARTS
 10
  8.5400
 20
  5.8300
 30
0.0
 40
  0.0500
 1

 0
CIRCLE
 8
PARTS
 10
  8.5700
 20
  5.7000
 30
0.0
 40
  0.0300
 0
LINE
 8
PARTS
 10
  8.3000
 20
  5.7000
 30
0.0
 11
  8.5400
 21
  5.7000
 31
0.0
 0
TEXT
 8
PARTS
 10
  8.6900
 20
  5.6750
 30
0.0
 40
  0.0500
 1
4
 0
TEXT
 8
PARTS
 10
  8.5400
 20
  5.7300
 30
0.0
 40
  0.0500
 1

 0
POLYLINE
 8
PARTS
 66
1
 70
1
 10
0.0
 20
0.0
 30
0.0
 0
VERTEX
 8
PARTS
 10
  8.6000
 20
  6.1000
 30
0.0
 0
VERTEX
 8
PARTS
 10
  8.9000
 20
  6.1000
 30
0.0
 0
VERTEX
 8
PARTS
 10
  8.9000
 20
  5.6000
 30
0.0
 0
VERTEX
 8
PARTS
 10
  8.6000
 20
  5.6000
 30
0.0
 0
SEQEND
 8
PARTS
 0
TEXT
 8
PARTTEXT
 10
  8.6500
 20
  6.9086
 30
0.0
 40
  0.0514
 1
JP1
 0
TEXT
 8
PARTTEXT
 10
  8.6500
 20
  6.3086
 30
0.0
 40
  0.0514
 1
Encoder Board
 0
CIRCLE
 8
PARTS
 10
  8.5700
 20
  6.8000
 30
0.0
 40
  0.0300
 0
LINE
 8
PARTS
 10
  8.3000
 20
  6.8000
 30
0.0
 11
  8.5400
 21
  6.8000
 31
0.0
 0
TEXT
 8
PARTS
 10
  8.6900
 20
  6.7750
 30
0.0
 40
  0.0500
 1
1
 0
TEXT
 8
PARTS
 10
  8.5400
 20
  6.8300
 30
0.0
 40
  0.0500
 1

 0
CIRCLE
 8
PARTS
 10
  8.5700
 20
  6.7000
 30
0.0
 40
  0.0300
 0
LINE
 8
PARTS
 10
  8.3000
 20
  6.7000
 30
0.0
 11
  8.5400
 21
  6.7000
 31
0.0
 0
TEXT
 8
PARTS
 10
  8.6900
 20
  6.6750
 30
0.0
 40
  0.0500
 1
2
 0
TEXT
 8
PARTS
 10
  8.5400
 20
  6.7300
 30
0.0
 40
  0.0500
 1

 0
CIRCLE
 8
PARTS
 10
  8.5700
 20
  6.6000
 30
0.0
 40
  0.0300
 0
LINE
 8
PARTS
 10
  8.3000
 20
  6.6000
 30
0.0
 11
  8.5400
 21
  6.6000
 31
0.0
 0
TEXT
 8
PARTS
 10
  8.6900
 20
  6.5750
 30
0.0
 40
  0.0500
 1
3
 0
TEXT
 8
PARTS
 10
  8.5400
 20
  6.6300
 30
0.0
 40
  0.0500
 1

 0
CIRCLE
 8
PARTS
 10
  8.5700
 20
  6.5000
 30
0.0
 40
  0.0300
 0
LINE
 8
PARTS
 10
  8.3000
 20
  6.5000
 30
0.0
 11
  8.5400
 21
  6.5000
 31
0.0
 0
TEXT
 8
PARTS
 10
  8.6900
 20
  6.4750
 30
0.0
 40
  0.0500
 1
4
 0
TEXT
 8
PARTS
 10
  8.5400
 20
  6.5300
 30
0.0
 40
  0.0500
 1

 0
POLYLINE
 8
PARTS
 66
1
 70
1
 10
0.0
 20
0.0
 30
0.0
 0
VERTEX
 8
PARTS
 10
  8.6000
 20
  6.9000
 30
0.0
 0
VERTEX
 8
PARTS
 10
  8.9000
 20
  6.9000
 30
0.0
 0
VERTEX
 8
PARTS
 10
  8.9000
 20
  6.4000
 30
0.0
 0
VERTEX
 8
PARTS
 10
  8.6000
 20
  6.4000
 30
0.0
 0
SEQEND
 8
PARTS
 0
TEXT
 8
PARTTEXT
 10
  3.2000
 20
  6.8186
 30
0.0
 40
  0.0514
 1
D1
 0
LINE
 8
PARTS
 10
  2.9000
 20
  6.7000
 30
0.0
 11
  3.0000
 21
  6.7000
 31
0.0
 0
TEXT
 8
PARTS
 10
  2.9000
 20
  6.7300
 30
0.0
 40
  0.0500
 1
3
 0
LINE
 8
PARTS
 10
  3.5000
 20
  6.7000
 30
0.0
 11
  3.4000
 21
  6.7000
 31
0.0
 0
TEXT
 8
PARTS
 10
  3.4600
 20
  6.7300
 30
0.0
 40
  0.0500
 1
1
 0
POLYLINE
 8
PARTS
 66
1
 10
0.0
 20
0.0
 30
0.0
 0
VERTEX
 8
PARTS
 10
  3.2000
 20
  6.7700
 30
0.0
 0
VERTEX
 8
PARTS
 10
  3.2000
 20
  6.6300
 30
0.0
 0
SEQEND
 8
PARTS
 0
POLYLINE
 8
PARTS
 66
1
 10
0.0
 20
0.0
 30
0.0
 0
VERTEX
 8
PARTS
 10
  3.0000
 20
  6.7000
 30
0.0
 0
VERTEX
 8
PARTS
 10
  3.1000
 20
  6.7000
 30
0.0
 0
SEQEND
 8
PARTS
 0
POLYLINE
 8
PARTS
 66
1
 10
0.0
 20
0.0
 30
0.0
 0
VERTEX
 8
PARTS
 10
  3.2000
 20
  6.7000
 30
0.0
 0
VERTEX
 8
PARTS
 10
  3.4000
 20
  6.7000
 30
0.0
 0
SEQEND
 8
PARTS
 0
POLYLINE
 8
PARTS
 66
1
 70
1
 10
0.0
 20
0.0
 30
0.0
 0
VERTEX
 8
PARTS
 10
  3.2000
 20
  6.7000
 30
0.0
 0
VERTEX
 8
PARTS
 10
  3.2000
 20
  6.7000
 30
0.0
 0
VERTEX
 8
PARTS
 10
  3.1000
 20
  6.6300
 30
0.0
 0
VERTEX
 8
PARTS
 10
  3.1000
 20
  6.7700
 30
0.0
 0
VERTEX
 8
PARTS
 10
  3.2000
 20
  6.7000
 30
0.0
 0
SEQEND
 8
PARTS
 0
POLYLINE
 8
PARTS
 66
1
 70
1
 10
0.0
 20
0.0
 30
0.0
 0
VERTEX
 8
PARTS
 10
  3.3200
 20
  6.7800
 30
0.0
 0
VERTEX
 8
PARTS
 10
  3.3200
 20
  6.7800
 30
0.0
 0
VERTEX
 8
PARTS
 10
  3.3600
 20
  6.8000
 30
0.0
 0
VERTEX
 8
PARTS
 10
  3.3400
 20
  6.7600
 30
0.0
 0
VERTEX
 8
PARTS
 10
  3.3200
 20
  6.7800
 30
0.0
 0
SEQEND
 8
PARTS
 0
POLYLINE
 8
PARTS
 66
1
 70
1
 10
0.0
 20
0.0
 30
0.0
 0
VERTEX
 8
PARTS
 10
  3.2600
 20
  6.7800
 30
0.0
 0
VERTEX
 8
PARTS
 10
  3.2600
 20
  6.7800
 30
0.0
 0
VERTEX
 8
PARTS
 10
  3.3000
 20
  6.8000
 30
0.0
 0
VERTEX
 8
PARTS
 10
  3.2800
 20
  6.7600
 30
0.0
 0
VERTEX
 8
PARTS
 10
  3.2600
 20
  6.7800
 30
0.0
 0
SEQEND
 8
PARTS
 0
POLYLINE
 8
PARTS
 66
1
 10
0.0
 20
0.0
 30
0.0
 0
VERTEX
 8
PARTS
 10
  3.2900
 20
  6.7900
 30
0.0
 0
VERTEX
 8
PARTS
 10
  3.2300
 20
  6.7300
 30
0.0
 0
SEQEND
 8
PARTS
 0
POLYLINE
 8
PARTS
 66
1
 10
0.0
 20
0.0
 30
0.0
 0
VERTEX
 8
PARTS
 10
  3.3500
 20
  6.7900
 30
0.0
 0
VERTEX
 8
PARTS
 10
  3.2900
 20
  6.7300
 30
0.0
 0
SEQEND
 8
PARTS
 0
TEXT
 8
PARTTEXT
 10
  0.7000
 20
  6.4186
 30
0.0
 40
  0.0514
 1
SW1
 0
TEXT
 8
PARTTEXT
 10
  0.7000
 20
  6.1186
 30
0.0
 40
  0.0514
 1
ON/OFF
 0
CIRCLE
 8
PARTS
 10
  0.7700
 20
  6.3000
 30
0.0
 40
  0.0300
 0
LINE
 8
PARTS
 10
  0.5000
 20
  6.3000
 30
0.0
 11
  0.7400
 21
  6.3000
 31
0.0
 0
TEXT
 8
PARTS
 10
  0.7000
 20
  6.3300
 30
0.0
 40
  0.0500
 1
1
 0
CIRCLE
 8
PARTS
 10
  1.0300
 20
  6.3000
 30
0.0
 40
  0.0300
 0
LINE
 8
PARTS
 10
  1.3000
 20
  6.3000
 30
0.0
 11
  1.0600
 21
  6.3000
 31
0.0
 0
TEXT
 8
PARTS
 10
  1.0600
 20
  6.3300
 30
0.0
 40
  0.0500
 1
2
 0
POLYLINE
 8
PARTS
 66
1
 10
0.0
 20
0.0
 30
0.0
 0
VERTEX
 8
PARTS
 10
  0.8000
 20
  6.3000
 30
0.0
 0
VERTEX
 8
PARTS
 10
  1.0000
 20
  6.4000
 30
0.0
 0
SEQEND
 8
PARTS
 0
TEXT
 8
PARTTEXT
 10
  3.7000
 20
  6.9186
 30
0.0
 40
  0.0514
 1
R10
 0
TEXT
 8
PARTTEXT
 10
  3.7000
 20
  6.8186
 30
0.0
 40
  0.0514
 1
330
 0
LINE
 8
PARTS
 10
  3.5000
 20
  6.7000
 30
0.0
 11
  3.6000
 21
  6.7000
 31
0.0
 0
LINE
 8
PARTS
 10
  4.0000
 20
  6.7000
 30
0.0
 11
  3.9000
 21
  6.7000
 31
0.0
 0
POLYLINE
 8
PARTS
 66
1
 10
0.0
 20
0.0
 30
0.0
 0
VERTEX
 8
PARTS
 10
  3.6000
 20
  6.7000
 30
0.0
 0
VERTEX
 8
PARTS
 10
  3.6300
 20
  6.7300
 30
0.0
 0
SEQEND
 8
PARTS
 0
POLYLINE
 8
PARTS
 66
1
 10
0.0
 20
0.0
 30
0.0
 0
VERTEX
 8
PARTS
 10
  3.6300
 20
  6.7300
 30
0.0
 0
VERTEX
 8
PARTS
 10
  3.6900
 20
  6.6700
 30
0.0
 0
SEQEND
 8
PARTS
 0
POLYLINE
 8
PARTS
 66
1
 10
0.0
 20
0.0
 30
0.0
 0
VERTEX
 8
PARTS
 10
  3.6900
 20
  6.6700
 30
0.0
 0
VERTEX
 8
PARTS
 10
  3.7500
 20
  6.7300
 30
0.0
 0
SEQEND
 8
PARTS
 0
POLYLINE
 8
PARTS
 66
1
 10
0.0
 20
0.0
 30
0.0
 0
VERTEX
 8
PARTS
 10
  3.7500
 20
  6.7300
 30
0.0
 0
VERTEX
 8
PARTS
 10
  3.8100
 20
  6.6700
 30
0.0
 0
SEQEND
 8
PARTS
 0
POLYLINE
 8
PARTS
 66
1
 10
0.0
 20
0.0
 30
0.0
 0
VERTEX
 8
PARTS
 10
  3.8100
 20
  6.6700
 30
0.0
 0
VERTEX
 8
PARTS
 10
  3.8700
 20
  6.7300
 30
0.0
 0
SEQEND
 8
PARTS
 0
POLYLINE
 8
PARTS
 66
1
 10
0.0
 20
0.0
 30
0.0
 0
VERTEX
 8
PARTS
 10
  3.8700
 20
  6.7300
 30
0.0
 0
VERTEX
 8
PARTS
 10
  3.9000
 20
  6.7000
 30
0.0
 0
SEQEND
 8
PARTS
 0
TEXT
 8
PARTTEXT
 10
  2.1000
 20
  2.1186
 30
0.0
 40
  0.0514
 1
C3
 0
TEXT
 8
PARTTEXT
 10
  2.0000
 20
  2.0186
 30
0.0
 40
  0.0514
 1
0.1uF
 0
LINE
 8
PARTS
 10
  2.4000
 20
  2.2000
 30
0.0
 11
  2.4000
 21
  2.1000
 31
0.0
 0
LINE
 8
PARTS
 10
  2.4000
 20
  1.9000
 30
0.0
 11
  2.4000
 21
  2.0000
 31
0.0
 0
POLYLINE
 8
PARTS
 66
1
 10
0.0
 20
0.0
 30
0.0
 0
VERTEX
 8
PARTS
 10
  2.5000
 20
  2.1000
 30
0.0
 0
VERTEX
 8
PARTS
 10
  2.3000
 20
  2.1000
 30
0.0
 0
SEQEND
 8
PARTS
 0
POLYLINE
 8
PARTS
 66
1
 10
0.0
 20
0.0
 30
0.0
 0
VERTEX
 8
PARTS
 10
  2.4000
 20
  2.0600
 30
0.0
 0
VERTEX
 8
PARTS
 10
  2.4000
 20
  2.0000
 30
0.0
 0
SEQEND
 8
PARTS
 0
POLYLINE
 8
PARTS
 66
1
 10
0.0
 20
0.0
 30
0.0
 0
VERTEX
 8
PARTS
 10
  2.4000
 20
  2.0600
 30
0.0
 42
  0.1654
 0
VERTEX
 8
PARTS
 10
  2.3000
 20
  2.0300
 30
0.0
 0
SEQEND
 8
PARTS
 0
POLYLINE
 8
PARTS
 66
1
 10
0.0
 20
0.0
 30
0.0
 0
VERTEX
 8
PARTS
 10
  2.5000
 20
  2.0300
 30
0.0
 42
  0.1654
 0
VERTEX
 8
PARTS
 10
  2.4000
 20
  2.0600
 30
0.0
 0
SEQEND
 8
PARTS
 0
POLYLINE
 8
WIRE
 66
1
 10
0.0
 20
0.0
 30
0.0
 0
VERTEX
 8
WIRE
 10
  3.1000
 20
  3.0000
 30
0.0
 0
VERTEX
 8
WIRE
 10
  3.2000
 20
  3.0000
 30
0.0
 0
SEQEND
 8
WIRE
 0
POLYLINE
 8
WIRE
 66
1
 70
1
 10
0.0
 20
0.0
 30
0.0
 40
  0.0200
 41
  0.0200
 0
VERTEX
 8
WIRE
 10
  3.1900
 20
  3.0000
 30
0.0
 42
1.0
 0
VERTEX
 8
WIRE
 10
  3.2100
 20
  3.0000
 30
0.0
 42
1.0
 0
SEQEND
 8
WIRE
 0
POLYLINE
 8
WIRE
 66
1
 10
0.0
 20
0.0
 30
0.0
 0
VERTEX
 8
WIRE
 10
  3.5000
 20
  3.2000
 30
0.0
 0
VERTEX
 8
WIRE
 10
  3.7000
 20
  3.2000
 30
0.0
 0
SEQEND
 8
WIRE
 0
POLYLINE
 8
WIRE
 66
1
 70
1
 10
0.0
 20
0.0
 30
0.0
 40
  0.0200
 41
  0.0200
 0
VERTEX
 8
WIRE
 10
  3.6900
 20
  3.2000
 30
0.0
 42
1.0
 0
VERTEX
 8
WIRE
 10
  3.7100
 20
  3.2000
 30
0.0
 42
1.0
 0
SEQEND
 8
WIRE
 0
POLYLINE
 8
WIRE
 66
1
 10
0.0
 20
0.0
 30
0.0
 0
VERTEX
 8
WIRE
 10
  3.5000
 20
  2.8000
 30
0.0
 0
VERTEX
 8
WIRE
 10
  3.7000
 20
  2.8000
 30
0.0
 0
SEQEND
 8
WIRE
 0
POLYLINE
 8
WIRE
 66
1
 70
1
 10
0.0
 20
0.0
 30
0.0
 40
  0.0200
 41
  0.0200
 0
VERTEX
 8
WIRE
 10
  3.6900
 20
  2.8000
 30
0.0
 42
1.0
 0
VERTEX
 8
WIRE
 10
  3.7100
 20
  2.8000
 30
0.0
 42
1.0
 0
SEQEND
 8
WIRE
 0
POLYLINE
 8
WIRE
 66
1
 10
0.0
 20
0.0
 30
0.0
 0
VERTEX
 8
WIRE
 10
  3.7000
 20
  2.8000
 30
0.0
 0
VERTEX
 8
WIRE
 10
  4.2000
 20
  2.8000
 30
0.0
 0
SEQEND
 8
WIRE
 0
POLYLINE
 8
WIRE
 66
1
 10
0.0
 20
0.0
 30
0.0
 0
VERTEX
 8
WIRE
 10
  4.2000
 20
  3.3000
 30
0.0
 0
VERTEX
 8
WIRE
 10
  4.2000
 20
  2.8000
 30
0.0
 0
SEQEND
 8
WIRE
 0
POLYLINE
 8
WIRE
 66
1
 10
0.0
 20
0.0
 30
0.0
 0
VERTEX
 8
WIRE
 10
  4.2000
 20
  3.3000
 30
0.0
 0
VERTEX
 8
WIRE
 10
  4.4000
 20
  3.3000
 30
0.0
 0
SEQEND
 8
WIRE
 0
POLYLINE
 8
WIRE
 66
1
 10
0.0
 20
0.0
 30
0.0
 0
VERTEX
 8
WIRE
 10
  2.7000
 20
  2.4000
 30
0.0
 0
VERTEX
 8
WIRE
 10
  2.7000
 20
  2.3000
 30
0.0
 0
SEQEND
 8
WIRE
 0
POLYLINE
 8
WIRE
 66
1
 70
1
 10
0.0
 20
0.0
 30
0.0
 40
  0.0200
 41
  0.0200
 0
VERTEX
 8
WIRE
 10
  2.6900
 20
  2.4000
 30
0.0
 42
1.0
 0
VERTEX
 8
WIRE
 10
  2.7100
 20
  2.4000
 30
0.0
 42
1.0
 0
SEQEND
 8
WIRE
 0
POLYLINE
 8
WIRE
 66
1
 10
0.0
 20
0.0
 30
0.0
 0
VERTEX
 8
WIRE
 10
  2.4000
 20
  1.9000
 30
0.0
 0
VERTEX
 8
WIRE
 10
  2.4000
 20
  1.6000
 30
0.0
 0
SEQEND
 8
WIRE
 0
POLYLINE
 8
WIRE
 66
1
 10
0.0
 20
0.0
 30
0.0
 0
VERTEX
 8
WIRE
 10
  3.2000
 20
  3.2000
 30
0.0
 0
VERTEX
 8
WIRE
 10
  3.2000
 20
  3.0000
 30
0.0
 0
SEQEND
 8
WIRE
 0
POLYLINE
 8
WIRE
 66
1
 10
0.0
 20
0.0
 30
0.0
 0
VERTEX
 8
WIRE
 10
  4.3000
 20
  3.2000
 30
0.0
 0
VERTEX
 8
WIRE
 10
  4.4000
 20
  3.2000
 30
0.0
 0
SEQEND
 8
WIRE
 0
POLYLINE
 8
WIRE
 66
1
 10
0.0
 20
0.0
 30
0.0
 0
VERTEX
 8
WIRE
 10
  4.3000
 20
  3.2000
 30
0.0
 0
VERTEX
 8
WIRE
 10
  4.3000
 20
  2.4000
 30
0.0
 0
SEQEND
 8
WIRE
 0
POLYLINE
 8
WIRE
 66
1
 10
0.0
 20
0.0
 30
0.0
 0
VERTEX
 8
WIRE
 10
  2.7000
 20
  2.4000
 30
0.0
 0
VERTEX
 8
WIRE
 10
  4.3000
 20
  2.4000
 30
0.0
 0
SEQEND
 8
WIRE
 0
POLYLINE
 8
WIRE
 66
1
 10
0.0
 20
0.0
 30
0.0
 0
VERTEX
 8
WIRE
 10
  4.4000
 20
  2.8000
 30
0.0
 0
VERTEX
 8
WIRE
 10
  4.4000
 20
  1.8000
 30
0.0
 0
SEQEND
 8
WIRE
 0
POLYLINE
 8
WIRE
 66
1
 10
0.0
 20
0.0
 30
0.0
 0
VERTEX
 8
WIRE
 10
  1.3000
 20
  6.3000
 30
0.0
 0
VERTEX
 8
WIRE
 10
  1.3000
 20
  6.1000
 30
0.0
 0
SEQEND
 8
WIRE
 0
POLYLINE
 8
WIRE
 66
1
 70
1
 10
0.0
 20
0.0
 30
0.0
 40
  0.0200
 41
  0.0200
 0
VERTEX
 8
WIRE
 10
  1.2900
 20
  6.3000
 30
0.0
 42
1.0
 0
VERTEX
 8
WIRE
 10
  1.3100
 20
  6.3000
 30
0.0
 42
1.0
 0
SEQEND
 8
WIRE
 0
POLYLINE
 8
WIRE
 66
1
 10
0.0
 20
0.0
 30
0.0
 0
VERTEX
 8
WIRE
 10
  0.5000
 20
  5.6000
 30
0.0
 0
VERTEX
 8
WIRE
 10
  1.3000
 20
  5.6000
 30
0.0
 0
SEQEND
 8
WIRE
 0
POLYLINE
 8
WIRE
 66
1
 70
1
 10
0.0
 20
0.0
 30
0.0
 40
  0.0200
 41
  0.0200
 0
VERTEX
 8
WIRE
 10
  1.2900
 20
  5.6000
 30
0.0
 42
1.0
 0
VERTEX
 8
WIRE
 10
  1.3100
 20
  5.6000
 30
0.0
 42
1.0
 0
SEQEND
 8
WIRE
 0
POLYLINE
 8
WIRE
 66
1
 10
0.0
 20
0.0
 30
0.0
 0
VERTEX
 8
WIRE
 10
  2.9000
 20
  5.8000
 30
0.0
 0
VERTEX
 8
WIRE
 10
  2.9000
 20
  5.6000
 30
0.0
 0
SEQEND
 8
WIRE
 0
POLYLINE
 8
WIRE
 66
1
 10
0.0
 20
0.0
 30
0.0
 0
VERTEX
 8
WIRE
 10
  2.9000
 20
  6.3000
 30
0.0
 0
VERTEX
 8
WIRE
 10
  3.4000
 20
  6.3000
 30
0.0
 0
SEQEND
 8
WIRE
 0
POLYLINE
 8
WIRE
 66
1
 70
1
 10
0.0
 20
0.0
 30
0.0
 40
  0.0200
 41
  0.0200
 0
VERTEX
 8
WIRE
 10
  2.8900
 20
  6.3000
 30
0.0
 42
1.0
 0
VERTEX
 8
WIRE
 10
  2.9100
 20
  6.3000
 30
0.0
 42
1.0
 0
SEQEND
 8
WIRE
 0
POLYLINE
 8
WIRE
 66
1
 10
0.0
 20
0.0
 30
0.0
 0
VERTEX
 8
WIRE
 10
  0.5000
 20
  6.3000
 30
0.0
 0
VERTEX
 8
WIRE
 10
  0.5000
 20
  6.0000
 30
0.0
 0
SEQEND
 8
WIRE
 0
POLYLINE
 8
WIRE
 66
1
 10
0.0
 20
0.0
 30
0.0
 0
VERTEX
 8
WIRE
 10
  2.7000
 20
  1.6000
 30
0.0
 0
VERTEX
 8
WIRE
 10
  2.7000
 20
  1.5000
 30
0.0
 0
SEQEND
 8
WIRE
 0
POLYLINE
 8
WIRE
 66
1
 10
0.0
 20
0.0
 30
0.0
 0
VERTEX
 8
WIRE
 10
  3.2000
 20
  3.0000
 30
0.0
 0
VERTEX
 8
WIRE
 10
  3.2000
 20
  2.8000
 30
0.0
 0
SEQEND
 8
WIRE
 0
POLYLINE
 8
WIRE
 66
1
 10
0.0
 20
0.0
 30
0.0
 0
VERTEX
 8
WIRE
 10
  2.0000
 20
  5.6000
 30
0.0
 0
VERTEX
 8
WIRE
 10
  2.9000
 20
  5.6000
 30
0.0
 0
SEQEND
 8
WIRE
 0
POLYLINE
 8
WIRE
 66
1
 70
1
 10
0.0
 20
0.0
 30
0.0
 40
  0.0200
 41
  0.0200
 0
VERTEX
 8
WIRE
 10
  1.9900
 20
  5.6000
 30
0.0
 42
1.0
 0
VERTEX
 8
WIRE
 10
  2.0100
 20
  5.6000
 30
0.0
 42
1.0
 0
SEQEND
 8
WIRE
 0
POLYLINE
 8
WIRE
 66
1
 70
1
 10
0.0
 20
0.0
 30
0.0
 40
  0.0200
 41
  0.0200
 0
VERTEX
 8
WIRE
 10
  2.8900
 20
  5.6000
 30
0.0
 42
1.0
 0
VERTEX
 8
WIRE
 10
  2.9100
 20
  5.6000
 30
0.0
 42
1.0
 0
SEQEND
 8
WIRE
 0
POLYLINE
 8
WIRE
 66
1
 10
0.0
 20
0.0
 30
0.0
 0
VERTEX
 8
WIRE
 10
  2.9000
 20
  5.6000
 30
0.0
 0
VERTEX
 8
WIRE
 10
  3.5000
 20
  5.6000
 30
0.0
 0
SEQEND
 8
WIRE
 0
POLYLINE
 8
WIRE
 66
1
 10
0.0
 20
0.0
 30
0.0
 0
VERTEX
 8
WIRE
 10
  1.3000
 20
  5.6000
 30
0.0
 0
VERTEX
 8
WIRE
 10
  2.0000
 20
  5.6000
 30
0.0
 0
SEQEND
 8
WIRE
 0
POLYLINE
 8
WIRE
 66
1
 70
1
 10
0.0
 20
0.0
 30
0.0
 40
  0.0200
 41
  0.0200
 0
VERTEX
 8
WIRE
 10
  1.9900
 20
  5.6000
 30
0.0
 42
1.0
 0
VERTEX
 8
WIRE
 10
  2.0100
 20
  5.6000
 30
0.0
 42
1.0
 0
SEQEND
 8
WIRE
 0
POLYLINE
 8
WIRE
 66
1
 10
0.0
 20
0.0
 30
0.0
 0
VERTEX
 8
WIRE
 10
  0.5000
 20
  5.9000
 30
0.0
 0
VERTEX
 8
WIRE
 10
  0.5000
 20
  5.6000
 30
0.0
 0
SEQEND
 8
WIRE
 0
POLYLINE
 8
WIRE
 66
1
 10
0.0
 20
0.0
 30
0.0
 0
VERTEX
 8
WIRE
 10
  2.7000
 20
  1.8000
 30
0.0
 0
VERTEX
 8
WIRE
 10
  2.7000
 20
  1.6000
 30
0.0
 0
SEQEND
 8
WIRE
 0
POLYLINE
 8
WIRE
 66
1
 70
1
 10
0.0
 20
0.0
 30
0.0
 40
  0.0200
 41
  0.0200
 0
VERTEX
 8
WIRE
 10
  2.6900
 20
  1.6000
 30
0.0
 42
1.0
 0
VERTEX
 8
WIRE
 10
  2.7100
 20
  1.6000
 30
0.0
 42
1.0
 0
SEQEND
 8
WIRE
 0
POLYLINE
 8
WIRE
 66
1
 10
0.0
 20
0.0
 30
0.0
 0
VERTEX
 8
WIRE
 10
  1.3000
 20
  5.8000
 30
0.0
 0
VERTEX
 8
WIRE
 10
  1.3000
 20
  5.6000
 30
0.0
 0
SEQEND
 8
WIRE
 0
POLYLINE
 8
WIRE
 66
1
 10
0.0
 20
0.0
 30
0.0
 0
VERTEX
 8
WIRE
 10
  2.4000
 20
  1.6000
 30
0.0
 0
VERTEX
 8
WIRE
 10
  2.7000
 20
  1.6000
 30
0.0
 0
SEQEND
 8
WIRE
 0
POLYLINE
 8
WIRE
 66
1
 10
0.0
 20
0.0
 30
0.0
 0
VERTEX
 8
WIRE
 10
  2.9000
 20
  6.3000
 30
0.0
 0
VERTEX
 8
WIRE
 10
  2.9000
 20
  6.1000
 30
0.0
 0
SEQEND
 8
WIRE
 0
POLYLINE
 8
WIRE
 66
1
 10
0.0
 20
0.0
 30
0.0
 0
VERTEX
 8
WIRE
 10
  2.9000
 20
  6.7000
 30
0.0
 0
VERTEX
 8
WIRE
 10
  2.9000
 20
  6.3000
 30
0.0
 0
SEQEND
 8
WIRE
 0
POLYLINE
 8
WIRE
 66
1
 10
0.0
 20
0.0
 30
0.0
 0
VERTEX
 8
WIRE
 10
  6.2000
 20
  3.8000
 30
0.0
 0
VERTEX
 8
WIRE
 10
  6.4000
 20
  3.8000
 30
0.0
 0
SEQEND
 8
WIRE
 0
POLYLINE
 8
WIRE
 66
1
 10
0.0
 20
0.0
 30
0.0
 0
VERTEX
 8
WIRE
 10
  6.2000
 20
  3.4000
 30
0.0
 0
VERTEX
 8
WIRE
 10
  6.4000
 20
  3.4000
 30
0.0
 0
SEQEND
 8
WIRE
 0
POLYLINE
 8
WIRE
 66
1
 10
0.0
 20
0.0
 30
0.0
 0
VERTEX
 8
WIRE
 10
  6.2000
 20
  5.2000
 30
0.0
 0
VERTEX
 8
WIRE
 10
  6.4000
 20
  5.2000
 30
0.0
 0
SEQEND
 8
WIRE
 0
POLYLINE
 8
WIRE
 66
1
 10
0.0
 20
0.0
 30
0.0
 0
VERTEX
 8
WIRE
 10
  6.2000
 20
  5.1000
 30
0.0
 0
VERTEX
 8
WIRE
 10
  6.4000
 20
  5.1000
 30
0.0
 0
SEQEND
 8
WIRE
 0
POLYLINE
 8
WIRE
 66
1
 10
0.0
 20
0.0
 30
0.0
 0
VERTEX
 8
WIRE
 10
  8.1000
 20
  5.2000
 30
0.0
 0
VERTEX
 8
WIRE
 10
  8.3000
 20
  5.2000
 30
0.0
 0
SEQEND
 8
WIRE
 0
POLYLINE
 8
WIRE
 66
1
 10
0.0
 20
0.0
 30
0.0
 0
VERTEX
 8
WIRE
 10
  8.1000
 20
  4.3000
 30
0.0
 0
VERTEX
 8
WIRE
 10
  8.3000
 20
  4.3000
 30
0.0
 0
SEQEND
 8
WIRE
 0
POLYLINE
 8
WIRE
 66
1
 10
0.0
 20
0.0
 30
0.0
 0
VERTEX
 8
WIRE
 10
  2.4000
 20
  2.4000
 30
0.0
 0
VERTEX
 8
WIRE
 10
  2.7000
 20
  2.4000
 30
0.0
 0
SEQEND
 8
WIRE
 0
POLYLINE
 8
WIRE
 66
1
 70
1
 10
0.0
 20
0.0
 30
0.0
 40
  0.0200
 41
  0.0200
 0
VERTEX
 8
WIRE
 10
  2.3900
 20
  2.4000
 30
0.0
 42
1.0
 0
VERTEX
 8
WIRE
 10
  2.4100
 20
  2.4000
 30
0.0
 42
1.0
 0
SEQEND
 8
WIRE
 0
POLYLINE
 8
WIRE
 66
1
 10
0.0
 20
0.0
 30
0.0
 0
VERTEX
 8
WIRE
 10
  2.4000
 20
  2.4000
 30
0.0
 0
VERTEX
 8
WIRE
 10
  2.4000
 20
  2.2000
 30
0.0
 0
SEQEND
 8
WIRE
 0
POLYLINE
 8
WIRE
 66
1
 10
0.0
 20
0.0
 30
0.0
 0
VERTEX
 8
WIRE
 10
  3.5000
 20
  3.8000
 30
0.0
 0
VERTEX
 8
WIRE
 10
  4.4000
 20
  3.8000
 30
0.0
 0
SEQEND
 8
WIRE
 0
POLYLINE
 8
WIRE
 66
1
 10
0.0
 20
0.0
 30
0.0
 0
VERTEX
 8
WIRE
 10
  8.2000
 20
  6.5000
 30
0.0
 0
VERTEX
 8
WIRE
 10
  8.3000
 20
  6.5000
 30
0.0
 0
SEQEND
 8
WIRE
 0
POLYLINE
 8
WIRE
 66
1
 10
0.0
 20
0.0
 30
0.0
 0
VERTEX
 8
WIRE
 10
  4.2000
 20
  5.0000
 30
0.0
 0
VERTEX
 8
WIRE
 10
  4.4000
 20
  5.0000
 30
0.0
 0
SEQEND
 8
WIRE
 0
POLYLINE
 8
WIRE
 66
1
 10
0.0
 20
0.0
 30
0.0
 0
VERTEX
 8
WIRE
 10
  4.2000
 20
  4.9000
 30
0.0
 0
VERTEX
 8
WIRE
 10
  4.4000
 20
  4.9000
 30
0.0
 0
SEQEND
 8
WIRE
 0
POLYLINE
 8
WIRE
 66
1
 10
0.0
 20
0.0
 30
0.0
 0
VERTEX
 8
WIRE
 10
  4.2000
 20
  5.1000
 30
0.0
 0
VERTEX
 8
WIRE
 10
  4.4000
 20
  5.1000
 30
0.0
 0
SEQEND
 8
WIRE
 0
POLYLINE
 8
WIRE
 66
1
 10
0.0
 20
0.0
 30
0.0
 0
VERTEX
 8
WIRE
 10
  4.2000
 20
  5.2000
 30
0.0
 0
VERTEX
 8
WIRE
 10
  4.4000
 20
  5.2000
 30
0.0
 0
SEQEND
 8
WIRE
 0
POLYLINE
 8
WIRE
 66
1
 10
0.0
 20
0.0
 30
0.0
 0
VERTEX
 8
WIRE
 10
  3.5000
 20
  3.7000
 30
0.0
 0
VERTEX
 8
WIRE
 10
  4.4000
 20
  3.7000
 30
0.0
 0
SEQEND
 8
WIRE
 0
POLYLINE
 8
WIRE
 66
1
 10
0.0
 20
0.0
 30
0.0
 0
VERTEX
 8
WIRE
 10
  3.5000
 20
  3.6000
 30
0.0
 0
VERTEX
 8
WIRE
 10
  4.4000
 20
  3.6000
 30
0.0
 0
SEQEND
 8
WIRE
 0
POLYLINE
 8
WIRE
 66
1
 10
0.0
 20
0.0
 30
0.0
 0
VERTEX
 8
WIRE
 10
  8.1000
 20
  4.8000
 30
0.0
 0
VERTEX
 8
WIRE
 10
  8.3000
 20
  4.8000
 30
0.0
 0
SEQEND
 8
WIRE
 0
POLYLINE
 8
WIRE
 66
1
 10
0.0
 20
0.0
 30
0.0
 0
VERTEX
 8
WIRE
 10
  8.1000
 20
  4.7000
 30
0.0
 0
VERTEX
 8
WIRE
 10
  8.3000
 20
  4.7000
 30
0.0
 0
SEQEND
 8
WIRE
 0
POLYLINE
 8
WIRE
 66
1
 10
0.0
 20
0.0
 30
0.0
 0
VERTEX
 8
WIRE
 10
  8.2000
 20
  5.1000
 30
0.0
 0
VERTEX
 8
WIRE
 10
  8.2000
 20
  5.0000
 30
0.0
 0
SEQEND
 8
WIRE
 0
POLYLINE
 8
WIRE
 66
1
 70
1
 10
0.0
 20
0.0
 30
0.0
 40
  0.0200
 41
  0.0200
 0
VERTEX
 8
WIRE
 10
  8.1900
 20
  5.1000
 30
0.0
 42
1.0
 0
VERTEX
 8
WIRE
 10
  8.2100
 20
  5.1000
 30
0.0
 42
1.0
 0
SEQEND
 8
WIRE
 0
POLYLINE
 8
WIRE
 66
1
 10
0.0
 20
0.0
 30
0.0
 0
VERTEX
 8
WIRE
 10
  8.2000
 20
  5.0000
 30
0.0
 0
VERTEX
 8
WIRE
 10
  8.3000
 20
  5.0000
 30
0.0
 0
SEQEND
 8
WIRE
 0
POLYLINE
 8
WIRE
 66
1
 10
0.0
 20
0.0
 30
0.0
 0
VERTEX
 8
WIRE
 10
  8.2000
 20
  5.1000
 30
0.0
 0
VERTEX
 8
WIRE
 10
  8.3000
 20
  5.1000
 30
0.0
 0
SEQEND
 8
WIRE
 0
POLYLINE
 8
WIRE
 66
1
 10
0.0
 20
0.0
 30
0.0
 0
VERTEX
 8
WIRE
 10
  8.1000
 20
  5.1000
 30
0.0
 0
VERTEX
 8
WIRE
 10
  8.2000
 20
  5.1000
 30
0.0
 0
SEQEND
 8
WIRE
 0
POLYLINE
 8
WIRE
 66
1
 10
0.0
 20
0.0
 30
0.0
 0
VERTEX
 8
WIRE
 10
  2.2000
 20
  2.4000
 30
0.0
 0
VERTEX
 8
WIRE
 10
  2.4000
 20
  2.4000
 30
0.0
 0
SEQEND
 8
WIRE
 0
POLYLINE
 8
WIRE
 66
1
 10
0.0
 20
0.0
 30
0.0
 0
VERTEX
 8
WIRE
 10
  8.1000
 20
  4.9000
 30
0.0
 0
VERTEX
 8
WIRE
 10
  8.3000
 20
  4.9000
 30
0.0
 0
SEQEND
 8
WIRE
 0
POLYLINE
 8
WIRE
 66
1
 10
0.0
 20
0.0
 30
0.0
 0
VERTEX
 8
WIRE
 10
  4.4000
 20
  3.4000
 30
0.0
 0
VERTEX
 8
WIRE
 10
  4.1000
 20
  3.4000
 30
0.0
 0
SEQEND
 8
WIRE
 0
POLYLINE
 8
WIRE
 66
1
 10
0.0
 20
0.0
 30
0.0
 0
VERTEX
 8
WIRE
 10
  4.1000
 20
  3.4000
 30
0.0
 0
VERTEX
 8
WIRE
 10
  4.1000
 20
  3.2000
 30
0.0
 0
SEQEND
 8
WIRE
 0
POLYLINE
 8
WIRE
 66
1
 10
0.0
 20
0.0
 30
0.0
 0
VERTEX
 8
WIRE
 10
  4.1000
 20
  3.2000
 30
0.0
 0
VERTEX
 8
WIRE
 10
  3.7000
 20
  3.2000
 30
0.0
 0
SEQEND
 8
WIRE
 0
POLYLINE
 8
PARTS
 66
1
 10
0.0
 20
0.0
 30
0.0
 0
VERTEX
 8
PARTS
 10
  3.1000
 20
  2.9000
 30
0.0
 0
VERTEX
 8
PARTS
 10
  3.1000
 20
  3.1000
 30
0.0
 0
SEQEND
 8
PARTS
 0
POLYLINE
 8
PARTS
 66
1
 10
0.0
 20
0.0
 30
0.0
 0
VERTEX
 8
PARTS
 10
  3.0700
 20
  2.9300
 30
0.0
 0
VERTEX
 8
PARTS
 10
  3.0700
 20
  3.0700
 30
0.0
 0
SEQEND
 8
PARTS
 0
POLYLINE
 8
PARTS
 66
1
 10
0.0
 20
0.0
 30
0.0
 0
VERTEX
 8
PARTS
 10
  3.0400
 20
  3.0400
 30
0.0
 0
VERTEX
 8
PARTS
 10
  3.0400
 20
  2.9600
 30
0.0
 0
SEQEND
 8
PARTS
 0
POLYLINE
 8
PARTS
 66
1
 10
0.0
 20
0.0
 30
0.0
 0
VERTEX
 8
PARTS
 10
  3.0100
 20
  2.9900
 30
0.0
 0
VERTEX
 8
PARTS
 10
  3.0100
 20
  3.0100
 30
0.0
 0
SEQEND
 8
PARTS
 0
POLYLINE
 8
PARTS
 66
1
 10
0.0
 20
0.0
 30
0.0
 0
VERTEX
 8
PARTS
 10
  2.8000
 20
  1.5000
 30
0.0
 0
VERTEX
 8
PARTS
 10
  2.6000
 20
  1.5000
 30
0.0
 0
SEQEND
 8
PARTS
 0
POLYLINE
 8
PARTS
 66
1
 10
0.0
 20
0.0
 30
0.0
 0
VERTEX
 8
PARTS
 10
  2.7700
 20
  1.4700
 30
0.0
 0
VERTEX
 8
PARTS
 10
  2.6300
 20
  1.4700
 30
0.0
 0
SEQEND
 8
PARTS
 0
POLYLINE
 8
PARTS
 66
1
 10
0.0
 20
0.0
 30
0.0
 0
VERTEX
 8
PARTS
 10
  2.6600
 20
  1.4400
 30
0.0
 0
VERTEX
 8
PARTS
 10
  2.7400
 20
  1.4400
 30
0.0
 0
SEQEND
 8
PARTS
 0
POLYLINE
 8
PARTS
 66
1
 10
0.0
 20
0.0
 30
0.0
 0
VERTEX
 8
PARTS
 10
  2.7100
 20
  1.4100
 30
0.0
 0
VERTEX
 8
PARTS
 10
  2.6900
 20
  1.4100
 30
0.0
 0
SEQEND
 8
PARTS
 0
TEXT
 8
PARTTEXT
 10
  4.3000
 20
  1.6186
 30
0.0
 40
  0.0514
 1
VCC
 0
POLYLINE
 8
PARTS
 66
1
 10
0.0
 20
0.0
 30
0.0
 0
VERTEX
 8
PARTS
 10
  4.4000
 20
  1.7600
 30
0.0
 0
VERTEX
 8
PARTS
 10
  4.4000
 20
  1.8000
 30
0.0
 0
SEQEND
 8
PARTS
 0
POLYLINE
 8
PARTS
 66
1
 70
1
 10
0.0
 20
0.0
 30
0.0
 0
VERTEX
 8
PARTS
 10
  4.4300
 20
  1.7300
 30
0.0
 42
  0.0985
 0
VERTEX
 8
PARTS
 10
  4.4277
 20
  1.7415
 30
0.0
 42
  0.0985
 0
VERTEX
 8
PARTS
 10
  4.4212
 20
  1.7512
 30
0.0
 42
  0.0985
 0
VERTEX
 8
PARTS
 10
  4.4115
 20
  1.7577
 30
0.0
 42
  0.0985
 0
VERTEX
 8
PARTS
 10
  4.4000
 20
  1.7600
 30
0.0
 42
  0.0985
 0
VERTEX
 8
PARTS
 10
  4.3885
 20
  1.7577
 30
0.0
 42
  0.0985
 0
VERTEX
 8
PARTS
 10
  4.3788
 20
  1.7512
 30
0.0
 42
  0.0985
 0
VERTEX
 8
PARTS
 10
  4.3723
 20
  1.7415
 30
0.0
 42
  0.0985
 0
VERTEX
 8
PARTS
 10
  4.3700
 20
  1.7300
 30
0.0
 42
  0.0985
 0
VERTEX
 8
PARTS
 10
  4.3723
 20
  1.7185
 30
0.0
 42
  0.0985
 0
VERTEX
 8
PARTS
 10
  4.3788
 20
  1.7088
 30
0.0
 42
  0.0985
 0
VERTEX
 8
PARTS
 10
  4.3885
 20
  1.7023
 30
0.0
 42
  0.0985
 0
VERTEX
 8
PARTS
 10
  4.4000
 20
  1.7000
 30
0.0
 42
  0.0985
 0
VERTEX
 8
PARTS
 10
  4.4115
 20
  1.7023
 30
0.0
 42
  0.0985
 0
VERTEX
 8
PARTS
 10
  4.4212
 20
  1.7088
 30
0.0
 42
  0.0985
 0
VERTEX
 8
PARTS
 10
  4.4277
 20
  1.7185
 30
0.0
 42
  0.0985
 0
SEQEND
 8
PARTS
 0
POLYLINE
 8
PARTS
 66
1
 10
0.0
 20
0.0
 30
0.0
 0
VERTEX
 8
PARTS
 10
  3.5000
 20
  5.5000
 30
0.0
 0
VERTEX
 8
PARTS
 10
  3.5000
 20
  5.7000
 30
0.0
 0
SEQEND
 8
PARTS
 0
POLYLINE
 8
PARTS
 66
1
 10
0.0
 20
0.0
 30
0.0
 0
VERTEX
 8
PARTS
 10
  3.5300
 20
  5.5300
 30
0.0
 0
VERTEX
 8
PARTS
 10
  3.5300
 20
  5.6700
 30
0.0
 0
SEQEND
 8
PARTS
 0
POLYLINE
 8
PARTS
 66
1
 10
0.0
 20
0.0
 30
0.0
 0
VERTEX
 8
PARTS
 10
  3.5600
 20
  5.6400
 30
0.0
 0
VERTEX
 8
PARTS
 10
  3.5600
 20
  5.5600
 30
0.0
 0
SEQEND
 8
PARTS
 0
POLYLINE
 8
PARTS
 66
1
 10
0.0
 20
0.0
 30
0.0
 0
VERTEX
 8
PARTS
 10
  3.5900
 20
  5.5900
 30
0.0
 0
VERTEX
 8
PARTS
 10
  3.5900
 20
  5.6100
 30
0.0
 0
SEQEND
 8
PARTS
 0
TEXT
 8
PARTTEXT
 10
  3.5200
 20
  6.2686
 30
0.0
 40
  0.0514
 1
VCC
 0
POLYLINE
 8
PARTS
 66
1
 10
0.0
 20
0.0
 30
0.0
 0
VERTEX
 8
PARTS
 10
  3.4400
 20
  6.3000
 30
0.0
 0
VERTEX
 8
PARTS
 10
  3.4000
 20
  6.3000
 30
0.0
 0
SEQEND
 8
PARTS
 0
POLYLINE
 8
PARTS
 66
1
 70
1
 10
0.0
 20
0.0
 30
0.0
 0
VERTEX
 8
PARTS
 10
  3.5000
 20
  6.3000
 30
0.0
 42
  0.0985
 0
VERTEX
 8
PARTS
 10
  3.4977
 20
  6.3115
 30
0.0
 42
  0.0985
 0
VERTEX
 8
PARTS
 10
  3.4912
 20
  6.3212
 30
0.0
 42
  0.0985
 0
VERTEX
 8
PARTS
 10
  3.4815
 20
  6.3277
 30
0.0
 42
  0.0985
 0
VERTEX
 8
PARTS
 10
  3.4700
 20
  6.3300
 30
0.0
 42
  0.0985
 0
VERTEX
 8
PARTS
 10
  3.4585
 20
  6.3277
 30
0.0
 42
  0.0985
 0
VERTEX
 8
PARTS
 10
  3.4488
 20
  6.3212
 30
0.0
 42
  0.0985
 0
VERTEX
 8
PARTS
 10
  3.4423
 20
  6.3115
 30
0.0
 42
  0.0985
 0
VERTEX
 8
PARTS
 10
  3.4400
 20
  6.3000
 30
0.0
 42
  0.0985
 0
VERTEX
 8
PARTS
 10
  3.4423
 20
  6.2885
 30
0.0
 42
  0.0985
 0
VERTEX
 8
PARTS
 10
  3.4488
 20
  6.2788
 30
0.0
 42
  0.0985
 0
VERTEX
 8
PARTS
 10
  3.4585
 20
  6.2723
 30
0.0
 42
  0.0985
 0
VERTEX
 8
PARTS
 10
  3.4700
 20
  6.2700
 30
0.0
 42
  0.0985
 0
VERTEX
 8
PARTS
 10
  3.4815
 20
  6.2723
 30
0.0
 42
  0.0985
 0
VERTEX
 8
PARTS
 10
  3.4912
 20
  6.2788
 30
0.0
 42
  0.0985
 0
VERTEX
 8
PARTS
 10
  3.4977
 20
  6.2885
 30
0.0
 42
  0.0985
 0
SEQEND
 8
PARTS
 0
TEXT
 8
PARTTEXT
 10
  2.6000
 20
  3.0186
 30
0.0
 40
  0.0514
 1
VCC
 0
POLYLINE
 8
PARTS
 66
1
 10
0.0
 20
0.0
 30
0.0
 0
VERTEX
 8
PARTS
 10
  2.7000
 20
  2.9400
 30
0.0
 0
VERTEX
 8
PARTS
 10
  2.7000
 20
  2.9000
 30
0.0
 0
SEQEND
 8
PARTS
 0
POLYLINE
 8
PARTS
 66
1
 70
1
 10
0.0
 20
0.0
 30
0.0
 0
VERTEX
 8
PARTS
 10
  2.7300
 20
  2.9700
 30
0.0
 42
  0.0985
 0
VERTEX
 8
PARTS
 10
  2.7277
 20
  2.9815
 30
0.0
 42
  0.0985
 0
VERTEX
 8
PARTS
 10
  2.7212
 20
  2.9912
 30
0.0
 42
  0.0985
 0
VERTEX
 8
PARTS
 10
  2.7115
 20
  2.9977
 30
0.0
 42
  0.0985
 0
VERTEX
 8
PARTS
 10
  2.7000
 20
  3.0000
 30
0.0
 42
  0.0985
 0
VERTEX
 8
PARTS
 10
  2.6885
 20
  2.9977
 30
0.0
 42
  0.0985
 0
VERTEX
 8
PARTS
 10
  2.6788
 20
  2.9912
 30
0.0
 42
  0.0985
 0
VERTEX
 8
PARTS
 10
  2.6723
 20
  2.9815
 30
0.0
 42
  0.0985
 0
VERTEX
 8
PARTS
 10
  2.6700
 20
  2.9700
 30
0.0
 42
  0.0985
 0
VERTEX
 8
PARTS
 10
  2.6723
 20
  2.9585
 30
0.0
 42
  0.0985
 0
VERTEX
 8
PARTS
 10
  2.6788
 20
  2.9488
 30
0.0
 42
  0.0985
 0
VERTEX
 8
PARTS
 10
  2.6885
 20
  2.9423
 30
0.0
 42
  0.0985
 0
VERTEX
 8
PARTS
 10
  2.7000
 20
  2.9400
 30
0.0
 42
  0.0985
 0
VERTEX
 8
PARTS
 10
  2.7115
 20
  2.9423
 30
0.0
 42
  0.0985
 0
VERTEX
 8
PARTS
 10
  2.7212
 20
  2.9488
 30
0.0
 42
  0.0985
 0
VERTEX
 8
PARTS
 10
  2.7277
 20
  2.9585
 30
0.0
 42
  0.0985
 0
SEQEND
 8
PARTS
 0
POLYLINE
 8
PARTS
 66
1
 10
0.0
 20
0.0
 30
0.0
 0
VERTEX
 8
PARTS
 10
  4.0000
 20
  6.6000
 30
0.0
 0
VERTEX
 8
PARTS
 10
  4.0000
 20
  6.8000
 30
0.0
 0
SEQEND
 8
PARTS
 0
POLYLINE
 8
PARTS
 66
1
 10
0.0
 20
0.0
 30
0.0
 0
VERTEX
 8
PARTS
 10
  4.0300
 20
  6.6300
 30
0.0
 0
VERTEX
 8
PARTS
 10
  4.0300
 20
  6.7700
 30
0.0
 0
SEQEND
 8
PARTS
 0
POLYLINE
 8
PARTS
 66
1
 10
0.0
 20
0.0
 30
0.0
 0
VERTEX
 8
PARTS
 10
  4.0600
 20
  6.7400
 30
0.0
 0
VERTEX
 8
PARTS
 10
  4.0600
 20
  6.6600
 30
0.0
 0
SEQEND
 8
PARTS
 0
POLYLINE
 8
PARTS
 66
1
 10
0.0
 20
0.0
 30
0.0
 0
VERTEX
 8
PARTS
 10
  4.0900
 20
  6.6900
 30
0.0
 0
VERTEX
 8
PARTS
 10
  4.0900
 20
  6.7100
 30
0.0
 0
SEQEND
 8
PARTS
 0
TEXT
 8
PARTTEXT
 10
  7.7800
 20
  5.1686
 30
0.0
 40
  0.0514
 1
VCC
 0
POLYLINE
 8
PARTS
 66
1
 10
0.0
 20
0.0
 30
0.0
 0
VERTEX
 8
PARTS
 10
  8.0600
 20
  5.2000
 30
0.0
 0
VERTEX
 8
PARTS
 10
  8.1000
 20
  5.2000
 30
0.0
 0
SEQEND
 8
PARTS
 0
POLYLINE
 8
PARTS
 66
1
 70
1
 10
0.0
 20
0.0
 30
0.0
 0
VERTEX
 8
PARTS
 10
  8.0600
 20
  5.2000
 30
0.0
 42
  0.0985
 0
VERTEX
 8
PARTS
 10
  8.0577
 20
  5.2115
 30
0.0
 42
  0.0985
 0
VERTEX
 8
PARTS
 10
  8.0512
 20
  5.2212
 30
0.0
 42
  0.0985
 0
VERTEX
 8
PARTS
 10
  8.0415
 20
  5.2277
 30
0.0
 42
  0.0985
 0
VERTEX
 8
PARTS
 10
  8.0300
 20
  5.2300
 30
0.0
 42
  0.0985
 0
VERTEX
 8
PARTS
 10
  8.0185
 20
  5.2277
 30
0.0
 42
  0.0985
 0
VERTEX
 8
PARTS
 10
  8.0088
 20
  5.2212
 30
0.0
 42
  0.0985
 0
VERTEX
 8
PARTS
 10
  8.0023
 20
  5.2115
 30
0.0
 42
  0.0985
 0
VERTEX
 8
PARTS
 10
  8.0000
 20
  5.2000
 30
0.0
 42
  0.0985
 0
VERTEX
 8
PARTS
 10
  8.0023
 20
  5.1885
 30
0.0
 42
  0.0985
 0
VERTEX
 8
PARTS
 10
  8.0088
 20
  5.1788
 30
0.0
 42
  0.0985
 0
VERTEX
 8
PARTS
 10
  8.0185
 20
  5.1723
 30
0.0
 42
  0.0985
 0
VERTEX
 8
PARTS
 10
  8.0300
 20
  5.1700
 30
0.0
 42
  0.0985
 0
VERTEX
 8
PARTS
 10
  8.0415
 20
  5.1723
 30
0.0
 42
  0.0985
 0
VERTEX
 8
PARTS
 10
  8.0512
 20
  5.1788
 30
0.0
 42
  0.0985
 0
VERTEX
 8
PARTS
 10
  8.0577
 20
  5.1885
 30
0.0
 42
  0.0985
 0
SEQEND
 8
PARTS
 0
POLYLINE
 8
PARTS
 66
1
 10
0.0
 20
0.0
 30
0.0
 0
VERTEX
 8
PARTS
 10
  8.1000
 20
  4.2000
 30
0.0
 0
VERTEX
 8
PARTS
 10
  8.1000
 20
  4.4000
 30
0.0
 0
SEQEND
 8
PARTS
 0
POLYLINE
 8
PARTS
 66
1
 10
0.0
 20
0.0
 30
0.0
 0
VERTEX
 8
PARTS
 10
  8.0700
 20
  4.2300
 30
0.0
 0
VERTEX
 8
PARTS
 10
  8.0700
 20
  4.3700
 30
0.0
 0
SEQEND
 8
PARTS
 0
POLYLINE
 8
PARTS
 66
1
 10
0.0
 20
0.0
 30
0.0
 0
VERTEX
 8
PARTS
 10
  8.0400
 20
  4.3400
 30
0.0
 0
VERTEX
 8
PARTS
 10
  8.0400
 20
  4.2600
 30
0.0
 0
SEQEND
 8
PARTS
 0
POLYLINE
 8
PARTS
 66
1
 10
0.0
 20
0.0
 30
0.0
 0
VERTEX
 8
PARTS
 10
  8.0100
 20
  4.2900
 30
0.0
 0
VERTEX
 8
PARTS
 10
  8.0100
 20
  4.3100
 30
0.0
 0
SEQEND
 8
PARTS
 0
POLYLINE
 8
PARTS
 66
1
 10
0.0
 20
0.0
 30
0.0
 0
VERTEX
 8
PARTS
 10
  8.2000
 20
  6.4000
 30
0.0
 0
VERTEX
 8
PARTS
 10
  8.2000
 20
  6.6000
 30
0.0
 0
SEQEND
 8
PARTS
 0
POLYLINE
 8
PARTS
 66
1
 10
0.0
 20
0.0
 30
0.0
 0
VERTEX
 8
PARTS
 10
  8.1700
 20
  6.4300
 30
0.0
 0
VERTEX
 8
PARTS
 10
  8.1700
 20
  6.5700
 30
0.0
 0
SEQEND
 8
PARTS
 0
POLYLINE
 8
PARTS
 66
1
 10
0.0
 20
0.0
 30
0.0
 0
VERTEX
 8
PARTS
 10
  8.1400
 20
  6.5400
 30
0.0
 0
VERTEX
 8
PARTS
 10
  8.1400
 20
  6.4600
 30
0.0
 0
SEQEND
 8
PARTS
 0
POLYLINE
 8
PARTS
 66
1
 10
0.0
 20
0.0
 30
0.0
 0
VERTEX
 8
PARTS
 10
  8.1100
 20
  6.4900
 30
0.0
 0
VERTEX
 8
PARTS
 10
  8.1100
 20
  6.5100
 30
0.0
 0
SEQEND
 8
PARTS
 0
TEXT
 8
PARTTEXT
 10
  7.9800
 20
  6.7686
 30
0.0
 40
  0.0514
 1
VCC
 0
POLYLINE
 8
PARTS
 66
1
 10
0.0
 20
0.0
 30
0.0
 0
VERTEX
 8
PARTS
 10
  8.2600
 20
  6.8000
 30
0.0
 0
VERTEX
 8
PARTS
 10
  8.3000
 20
  6.8000
 30
0.0
 0
SEQEND
 8
PARTS
 0
POLYLINE
 8
PARTS
 66
1
 70
1
 10
0.0
 20
0.0
 30
0.0
 0
VERTEX
 8
PARTS
 10
  8.2600
 20
  6.8000
 30
0.0
 42
  0.0985
 0
VERTEX
 8
PARTS
 10
  8.2577
 20
  6.8115
 30
0.0
 42
  0.0985
 0
VERTEX
 8
PARTS
 10
  8.2512
 20
  6.8212
 30
0.0
 42
  0.0985
 0
VERTEX
 8
PARTS
 10
  8.2415
 20
  6.8277
 30
0.0
 42
  0.0985
 0
VERTEX
 8
PARTS
 10
  8.2300
 20
  6.8300
 30
0.0
 42
  0.0985
 0
VERTEX
 8
PARTS
 10
  8.2185
 20
  6.8277
 30
0.0
 42
  0.0985
 0
VERTEX
 8
PARTS
 10
  8.2088
 20
  6.8212
 30
0.0
 42
  0.0985
 0
VERTEX
 8
PARTS
 10
  8.2023
 20
  6.8115
 30
0.0
 42
  0.0985
 0
VERTEX
 8
PARTS
 10
  8.2000
 20
  6.8000
 30
0.0
 42
  0.0985
 0
VERTEX
 8
PARTS
 10
  8.2023
 20
  6.7885
 30
0.0
 42
  0.0985
 0
VERTEX
 8
PARTS
 10
  8.2088
 20
  6.7788
 30
0.0
 42
  0.0985
 0
VERTEX
 8
PARTS
 10
  8.2185
 20
  6.7723
 30
0.0
 42
  0.0985
 0
VERTEX
 8
PARTS
 10
  8.2300
 20
  6.7700
 30
0.0
 42
  0.0985
 0
VERTEX
 8
PARTS
 10
  8.2415
 20
  6.7723
 30
0.0
 42
  0.0985
 0
VERTEX
 8
PARTS
 10
  8.2512
 20
  6.7788
 30
0.0
 42
  0.0985
 0
VERTEX
 8
PARTS
 10
  8.2577
 20
  6.7885
 30
0.0
 42
  0.0985
 0
SEQEND
 8
PARTS
 0
TEXT
 8
PARTTEXT
 10
  6.7200
 20
  3.7686
 30
0.0
 40
  0.0514
 1
PWM-1
 0
POLYLINE
 8
PARTS
 66
1
 10
0.0
 20
0.0
 30
0.0
 0
VERTEX
 8
PARTS
 10
  6.4000
 20
  3.8500
 30
0.0
 0
VERTEX
 8
PARTS
 10
  6.6000
 20
  3.8500
 30
0.0
 0
SEQEND
 8
PARTS
 0
POLYLINE
 8
PARTS
 66
1
 10
0.0
 20
0.0
 30
0.0
 0
VERTEX
 8
PARTS
 10
  6.6000
 20
  3.8500
 30
0.0
 0
VERTEX
 8
PARTS
 10
  6.7000
 20
  3.8000
 30
0.0
 0
SEQEND
 8
PARTS
 0
POLYLINE
 8
PARTS
 66
1
 10
0.0
 20
0.0
 30
0.0
 0
VERTEX
 8
PARTS
 10
  6.7000
 20
  3.8000
 30
0.0
 0
VERTEX
 8
PARTS
 10
  6.6000
 20
  3.7500
 30
0.0
 0
SEQEND
 8
PARTS
 0
POLYLINE
 8
PARTS
 66
1
 10
0.0
 20
0.0
 30
0.0
 0
VERTEX
 8
PARTS
 10
  6.6000
 20
  3.7500
 30
0.0
 0
VERTEX
 8
PARTS
 10
  6.4000
 20
  3.7500
 30
0.0
 0
SEQEND
 8
PARTS
 0
POLYLINE
 8
PARTS
 66
1
 10
0.0
 20
0.0
 30
0.0
 0
VERTEX
 8
PARTS
 10
  6.4000
 20
  3.7500
 30
0.0
 0
VERTEX
 8
PARTS
 10
  6.4000
 20
  3.8500
 30
0.0
 0
SEQEND
 8
PARTS
 0
TEXT
 8
PARTTEXT
 10
  6.7200
 20
  5.1686
 30
0.0
 40
  0.0514
 1
DIR-1
 0
POLYLINE
 8
PARTS
 66
1
 10
0.0
 20
0.0
 30
0.0
 0
VERTEX
 8
PARTS
 10
  6.4000
 20
  5.2500
 30
0.0
 0
VERTEX
 8
PARTS
 10
  6.6000
 20
  5.2500
 30
0.0
 0
SEQEND
 8
PARTS
 0
POLYLINE
 8
PARTS
 66
1
 10
0.0
 20
0.0
 30
0.0
 0
VERTEX
 8
PARTS
 10
  6.6000
 20
  5.2500
 30
0.0
 0
VERTEX
 8
PARTS
 10
  6.7000
 20
  5.2000
 30
0.0
 0
SEQEND
 8
PARTS
 0
POLYLINE
 8
PARTS
 66
1
 10
0.0
 20
0.0
 30
0.0
 0
VERTEX
 8
PARTS
 10
  6.7000
 20
  5.2000
 30
0.0
 0
VERTEX
 8
PARTS
 10
  6.6000
 20
  5.1500
 30
0.0
 0
SEQEND
 8
PARTS
 0
POLYLINE
 8
PARTS
 66
1
 10
0.0
 20
0.0
 30
0.0
 0
VERTEX
 8
PARTS
 10
  6.6000
 20
  5.1500
 30
0.0
 0
VERTEX
 8
PARTS
 10
  6.4000
 20
  5.1500
 30
0.0
 0
SEQEND
 8
PARTS
 0
POLYLINE
 8
PARTS
 66
1
 10
0.0
 20
0.0
 30
0.0
 0
VERTEX
 8
PARTS
 10
  6.4000
 20
  5.1500
 30
0.0
 0
VERTEX
 8
PARTS
 10
  6.4000
 20
  5.2500
 30
0.0
 0
SEQEND
 8
PARTS
 0
TEXT
 8
PARTTEXT
 10
  6.7200
 20
  3.3686
 30
0.0
 40
  0.0514
 1
PWM-2
 0
POLYLINE
 8
PARTS
 66
1
 10
0.0
 20
0.0
 30
0.0
 0
VERTEX
 8
PARTS
 10
  6.4000
 20
  3.4500
 30
0.0
 0
VERTEX
 8
PARTS
 10
  6.6000
 20
  3.4500
 30
0.0
 0
SEQEND
 8
PARTS
 0
POLYLINE
 8
PARTS
 66
1
 10
0.0
 20
0.0
 30
0.0
 0
VERTEX
 8
PARTS
 10
  6.6000
 20
  3.4500
 30
0.0
 0
VERTEX
 8
PARTS
 10
  6.7000
 20
  3.4000
 30
0.0
 0
SEQEND
 8
PARTS
 0
POLYLINE
 8
PARTS
 66
1
 10
0.0
 20
0.0
 30
0.0
 0
VERTEX
 8
PARTS
 10
  6.7000
 20
  3.4000
 30
0.0
 0
VERTEX
 8
PARTS
 10
  6.6000
 20
  3.3500
 30
0.0
 0
SEQEND
 8
PARTS
 0
POLYLINE
 8
PARTS
 66
1
 10
0.0
 20
0.0
 30
0.0
 0
VERTEX
 8
PARTS
 10
  6.6000
 20
  3.3500
 30
0.0
 0
VERTEX
 8
PARTS
 10
  6.4000
 20
  3.3500
 30
0.0
 0
SEQEND
 8
PARTS
 0
POLYLINE
 8
PARTS
 66
1
 10
0.0
 20
0.0
 30
0.0
 0
VERTEX
 8
PARTS
 10
  6.4000
 20
  3.3500
 30
0.0
 0
VERTEX
 8
PARTS
 10
  6.4000
 20
  3.4500
 30
0.0
 0
SEQEND
 8
PARTS
 0
TEXT
 8
PARTTEXT
 10
  6.7200
 20
  5.0686
 30
0.0
 40
  0.0514
 1
DIR-2
 0
POLYLINE
 8
PARTS
 66
1
 10
0.0
 20
0.0
 30
0.0
 0
VERTEX
 8
PARTS
 10
  6.4000
 20
  5.1500
 30
0.0
 0
VERTEX
 8
PARTS
 10
  6.6000
 20
  5.1500
 30
0.0
 0
SEQEND
 8
PARTS
 0
POLYLINE
 8
PARTS
 66
1
 10
0.0
 20
0.0
 30
0.0
 0
VERTEX
 8
PARTS
 10
  6.6000
 20
  5.1500
 30
0.0
 0
VERTEX
 8
PARTS
 10
  6.7000
 20
  5.1000
 30
0.0
 0
SEQEND
 8
PARTS
 0
POLYLINE
 8
PARTS
 66
1
 10
0.0
 20
0.0
 30
0.0
 0
VERTEX
 8
PARTS
 10
  6.7000
 20
  5.1000
 30
0.0
 0
VERTEX
 8
PARTS
 10
  6.6000
 20
  5.0500
 30
0.0
 0
SEQEND
 8
PARTS
 0
POLYLINE
 8
PARTS
 66
1
 10
0.0
 20
0.0
 30
0.0
 0
VERTEX
 8
PARTS
 10
  6.6000
 20
  5.0500
 30
0.0
 0
VERTEX
 8
PARTS
 10
  6.4000
 20
  5.0500
 30
0.0
 0
SEQEND
 8
PARTS
 0
POLYLINE
 8
PARTS
 66
1
 10
0.0
 20
0.0
 30
0.0
 0
VERTEX
 8
PARTS
 10
  6.4000
 20
  5.0500
 30
0.0
 0
VERTEX
 8
PARTS
 10
  6.4000
 20
  5.1500
 30
0.0
 0
SEQEND
 8
PARTS
 0
TEXT
 8
PARTTEXT
 10
  1.6100
 20
  2.3686
 30
0.0
 40
  0.0514
 1
RST
 0
POLYLINE
 8
PARTS
 66
1
 10
0.0
 20
0.0
 30
0.0
 0
VERTEX
 8
PARTS
 10
  1.9000
 20
  2.4500
 30
0.0
 0
VERTEX
 8
PARTS
 10
  2.1000
 20
  2.4500
 30
0.0
 0
SEQEND
 8
PARTS
 0
POLYLINE
 8
PARTS
 66
1
 10
0.0
 20
0.0
 30
0.0
 0
VERTEX
 8
PARTS
 10
  2.1000
 20
  2.4500
 30
0.0
 0
VERTEX
 8
PARTS
 10
  2.2000
 20
  2.4000
 30
0.0
 0
SEQEND
 8
PARTS
 0
POLYLINE
 8
PARTS
 66
1
 10
0.0
 20
0.0
 30
0.0
 0
VERTEX
 8
PARTS
 10
  2.2000
 20
  2.4000
 30
0.0
 0
VERTEX
 8
PARTS
 10
  2.1000
 20
  2.3500
 30
0.0
 0
SEQEND
 8
PARTS
 0
POLYLINE
 8
PARTS
 66
1
 10
0.0
 20
0.0
 30
0.0
 0
VERTEX
 8
PARTS
 10
  2.1000
 20
  2.3500
 30
0.0
 0
VERTEX
 8
PARTS
 10
  1.9000
 20
  2.3500
 30
0.0
 0
SEQEND
 8
PARTS
 0
POLYLINE
 8
PARTS
 66
1
 10
0.0
 20
0.0
 30
0.0
 0
VERTEX
 8
PARTS
 10
  1.9000
 20
  2.3500
 30
0.0
 0
VERTEX
 8
PARTS
 10
  1.9000
 20
  2.4500
 30
0.0
 0
SEQEND
 8
PARTS
 0
TEXT
 8
PARTTEXT
 10
  3.2100
 20
  4.9686
 30
0.0
 40
  0.0514
 1
RIGHT A-Phase
 0
POLYLINE
 8
PARTS
 66
1
 10
0.0
 20
0.0
 30
0.0
 0
VERTEX
 8
PARTS
 10
  3.9000
 20
  5.0500
 30
0.0
 0
VERTEX
 8
PARTS
 10
  4.1000
 20
  5.0500
 30
0.0
 0
SEQEND
 8
PARTS
 0
POLYLINE
 8
PARTS
 66
1
 10
0.0
 20
0.0
 30
0.0
 0
VERTEX
 8
PARTS
 10
  4.1000
 20
  5.0500
 30
0.0
 0
VERTEX
 8
PARTS
 10
  4.2000
 20
  5.0000
 30
0.0
 0
SEQEND
 8
PARTS
 0
POLYLINE
 8
PARTS
 66
1
 10
0.0
 20
0.0
 30
0.0
 0
VERTEX
 8
PARTS
 10
  4.2000
 20
  5.0000
 30
0.0
 0
VERTEX
 8
PARTS
 10
  4.1000
 20
  4.9500
 30
0.0
 0
SEQEND
 8
PARTS
 0
POLYLINE
 8
PARTS
 66
1
 10
0.0
 20
0.0
 30
0.0
 0
VERTEX
 8
PARTS
 10
  4.1000
 20
  4.9500
 30
0.0
 0
VERTEX
 8
PARTS
 10
  3.9000
 20
  4.9500
 30
0.0
 0
SEQEND
 8
PARTS
 0
POLYLINE
 8
PARTS
 66
1
 10
0.0
 20
0.0
 30
0.0
 0
VERTEX
 8
PARTS
 10
  3.9000
 20
  4.9500
 30
0.0
 0
VERTEX
 8
PARTS
 10
  3.9000
 20
  5.0500
 30
0.0
 0
SEQEND
 8
PARTS
 0
TEXT
 8
PARTTEXT
 10
  3.2100
 20
  5.0686
 30
0.0
 40
  0.0514
 1
LEFT B-Phase
 0
POLYLINE
 8
PARTS
 66
1
 10
0.0
 20
0.0
 30
0.0
 0
VERTEX
 8
PARTS
 10
  3.9000
 20
  5.1500
 30
0.0
 0
VERTEX
 8
PARTS
 10
  4.1000
 20
  5.1500
 30
0.0
 0
SEQEND
 8
PARTS
 0
POLYLINE
 8
PARTS
 66
1
 10
0.0
 20
0.0
 30
0.0
 0
VERTEX
 8
PARTS
 10
  4.1000
 20
  5.1500
 30
0.0
 0
VERTEX
 8
PARTS
 10
  4.2000
 20
  5.1000
 30
0.0
 0
SEQEND
 8
PARTS
 0
POLYLINE
 8
PARTS
 66
1
 10
0.0
 20
0.0
 30
0.0
 0
VERTEX
 8
PARTS
 10
  4.2000
 20
  5.1000
 30
0.0
 0
VERTEX
 8
PARTS
 10
  4.1000
 20
  5.0500
 30
0.0
 0
SEQEND
 8
PARTS
 0
POLYLINE
 8
PARTS
 66
1
 10
0.0
 20
0.0
 30
0.0
 0
VERTEX
 8
PARTS
 10
  4.1000
 20
  5.0500
 30
0.0
 0
VERTEX
 8
PARTS
 10
  3.9000
 20
  5.0500
 30
0.0
 0
SEQEND
 8
PARTS
 0
POLYLINE
 8
PARTS
 66
1
 10
0.0
 20
0.0
 30
0.0
 0
VERTEX
 8
PARTS
 10
  3.9000
 20
  5.0500
 30
0.0
 0
VERTEX
 8
PARTS
 10
  3.9000
 20
  5.1500
 30
0.0
 0
SEQEND
 8
PARTS
 0
TEXT
 8
PARTTEXT
 10
  3.2100
 20
  5.1686
 30
0.0
 40
  0.0514
 1
LEFT A-Phase
 0
POLYLINE
 8
PARTS
 66
1
 10
0.0
 20
0.0
 30
0.0
 0
VERTEX
 8
PARTS
 10
  3.9000
 20
  5.2500
 30
0.0
 0
VERTEX
 8
PARTS
 10
  4.1000
 20
  5.2500
 30
0.0
 0
SEQEND
 8
PARTS
 0
POLYLINE
 8
PARTS
 66
1
 10
0.0
 20
0.0
 30
0.0
 0
VERTEX
 8
PARTS
 10
  4.1000
 20
  5.2500
 30
0.0
 0
VERTEX
 8
PARTS
 10
  4.2000
 20
  5.2000
 30
0.0
 0
SEQEND
 8
PARTS
 0
POLYLINE
 8
PARTS
 66
1
 10
0.0
 20
0.0
 30
0.0
 0
VERTEX
 8
PARTS
 10
  4.2000
 20
  5.2000
 30
0.0
 0
VERTEX
 8
PARTS
 10
  4.1000
 20
  5.1500
 30
0.0
 0
SEQEND
 8
PARTS
 0
POLYLINE
 8
PARTS
 66
1
 10
0.0
 20
0.0
 30
0.0
 0
VERTEX
 8
PARTS
 10
  4.1000
 20
  5.1500
 30
0.0
 0
VERTEX
 8
PARTS
 10
  3.9000
 20
  5.1500
 30
0.0
 0
SEQEND
 8
PARTS
 0
POLYLINE
 8
PARTS
 66
1
 10
0.0
 20
0.0
 30
0.0
 0
VERTEX
 8
PARTS
 10
  3.9000
 20
  5.1500
 30
0.0
 0
VERTEX
 8
PARTS
 10
  3.9000
 20
  5.2500
 30
0.0
 0
SEQEND
 8
PARTS
 0
TEXT
 8
PARTTEXT
 10
  3.2100
 20
  4.8686
 30
0.0
 40
  0.0514
 1
RIGHT B-Phase
 0
POLYLINE
 8
PARTS
 66
1
 10
0.0
 20
0.0
 30
0.0
 0
VERTEX
 8
PARTS
 10
  3.9000
 20
  4.9500
 30
0.0
 0
VERTEX
 8
PARTS
 10
  4.1000
 20
  4.9500
 30
0.0
 0
SEQEND
 8
PARTS
 0
POLYLINE
 8
PARTS
 66
1
 10
0.0
 20
0.0
 30
0.0
 0
VERTEX
 8
PARTS
 10
  4.1000
 20
  4.9500
 30
0.0
 0
VERTEX
 8
PARTS
 10
  4.2000
 20
  4.9000
 30
0.0
 0
SEQEND
 8
PARTS
 0
POLYLINE
 8
PARTS
 66
1
 10
0.0
 20
0.0
 30
0.0
 0
VERTEX
 8
PARTS
 10
  4.2000
 20
  4.9000
 30
0.0
 0
VERTEX
 8
PARTS
 10
  4.1000
 20
  4.8500
 30
0.0
 0
SEQEND
 8
PARTS
 0
POLYLINE
 8
PARTS
 66
1
 10
0.0
 20
0.0
 30
0.0
 0
VERTEX
 8
PARTS
 10
  4.1000
 20
  4.8500
 30
0.0
 0
VERTEX
 8
PARTS
 10
  3.9000
 20
  4.8500
 30
0.0
 0
SEQEND
 8
PARTS
 0
POLYLINE
 8
PARTS
 66
1
 10
0.0
 20
0.0
 30
0.0
 0
VERTEX
 8
PARTS
 10
  3.9000
 20
  4.8500
 30
0.0
 0
VERTEX
 8
PARTS
 10
  3.9000
 20
  4.9500
 30
0.0
 0
SEQEND
 8
PARTS
 0
TEXT
 8
PARTTEXT
 10
  2.9200
 20
  3.5686
 30
0.0
 40
  0.0514
 1
SCK
 0
POLYLINE
 8
PARTS
 66
1
 10
0.0
 20
0.0
 30
0.0
 0
VERTEX
 8
PARTS
 10
  3.5000
 20
  3.6500
 30
0.0
 0
VERTEX
 8
PARTS
 10
  3.3000
 20
  3.6500
 30
0.0
 0
SEQEND
 8
PARTS
 0
POLYLINE
 8
PARTS
 66
1
 10
0.0
 20
0.0
 30
0.0
 0
VERTEX
 8
PARTS
 10
  3.3000
 20
  3.6500
 30
0.0
 0
VERTEX
 8
PARTS
 10
  3.2000
 20
  3.6000
 30
0.0
 0
SEQEND
 8
PARTS
 0
POLYLINE
 8
PARTS
 66
1
 10
0.0
 20
0.0
 30
0.0
 0
VERTEX
 8
PARTS
 10
  3.2000
 20
  3.6000
 30
0.0
 0
VERTEX
 8
PARTS
 10
  3.3000
 20
  3.5500
 30
0.0
 0
SEQEND
 8
PARTS
 0
POLYLINE
 8
PARTS
 66
1
 10
0.0
 20
0.0
 30
0.0
 0
VERTEX
 8
PARTS
 10
  3.3000
 20
  3.5500
 30
0.0
 0
VERTEX
 8
PARTS
 10
  3.5000
 20
  3.5500
 30
0.0
 0
SEQEND
 8
PARTS
 0
POLYLINE
 8
PARTS
 66
1
 10
0.0
 20
0.0
 30
0.0
 0
VERTEX
 8
PARTS
 10
  3.5000
 20
  3.5500
 30
0.0
 0
VERTEX
 8
PARTS
 10
  3.5000
 20
  3.6500
 30
0.0
 0
SEQEND
 8
PARTS
 0
TEXT
 8
PARTTEXT
 10
  7.3200
 20
  5.7686
 30
0.0
 40
  0.0514
 1
RIGHT A-Phase
 0
POLYLINE
 8
PARTS
 66
1
 10
0.0
 20
0.0
 30
0.0
 0
VERTEX
 8
PARTS
 10
  8.3000
 20
  5.8500
 30
0.0
 0
VERTEX
 8
PARTS
 10
  8.1000
 20
  5.8500
 30
0.0
 0
SEQEND
 8
PARTS
 0
POLYLINE
 8
PARTS
 66
1
 10
0.0
 20
0.0
 30
0.0
 0
VERTEX
 8
PARTS
 10
  8.1000
 20
  5.8500
 30
0.0
 0
VERTEX
 8
PARTS
 10
  8.0000
 20
  5.8000
 30
0.0
 0
SEQEND
 8
PARTS
 0
POLYLINE
 8
PARTS
 66
1
 10
0.0
 20
0.0
 30
0.0
 0
VERTEX
 8
PARTS
 10
  8.0000
 20
  5.8000
 30
0.0
 0
VERTEX
 8
PARTS
 10
  8.1000
 20
  5.7500
 30
0.0
 0
SEQEND
 8
PARTS
 0
POLYLINE
 8
PARTS
 66
1
 10
0.0
 20
0.0
 30
0.0
 0
VERTEX
 8
PARTS
 10
  8.1000
 20
  5.7500
 30
0.0
 0
VERTEX
 8
PARTS
 10
  8.3000
 20
  5.7500
 30
0.0
 0
SEQEND
 8
PARTS
 0
POLYLINE
 8
PARTS
 66
1
 10
0.0
 20
0.0
 30
0.0
 0
VERTEX
 8
PARTS
 10
  8.3000
 20
  5.7500
 30
0.0
 0
VERTEX
 8
PARTS
 10
  8.3000
 20
  5.8500
 30
0.0
 0
SEQEND
 8
PARTS
 0
TEXT
 8
PARTTEXT
 10
  7.3200
 20
  5.8686
 30
0.0
 40
  0.0514
 1
LEFT B-Phase
 0
POLYLINE
 8
PARTS
 66
1
 10
0.0
 20
0.0
 30
0.0
 0
VERTEX
 8
PARTS
 10
  8.3000
 20
  5.9500
 30
0.0
 0
VERTEX
 8
PARTS
 10
  8.1000
 20
  5.9500
 30
0.0
 0
SEQEND
 8
PARTS
 0
POLYLINE
 8
PARTS
 66
1
 10
0.0
 20
0.0
 30
0.0
 0
VERTEX
 8
PARTS
 10
  8.1000
 20
  5.9500
 30
0.0
 0
VERTEX
 8
PARTS
 10
  8.0000
 20
  5.9000
 30
0.0
 0
SEQEND
 8
PARTS
 0
POLYLINE
 8
PARTS
 66
1
 10
0.0
 20
0.0
 30
0.0
 0
VERTEX
 8
PARTS
 10
  8.0000
 20
  5.9000
 30
0.0
 0
VERTEX
 8
PARTS
 10
  8.1000
 20
  5.8500
 30
0.0
 0
SEQEND
 8
PARTS
 0
POLYLINE
 8
PARTS
 66
1
 10
0.0
 20
0.0
 30
0.0
 0
VERTEX
 8
PARTS
 10
  8.1000
 20
  5.8500
 30
0.0
 0
VERTEX
 8
PARTS
 10
  8.3000
 20
  5.8500
 30
0.0
 0
SEQEND
 8
PARTS
 0
POLYLINE
 8
PARTS
 66
1
 10
0.0
 20
0.0
 30
0.0
 0
VERTEX
 8
PARTS
 10
  8.3000
 20
  5.8500
 30
0.0
 0
VERTEX
 8
PARTS
 10
  8.3000
 20
  5.9500
 30
0.0
 0
SEQEND
 8
PARTS
 0
TEXT
 8
PARTTEXT
 10
  7.3200
 20
  5.9686
 30
0.0
 40
  0.0514
 1
LEFT A-Phase
 0
POLYLINE
 8
PARTS
 66
1
 10
0.0
 20
0.0
 30
0.0
 0
VERTEX
 8
PARTS
 10
  8.3000
 20
  6.0500
 30
0.0
 0
VERTEX
 8
PARTS
 10
  8.1000
 20
  6.0500
 30
0.0
 0
SEQEND
 8
PARTS
 0
POLYLINE
 8
PARTS
 66
1
 10
0.0
 20
0.0
 30
0.0
 0
VERTEX
 8
PARTS
 10
  8.1000
 20
  6.0500
 30
0.0
 0
VERTEX
 8
PARTS
 10
  8.0000
 20
  6.0000
 30
0.0
 0
SEQEND
 8
PARTS
 0
POLYLINE
 8
PARTS
 66
1
 10
0.0
 20
0.0
 30
0.0
 0
VERTEX
 8
PARTS
 10
  8.0000
 20
  6.0000
 30
0.0
 0
VERTEX
 8
PARTS
 10
  8.1000
 20
  5.9500
 30
0.0
 0
SEQEND
 8
PARTS
 0
POLYLINE
 8
PARTS
 66
1
 10
0.0
 20
0.0
 30
0.0
 0
VERTEX
 8
PARTS
 10
  8.1000
 20
  5.9500
 30
0.0
 0
VERTEX
 8
PARTS
 10
  8.3000
 20
  5.9500
 30
0.0
 0
SEQEND
 8
PARTS
 0
POLYLINE
 8
PARTS
 66
1
 10
0.0
 20
0.0
 30
0.0
 0
VERTEX
 8
PARTS
 10
  8.3000
 20
  5.9500
 30
0.0
 0
VERTEX
 8
PARTS
 10
  8.3000
 20
  6.0500
 30
0.0
 0
SEQEND
 8
PARTS
 0
TEXT
 8
PARTTEXT
 10
  7.3200
 20
  5.6686
 30
0.0
 40
  0.0514
 1
RIGHT B-Phase
 0
POLYLINE
 8
PARTS
 66
1
 10
0.0
 20
0.0
 30
0.0
 0
VERTEX
 8
PARTS
 10
  8.3000
 20
  5.7500
 30
0.0
 0
VERTEX
 8
PARTS
 10
  8.1000
 20
  5.7500
 30
0.0
 0
SEQEND
 8
PARTS
 0
POLYLINE
 8
PARTS
 66
1
 10
0.0
 20
0.0
 30
0.0
 0
VERTEX
 8
PARTS
 10
  8.1000
 20
  5.7500
 30
0.0
 0
VERTEX
 8
PARTS
 10
  8.0000
 20
  5.7000
 30
0.0
 0
SEQEND
 8
PARTS
 0
POLYLINE
 8
PARTS
 66
1
 10
0.0
 20
0.0
 30
0.0
 0
VERTEX
 8
PARTS
 10
  8.0000
 20
  5.7000
 30
0.0
 0
VERTEX
 8
PARTS
 10
  8.1000
 20
  5.6500
 30
0.0
 0
SEQEND
 8
PARTS
 0
POLYLINE
 8
PARTS
 66
1
 10
0.0
 20
0.0
 30
0.0
 0
VERTEX
 8
PARTS
 10
  8.1000
 20
  5.6500
 30
0.0
 0
VERTEX
 8
PARTS
 10
  8.3000
 20
  5.6500
 30
0.0
 0
SEQEND
 8
PARTS
 0
POLYLINE
 8
PARTS
 66
1
 10
0.0
 20
0.0
 30
0.0
 0
VERTEX
 8
PARTS
 10
  8.3000
 20
  5.6500
 30
0.0
 0
VERTEX
 8
PARTS
 10
  8.3000
 20
  5.7500
 30
0.0
 0
SEQEND
 8
PARTS
 0
TEXT
 8
PARTTEXT
 10
  2.9000
 20
  3.7686
 30
0.0
 40
  0.0514
 1
MOSI
 0
POLYLINE
 8
PARTS
 66
1
 10
0.0
 20
0.0
 30
0.0
 0
VERTEX
 8
PARTS
 10
  3.5000
 20
  3.8000
 30
0.0
 0
VERTEX
 8
PARTS
 10
  3.4000
 20
  3.8500
 30
0.0
 0
SEQEND
 8
PARTS
 0
POLYLINE
 8
PARTS
 66
1
 10
0.0
 20
0.0
 30
0.0
 0
VERTEX
 8
PARTS
 10
  3.4000
 20
  3.8500
 30
0.0
 0
VERTEX
 8
PARTS
 10
  3.3000
 20
  3.8500
 30
0.0
 0
SEQEND
 8
PARTS
 0
POLYLINE
 8
PARTS
 66
1
 10
0.0
 20
0.0
 30
0.0
 0
VERTEX
 8
PARTS
 10
  3.3000
 20
  3.8500
 30
0.0
 0
VERTEX
 8
PARTS
 10
  3.2000
 20
  3.8000
 30
0.0
 0
SEQEND
 8
PARTS
 0
POLYLINE
 8
PARTS
 66
1
 10
0.0
 20
0.0
 30
0.0
 0
VERTEX
 8
PARTS
 10
  3.2000
 20
  3.8000
 30
0.0
 0
VERTEX
 8
PARTS
 10
  3.3000
 20
  3.7500
 30
0.0
 0
SEQEND
 8
PARTS
 0
POLYLINE
 8
PARTS
 66
1
 10
0.0
 20
0.0
 30
0.0
 0
VERTEX
 8
PARTS
 10
  3.3000
 20
  3.7500
 30
0.0
 0
VERTEX
 8
PARTS
 10
  3.4000
 20
  3.7500
 30
0.0
 0
SEQEND
 8
PARTS
 0
POLYLINE
 8
PARTS
 66
1
 10
0.0
 20
0.0
 30
0.0
 0
VERTEX
 8
PARTS
 10
  3.4000
 20
  3.7500
 30
0.0
 0
VERTEX
 8
PARTS
 10
  3.5000
 20
  3.8000
 30
0.0
 0
SEQEND
 8
PARTS
 0
TEXT
 8
PARTTEXT
 10
  2.9000
 20
  3.6686
 30
0.0
 40
  0.0514
 1
MISO
 0
POLYLINE
 8
PARTS
 66
1
 10
0.0
 20
0.0
 30
0.0
 0
VERTEX
 8
PARTS
 10
  3.5000
 20
  3.7000
 30
0.0
 0
VERTEX
 8
PARTS
 10
  3.4000
 20
  3.7500
 30
0.0
 0
SEQEND
 8
PARTS
 0
POLYLINE
 8
PARTS
 66
1
 10
0.0
 20
0.0
 30
0.0
 0
VERTEX
 8
PARTS
 10
  3.4000
 20
  3.7500
 30
0.0
 0
VERTEX
 8
PARTS
 10
  3.3000
 20
  3.7500
 30
0.0
 0
SEQEND
 8
PARTS
 0
POLYLINE
 8
PARTS
 66
1
 10
0.0
 20
0.0
 30
0.0
 0
VERTEX
 8
PARTS
 10
  3.3000
 20
  3.7500
 30
0.0
 0
VERTEX
 8
PARTS
 10
  3.2000
 20
  3.7000
 30
0.0
 0
SEQEND
 8
PARTS
 0
POLYLINE
 8
PARTS
 66
1
 10
0.0
 20
0.0
 30
0.0
 0
VERTEX
 8
PARTS
 10
  3.2000
 20
  3.7000
 30
0.0
 0
VERTEX
 8
PARTS
 10
  3.3000
 20
  3.6500
 30
0.0
 0
SEQEND
 8
PARTS
 0
POLYLINE
 8
PARTS
 66
1
 10
0.0
 20
0.0
 30
0.0
 0
VERTEX
 8
PARTS
 10
  3.3000
 20
  3.6500
 30
0.0
 0
VERTEX
 8
PARTS
 10
  3.4000
 20
  3.6500
 30
0.0
 0
SEQEND
 8
PARTS
 0
POLYLINE
 8
PARTS
 66
1
 10
0.0
 20
0.0
 30
0.0
 0
VERTEX
 8
PARTS
 10
  3.4000
 20
  3.6500
 30
0.0
 0
VERTEX
 8
PARTS
 10
  3.5000
 20
  3.7000
 30
0.0
 0
SEQEND
 8
PARTS
 0
TEXT
 8
PARTTEXT
 10
  7.5000
 20
  4.6686
 30
0.0
 40
  0.0514
 1
MISO
 0
POLYLINE
 8
PARTS
 66
1
 10
0.0
 20
0.0
 30
0.0
 0
VERTEX
 8
PARTS
 10
  8.1000
 20
  4.7000
 30
0.0
 0
VERTEX
 8
PARTS
 10
  8.0000
 20
  4.7500
 30
0.0
 0
SEQEND
 8
PARTS
 0
POLYLINE
 8
PARTS
 66
1
 10
0.0
 20
0.0
 30
0.0
 0
VERTEX
 8
PARTS
 10
  8.0000
 20
  4.7500
 30
0.0
 0
VERTEX
 8
PARTS
 10
  7.9000
 20
  4.7500
 30
0.0
 0
SEQEND
 8
PARTS
 0
POLYLINE
 8
PARTS
 66
1
 10
0.0
 20
0.0
 30
0.0
 0
VERTEX
 8
PARTS
 10
  7.9000
 20
  4.7500
 30
0.0
 0
VERTEX
 8
PARTS
 10
  7.8000
 20
  4.7000
 30
0.0
 0
SEQEND
 8
PARTS
 0
POLYLINE
 8
PARTS
 66
1
 10
0.0
 20
0.0
 30
0.0
 0
VERTEX
 8
PARTS
 10
  7.8000
 20
  4.7000
 30
0.0
 0
VERTEX
 8
PARTS
 10
  7.9000
 20
  4.6500
 30
0.0
 0
SEQEND
 8
PARTS
 0
POLYLINE
 8
PARTS
 66
1
 10
0.0
 20
0.0
 30
0.0
 0
VERTEX
 8
PARTS
 10
  7.9000
 20
  4.6500
 30
0.0
 0
VERTEX
 8
PARTS
 10
  8.0000
 20
  4.6500
 30
0.0
 0
SEQEND
 8
PARTS
 0
POLYLINE
 8
PARTS
 66
1
 10
0.0
 20
0.0
 30
0.0
 0
VERTEX
 8
PARTS
 10
  8.0000
 20
  4.6500
 30
0.0
 0
VERTEX
 8
PARTS
 10
  8.1000
 20
  4.7000
 30
0.0
 0
SEQEND
 8
PARTS
 0
TEXT
 8
PARTTEXT
 10
  7.5000
 20
  4.7686
 30
0.0
 40
  0.0514
 1
MOSI
 0
POLYLINE
 8
PARTS
 66
1
 10
0.0
 20
0.0
 30
0.0
 0
VERTEX
 8
PARTS
 10
  8.1000
 20
  4.8000
 30
0.0
 0
VERTEX
 8
PARTS
 10
  8.0000
 20
  4.8500
 30
0.0
 0
SEQEND
 8
PARTS
 0
POLYLINE
 8
PARTS
 66
1
 10
0.0
 20
0.0
 30
0.0
 0
VERTEX
 8
PARTS
 10
  8.0000
 20
  4.8500
 30
0.0
 0
VERTEX
 8
PARTS
 10
  7.9000
 20
  4.8500
 30
0.0
 0
SEQEND
 8
PARTS
 0
POLYLINE
 8
PARTS
 66
1
 10
0.0
 20
0.0
 30
0.0
 0
VERTEX
 8
PARTS
 10
  7.9000
 20
  4.8500
 30
0.0
 0
VERTEX
 8
PARTS
 10
  7.8000
 20
  4.8000
 30
0.0
 0
SEQEND
 8
PARTS
 0
POLYLINE
 8
PARTS
 66
1
 10
0.0
 20
0.0
 30
0.0
 0
VERTEX
 8
PARTS
 10
  7.8000
 20
  4.8000
 30
0.0
 0
VERTEX
 8
PARTS
 10
  7.9000
 20
  4.7500
 30
0.0
 0
SEQEND
 8
PARTS
 0
POLYLINE
 8
PARTS
 66
1
 10
0.0
 20
0.0
 30
0.0
 0
VERTEX
 8
PARTS
 10
  7.9000
 20
  4.7500
 30
0.0
 0
VERTEX
 8
PARTS
 10
  8.0000
 20
  4.7500
 30
0.0
 0
SEQEND
 8
PARTS
 0
POLYLINE
 8
PARTS
 66
1
 10
0.0
 20
0.0
 30
0.0
 0
VERTEX
 8
PARTS
 10
  8.0000
 20
  4.7500
 30
0.0
 0
VERTEX
 8
PARTS
 10
  8.1000
 20
  4.8000
 30
0.0
 0
SEQEND
 8
PARTS
 0
TEXT
 8
PARTTEXT
 10
  7.5200
 20
  5.0686
 30
0.0
 40
  0.0514
 1
RST
 0
POLYLINE
 8
PARTS
 66
1
 10
0.0
 20
0.0
 30
0.0
 0
VERTEX
 8
PARTS
 10
  8.1000
 20
  5.1500
 30
0.0
 0
VERTEX
 8
PARTS
 10
  7.9000
 20
  5.1500
 30
0.0
 0
SEQEND
 8
PARTS
 0
POLYLINE
 8
PARTS
 66
1
 10
0.0
 20
0.0
 30
0.0
 0
VERTEX
 8
PARTS
 10
  7.9000
 20
  5.1500
 30
0.0
 0
VERTEX
 8
PARTS
 10
  7.8000
 20
  5.1000
 30
0.0
 0
SEQEND
 8
PARTS
 0
POLYLINE
 8
PARTS
 66
1
 10
0.0
 20
0.0
 30
0.0
 0
VERTEX
 8
PARTS
 10
  7.8000
 20
  5.1000
 30
0.0
 0
VERTEX
 8
PARTS
 10
  7.9000
 20
  5.0500
 30
0.0
 0
SEQEND
 8
PARTS
 0
POLYLINE
 8
PARTS
 66
1
 10
0.0
 20
0.0
 30
0.0
 0
VERTEX
 8
PARTS
 10
  7.9000
 20
  5.0500
 30
0.0
 0
VERTEX
 8
PARTS
 10
  8.1000
 20
  5.0500
 30
0.0
 0
SEQEND
 8
PARTS
 0
POLYLINE
 8
PARTS
 66
1
 10
0.0
 20
0.0
 30
0.0
 0
VERTEX
 8
PARTS
 10
  8.1000
 20
  5.0500
 30
0.0
 0
VERTEX
 8
PARTS
 10
  8.1000
 20
  5.1500
 30
0.0
 0
SEQEND
 8
PARTS
 0
TEXT
 8
PARTTEXT
 10
  7.5100
 20
  4.8686
 30
0.0
 40
  0.0514
 1
SCK
 0
POLYLINE
 8
PARTS
 66
1
 10
0.0
 20
0.0
 30
0.0
 0
VERTEX
 8
PARTS
 10
  7.8000
 20
  4.9500
 30
0.0
 0
VERTEX
 8
PARTS
 10
  8.0000
 20
  4.9500
 30
0.0
 0
SEQEND
 8
PARTS
 0
POLYLINE
 8
PARTS
 66
1
 10
0.0
 20
0.0
 30
0.0
 0
VERTEX
 8
PARTS
 10
  8.0000
 20
  4.9500
 30
0.0
 0
VERTEX
 8
PARTS
 10
  8.1000
 20
  4.9000
 30
0.0
 0
SEQEND
 8
PARTS
 0
POLYLINE
 8
PARTS
 66
1
 10
0.0
 20
0.0
 30
0.0
 0
VERTEX
 8
PARTS
 10
  8.1000
 20
  4.9000
 30
0.0
 0
VERTEX
 8
PARTS
 10
  8.0000
 20
  4.8500
 30
0.0
 0
SEQEND
 8
PARTS
 0
POLYLINE
 8
PARTS
 66
1
 10
0.0
 20
0.0
 30
0.0
 0
VERTEX
 8
PARTS
 10
  8.0000
 20
  4.8500
 30
0.0
 0
VERTEX
 8
PARTS
 10
  7.8000
 20
  4.8500
 30
0.0
 0
SEQEND
 8
PARTS
 0
POLYLINE
 8
PARTS
 66
1
 10
0.0
 20
0.0
 30
0.0
 0
VERTEX
 8
PARTS
 10
  7.8000
 20
  4.8500
 30
0.0
 0
VERTEX
 8
PARTS
 10
  7.8000
 20
  4.9500
 30
0.0
 0
SEQEND
 8
PARTS
 0
TEXT
 8
COMMENTS
 10
  0.3000
 20
  6.2958
 30
0.0
 40
  0.0742
 1
9V
 0
TEXT
 8
COMMENTS
 10
  0.3000
 20
  5.4958
 30
0.0
 40
  0.0742
 1
0V
 0
TEXT
 8
COMMENTS
 10
  8.3000
 20
  4.7186
 30
0.0
 40
  0.0514
 1
MISO
 0
TEXT
 8
COMMENTS
 10
  8.3000
 20
  4.3186
 30
0.0
 40
  0.0514
 1
GND
 0
TEXT
 8
COMMENTS
 10
  8.3000
 20
  5.2186
 30
0.0
 40
  0.0514
 1
VDD
 0
TEXT
 8
COMMENTS
 10
  8.3000
 20
  5.1186
 30
0.0
 40
  0.0514
 1
RST
 0
TEXT
 8
COMMENTS
 10
  8.3000
 20
  4.9186
 30
0.0
 40
  0.0514
 1
SCK
 0
TEXT
 8
COMMENTS
 10
  8.3000
 20
  4.8186
 30
0.0
 40
  0.0514
 1
MOSI
 0
TEXT
 8
COMMENTS
 10
  1.8000
 20
  5.6958
 30
0.0
 40
  0.0742
 1
2
 0
TEXT
 8
COMMENTS
 10
  2.7000
 20
  6.3958
 30
0.0
 40
  0.0742
 1
3
 0
TEXT
 8
COMMENTS
 10
  1.4000
 20
  6.3958
 30
0.0
 40
  0.0742
 1
1
 0
ENDSEC
 0
EOF
