 0
SECTION
 2
HEADER
 9
$ACADVER
 1
AC1009
 0
ENDSEC
 0
SECTION
 2
ENTITIES
 0
POLYLINE
 8
TITLE
 66
1
 70
1
 10
0.0
 20
0.0
 30
0.0
 0
VERTEX
 8
TITLE
 10
 -0.1000
 20
  0.1000
 30
0.0
 0
VERTEX
 8
TITLE
 10
  9.6000
 20
  0.1000
 30
0.0
 0
VERTEX
 8
TITLE
 10
  9.6000
 20
  7.3000
 30
0.0
 0
VERTEX
 8
TITLE
 10
 -0.1000
 20
  7.3000
 30
0.0
 0
SEQEND
 8
TITLE
 0
POLYLINE
 8
TITLE
 66
1
 70
1
 10
0.0
 20
0.0
 30
0.0
 0
VERTEX
 8
TITLE
 10
  0.0000
 20
  0.2000
 30
0.0
 0
VERTEX
 8
TITLE
 10
  9.5000
 20
  0.2000
 30
0.0
 0
VERTEX
 8
TITLE
 10
  9.5000
 20
  7.2000
 30
0.0
 0
VERTEX
 8
TITLE
 10
  0.0000
 20
  7.2000
 30
0.0
 0
SEQEND
 8
TITLE
 0
POLYLINE
 8
TITLE
 66
1
 10
0.0
 20
0.0
 30
0.0
 0
VERTEX
 8
TITLE
 10
  2.0600
 20
  0.2000
 30
0.0
 0
VERTEX
 8
TITLE
 10
  2.0600
 20
  0.1000
 30
0.0
 0
SEQEND
 8
TITLE
 0
POLYLINE
 8
TITLE
 66
1
 10
0.0
 20
0.0
 30
0.0
 0
VERTEX
 8
TITLE
 10
  2.0600
 20
  7.2000
 30
0.0
 0
VERTEX
 8
TITLE
 10
  2.0600
 20
  7.3000
 30
0.0
 0
SEQEND
 8
TITLE
 0
POLYLINE
 8
TITLE
 66
1
 10
0.0
 20
0.0
 30
0.0
 0
VERTEX
 8
TITLE
 10
  3.9200
 20
  0.2000
 30
0.0
 0
VERTEX
 8
TITLE
 10
  3.9200
 20
  0.1000
 30
0.0
 0
SEQEND
 8
TITLE
 0
POLYLINE
 8
TITLE
 66
1
 10
0.0
 20
0.0
 30
0.0
 0
VERTEX
 8
TITLE
 10
  3.9200
 20
  7.2000
 30
0.0
 0
VERTEX
 8
TITLE
 10
  3.9200
 20
  7.3000
 30
0.0
 0
SEQEND
 8
TITLE
 0
POLYLINE
 8
TITLE
 66
1
 10
0.0
 20
0.0
 30
0.0
 0
VERTEX
 8
TITLE
 10
  5.7800
 20
  0.2000
 30
0.0
 0
VERTEX
 8
TITLE
 10
  5.7800
 20
  0.1000
 30
0.0
 0
SEQEND
 8
TITLE
 0
POLYLINE
 8
TITLE
 66
1
 10
0.0
 20
0.0
 30
0.0
 0
VERTEX
 8
TITLE
 10
  5.7800
 20
  7.2000
 30
0.0
 0
VERTEX
 8
TITLE
 10
  5.7800
 20
  7.3000
 30
0.0
 0
SEQEND
 8
TITLE
 0
POLYLINE
 8
TITLE
 66
1
 10
0.0
 20
0.0
 30
0.0
 0
VERTEX
 8
TITLE
 10
  7.6400
 20
  0.2000
 30
0.0
 0
VERTEX
 8
TITLE
 10
  7.6400
 20
  0.1000
 30
0.0
 0
SEQEND
 8
TITLE
 0
POLYLINE
 8
TITLE
 66
1
 10
0.0
 20
0.0
 30
0.0
 0
VERTEX
 8
TITLE
 10
  7.6400
 20
  7.2000
 30
0.0
 0
VERTEX
 8
TITLE
 10
  7.6400
 20
  7.3000
 30
0.0
 0
SEQEND
 8
TITLE
 0
TEXT
 8
TITLE
 10
  1.1300
 20
  0.1200
 30
0.0
 40
  0.0500
 1
5
 0
TEXT
 8
TITLE
 10
  1.1300
 20
  7.2200
 30
0.0
 40
  0.0500
 1
5
 0
TEXT
 8
TITLE
 10
  2.9900
 20
  0.1200
 30
0.0
 40
  0.0500
 1
4
 0
TEXT
 8
TITLE
 10
  2.9900
 20
  7.2200
 30
0.0
 40
  0.0500
 1
4
 0
TEXT
 8
TITLE
 10
  4.8500
 20
  0.1200
 30
0.0
 40
  0.0500
 1
3
 0
TEXT
 8
TITLE
 10
  4.8500
 20
  7.2200
 30
0.0
 40
  0.0500
 1
3
 0
TEXT
 8
TITLE
 10
  6.7100
 20
  0.1200
 30
0.0
 40
  0.0500
 1
2
 0
TEXT
 8
TITLE
 10
  6.7100
 20
  7.2200
 30
0.0
 40
  0.0500
 1
2
 0
TEXT
 8
TITLE
 10
  8.5700
 20
  0.1200
 30
0.0
 40
  0.0500
 1
1
 0
TEXT
 8
TITLE
 10
  8.5700
 20
  7.2200
 30
0.0
 40
  0.0500
 1
1
 0
POLYLINE
 8
TITLE
 66
1
 10
0.0
 20
0.0
 30
0.0
 0
VERTEX
 8
TITLE
 10
 -0.1000
 20
  5.3000
 30
0.0
 0
VERTEX
 8
TITLE
 10
  0.0000
 20
  5.3000
 30
0.0
 0
SEQEND
 8
TITLE
 0
POLYLINE
 8
TITLE
 66
1
 10
0.0
 20
0.0
 30
0.0
 0
VERTEX
 8
TITLE
 10
  9.5000
 20
  5.3000
 30
0.0
 0
VERTEX
 8
TITLE
 10
  9.6000
 20
  5.3000
 30
0.0
 0
SEQEND
 8
TITLE
 0
SOLID
 8
TITLE
 10
  0.0000
 20
  3.6000
 30
0.0
 11
 -0.0500
 21
  3.6200
 31
0.0
 12
 -0.0500
 22
  3.5800
 32
0.0
 13
 -0.0500
 23
  3.6000
 33
0.0
 0
SOLID
 8
TITLE
 10
  9.5000
 20
  3.6000
 30
0.0
 11
  9.5500
 21
  3.6200
 31
0.0
 12
  9.5500
 22
  3.5800
 32
0.0
 13
  9.5500
 23
  3.6000
 33
0.0
 0
POLYLINE
 8
TITLE
 66
1
 10
0.0
 20
0.0
 30
0.0
 0
VERTEX
 8
TITLE
 10
 -0.1000
 20
  3.6000
 30
0.0
 0
VERTEX
 8
TITLE
 10
  0.0000
 20
  3.6000
 30
0.0
 0
SEQEND
 8
TITLE
 0
POLYLINE
 8
TITLE
 66
1
 10
0.0
 20
0.0
 30
0.0
 0
VERTEX
 8
TITLE
 10
  9.5000
 20
  3.6000
 30
0.0
 0
VERTEX
 8
TITLE
 10
  9.6000
 20
  3.6000
 30
0.0
 0
SEQEND
 8
TITLE
 0
SOLID
 8
TITLE
 10
  0.0000
 20
  3.6000
 30
0.0
 11
 -0.0500
 21
  3.6200
 31
0.0
 12
 -0.0500
 22
  3.5800
 32
0.0
 13
 -0.0500
 23
  3.6000
 33
0.0
 0
SOLID
 8
TITLE
 10
  9.5000
 20
  3.6000
 30
0.0
 11
  9.5500
 21
  3.6200
 31
0.0
 12
  9.5500
 22
  3.5800
 32
0.0
 13
  9.5500
 23
  3.6000
 33
0.0
 0
POLYLINE
 8
TITLE
 66
1
 10
0.0
 20
0.0
 30
0.0
 0
VERTEX
 8
TITLE
 10
 -0.1000
 20
  1.9000
 30
0.0
 0
VERTEX
 8
TITLE
 10
  0.0000
 20
  1.9000
 30
0.0
 0
SEQEND
 8
TITLE
 0
POLYLINE
 8
TITLE
 66
1
 10
0.0
 20
0.0
 30
0.0
 0
VERTEX
 8
TITLE
 10
  9.5000
 20
  1.9000
 30
0.0
 0
VERTEX
 8
TITLE
 10
  9.6000
 20
  1.9000
 30
0.0
 0
SEQEND
 8
TITLE
 0
SOLID
 8
TITLE
 10
  0.0000
 20
  3.6000
 30
0.0
 11
 -0.0500
 21
  3.6200
 31
0.0
 12
 -0.0500
 22
  3.5800
 32
0.0
 13
 -0.0500
 23
  3.6000
 33
0.0
 0
SOLID
 8
TITLE
 10
  9.5000
 20
  3.6000
 30
0.0
 11
  9.5500
 21
  3.6200
 31
0.0
 12
  9.5500
 22
  3.5800
 32
0.0
 13
  9.5500
 23
  3.6000
 33
0.0
 0
TEXT
 8
TITLE
 10
 -0.0800
 20
  6.1500
 30
0.0
 40
  0.0500
 1
D
 0
TEXT
 8
TITLE
 10
  9.5200
 20
  6.1500
 30
0.0
 40
  0.0500
 1
D
 0
TEXT
 8
TITLE
 10
 -0.0800
 20
  4.4500
 30
0.0
 40
  0.0500
 1
C
 0
TEXT
 8
TITLE
 10
  9.5200
 20
  4.4500
 30
0.0
 40
  0.0500
 1
C
 0
TEXT
 8
TITLE
 10
 -0.0800
 20
  2.7500
 30
0.0
 40
  0.0500
 1
B
 0
TEXT
 8
TITLE
 10
  9.5200
 20
  2.7500
 30
0.0
 40
  0.0500
 1
B
 0
TEXT
 8
TITLE
 10
 -0.0800
 20
  1.0500
 30
0.0
 40
  0.0500
 1
A
 0
TEXT
 8
TITLE
 10
  9.5200
 20
  1.0500
 30
0.0
 40
  0.0500
 1
A
 0
TEXT
 8
TITLE
 10
  6.3000
 20
  0.4186
 30
0.0
 40
  0.0514
 1
<Doc>
 0
TEXT
 8
TITLE
 10
  9.3000
 20
  0.4186
 30
0.0
 40
  0.0514
 1
<RevCode>
 0
TEXT
 8
TITLE
 10
  6.3000
 20
  0.7186
 30
0.0
 40
  0.0514
 1
SUBBOARD 01 - Dual Encoders hacked from SEJIN ball-mouse
 0
TEXT
 8
TITLE
 10
  6.0000
 20
  0.4186
 30
0.0
 40
  0.0514
 1
A
 0
TEXT
 8
TITLE
 10
  8.4000
 20
  0.2186
 30
0.0
 40
  0.0514
 1
1
 0
TEXT
 8
TITLE
 10
  9.0000
 20
  0.2186
 30
0.0
 40
  0.0514
 1
1
 0
TEXT
 8
TITLE
 10
  6.4200
 20
  0.2186
 30
0.0
 40
  0.0514
 1
Monday, December 17, 2001
 0
TEXT
 8
PARTTEXT
 10
  5.9000
 20
  0.8186
 30
0.0
 40
  0.0514
 1
Title
 0
TEXT
 8
PARTTEXT
 10
  5.9000
 20
  0.5186
 30
0.0
 40
  0.0514
 1
Size
 0
TEXT
 8
PARTTEXT
 10
  6.3000
 20
  0.5186
 30
0.0
 40
  0.0514
 1
Document Number
 0
TEXT
 8
PARTTEXT
 10
  9.2000
 20
  0.5186
 30
0.0
 40
  0.0514
 1
Rev
 0
TEXT
 8
PARTTEXT
 10
  5.9000
 20
  0.2186
 30
0.0
 40
  0.0514
 1
Date:
 0
TEXT
 8
PARTTEXT
 10
  7.9000
 20
  0.2186
 30
0.0
 40
  0.0514
 1
Sheet
 0
POLYLINE
 8
TITLE
 66
1
 70
1
 10
0.0
 20
0.0
 30
0.0
 0
VERTEX
 8
TITLE
 10
  5.9000
 20
  1.1000
 30
0.0
 0
VERTEX
 8
TITLE
 10
  9.5000
 20
  1.1000
 30
0.0
 0
VERTEX
 8
TITLE
 10
  9.5000
 20
  0.9000
 30
0.0
 0
VERTEX
 8
TITLE
 10
  5.9000
 20
  0.9000
 30
0.0
 0
SEQEND
 8
TITLE
 0
POLYLINE
 8
TITLE
 66
1
 70
1
 10
0.0
 20
0.0
 30
0.0
 0
VERTEX
 8
TITLE
 10
  5.9000
 20
  0.9000
 30
0.0
 0
VERTEX
 8
TITLE
 10
  9.5000
 20
  0.9000
 30
0.0
 0
VERTEX
 8
TITLE
 10
  9.5000
 20
  0.6000
 30
0.0
 0
VERTEX
 8
TITLE
 10
  5.9000
 20
  0.6000
 30
0.0
 0
SEQEND
 8
TITLE
 0
POLYLINE
 8
TITLE
 66
1
 70
1
 10
0.0
 20
0.0
 30
0.0
 0
VERTEX
 8
TITLE
 10
  5.9000
 20
  0.6000
 30
0.0
 0
VERTEX
 8
TITLE
 10
  6.2000
 20
  0.6000
 30
0.0
 0
VERTEX
 8
TITLE
 10
  6.2000
 20
  0.3000
 30
0.0
 0
VERTEX
 8
TITLE
 10
  5.9000
 20
  0.3000
 30
0.0
 0
SEQEND
 8
TITLE
 0
POLYLINE
 8
TITLE
 66
1
 70
1
 10
0.0
 20
0.0
 30
0.0
 0
VERTEX
 8
TITLE
 10
  6.2000
 20
  0.6000
 30
0.0
 0
VERTEX
 8
TITLE
 10
  9.2000
 20
  0.6000
 30
0.0
 0
VERTEX
 8
TITLE
 10
  9.2000
 20
  0.3000
 30
0.0
 0
VERTEX
 8
TITLE
 10
  6.2000
 20
  0.3000
 30
0.0
 0
SEQEND
 8
TITLE
 0
POLYLINE
 8
TITLE
 66
1
 70
1
 10
0.0
 20
0.0
 30
0.0
 0
VERTEX
 8
TITLE
 10
  9.2000
 20
  0.6000
 30
0.0
 0
VERTEX
 8
TITLE
 10
  9.5000
 20
  0.6000
 30
0.0
 0
VERTEX
 8
TITLE
 10
  9.5000
 20
  0.3000
 30
0.0
 0
VERTEX
 8
TITLE
 10
  9.2000
 20
  0.3000
 30
0.0
 0
SEQEND
 8
TITLE
 0
POLYLINE
 8
TITLE
 66
1
 70
1
 10
0.0
 20
0.0
 30
0.0
 0
VERTEX
 8
TITLE
 10
  5.9000
 20
  0.3000
 30
0.0
 0
VERTEX
 8
TITLE
 10
  7.9000
 20
  0.3000
 30
0.0
 0
VERTEX
 8
TITLE
 10
  7.9000
 20
  0.2000
 30
0.0
 0
VERTEX
 8
TITLE
 10
  5.9000
 20
  0.2000
 30
0.0
 0
SEQEND
 8
TITLE
 0
POLYLINE
 8
TITLE
 66
1
 70
1
 10
0.0
 20
0.0
 30
0.0
 0
VERTEX
 8
TITLE
 10
  7.9000
 20
  0.3000
 30
0.0
 0
VERTEX
 8
TITLE
 10
  9.5000
 20
  0.3000
 30
0.0
 0
VERTEX
 8
TITLE
 10
  9.5000
 20
  0.2000
 30
0.0
 0
VERTEX
 8
TITLE
 10
  7.9000
 20
  0.2000
 30
0.0
 0
SEQEND
 8
TITLE
 0
TEXT
 8
PARTTEXT
 10
  8.7000
 20
  0.2186
 30
0.0
 40
  0.0514
 1
of
 0
TEXT
 8
PARTTEXT
 10
  4.3000
 20
  5.9186
 30
0.0
 40
  0.0514
 1
R12
 0
TEXT
 8
PARTTEXT
 10
  4.3000
 20
  5.8186
 30
0.0
 40
  0.0514
 1
62k
 0
LINE
 8
PARTS
 10
  4.2000
 20
  5.7000
 30
0.0
 11
  4.3000
 21
  5.7000
 31
0.0
 0
LINE
 8
PARTS
 10
  4.7000
 20
  5.7000
 30
0.0
 11
  4.6000
 21
  5.7000
 31
0.0
 0
POLYLINE
 8
PARTS
 66
1
 10
0.0
 20
0.0
 30
0.0
 0
VERTEX
 8
PARTS
 10
  4.3000
 20
  5.7000
 30
0.0
 0
VERTEX
 8
PARTS
 10
  4.3300
 20
  5.7300
 30
0.0
 0
SEQEND
 8
PARTS
 0
POLYLINE
 8
PARTS
 66
1
 10
0.0
 20
0.0
 30
0.0
 0
VERTEX
 8
PARTS
 10
  4.3300
 20
  5.7300
 30
0.0
 0
VERTEX
 8
PARTS
 10
  4.3900
 20
  5.6700
 30
0.0
 0
SEQEND
 8
PARTS
 0
POLYLINE
 8
PARTS
 66
1
 10
0.0
 20
0.0
 30
0.0
 0
VERTEX
 8
PARTS
 10
  4.3900
 20
  5.6700
 30
0.0
 0
VERTEX
 8
PARTS
 10
  4.4500
 20
  5.7300
 30
0.0
 0
SEQEND
 8
PARTS
 0
POLYLINE
 8
PARTS
 66
1
 10
0.0
 20
0.0
 30
0.0
 0
VERTEX
 8
PARTS
 10
  4.4500
 20
  5.7300
 30
0.0
 0
VERTEX
 8
PARTS
 10
  4.5100
 20
  5.6700
 30
0.0
 0
SEQEND
 8
PARTS
 0
POLYLINE
 8
PARTS
 66
1
 10
0.0
 20
0.0
 30
0.0
 0
VERTEX
 8
PARTS
 10
  4.5100
 20
  5.6700
 30
0.0
 0
VERTEX
 8
PARTS
 10
  4.5700
 20
  5.7300
 30
0.0
 0
SEQEND
 8
PARTS
 0
POLYLINE
 8
PARTS
 66
1
 10
0.0
 20
0.0
 30
0.0
 0
VERTEX
 8
PARTS
 10
  4.5700
 20
  5.7300
 30
0.0
 0
VERTEX
 8
PARTS
 10
  4.6000
 20
  5.7000
 30
0.0
 0
SEQEND
 8
PARTS
 0
TEXT
 8
PARTTEXT
 10
  2.2000
 20
  2.1186
 30
0.0
 40
  0.0514
 1
R11
 0
TEXT
 8
PARTTEXT
 10
  2.2000
 20
  2.0186
 30
0.0
 40
  0.0514
 1
560
 0
LINE
 8
PARTS
 10
  2.1000
 20
  2.3000
 30
0.0
 11
  2.1000
 21
  2.2000
 31
0.0
 0
LINE
 8
PARTS
 10
  2.1000
 20
  1.8000
 30
0.0
 11
  2.1000
 21
  1.9000
 31
0.0
 0
POLYLINE
 8
PARTS
 66
1
 10
0.0
 20
0.0
 30
0.0
 0
VERTEX
 8
PARTS
 10
  2.1000
 20
  2.2000
 30
0.0
 0
VERTEX
 8
PARTS
 10
  2.1300
 20
  2.1700
 30
0.0
 0
SEQEND
 8
PARTS
 0
POLYLINE
 8
PARTS
 66
1
 10
0.0
 20
0.0
 30
0.0
 0
VERTEX
 8
PARTS
 10
  2.1300
 20
  2.1700
 30
0.0
 0
VERTEX
 8
PARTS
 10
  2.0700
 20
  2.1100
 30
0.0
 0
SEQEND
 8
PARTS
 0
POLYLINE
 8
PARTS
 66
1
 10
0.0
 20
0.0
 30
0.0
 0
VERTEX
 8
PARTS
 10
  2.0700
 20
  2.1100
 30
0.0
 0
VERTEX
 8
PARTS
 10
  2.1300
 20
  2.0500
 30
0.0
 0
SEQEND
 8
PARTS
 0
POLYLINE
 8
PARTS
 66
1
 10
0.0
 20
0.0
 30
0.0
 0
VERTEX
 8
PARTS
 10
  2.1300
 20
  2.0500
 30
0.0
 0
VERTEX
 8
PARTS
 10
  2.0700
 20
  1.9900
 30
0.0
 0
SEQEND
 8
PARTS
 0
POLYLINE
 8
PARTS
 66
1
 10
0.0
 20
0.0
 30
0.0
 0
VERTEX
 8
PARTS
 10
  2.0700
 20
  1.9900
 30
0.0
 0
VERTEX
 8
PARTS
 10
  2.1300
 20
  1.9300
 30
0.0
 0
SEQEND
 8
PARTS
 0
POLYLINE
 8
PARTS
 66
1
 10
0.0
 20
0.0
 30
0.0
 0
VERTEX
 8
PARTS
 10
  2.1300
 20
  1.9300
 30
0.0
 0
VERTEX
 8
PARTS
 10
  2.1000
 20
  1.9000
 30
0.0
 0
SEQEND
 8
PARTS
 0
TEXT
 8
PARTTEXT
 10
  4.3000
 20
  4.7186
 30
0.0
 40
  0.0514
 1
R13
 0
TEXT
 8
PARTTEXT
 10
  4.3000
 20
  4.6186
 30
0.0
 40
  0.0514
 1
62k
 0
LINE
 8
PARTS
 10
  4.2000
 20
  4.9000
 30
0.0
 11
  4.3000
 21
  4.9000
 31
0.0
 0
LINE
 8
PARTS
 10
  4.7000
 20
  4.9000
 30
0.0
 11
  4.6000
 21
  4.9000
 31
0.0
 0
POLYLINE
 8
PARTS
 66
1
 10
0.0
 20
0.0
 30
0.0
 0
VERTEX
 8
PARTS
 10
  4.3000
 20
  4.9000
 30
0.0
 0
VERTEX
 8
PARTS
 10
  4.3300
 20
  4.9300
 30
0.0
 0
SEQEND
 8
PARTS
 0
POLYLINE
 8
PARTS
 66
1
 10
0.0
 20
0.0
 30
0.0
 0
VERTEX
 8
PARTS
 10
  4.3300
 20
  4.9300
 30
0.0
 0
VERTEX
 8
PARTS
 10
  4.3900
 20
  4.8700
 30
0.0
 0
SEQEND
 8
PARTS
 0
POLYLINE
 8
PARTS
 66
1
 10
0.0
 20
0.0
 30
0.0
 0
VERTEX
 8
PARTS
 10
  4.3900
 20
  4.8700
 30
0.0
 0
VERTEX
 8
PARTS
 10
  4.4500
 20
  4.9300
 30
0.0
 0
SEQEND
 8
PARTS
 0
POLYLINE
 8
PARTS
 66
1
 10
0.0
 20
0.0
 30
0.0
 0
VERTEX
 8
PARTS
 10
  4.4500
 20
  4.9300
 30
0.0
 0
VERTEX
 8
PARTS
 10
  4.5100
 20
  4.8700
 30
0.0
 0
SEQEND
 8
PARTS
 0
POLYLINE
 8
PARTS
 66
1
 10
0.0
 20
0.0
 30
0.0
 0
VERTEX
 8
PARTS
 10
  4.5100
 20
  4.8700
 30
0.0
 0
VERTEX
 8
PARTS
 10
  4.5700
 20
  4.9300
 30
0.0
 0
SEQEND
 8
PARTS
 0
POLYLINE
 8
PARTS
 66
1
 10
0.0
 20
0.0
 30
0.0
 0
VERTEX
 8
PARTS
 10
  4.5700
 20
  4.9300
 30
0.0
 0
VERTEX
 8
PARTS
 10
  4.6000
 20
  4.9000
 30
0.0
 0
SEQEND
 8
PARTS
 0
TEXT
 8
PARTTEXT
 10
  1.8000
 20
  3.3186
 30
0.0
 40
  0.0514
 1
IR2
 0
TEXT
 8
PARTTEXT
 10
  1.2000
 20
  3.2186
 30
0.0
 40
  0.0514
 1
Not Known IR LED
 0
LINE
 8
PARTS
 10
  2.1000
 20
  3.6000
 30
0.0
 11
  2.1000
 21
  3.5000
 31
0.0
 0
TEXT
 8
PARTS
 10
  2.0700
 20
  3.5600
 30
0.0
 40
  0.0500
 50
 90.0000
 1
3
 0
LINE
 8
PARTS
 10
  2.1000
 20
  3.0000
 30
0.0
 11
  2.1000
 21
  3.1000
 31
0.0
 0
TEXT
 8
PARTS
 10
  2.0700
 20
  2.9800
 30
0.0
 40
  0.0500
 50
 90.0000
 1
1
 0
POLYLINE
 8
PARTS
 66
1
 10
0.0
 20
0.0
 30
0.0
 0
VERTEX
 8
PARTS
 10
  2.1700
 20
  3.3000
 30
0.0
 0
VERTEX
 8
PARTS
 10
  2.0300
 20
  3.3000
 30
0.0
 0
SEQEND
 8
PARTS
 0
POLYLINE
 8
PARTS
 66
1
 10
0.0
 20
0.0
 30
0.0
 0
VERTEX
 8
PARTS
 10
  2.1000
 20
  3.5000
 30
0.0
 0
VERTEX
 8
PARTS
 10
  2.1000
 20
  3.4000
 30
0.0
 0
SEQEND
 8
PARTS
 0
POLYLINE
 8
PARTS
 66
1
 10
0.0
 20
0.0
 30
0.0
 0
VERTEX
 8
PARTS
 10
  2.1000
 20
  3.3000
 30
0.0
 0
VERTEX
 8
PARTS
 10
  2.1000
 20
  3.1000
 30
0.0
 0
SEQEND
 8
PARTS
 0
POLYLINE
 8
PARTS
 66
1
 70
1
 10
0.0
 20
0.0
 30
0.0
 0
VERTEX
 8
PARTS
 10
  2.1000
 20
  3.3000
 30
0.0
 0
VERTEX
 8
PARTS
 10
  2.1000
 20
  3.3000
 30
0.0
 0
VERTEX
 8
PARTS
 10
  2.0300
 20
  3.4000
 30
0.0
 0
VERTEX
 8
PARTS
 10
  2.1700
 20
  3.4000
 30
0.0
 0
VERTEX
 8
PARTS
 10
  2.1000
 20
  3.3000
 30
0.0
 0
SEQEND
 8
PARTS
 0
POLYLINE
 8
PARTS
 66
1
 70
1
 10
0.0
 20
0.0
 30
0.0
 0
VERTEX
 8
PARTS
 10
  2.1800
 20
  3.1800
 30
0.0
 0
VERTEX
 8
PARTS
 10
  2.1800
 20
  3.1800
 30
0.0
 0
VERTEX
 8
PARTS
 10
  2.2000
 20
  3.1400
 30
0.0
 0
VERTEX
 8
PARTS
 10
  2.1600
 20
  3.1600
 30
0.0
 0
VERTEX
 8
PARTS
 10
  2.1800
 20
  3.1800
 30
0.0
 0
SEQEND
 8
PARTS
 0
POLYLINE
 8
PARTS
 66
1
 70
1
 10
0.0
 20
0.0
 30
0.0
 0
VERTEX
 8
PARTS
 10
  2.1800
 20
  3.2400
 30
0.0
 0
VERTEX
 8
PARTS
 10
  2.1800
 20
  3.2400
 30
0.0
 0
VERTEX
 8
PARTS
 10
  2.2000
 20
  3.2000
 30
0.0
 0
VERTEX
 8
PARTS
 10
  2.1600
 20
  3.2200
 30
0.0
 0
VERTEX
 8
PARTS
 10
  2.1800
 20
  3.2400
 30
0.0
 0
SEQEND
 8
PARTS
 0
POLYLINE
 8
PARTS
 66
1
 10
0.0
 20
0.0
 30
0.0
 0
VERTEX
 8
PARTS
 10
  2.1900
 20
  3.2100
 30
0.0
 0
VERTEX
 8
PARTS
 10
  2.1300
 20
  3.2700
 30
0.0
 0
SEQEND
 8
PARTS
 0
POLYLINE
 8
PARTS
 66
1
 10
0.0
 20
0.0
 30
0.0
 0
VERTEX
 8
PARTS
 10
  2.1900
 20
  3.1500
 30
0.0
 0
VERTEX
 8
PARTS
 10
  2.1300
 20
  3.2100
 30
0.0
 0
SEQEND
 8
PARTS
 0
TEXT
 8
PARTTEXT
 10
  2.6000
 20
  2.6186
 30
0.0
 40
  0.0514
 1
Not Known Photo TR
 0
LINE
 8
PARTS
 10
  2.9000
 20
  3.4000
 30
0.0
 11
  2.9000
 21
  3.5000
 31
0.0
 0
TEXT
 8
PARTS
 10
  2.8700
 20
  3.3800
 30
0.0
 40
  0.0500
 50
 90.0000
 1
1
 0
LINE
 8
PARTS
 10
  2.9000
 20
  3.8000
 30
0.0
 11
  2.9000
 21
  3.7000
 31
0.0
 0
TEXT
 8
PARTS
 10
  2.8700
 20
  3.7600
 30
0.0
 40
  0.0500
 50
 90.0000
 1
3
 0
POLYLINE
 8
PARTS
 66
1
 70
1
 10
0.0
 20
0.0
 30
0.0
 0
VERTEX
 8
PARTS
 10
  2.7600
 20
  3.6300
 30
0.0
 0
VERTEX
 8
PARTS
 10
  2.7600
 20
  3.6700
 30
0.0
 0
VERTEX
 8
PARTS
 10
  2.7200
 20
  3.6300
 30
0.0
 0
VERTEX
 8
PARTS
 10
  2.7600
 20
  3.6300
 30
0.0
 0
SEQEND
 8
PARTS
 0
POLYLINE
 8
PARTS
 66
1
 70
1
 10
0.0
 20
0.0
 30
0.0
 0
VERTEX
 8
PARTS
 10
  2.7600
 20
  3.5300
 30
0.0
 0
VERTEX
 8
PARTS
 10
  2.7600
 20
  3.5700
 30
0.0
 0
VERTEX
 8
PARTS
 10
  2.7200
 20
  3.5300
 30
0.0
 0
VERTEX
 8
PARTS
 10
  2.7600
 20
  3.5300
 30
0.0
 0
SEQEND
 8
PARTS
 0
POLYLINE
 8
PARTS
 66
1
 10
0.0
 20
0.0
 30
0.0
 0
VERTEX
 8
PARTS
 10
  2.7400
 20
  3.6500
 30
0.0
 0
VERTEX
 8
PARTS
 10
  2.7000
 20
  3.6900
 30
0.0
 0
SEQEND
 8
PARTS
 0
POLYLINE
 8
PARTS
 66
1
 10
0.0
 20
0.0
 30
0.0
 0
VERTEX
 8
PARTS
 10
  2.7000
 20
  3.6900
 30
0.0
 0
VERTEX
 8
PARTS
 10
  2.7000
 20
  3.6600
 30
0.0
 0
SEQEND
 8
PARTS
 0
POLYLINE
 8
PARTS
 66
1
 10
0.0
 20
0.0
 30
0.0
 0
VERTEX
 8
PARTS
 10
  2.7000
 20
  3.6600
 30
0.0
 0
VERTEX
 8
PARTS
 10
  2.6600
 20
  3.7000
 30
0.0
 0
SEQEND
 8
PARTS
 0
POLYLINE
 8
PARTS
 66
1
 10
0.0
 20
0.0
 30
0.0
 0
VERTEX
 8
PARTS
 10
  2.7400
 20
  3.5500
 30
0.0
 0
VERTEX
 8
PARTS
 10
  2.7000
 20
  3.5900
 30
0.0
 0
SEQEND
 8
PARTS
 0
POLYLINE
 8
PARTS
 66
1
 10
0.0
 20
0.0
 30
0.0
 0
VERTEX
 8
PARTS
 10
  2.7000
 20
  3.5900
 30
0.0
 0
VERTEX
 8
PARTS
 10
  2.7000
 20
  3.5600
 30
0.0
 0
SEQEND
 8
PARTS
 0
POLYLINE
 8
PARTS
 66
1
 10
0.0
 20
0.0
 30
0.0
 0
VERTEX
 8
PARTS
 10
  2.7000
 20
  3.5600
 30
0.0
 0
VERTEX
 8
PARTS
 10
  2.6600
 20
  3.6000
 30
0.0
 0
SEQEND
 8
PARTS
 0
POLYLINE
 8
PARTS
 66
1
 10
0.0
 20
0.0
 30
0.0
 0
VERTEX
 8
PARTS
 10
  2.9000
 20
  3.7000
 30
0.0
 0
VERTEX
 8
PARTS
 10
  2.8000
 20
  3.6300
 30
0.0
 0
SEQEND
 8
PARTS
 0
POLYLINE
 8
PARTS
 66
1
 10
0.0
 20
0.0
 30
0.0
 0
VERTEX
 8
PARTS
 10
  2.8000
 20
  3.5700
 30
0.0
 0
VERTEX
 8
PARTS
 10
  2.9000
 20
  3.5000
 30
0.0
 0
SEQEND
 8
PARTS
 0
POLYLINE
 8
PARTS
 66
1
 10
0.0
 20
0.0
 30
0.0
 0
VERTEX
 8
PARTS
 10
  2.8000
 20
  3.7000
 30
0.0
 0
VERTEX
 8
PARTS
 10
  2.8000
 20
  3.5000
 30
0.0
 0
SEQEND
 8
PARTS
 0
POLYLINE
 8
PARTS
 66
1
 70
1
 10
0.0
 20
0.0
 30
0.0
 0
VERTEX
 8
PARTS
 10
  2.9000
 20
  3.5000
 30
0.0
 0
VERTEX
 8
PARTS
 10
  2.8600
 20
  3.5500
 30
0.0
 0
VERTEX
 8
PARTS
 10
  2.8400
 20
  3.5200
 30
0.0
 0
VERTEX
 8
PARTS
 10
  2.9000
 20
  3.5000
 30
0.0
 0
SEQEND
 8
PARTS
 0
TEXT
 8
PARTTEXT
 10
  1.8000
 20
  5.3186
 30
0.0
 40
  0.0514
 1
IR1
 0
TEXT
 8
PARTTEXT
 10
  1.2000
 20
  5.2186
 30
0.0
 40
  0.0514
 1
Not Known IR LED
 0
LINE
 8
PARTS
 10
  2.1000
 20
  5.6000
 30
0.0
 11
  2.1000
 21
  5.5000
 31
0.0
 0
TEXT
 8
PARTS
 10
  2.0700
 20
  5.5600
 30
0.0
 40
  0.0500
 50
 90.0000
 1
3
 0
LINE
 8
PARTS
 10
  2.1000
 20
  5.0000
 30
0.0
 11
  2.1000
 21
  5.1000
 31
0.0
 0
TEXT
 8
PARTS
 10
  2.0700
 20
  4.9800
 30
0.0
 40
  0.0500
 50
 90.0000
 1
1
 0
POLYLINE
 8
PARTS
 66
1
 10
0.0
 20
0.0
 30
0.0
 0
VERTEX
 8
PARTS
 10
  2.1700
 20
  5.3000
 30
0.0
 0
VERTEX
 8
PARTS
 10
  2.0300
 20
  5.3000
 30
0.0
 0
SEQEND
 8
PARTS
 0
POLYLINE
 8
PARTS
 66
1
 10
0.0
 20
0.0
 30
0.0
 0
VERTEX
 8
PARTS
 10
  2.1000
 20
  5.5000
 30
0.0
 0
VERTEX
 8
PARTS
 10
  2.1000
 20
  5.4000
 30
0.0
 0
SEQEND
 8
PARTS
 0
POLYLINE
 8
PARTS
 66
1
 10
0.0
 20
0.0
 30
0.0
 0
VERTEX
 8
PARTS
 10
  2.1000
 20
  5.3000
 30
0.0
 0
VERTEX
 8
PARTS
 10
  2.1000
 20
  5.1000
 30
0.0
 0
SEQEND
 8
PARTS
 0
POLYLINE
 8
PARTS
 66
1
 70
1
 10
0.0
 20
0.0
 30
0.0
 0
VERTEX
 8
PARTS
 10
  2.1000
 20
  5.3000
 30
0.0
 0
VERTEX
 8
PARTS
 10
  2.1000
 20
  5.3000
 30
0.0
 0
VERTEX
 8
PARTS
 10
  2.0300
 20
  5.4000
 30
0.0
 0
VERTEX
 8
PARTS
 10
  2.1700
 20
  5.4000
 30
0.0
 0
VERTEX
 8
PARTS
 10
  2.1000
 20
  5.3000
 30
0.0
 0
SEQEND
 8
PARTS
 0
POLYLINE
 8
PARTS
 66
1
 70
1
 10
0.0
 20
0.0
 30
0.0
 0
VERTEX
 8
PARTS
 10
  2.1800
 20
  5.1800
 30
0.0
 0
VERTEX
 8
PARTS
 10
  2.1800
 20
  5.1800
 30
0.0
 0
VERTEX
 8
PARTS
 10
  2.2000
 20
  5.1400
 30
0.0
 0
VERTEX
 8
PARTS
 10
  2.1600
 20
  5.1600
 30
0.0
 0
VERTEX
 8
PARTS
 10
  2.1800
 20
  5.1800
 30
0.0
 0
SEQEND
 8
PARTS
 0
POLYLINE
 8
PARTS
 66
1
 70
1
 10
0.0
 20
0.0
 30
0.0
 0
VERTEX
 8
PARTS
 10
  2.1800
 20
  5.2400
 30
0.0
 0
VERTEX
 8
PARTS
 10
  2.1800
 20
  5.2400
 30
0.0
 0
VERTEX
 8
PARTS
 10
  2.2000
 20
  5.2000
 30
0.0
 0
VERTEX
 8
PARTS
 10
  2.1600
 20
  5.2200
 30
0.0
 0
VERTEX
 8
PARTS
 10
  2.1800
 20
  5.2400
 30
0.0
 0
SEQEND
 8
PARTS
 0
POLYLINE
 8
PARTS
 66
1
 10
0.0
 20
0.0
 30
0.0
 0
VERTEX
 8
PARTS
 10
  2.1900
 20
  5.2100
 30
0.0
 0
VERTEX
 8
PARTS
 10
  2.1300
 20
  5.2700
 30
0.0
 0
SEQEND
 8
PARTS
 0
POLYLINE
 8
PARTS
 66
1
 10
0.0
 20
0.0
 30
0.0
 0
VERTEX
 8
PARTS
 10
  2.1900
 20
  5.1500
 30
0.0
 0
VERTEX
 8
PARTS
 10
  2.1300
 20
  5.2100
 30
0.0
 0
SEQEND
 8
PARTS
 0
TEXT
 8
PARTTEXT
 10
  4.3000
 20
  3.9186
 30
0.0
 40
  0.0514
 1
R14
 0
TEXT
 8
PARTTEXT
 10
  4.3000
 20
  3.8186
 30
0.0
 40
  0.0514
 1
62k
 0
LINE
 8
PARTS
 10
  4.2000
 20
  3.7000
 30
0.0
 11
  4.3000
 21
  3.7000
 31
0.0
 0
LINE
 8
PARTS
 10
  4.7000
 20
  3.7000
 30
0.0
 11
  4.6000
 21
  3.7000
 31
0.0
 0
POLYLINE
 8
PARTS
 66
1
 10
0.0
 20
0.0
 30
0.0
 0
VERTEX
 8
PARTS
 10
  4.3000
 20
  3.7000
 30
0.0
 0
VERTEX
 8
PARTS
 10
  4.3300
 20
  3.7300
 30
0.0
 0
SEQEND
 8
PARTS
 0
POLYLINE
 8
PARTS
 66
1
 10
0.0
 20
0.0
 30
0.0
 0
VERTEX
 8
PARTS
 10
  4.3300
 20
  3.7300
 30
0.0
 0
VERTEX
 8
PARTS
 10
  4.3900
 20
  3.6700
 30
0.0
 0
SEQEND
 8
PARTS
 0
POLYLINE
 8
PARTS
 66
1
 10
0.0
 20
0.0
 30
0.0
 0
VERTEX
 8
PARTS
 10
  4.3900
 20
  3.6700
 30
0.0
 0
VERTEX
 8
PARTS
 10
  4.4500
 20
  3.7300
 30
0.0
 0
SEQEND
 8
PARTS
 0
POLYLINE
 8
PARTS
 66
1
 10
0.0
 20
0.0
 30
0.0
 0
VERTEX
 8
PARTS
 10
  4.4500
 20
  3.7300
 30
0.0
 0
VERTEX
 8
PARTS
 10
  4.5100
 20
  3.6700
 30
0.0
 0
SEQEND
 8
PARTS
 0
POLYLINE
 8
PARTS
 66
1
 10
0.0
 20
0.0
 30
0.0
 0
VERTEX
 8
PARTS
 10
  4.5100
 20
  3.6700
 30
0.0
 0
VERTEX
 8
PARTS
 10
  4.5700
 20
  3.7300
 30
0.0
 0
SEQEND
 8
PARTS
 0
POLYLINE
 8
PARTS
 66
1
 10
0.0
 20
0.0
 30
0.0
 0
VERTEX
 8
PARTS
 10
  4.5700
 20
  3.7300
 30
0.0
 0
VERTEX
 8
PARTS
 10
  4.6000
 20
  3.7000
 30
0.0
 0
SEQEND
 8
PARTS
 0
LINE
 8
PARTS
 10
  2.9000
 20
  2.8000
 30
0.0
 11
  2.9000
 21
  2.9000
 31
0.0
 0
TEXT
 8
PARTS
 10
  2.8700
 20
  2.7800
 30
0.0
 40
  0.0500
 50
 90.0000
 1
1
 0
LINE
 8
PARTS
 10
  2.9000
 20
  3.2000
 30
0.0
 11
  2.9000
 21
  3.1000
 31
0.0
 0
TEXT
 8
PARTS
 10
  2.8700
 20
  3.1600
 30
0.0
 40
  0.0500
 50
 90.0000
 1
3
 0
POLYLINE
 8
PARTS
 66
1
 70
1
 10
0.0
 20
0.0
 30
0.0
 0
VERTEX
 8
PARTS
 10
  2.7600
 20
  3.0300
 30
0.0
 0
VERTEX
 8
PARTS
 10
  2.7600
 20
  3.0700
 30
0.0
 0
VERTEX
 8
PARTS
 10
  2.7200
 20
  3.0300
 30
0.0
 0
VERTEX
 8
PARTS
 10
  2.7600
 20
  3.0300
 30
0.0
 0
SEQEND
 8
PARTS
 0
POLYLINE
 8
PARTS
 66
1
 70
1
 10
0.0
 20
0.0
 30
0.0
 0
VERTEX
 8
PARTS
 10
  2.7600
 20
  2.9300
 30
0.0
 0
VERTEX
 8
PARTS
 10
  2.7600
 20
  2.9700
 30
0.0
 0
VERTEX
 8
PARTS
 10
  2.7200
 20
  2.9300
 30
0.0
 0
VERTEX
 8
PARTS
 10
  2.7600
 20
  2.9300
 30
0.0
 0
SEQEND
 8
PARTS
 0
POLYLINE
 8
PARTS
 66
1
 10
0.0
 20
0.0
 30
0.0
 0
VERTEX
 8
PARTS
 10
  2.7400
 20
  3.0500
 30
0.0
 0
VERTEX
 8
PARTS
 10
  2.7000
 20
  3.0900
 30
0.0
 0
SEQEND
 8
PARTS
 0
POLYLINE
 8
PARTS
 66
1
 10
0.0
 20
0.0
 30
0.0
 0
VERTEX
 8
PARTS
 10
  2.7000
 20
  3.0900
 30
0.0
 0
VERTEX
 8
PARTS
 10
  2.7000
 20
  3.0600
 30
0.0
 0
SEQEND
 8
PARTS
 0
POLYLINE
 8
PARTS
 66
1
 10
0.0
 20
0.0
 30
0.0
 0
VERTEX
 8
PARTS
 10
  2.7000
 20
  3.0600
 30
0.0
 0
VERTEX
 8
PARTS
 10
  2.6600
 20
  3.1000
 30
0.0
 0
SEQEND
 8
PARTS
 0
POLYLINE
 8
PARTS
 66
1
 10
0.0
 20
0.0
 30
0.0
 0
VERTEX
 8
PARTS
 10
  2.7400
 20
  2.9500
 30
0.0
 0
VERTEX
 8
PARTS
 10
  2.7000
 20
  2.9900
 30
0.0
 0
SEQEND
 8
PARTS
 0
POLYLINE
 8
PARTS
 66
1
 10
0.0
 20
0.0
 30
0.0
 0
VERTEX
 8
PARTS
 10
  2.7000
 20
  2.9900
 30
0.0
 0
VERTEX
 8
PARTS
 10
  2.7000
 20
  2.9600
 30
0.0
 0
SEQEND
 8
PARTS
 0
POLYLINE
 8
PARTS
 66
1
 10
0.0
 20
0.0
 30
0.0
 0
VERTEX
 8
PARTS
 10
  2.7000
 20
  2.9600
 30
0.0
 0
VERTEX
 8
PARTS
 10
  2.6600
 20
  3.0000
 30
0.0
 0
SEQEND
 8
PARTS
 0
POLYLINE
 8
PARTS
 66
1
 10
0.0
 20
0.0
 30
0.0
 0
VERTEX
 8
PARTS
 10
  2.9000
 20
  3.1000
 30
0.0
 0
VERTEX
 8
PARTS
 10
  2.8000
 20
  3.0300
 30
0.0
 0
SEQEND
 8
PARTS
 0
POLYLINE
 8
PARTS
 66
1
 10
0.0
 20
0.0
 30
0.0
 0
VERTEX
 8
PARTS
 10
  2.8000
 20
  2.9700
 30
0.0
 0
VERTEX
 8
PARTS
 10
  2.9000
 20
  2.9000
 30
0.0
 0
SEQEND
 8
PARTS
 0
POLYLINE
 8
PARTS
 66
1
 10
0.0
 20
0.0
 30
0.0
 0
VERTEX
 8
PARTS
 10
  2.8000
 20
  3.1000
 30
0.0
 0
VERTEX
 8
PARTS
 10
  2.8000
 20
  2.9000
 30
0.0
 0
SEQEND
 8
PARTS
 0
POLYLINE
 8
PARTS
 66
1
 70
1
 10
0.0
 20
0.0
 30
0.0
 0
VERTEX
 8
PARTS
 10
  2.9000
 20
  2.9000
 30
0.0
 0
VERTEX
 8
PARTS
 10
  2.8600
 20
  2.9500
 30
0.0
 0
VERTEX
 8
PARTS
 10
  2.8400
 20
  2.9200
 30
0.0
 0
VERTEX
 8
PARTS
 10
  2.9000
 20
  2.9000
 30
0.0
 0
SEQEND
 8
PARTS
 0
TEXT
 8
PARTTEXT
 10
  2.6000
 20
  4.6186
 30
0.0
 40
  0.0514
 1
Not Known Photo TR
 0
LINE
 8
PARTS
 10
  2.9000
 20
  5.4000
 30
0.0
 11
  2.9000
 21
  5.5000
 31
0.0
 0
TEXT
 8
PARTS
 10
  2.8700
 20
  5.3800
 30
0.0
 40
  0.0500
 50
 90.0000
 1
1
 0
LINE
 8
PARTS
 10
  2.9000
 20
  5.8000
 30
0.0
 11
  2.9000
 21
  5.7000
 31
0.0
 0
TEXT
 8
PARTS
 10
  2.8700
 20
  5.7600
 30
0.0
 40
  0.0500
 50
 90.0000
 1
3
 0
POLYLINE
 8
PARTS
 66
1
 70
1
 10
0.0
 20
0.0
 30
0.0
 0
VERTEX
 8
PARTS
 10
  2.7600
 20
  5.6300
 30
0.0
 0
VERTEX
 8
PARTS
 10
  2.7600
 20
  5.6700
 30
0.0
 0
VERTEX
 8
PARTS
 10
  2.7200
 20
  5.6300
 30
0.0
 0
VERTEX
 8
PARTS
 10
  2.7600
 20
  5.6300
 30
0.0
 0
SEQEND
 8
PARTS
 0
POLYLINE
 8
PARTS
 66
1
 70
1
 10
0.0
 20
0.0
 30
0.0
 0
VERTEX
 8
PARTS
 10
  2.7600
 20
  5.5300
 30
0.0
 0
VERTEX
 8
PARTS
 10
  2.7600
 20
  5.5700
 30
0.0
 0
VERTEX
 8
PARTS
 10
  2.7200
 20
  5.5300
 30
0.0
 0
VERTEX
 8
PARTS
 10
  2.7600
 20
  5.5300
 30
0.0
 0
SEQEND
 8
PARTS
 0
POLYLINE
 8
PARTS
 66
1
 10
0.0
 20
0.0
 30
0.0
 0
VERTEX
 8
PARTS
 10
  2.7400
 20
  5.6500
 30
0.0
 0
VERTEX
 8
PARTS
 10
  2.7000
 20
  5.6900
 30
0.0
 0
SEQEND
 8
PARTS
 0
POLYLINE
 8
PARTS
 66
1
 10
0.0
 20
0.0
 30
0.0
 0
VERTEX
 8
PARTS
 10
  2.7000
 20
  5.6900
 30
0.0
 0
VERTEX
 8
PARTS
 10
  2.7000
 20
  5.6600
 30
0.0
 0
SEQEND
 8
PARTS
 0
POLYLINE
 8
PARTS
 66
1
 10
0.0
 20
0.0
 30
0.0
 0
VERTEX
 8
PARTS
 10
  2.7000
 20
  5.6600
 30
0.0
 0
VERTEX
 8
PARTS
 10
  2.6600
 20
  5.7000
 30
0.0
 0
SEQEND
 8
PARTS
 0
POLYLINE
 8
PARTS
 66
1
 10
0.0
 20
0.0
 30
0.0
 0
VERTEX
 8
PARTS
 10
  2.7400
 20
  5.5500
 30
0.0
 0
VERTEX
 8
PARTS
 10
  2.7000
 20
  5.5900
 30
0.0
 0
SEQEND
 8
PARTS
 0
POLYLINE
 8
PARTS
 66
1
 10
0.0
 20
0.0
 30
0.0
 0
VERTEX
 8
PARTS
 10
  2.7000
 20
  5.5900
 30
0.0
 0
VERTEX
 8
PARTS
 10
  2.7000
 20
  5.5600
 30
0.0
 0
SEQEND
 8
PARTS
 0
POLYLINE
 8
PARTS
 66
1
 10
0.0
 20
0.0
 30
0.0
 0
VERTEX
 8
PARTS
 10
  2.7000
 20
  5.5600
 30
0.0
 0
VERTEX
 8
PARTS
 10
  2.6600
 20
  5.6000
 30
0.0
 0
SEQEND
 8
PARTS
 0
POLYLINE
 8
PARTS
 66
1
 10
0.0
 20
0.0
 30
0.0
 0
VERTEX
 8
PARTS
 10
  2.9000
 20
  5.7000
 30
0.0
 0
VERTEX
 8
PARTS
 10
  2.8000
 20
  5.6300
 30
0.0
 0
SEQEND
 8
PARTS
 0
POLYLINE
 8
PARTS
 66
1
 10
0.0
 20
0.0
 30
0.0
 0
VERTEX
 8
PARTS
 10
  2.8000
 20
  5.5700
 30
0.0
 0
VERTEX
 8
PARTS
 10
  2.9000
 20
  5.5000
 30
0.0
 0
SEQEND
 8
PARTS
 0
POLYLINE
 8
PARTS
 66
1
 10
0.0
 20
0.0
 30
0.0
 0
VERTEX
 8
PARTS
 10
  2.8000
 20
  5.7000
 30
0.0
 0
VERTEX
 8
PARTS
 10
  2.8000
 20
  5.5000
 30
0.0
 0
SEQEND
 8
PARTS
 0
POLYLINE
 8
PARTS
 66
1
 70
1
 10
0.0
 20
0.0
 30
0.0
 0
VERTEX
 8
PARTS
 10
  2.9000
 20
  5.5000
 30
0.0
 0
VERTEX
 8
PARTS
 10
  2.8600
 20
  5.5500
 30
0.0
 0
VERTEX
 8
PARTS
 10
  2.8400
 20
  5.5200
 30
0.0
 0
VERTEX
 8
PARTS
 10
  2.9000
 20
  5.5000
 30
0.0
 0
SEQEND
 8
PARTS
 0
TEXT
 8
PARTTEXT
 10
  4.3000
 20
  2.7186
 30
0.0
 40
  0.0514
 1
R15
 0
TEXT
 8
PARTTEXT
 10
  4.3000
 20
  2.6186
 30
0.0
 40
  0.0514
 1
62k
 0
LINE
 8
PARTS
 10
  4.2000
 20
  2.9000
 30
0.0
 11
  4.3000
 21
  2.9000
 31
0.0
 0
LINE
 8
PARTS
 10
  4.7000
 20
  2.9000
 30
0.0
 11
  4.6000
 21
  2.9000
 31
0.0
 0
POLYLINE
 8
PARTS
 66
1
 10
0.0
 20
0.0
 30
0.0
 0
VERTEX
 8
PARTS
 10
  4.3000
 20
  2.9000
 30
0.0
 0
VERTEX
 8
PARTS
 10
  4.3300
 20
  2.9300
 30
0.0
 0
SEQEND
 8
PARTS
 0
POLYLINE
 8
PARTS
 66
1
 10
0.0
 20
0.0
 30
0.0
 0
VERTEX
 8
PARTS
 10
  4.3300
 20
  2.9300
 30
0.0
 0
VERTEX
 8
PARTS
 10
  4.3900
 20
  2.8700
 30
0.0
 0
SEQEND
 8
PARTS
 0
POLYLINE
 8
PARTS
 66
1
 10
0.0
 20
0.0
 30
0.0
 0
VERTEX
 8
PARTS
 10
  4.3900
 20
  2.8700
 30
0.0
 0
VERTEX
 8
PARTS
 10
  4.4500
 20
  2.9300
 30
0.0
 0
SEQEND
 8
PARTS
 0
POLYLINE
 8
PARTS
 66
1
 10
0.0
 20
0.0
 30
0.0
 0
VERTEX
 8
PARTS
 10
  4.4500
 20
  2.9300
 30
0.0
 0
VERTEX
 8
PARTS
 10
  4.5100
 20
  2.8700
 30
0.0
 0
SEQEND
 8
PARTS
 0
POLYLINE
 8
PARTS
 66
1
 10
0.0
 20
0.0
 30
0.0
 0
VERTEX
 8
PARTS
 10
  4.5100
 20
  2.8700
 30
0.0
 0
VERTEX
 8
PARTS
 10
  4.5700
 20
  2.9300
 30
0.0
 0
SEQEND
 8
PARTS
 0
POLYLINE
 8
PARTS
 66
1
 10
0.0
 20
0.0
 30
0.0
 0
VERTEX
 8
PARTS
 10
  4.5700
 20
  2.9300
 30
0.0
 0
VERTEX
 8
PARTS
 10
  4.6000
 20
  2.9000
 30
0.0
 0
SEQEND
 8
PARTS
 0
LINE
 8
PARTS
 10
  2.9000
 20
  4.8000
 30
0.0
 11
  2.9000
 21
  4.9000
 31
0.0
 0
TEXT
 8
PARTS
 10
  2.8700
 20
  4.7800
 30
0.0
 40
  0.0500
 50
 90.0000
 1
1
 0
LINE
 8
PARTS
 10
  2.9000
 20
  5.2000
 30
0.0
 11
  2.9000
 21
  5.1000
 31
0.0
 0
TEXT
 8
PARTS
 10
  2.8700
 20
  5.1600
 30
0.0
 40
  0.0500
 50
 90.0000
 1
3
 0
POLYLINE
 8
PARTS
 66
1
 70
1
 10
0.0
 20
0.0
 30
0.0
 0
VERTEX
 8
PARTS
 10
  2.7600
 20
  5.0300
 30
0.0
 0
VERTEX
 8
PARTS
 10
  2.7600
 20
  5.0700
 30
0.0
 0
VERTEX
 8
PARTS
 10
  2.7200
 20
  5.0300
 30
0.0
 0
VERTEX
 8
PARTS
 10
  2.7600
 20
  5.0300
 30
0.0
 0
SEQEND
 8
PARTS
 0
POLYLINE
 8
PARTS
 66
1
 70
1
 10
0.0
 20
0.0
 30
0.0
 0
VERTEX
 8
PARTS
 10
  2.7600
 20
  4.9300
 30
0.0
 0
VERTEX
 8
PARTS
 10
  2.7600
 20
  4.9700
 30
0.0
 0
VERTEX
 8
PARTS
 10
  2.7200
 20
  4.9300
 30
0.0
 0
VERTEX
 8
PARTS
 10
  2.7600
 20
  4.9300
 30
0.0
 0
SEQEND
 8
PARTS
 0
POLYLINE
 8
PARTS
 66
1
 10
0.0
 20
0.0
 30
0.0
 0
VERTEX
 8
PARTS
 10
  2.7400
 20
  5.0500
 30
0.0
 0
VERTEX
 8
PARTS
 10
  2.7000
 20
  5.0900
 30
0.0
 0
SEQEND
 8
PARTS
 0
POLYLINE
 8
PARTS
 66
1
 10
0.0
 20
0.0
 30
0.0
 0
VERTEX
 8
PARTS
 10
  2.7000
 20
  5.0900
 30
0.0
 0
VERTEX
 8
PARTS
 10
  2.7000
 20
  5.0600
 30
0.0
 0
SEQEND
 8
PARTS
 0
POLYLINE
 8
PARTS
 66
1
 10
0.0
 20
0.0
 30
0.0
 0
VERTEX
 8
PARTS
 10
  2.7000
 20
  5.0600
 30
0.0
 0
VERTEX
 8
PARTS
 10
  2.6600
 20
  5.1000
 30
0.0
 0
SEQEND
 8
PARTS
 0
POLYLINE
 8
PARTS
 66
1
 10
0.0
 20
0.0
 30
0.0
 0
VERTEX
 8
PARTS
 10
  2.7400
 20
  4.9500
 30
0.0
 0
VERTEX
 8
PARTS
 10
  2.7000
 20
  4.9900
 30
0.0
 0
SEQEND
 8
PARTS
 0
POLYLINE
 8
PARTS
 66
1
 10
0.0
 20
0.0
 30
0.0
 0
VERTEX
 8
PARTS
 10
  2.7000
 20
  4.9900
 30
0.0
 0
VERTEX
 8
PARTS
 10
  2.7000
 20
  4.9600
 30
0.0
 0
SEQEND
 8
PARTS
 0
POLYLINE
 8
PARTS
 66
1
 10
0.0
 20
0.0
 30
0.0
 0
VERTEX
 8
PARTS
 10
  2.7000
 20
  4.9600
 30
0.0
 0
VERTEX
 8
PARTS
 10
  2.6600
 20
  5.0000
 30
0.0
 0
SEQEND
 8
PARTS
 0
POLYLINE
 8
PARTS
 66
1
 10
0.0
 20
0.0
 30
0.0
 0
VERTEX
 8
PARTS
 10
  2.9000
 20
  5.1000
 30
0.0
 0
VERTEX
 8
PARTS
 10
  2.8000
 20
  5.0300
 30
0.0
 0
SEQEND
 8
PARTS
 0
POLYLINE
 8
PARTS
 66
1
 10
0.0
 20
0.0
 30
0.0
 0
VERTEX
 8
PARTS
 10
  2.8000
 20
  4.9700
 30
0.0
 0
VERTEX
 8
PARTS
 10
  2.9000
 20
  4.9000
 30
0.0
 0
SEQEND
 8
PARTS
 0
POLYLINE
 8
PARTS
 66
1
 10
0.0
 20
0.0
 30
0.0
 0
VERTEX
 8
PARTS
 10
  2.8000
 20
  5.1000
 30
0.0
 0
VERTEX
 8
PARTS
 10
  2.8000
 20
  4.9000
 30
0.0
 0
SEQEND
 8
PARTS
 0
POLYLINE
 8
PARTS
 66
1
 70
1
 10
0.0
 20
0.0
 30
0.0
 0
VERTEX
 8
PARTS
 10
  2.9000
 20
  4.9000
 30
0.0
 0
VERTEX
 8
PARTS
 10
  2.8600
 20
  4.9500
 30
0.0
 0
VERTEX
 8
PARTS
 10
  2.8400
 20
  4.9200
 30
0.0
 0
VERTEX
 8
PARTS
 10
  2.9000
 20
  4.9000
 30
0.0
 0
SEQEND
 8
PARTS
 0
TEXT
 8
PARTTEXT
 10
  7.9500
 20
  4.9086
 30
0.0
 40
  0.0514
 1
JP1
 0
TEXT
 8
PARTTEXT
 10
  7.9500
 20
  4.3086
 30
0.0
 40
  0.0514
 1
4 HEADER
 0
CIRCLE
 8
PARTS
 10
  7.8700
 20
  4.8000
 30
0.0
 40
  0.0300
 0
LINE
 8
PARTS
 10
  7.6000
 20
  4.8000
 30
0.0
 11
  7.8400
 21
  4.8000
 31
0.0
 0
TEXT
 8
PARTS
 10
  7.9900
 20
  4.7750
 30
0.0
 40
  0.0500
 1
1
 0
TEXT
 8
PARTS
 10
  7.8400
 20
  4.8300
 30
0.0
 40
  0.0500
 1

 0
CIRCLE
 8
PARTS
 10
  7.8700
 20
  4.7000
 30
0.0
 40
  0.0300
 0
LINE
 8
PARTS
 10
  7.6000
 20
  4.7000
 30
0.0
 11
  7.8400
 21
  4.7000
 31
0.0
 0
TEXT
 8
PARTS
 10
  7.9900
 20
  4.6750
 30
0.0
 40
  0.0500
 1
2
 0
TEXT
 8
PARTS
 10
  7.8400
 20
  4.7300
 30
0.0
 40
  0.0500
 1

 0
CIRCLE
 8
PARTS
 10
  7.8700
 20
  4.6000
 30
0.0
 40
  0.0300
 0
LINE
 8
PARTS
 10
  7.6000
 20
  4.6000
 30
0.0
 11
  7.8400
 21
  4.6000
 31
0.0
 0
TEXT
 8
PARTS
 10
  7.9900
 20
  4.5750
 30
0.0
 40
  0.0500
 1
3
 0
TEXT
 8
PARTS
 10
  7.8400
 20
  4.6300
 30
0.0
 40
  0.0500
 1

 0
CIRCLE
 8
PARTS
 10
  7.8700
 20
  4.5000
 30
0.0
 40
  0.0300
 0
LINE
 8
PARTS
 10
  7.6000
 20
  4.5000
 30
0.0
 11
  7.8400
 21
  4.5000
 31
0.0
 0
TEXT
 8
PARTS
 10
  7.9900
 20
  4.4750
 30
0.0
 40
  0.0500
 1
4
 0
TEXT
 8
PARTS
 10
  7.8400
 20
  4.5300
 30
0.0
 40
  0.0500
 1

 0
POLYLINE
 8
PARTS
 66
1
 70
1
 10
0.0
 20
0.0
 30
0.0
 0
VERTEX
 8
PARTS
 10
  7.9000
 20
  4.9000
 30
0.0
 0
VERTEX
 8
PARTS
 10
  8.2000
 20
  4.9000
 30
0.0
 0
VERTEX
 8
PARTS
 10
  8.2000
 20
  4.4000
 30
0.0
 0
VERTEX
 8
PARTS
 10
  7.9000
 20
  4.4000
 30
0.0
 0
SEQEND
 8
PARTS
 0
TEXT
 8
PARTTEXT
 10
  7.9500
 20
  4.1086
 30
0.0
 40
  0.0514
 1
JP2
 0
TEXT
 8
PARTTEXT
 10
  7.9500
 20
  3.5086
 30
0.0
 40
  0.0514
 1
4 HEADER
 0
CIRCLE
 8
PARTS
 10
  7.8700
 20
  4.0000
 30
0.0
 40
  0.0300
 0
LINE
 8
PARTS
 10
  7.6000
 20
  4.0000
 30
0.0
 11
  7.8400
 21
  4.0000
 31
0.0
 0
TEXT
 8
PARTS
 10
  7.9900
 20
  3.9750
 30
0.0
 40
  0.0500
 1
1
 0
TEXT
 8
PARTS
 10
  7.8400
 20
  4.0300
 30
0.0
 40
  0.0500
 1

 0
CIRCLE
 8
PARTS
 10
  7.8700
 20
  3.9000
 30
0.0
 40
  0.0300
 0
LINE
 8
PARTS
 10
  7.6000
 20
  3.9000
 30
0.0
 11
  7.8400
 21
  3.9000
 31
0.0
 0
TEXT
 8
PARTS
 10
  7.9900
 20
  3.8750
 30
0.0
 40
  0.0500
 1
2
 0
TEXT
 8
PARTS
 10
  7.8400
 20
  3.9300
 30
0.0
 40
  0.0500
 1

 0
CIRCLE
 8
PARTS
 10
  7.8700
 20
  3.8000
 30
0.0
 40
  0.0300
 0
LINE
 8
PARTS
 10
  7.6000
 20
  3.8000
 30
0.0
 11
  7.8400
 21
  3.8000
 31
0.0
 0
TEXT
 8
PARTS
 10
  7.9900
 20
  3.7750
 30
0.0
 40
  0.0500
 1
3
 0
TEXT
 8
PARTS
 10
  7.8400
 20
  3.8300
 30
0.0
 40
  0.0500
 1

 0
CIRCLE
 8
PARTS
 10
  7.8700
 20
  3.7000
 30
0.0
 40
  0.0300
 0
LINE
 8
PARTS
 10
  7.6000
 20
  3.7000
 30
0.0
 11
  7.8400
 21
  3.7000
 31
0.0
 0
TEXT
 8
PARTS
 10
  7.9900
 20
  3.6750
 30
0.0
 40
  0.0500
 1
4
 0
TEXT
 8
PARTS
 10
  7.8400
 20
  3.7300
 30
0.0
 40
  0.0500
 1

 0
POLYLINE
 8
PARTS
 66
1
 70
1
 10
0.0
 20
0.0
 30
0.0
 0
VERTEX
 8
PARTS
 10
  7.9000
 20
  4.1000
 30
0.0
 0
VERTEX
 8
PARTS
 10
  8.2000
 20
  4.1000
 30
0.0
 0
VERTEX
 8
PARTS
 10
  8.2000
 20
  3.6000
 30
0.0
 0
VERTEX
 8
PARTS
 10
  7.9000
 20
  3.6000
 30
0.0
 0
SEQEND
 8
PARTS
 0
POLYLINE
 8
WIRE
 66
1
 10
0.0
 20
0.0
 30
0.0
 0
VERTEX
 8
WIRE
 10
  2.9000
 20
  5.8000
 30
0.0
 0
VERTEX
 8
WIRE
 10
  3.1000
 20
  5.8000
 30
0.0
 0
SEQEND
 8
WIRE
 0
POLYLINE
 8
WIRE
 66
1
 10
0.0
 20
0.0
 30
0.0
 0
VERTEX
 8
WIRE
 10
  3.1000
 20
  5.8000
 30
0.0
 0
VERTEX
 8
WIRE
 10
  3.1000
 20
  5.3000
 30
0.0
 0
SEQEND
 8
WIRE
 0
POLYLINE
 8
WIRE
 66
1
 70
1
 10
0.0
 20
0.0
 30
0.0
 40
  0.0200
 41
  0.0200
 0
VERTEX
 8
WIRE
 10
  3.0900
 20
  5.3000
 30
0.0
 42
1.0
 0
VERTEX
 8
WIRE
 10
  3.1100
 20
  5.3000
 30
0.0
 42
1.0
 0
SEQEND
 8
WIRE
 0
POLYLINE
 8
WIRE
 66
1
 10
0.0
 20
0.0
 30
0.0
 0
VERTEX
 8
WIRE
 10
  2.9000
 20
  5.3000
 30
0.0
 0
VERTEX
 8
WIRE
 10
  3.1000
 20
  5.3000
 30
0.0
 0
SEQEND
 8
WIRE
 0
POLYLINE
 8
WIRE
 66
1
 10
0.0
 20
0.0
 30
0.0
 0
VERTEX
 8
WIRE
 10
  2.9000
 20
  5.3000
 30
0.0
 0
VERTEX
 8
WIRE
 10
  2.9000
 20
  5.2000
 30
0.0
 0
SEQEND
 8
WIRE
 0
POLYLINE
 8
WIRE
 66
1
 10
0.0
 20
0.0
 30
0.0
 0
VERTEX
 8
WIRE
 10
  3.1000
 20
  5.3000
 30
0.0
 0
VERTEX
 8
WIRE
 10
  3.7000
 20
  5.3000
 30
0.0
 0
SEQEND
 8
WIRE
 0
POLYLINE
 8
WIRE
 66
1
 10
0.0
 20
0.0
 30
0.0
 0
VERTEX
 8
WIRE
 10
  2.9000
 20
  4.8000
 30
0.0
 0
VERTEX
 8
WIRE
 10
  3.1000
 20
  4.8000
 30
0.0
 0
SEQEND
 8
WIRE
 0
POLYLINE
 8
WIRE
 66
1
 10
0.0
 20
0.0
 30
0.0
 0
VERTEX
 8
WIRE
 10
  3.1000
 20
  5.2000
 30
0.0
 0
VERTEX
 8
WIRE
 10
  3.1000
 20
  4.8000
 30
0.0
 0
SEQEND
 8
WIRE
 0
POLYLINE
 8
WIRE
 66
1
 10
0.0
 20
0.0
 30
0.0
 0
VERTEX
 8
WIRE
 10
  3.1000
 20
  5.2000
 30
0.0
 0
VERTEX
 8
WIRE
 10
  4.2000
 20
  5.2000
 30
0.0
 0
SEQEND
 8
WIRE
 0
POLYLINE
 8
WIRE
 66
1
 70
1
 10
0.0
 20
0.0
 30
0.0
 40
  0.0200
 41
  0.0200
 0
VERTEX
 8
WIRE
 10
  4.1900
 20
  5.2000
 30
0.0
 42
1.0
 0
VERTEX
 8
WIRE
 10
  4.2100
 20
  5.2000
 30
0.0
 42
1.0
 0
SEQEND
 8
WIRE
 0
POLYLINE
 8
WIRE
 66
1
 10
0.0
 20
0.0
 30
0.0
 0
VERTEX
 8
WIRE
 10
  2.9000
 20
  3.8000
 30
0.0
 0
VERTEX
 8
WIRE
 10
  3.1000
 20
  3.8000
 30
0.0
 0
SEQEND
 8
WIRE
 0
POLYLINE
 8
WIRE
 66
1
 10
0.0
 20
0.0
 30
0.0
 0
VERTEX
 8
WIRE
 10
  2.9000
 20
  3.4000
 30
0.0
 0
VERTEX
 8
WIRE
 10
  4.2000
 20
  3.4000
 30
0.0
 0
SEQEND
 8
WIRE
 0
POLYLINE
 8
WIRE
 66
1
 70
1
 10
0.0
 20
0.0
 30
0.0
 40
  0.0200
 41
  0.0200
 0
VERTEX
 8
WIRE
 10
  4.1900
 20
  3.4000
 30
0.0
 42
1.0
 0
VERTEX
 8
WIRE
 10
  4.2100
 20
  3.4000
 30
0.0
 42
1.0
 0
SEQEND
 8
WIRE
 0
POLYLINE
 8
WIRE
 66
1
 10
0.0
 20
0.0
 30
0.0
 0
VERTEX
 8
WIRE
 10
  3.1000
 20
  3.8000
 30
0.0
 0
VERTEX
 8
WIRE
 10
  3.1000
 20
  3.3000
 30
0.0
 0
SEQEND
 8
WIRE
 0
POLYLINE
 8
WIRE
 66
1
 70
1
 10
0.0
 20
0.0
 30
0.0
 40
  0.0200
 41
  0.0200
 0
VERTEX
 8
WIRE
 10
  3.0900
 20
  3.3000
 30
0.0
 42
1.0
 0
VERTEX
 8
WIRE
 10
  3.1100
 20
  3.3000
 30
0.0
 42
1.0
 0
SEQEND
 8
WIRE
 0
POLYLINE
 8
WIRE
 66
1
 10
0.0
 20
0.0
 30
0.0
 0
VERTEX
 8
WIRE
 10
  2.9000
 20
  2.8000
 30
0.0
 0
VERTEX
 8
WIRE
 10
  3.1000
 20
  2.8000
 30
0.0
 0
SEQEND
 8
WIRE
 0
POLYLINE
 8
WIRE
 66
1
 10
0.0
 20
0.0
 30
0.0
 0
VERTEX
 8
WIRE
 10
  3.1000
 20
  3.2000
 30
0.0
 0
VERTEX
 8
WIRE
 10
  3.1000
 20
  2.8000
 30
0.0
 0
SEQEND
 8
WIRE
 0
POLYLINE
 8
WIRE
 66
1
 10
0.0
 20
0.0
 30
0.0
 0
VERTEX
 8
WIRE
 10
  2.9000
 20
  3.3000
 30
0.0
 0
VERTEX
 8
WIRE
 10
  3.1000
 20
  3.3000
 30
0.0
 0
SEQEND
 8
WIRE
 0
POLYLINE
 8
WIRE
 66
1
 10
0.0
 20
0.0
 30
0.0
 0
VERTEX
 8
WIRE
 10
  3.1000
 20
  3.2000
 30
0.0
 0
VERTEX
 8
WIRE
 10
  4.2000
 20
  3.2000
 30
0.0
 0
SEQEND
 8
WIRE
 0
POLYLINE
 8
WIRE
 66
1
 70
1
 10
0.0
 20
0.0
 30
0.0
 40
  0.0200
 41
  0.0200
 0
VERTEX
 8
WIRE
 10
  4.1900
 20
  3.2000
 30
0.0
 42
1.0
 0
VERTEX
 8
WIRE
 10
  4.2100
 20
  3.2000
 30
0.0
 42
1.0
 0
SEQEND
 8
WIRE
 0
POLYLINE
 8
WIRE
 66
1
 10
0.0
 20
0.0
 30
0.0
 0
VERTEX
 8
WIRE
 10
  2.9000
 20
  3.3000
 30
0.0
 0
VERTEX
 8
WIRE
 10
  2.9000
 20
  3.2000
 30
0.0
 0
SEQEND
 8
WIRE
 0
POLYLINE
 8
WIRE
 66
1
 10
0.0
 20
0.0
 30
0.0
 0
VERTEX
 8
WIRE
 10
  3.1000
 20
  3.3000
 30
0.0
 0
VERTEX
 8
WIRE
 10
  3.7000
 20
  3.3000
 30
0.0
 0
SEQEND
 8
WIRE
 0
POLYLINE
 8
WIRE
 66
1
 10
0.0
 20
0.0
 30
0.0
 0
VERTEX
 8
WIRE
 10
  2.1000
 20
  5.0000
 30
0.0
 0
VERTEX
 8
WIRE
 10
  2.1000
 20
  3.6000
 30
0.0
 0
SEQEND
 8
WIRE
 0
POLYLINE
 8
WIRE
 66
1
 10
0.0
 20
0.0
 30
0.0
 0
VERTEX
 8
WIRE
 10
  2.1000
 20
  6.2000
 30
0.0
 0
VERTEX
 8
WIRE
 10
  2.1000
 20
  5.6000
 30
0.0
 0
SEQEND
 8
WIRE
 0
POLYLINE
 8
WIRE
 66
1
 10
0.0
 20
0.0
 30
0.0
 0
VERTEX
 8
WIRE
 10
  2.1000
 20
  3.0000
 30
0.0
 0
VERTEX
 8
WIRE
 10
  2.1000
 20
  2.3000
 30
0.0
 0
SEQEND
 8
WIRE
 0
POLYLINE
 8
WIRE
 66
1
 10
0.0
 20
0.0
 30
0.0
 0
VERTEX
 8
WIRE
 10
  2.1000
 20
  1.8000
 30
0.0
 0
VERTEX
 8
WIRE
 10
  2.1000
 20
  1.7000
 30
0.0
 0
SEQEND
 8
WIRE
 0
POLYLINE
 8
WIRE
 66
1
 10
0.0
 20
0.0
 30
0.0
 0
VERTEX
 8
WIRE
 10
  2.9000
 20
  5.4000
 30
0.0
 0
VERTEX
 8
WIRE
 10
  4.2000
 20
  5.4000
 30
0.0
 0
SEQEND
 8
WIRE
 0
POLYLINE
 8
WIRE
 66
1
 70
1
 10
0.0
 20
0.0
 30
0.0
 40
  0.0200
 41
  0.0200
 0
VERTEX
 8
WIRE
 10
  4.1900
 20
  5.4000
 30
0.0
 42
1.0
 0
VERTEX
 8
WIRE
 10
  4.2100
 20
  5.4000
 30
0.0
 42
1.0
 0
SEQEND
 8
WIRE
 0
POLYLINE
 8
WIRE
 66
1
 10
0.0
 20
0.0
 30
0.0
 0
VERTEX
 8
WIRE
 10
  4.2000
 20
  5.7000
 30
0.0
 0
VERTEX
 8
WIRE
 10
  4.2000
 20
  5.4000
 30
0.0
 0
SEQEND
 8
WIRE
 0
POLYLINE
 8
WIRE
 66
1
 10
0.0
 20
0.0
 30
0.0
 0
VERTEX
 8
WIRE
 10
  4.2000
 20
  5.4000
 30
0.0
 0
VERTEX
 8
WIRE
 10
  4.8000
 20
  5.4000
 30
0.0
 0
SEQEND
 8
WIRE
 0
POLYLINE
 8
WIRE
 66
1
 10
0.0
 20
0.0
 30
0.0
 0
VERTEX
 8
WIRE
 10
  4.2000
 20
  5.2000
 30
0.0
 0
VERTEX
 8
WIRE
 10
  4.2000
 20
  4.9000
 30
0.0
 0
SEQEND
 8
WIRE
 0
POLYLINE
 8
WIRE
 66
1
 10
0.0
 20
0.0
 30
0.0
 0
VERTEX
 8
WIRE
 10
  4.2000
 20
  5.2000
 30
0.0
 0
VERTEX
 8
WIRE
 10
  4.8000
 20
  5.2000
 30
0.0
 0
SEQEND
 8
WIRE
 0
POLYLINE
 8
WIRE
 66
1
 10
0.0
 20
0.0
 30
0.0
 0
VERTEX
 8
WIRE
 10
  4.2000
 20
  3.2000
 30
0.0
 0
VERTEX
 8
WIRE
 10
  4.2000
 20
  2.9000
 30
0.0
 0
SEQEND
 8
WIRE
 0
POLYLINE
 8
WIRE
 66
1
 10
0.0
 20
0.0
 30
0.0
 0
VERTEX
 8
WIRE
 10
  4.2000
 20
  3.7000
 30
0.0
 0
VERTEX
 8
WIRE
 10
  4.2000
 20
  3.4000
 30
0.0
 0
SEQEND
 8
WIRE
 0
POLYLINE
 8
WIRE
 66
1
 10
0.0
 20
0.0
 30
0.0
 0
VERTEX
 8
WIRE
 10
  4.2000
 20
  3.2000
 30
0.0
 0
VERTEX
 8
WIRE
 10
  4.8000
 20
  3.2000
 30
0.0
 0
SEQEND
 8
WIRE
 0
POLYLINE
 8
WIRE
 66
1
 10
0.0
 20
0.0
 30
0.0
 0
VERTEX
 8
WIRE
 10
  4.2000
 20
  3.4000
 30
0.0
 0
VERTEX
 8
WIRE
 10
  4.8000
 20
  3.4000
 30
0.0
 0
SEQEND
 8
WIRE
 0
POLYLINE
 8
WIRE
 66
1
 10
0.0
 20
0.0
 30
0.0
 0
VERTEX
 8
WIRE
 10
  7.5000
 20
  4.5000
 30
0.0
 0
VERTEX
 8
WIRE
 10
  7.6000
 20
  4.5000
 30
0.0
 0
SEQEND
 8
WIRE
 0
POLYLINE
 8
PARTS
 66
1
 10
0.0
 20
0.0
 30
0.0
 0
VERTEX
 8
PARTS
 10
  2.0000
 20
  1.7000
 30
0.0
 0
VERTEX
 8
PARTS
 10
  2.2000
 20
  1.7000
 30
0.0
 0
SEQEND
 8
PARTS
 0
POLYLINE
 8
PARTS
 66
1
 10
0.0
 20
0.0
 30
0.0
 0
VERTEX
 8
PARTS
 10
  2.0300
 20
  1.6700
 30
0.0
 0
VERTEX
 8
PARTS
 10
  2.1700
 20
  1.6700
 30
0.0
 0
SEQEND
 8
PARTS
 0
POLYLINE
 8
PARTS
 66
1
 10
0.0
 20
0.0
 30
0.0
 0
VERTEX
 8
PARTS
 10
  2.1400
 20
  1.6400
 30
0.0
 0
VERTEX
 8
PARTS
 10
  2.0600
 20
  1.6400
 30
0.0
 0
SEQEND
 8
PARTS
 0
POLYLINE
 8
PARTS
 66
1
 10
0.0
 20
0.0
 30
0.0
 0
VERTEX
 8
PARTS
 10
  2.0900
 20
  1.6100
 30
0.0
 0
VERTEX
 8
PARTS
 10
  2.1100
 20
  1.6100
 30
0.0
 0
SEQEND
 8
PARTS
 0
TEXT
 8
PARTTEXT
 10
  2.0000
 20
  6.3186
 30
0.0
 40
  0.0514
 1
VCC
 0
POLYLINE
 8
PARTS
 66
1
 10
0.0
 20
0.0
 30
0.0
 0
VERTEX
 8
PARTS
 10
  2.1000
 20
  6.2400
 30
0.0
 0
VERTEX
 8
PARTS
 10
  2.1000
 20
  6.2000
 30
0.0
 0
SEQEND
 8
PARTS
 0
POLYLINE
 8
PARTS
 66
1
 70
1
 10
0.0
 20
0.0
 30
0.0
 0
VERTEX
 8
PARTS
 10
  2.1300
 20
  6.2700
 30
0.0
 42
  0.0985
 0
VERTEX
 8
PARTS
 10
  2.1277
 20
  6.2815
 30
0.0
 42
  0.0985
 0
VERTEX
 8
PARTS
 10
  2.1212
 20
  6.2912
 30
0.0
 42
  0.0985
 0
VERTEX
 8
PARTS
 10
  2.1115
 20
  6.2977
 30
0.0
 42
  0.0985
 0
VERTEX
 8
PARTS
 10
  2.1000
 20
  6.3000
 30
0.0
 42
  0.0985
 0
VERTEX
 8
PARTS
 10
  2.0885
 20
  6.2977
 30
0.0
 42
  0.0985
 0
VERTEX
 8
PARTS
 10
  2.0788
 20
  6.2912
 30
0.0
 42
  0.0985
 0
VERTEX
 8
PARTS
 10
  2.0723
 20
  6.2815
 30
0.0
 42
  0.0985
 0
VERTEX
 8
PARTS
 10
  2.0700
 20
  6.2700
 30
0.0
 42
  0.0985
 0
VERTEX
 8
PARTS
 10
  2.0723
 20
  6.2585
 30
0.0
 42
  0.0985
 0
VERTEX
 8
PARTS
 10
  2.0788
 20
  6.2488
 30
0.0
 42
  0.0985
 0
VERTEX
 8
PARTS
 10
  2.0885
 20
  6.2423
 30
0.0
 42
  0.0985
 0
VERTEX
 8
PARTS
 10
  2.1000
 20
  6.2400
 30
0.0
 42
  0.0985
 0
VERTEX
 8
PARTS
 10
  2.1115
 20
  6.2423
 30
0.0
 42
  0.0985
 0
VERTEX
 8
PARTS
 10
  2.1212
 20
  6.2488
 30
0.0
 42
  0.0985
 0
VERTEX
 8
PARTS
 10
  2.1277
 20
  6.2585
 30
0.0
 42
  0.0985
 0
SEQEND
 8
PARTS
 0
TEXT
 8
PARTTEXT
 10
  3.8200
 20
  5.2686
 30
0.0
 40
  0.0514
 1
VCC
 0
POLYLINE
 8
PARTS
 66
1
 10
0.0
 20
0.0
 30
0.0
 0
VERTEX
 8
PARTS
 10
  3.7400
 20
  5.3000
 30
0.0
 0
VERTEX
 8
PARTS
 10
  3.7000
 20
  5.3000
 30
0.0
 0
SEQEND
 8
PARTS
 0
POLYLINE
 8
PARTS
 66
1
 70
1
 10
0.0
 20
0.0
 30
0.0
 0
VERTEX
 8
PARTS
 10
  3.8000
 20
  5.3000
 30
0.0
 42
  0.0985
 0
VERTEX
 8
PARTS
 10
  3.7977
 20
  5.3115
 30
0.0
 42
  0.0985
 0
VERTEX
 8
PARTS
 10
  3.7912
 20
  5.3212
 30
0.0
 42
  0.0985
 0
VERTEX
 8
PARTS
 10
  3.7815
 20
  5.3277
 30
0.0
 42
  0.0985
 0
VERTEX
 8
PARTS
 10
  3.7700
 20
  5.3300
 30
0.0
 42
  0.0985
 0
VERTEX
 8
PARTS
 10
  3.7585
 20
  5.3277
 30
0.0
 42
  0.0985
 0
VERTEX
 8
PARTS
 10
  3.7488
 20
  5.3212
 30
0.0
 42
  0.0985
 0
VERTEX
 8
PARTS
 10
  3.7423
 20
  5.3115
 30
0.0
 42
  0.0985
 0
VERTEX
 8
PARTS
 10
  3.7400
 20
  5.3000
 30
0.0
 42
  0.0985
 0
VERTEX
 8
PARTS
 10
  3.7423
 20
  5.2885
 30
0.0
 42
  0.0985
 0
VERTEX
 8
PARTS
 10
  3.7488
 20
  5.2788
 30
0.0
 42
  0.0985
 0
VERTEX
 8
PARTS
 10
  3.7585
 20
  5.2723
 30
0.0
 42
  0.0985
 0
VERTEX
 8
PARTS
 10
  3.7700
 20
  5.2700
 30
0.0
 42
  0.0985
 0
VERTEX
 8
PARTS
 10
  3.7815
 20
  5.2723
 30
0.0
 42
  0.0985
 0
VERTEX
 8
PARTS
 10
  3.7912
 20
  5.2788
 30
0.0
 42
  0.0985
 0
VERTEX
 8
PARTS
 10
  3.7977
 20
  5.2885
 30
0.0
 42
  0.0985
 0
SEQEND
 8
PARTS
 0
TEXT
 8
PARTTEXT
 10
  3.8200
 20
  3.2686
 30
0.0
 40
  0.0514
 1
VCC
 0
POLYLINE
 8
PARTS
 66
1
 10
0.0
 20
0.0
 30
0.0
 0
VERTEX
 8
PARTS
 10
  3.7400
 20
  3.3000
 30
0.0
 0
VERTEX
 8
PARTS
 10
  3.7000
 20
  3.3000
 30
0.0
 0
SEQEND
 8
PARTS
 0
POLYLINE
 8
PARTS
 66
1
 70
1
 10
0.0
 20
0.0
 30
0.0
 0
VERTEX
 8
PARTS
 10
  3.8000
 20
  3.3000
 30
0.0
 42
  0.0985
 0
VERTEX
 8
PARTS
 10
  3.7977
 20
  3.3115
 30
0.0
 42
  0.0985
 0
VERTEX
 8
PARTS
 10
  3.7912
 20
  3.3212
 30
0.0
 42
  0.0985
 0
VERTEX
 8
PARTS
 10
  3.7815
 20
  3.3277
 30
0.0
 42
  0.0985
 0
VERTEX
 8
PARTS
 10
  3.7700
 20
  3.3300
 30
0.0
 42
  0.0985
 0
VERTEX
 8
PARTS
 10
  3.7585
 20
  3.3277
 30
0.0
 42
  0.0985
 0
VERTEX
 8
PARTS
 10
  3.7488
 20
  3.3212
 30
0.0
 42
  0.0985
 0
VERTEX
 8
PARTS
 10
  3.7423
 20
  3.3115
 30
0.0
 42
  0.0985
 0
VERTEX
 8
PARTS
 10
  3.7400
 20
  3.3000
 30
0.0
 42
  0.0985
 0
VERTEX
 8
PARTS
 10
  3.7423
 20
  3.2885
 30
0.0
 42
  0.0985
 0
VERTEX
 8
PARTS
 10
  3.7488
 20
  3.2788
 30
0.0
 42
  0.0985
 0
VERTEX
 8
PARTS
 10
  3.7585
 20
  3.2723
 30
0.0
 42
  0.0985
 0
VERTEX
 8
PARTS
 10
  3.7700
 20
  3.2700
 30
0.0
 42
  0.0985
 0
VERTEX
 8
PARTS
 10
  3.7815
 20
  3.2723
 30
0.0
 42
  0.0985
 0
VERTEX
 8
PARTS
 10
  3.7912
 20
  3.2788
 30
0.0
 42
  0.0985
 0
VERTEX
 8
PARTS
 10
  3.7977
 20
  3.2885
 30
0.0
 42
  0.0985
 0
SEQEND
 8
PARTS
 0
POLYLINE
 8
PARTS
 66
1
 10
0.0
 20
0.0
 30
0.0
 0
VERTEX
 8
PARTS
 10
  4.7000
 20
  5.6000
 30
0.0
 0
VERTEX
 8
PARTS
 10
  4.7000
 20
  5.8000
 30
0.0
 0
SEQEND
 8
PARTS
 0
POLYLINE
 8
PARTS
 66
1
 10
0.0
 20
0.0
 30
0.0
 0
VERTEX
 8
PARTS
 10
  4.7300
 20
  5.6300
 30
0.0
 0
VERTEX
 8
PARTS
 10
  4.7300
 20
  5.7700
 30
0.0
 0
SEQEND
 8
PARTS
 0
POLYLINE
 8
PARTS
 66
1
 10
0.0
 20
0.0
 30
0.0
 0
VERTEX
 8
PARTS
 10
  4.7600
 20
  5.7400
 30
0.0
 0
VERTEX
 8
PARTS
 10
  4.7600
 20
  5.6600
 30
0.0
 0
SEQEND
 8
PARTS
 0
POLYLINE
 8
PARTS
 66
1
 10
0.0
 20
0.0
 30
0.0
 0
VERTEX
 8
PARTS
 10
  4.7900
 20
  5.6900
 30
0.0
 0
VERTEX
 8
PARTS
 10
  4.7900
 20
  5.7100
 30
0.0
 0
SEQEND
 8
PARTS
 0
POLYLINE
 8
PARTS
 66
1
 10
0.0
 20
0.0
 30
0.0
 0
VERTEX
 8
PARTS
 10
  4.7000
 20
  4.8000
 30
0.0
 0
VERTEX
 8
PARTS
 10
  4.7000
 20
  5.0000
 30
0.0
 0
SEQEND
 8
PARTS
 0
POLYLINE
 8
PARTS
 66
1
 10
0.0
 20
0.0
 30
0.0
 0
VERTEX
 8
PARTS
 10
  4.7300
 20
  4.8300
 30
0.0
 0
VERTEX
 8
PARTS
 10
  4.7300
 20
  4.9700
 30
0.0
 0
SEQEND
 8
PARTS
 0
POLYLINE
 8
PARTS
 66
1
 10
0.0
 20
0.0
 30
0.0
 0
VERTEX
 8
PARTS
 10
  4.7600
 20
  4.9400
 30
0.0
 0
VERTEX
 8
PARTS
 10
  4.7600
 20
  4.8600
 30
0.0
 0
SEQEND
 8
PARTS
 0
POLYLINE
 8
PARTS
 66
1
 10
0.0
 20
0.0
 30
0.0
 0
VERTEX
 8
PARTS
 10
  4.7900
 20
  4.8900
 30
0.0
 0
VERTEX
 8
PARTS
 10
  4.7900
 20
  4.9100
 30
0.0
 0
SEQEND
 8
PARTS
 0
POLYLINE
 8
PARTS
 66
1
 10
0.0
 20
0.0
 30
0.0
 0
VERTEX
 8
PARTS
 10
  4.7000
 20
  2.8000
 30
0.0
 0
VERTEX
 8
PARTS
 10
  4.7000
 20
  3.0000
 30
0.0
 0
SEQEND
 8
PARTS
 0
POLYLINE
 8
PARTS
 66
1
 10
0.0
 20
0.0
 30
0.0
 0
VERTEX
 8
PARTS
 10
  4.7300
 20
  2.8300
 30
0.0
 0
VERTEX
 8
PARTS
 10
  4.7300
 20
  2.9700
 30
0.0
 0
SEQEND
 8
PARTS
 0
POLYLINE
 8
PARTS
 66
1
 10
0.0
 20
0.0
 30
0.0
 0
VERTEX
 8
PARTS
 10
  4.7600
 20
  2.9400
 30
0.0
 0
VERTEX
 8
PARTS
 10
  4.7600
 20
  2.8600
 30
0.0
 0
SEQEND
 8
PARTS
 0
POLYLINE
 8
PARTS
 66
1
 10
0.0
 20
0.0
 30
0.0
 0
VERTEX
 8
PARTS
 10
  4.7900
 20
  2.8900
 30
0.0
 0
VERTEX
 8
PARTS
 10
  4.7900
 20
  2.9100
 30
0.0
 0
SEQEND
 8
PARTS
 0
POLYLINE
 8
PARTS
 66
1
 10
0.0
 20
0.0
 30
0.0
 0
VERTEX
 8
PARTS
 10
  4.7000
 20
  3.6000
 30
0.0
 0
VERTEX
 8
PARTS
 10
  4.7000
 20
  3.8000
 30
0.0
 0
SEQEND
 8
PARTS
 0
POLYLINE
 8
PARTS
 66
1
 10
0.0
 20
0.0
 30
0.0
 0
VERTEX
 8
PARTS
 10
  4.7300
 20
  3.6300
 30
0.0
 0
VERTEX
 8
PARTS
 10
  4.7300
 20
  3.7700
 30
0.0
 0
SEQEND
 8
PARTS
 0
POLYLINE
 8
PARTS
 66
1
 10
0.0
 20
0.0
 30
0.0
 0
VERTEX
 8
PARTS
 10
  4.7600
 20
  3.7400
 30
0.0
 0
VERTEX
 8
PARTS
 10
  4.7600
 20
  3.6600
 30
0.0
 0
SEQEND
 8
PARTS
 0
POLYLINE
 8
PARTS
 66
1
 10
0.0
 20
0.0
 30
0.0
 0
VERTEX
 8
PARTS
 10
  4.7900
 20
  3.6900
 30
0.0
 0
VERTEX
 8
PARTS
 10
  4.7900
 20
  3.7100
 30
0.0
 0
SEQEND
 8
PARTS
 0
TEXT
 8
PARTTEXT
 10
  7.2800
 20
  4.7686
 30
0.0
 40
  0.0514
 1
VCC
 0
POLYLINE
 8
PARTS
 66
1
 10
0.0
 20
0.0
 30
0.0
 0
VERTEX
 8
PARTS
 10
  7.5600
 20
  4.8000
 30
0.0
 0
VERTEX
 8
PARTS
 10
  7.6000
 20
  4.8000
 30
0.0
 0
SEQEND
 8
PARTS
 0
POLYLINE
 8
PARTS
 66
1
 70
1
 10
0.0
 20
0.0
 30
0.0
 0
VERTEX
 8
PARTS
 10
  7.5600
 20
  4.8000
 30
0.0
 42
  0.0985
 0
VERTEX
 8
PARTS
 10
  7.5577
 20
  4.8115
 30
0.0
 42
  0.0985
 0
VERTEX
 8
PARTS
 10
  7.5512
 20
  4.8212
 30
0.0
 42
  0.0985
 0
VERTEX
 8
PARTS
 10
  7.5415
 20
  4.8277
 30
0.0
 42
  0.0985
 0
VERTEX
 8
PARTS
 10
  7.5300
 20
  4.8300
 30
0.0
 42
  0.0985
 0
VERTEX
 8
PARTS
 10
  7.5185
 20
  4.8277
 30
0.0
 42
  0.0985
 0
VERTEX
 8
PARTS
 10
  7.5088
 20
  4.8212
 30
0.0
 42
  0.0985
 0
VERTEX
 8
PARTS
 10
  7.5023
 20
  4.8115
 30
0.0
 42
  0.0985
 0
VERTEX
 8
PARTS
 10
  7.5000
 20
  4.8000
 30
0.0
 42
  0.0985
 0
VERTEX
 8
PARTS
 10
  7.5023
 20
  4.7885
 30
0.0
 42
  0.0985
 0
VERTEX
 8
PARTS
 10
  7.5088
 20
  4.7788
 30
0.0
 42
  0.0985
 0
VERTEX
 8
PARTS
 10
  7.5185
 20
  4.7723
 30
0.0
 42
  0.0985
 0
VERTEX
 8
PARTS
 10
  7.5300
 20
  4.7700
 30
0.0
 42
  0.0985
 0
VERTEX
 8
PARTS
 10
  7.5415
 20
  4.7723
 30
0.0
 42
  0.0985
 0
VERTEX
 8
PARTS
 10
  7.5512
 20
  4.7788
 30
0.0
 42
  0.0985
 0
VERTEX
 8
PARTS
 10
  7.5577
 20
  4.7885
 30
0.0
 42
  0.0985
 0
SEQEND
 8
PARTS
 0
POLYLINE
 8
PARTS
 66
1
 10
0.0
 20
0.0
 30
0.0
 0
VERTEX
 8
PARTS
 10
  7.5000
 20
  4.4000
 30
0.0
 0
VERTEX
 8
PARTS
 10
  7.5000
 20
  4.6000
 30
0.0
 0
SEQEND
 8
PARTS
 0
POLYLINE
 8
PARTS
 66
1
 10
0.0
 20
0.0
 30
0.0
 0
VERTEX
 8
PARTS
 10
  7.4700
 20
  4.4300
 30
0.0
 0
VERTEX
 8
PARTS
 10
  7.4700
 20
  4.5700
 30
0.0
 0
SEQEND
 8
PARTS
 0
POLYLINE
 8
PARTS
 66
1
 10
0.0
 20
0.0
 30
0.0
 0
VERTEX
 8
PARTS
 10
  7.4400
 20
  4.5400
 30
0.0
 0
VERTEX
 8
PARTS
 10
  7.4400
 20
  4.4600
 30
0.0
 0
SEQEND
 8
PARTS
 0
POLYLINE
 8
PARTS
 66
1
 10
0.0
 20
0.0
 30
0.0
 0
VERTEX
 8
PARTS
 10
  7.4100
 20
  4.4900
 30
0.0
 0
VERTEX
 8
PARTS
 10
  7.4100
 20
  4.5100
 30
0.0
 0
SEQEND
 8
PARTS
 0
TEXT
 8
PARTTEXT
 10
  5.1200
 20
  5.3686
 30
0.0
 40
  0.0514
 1
LEFT A-Phase
 0
POLYLINE
 8
PARTS
 66
1
 10
0.0
 20
0.0
 30
0.0
 0
VERTEX
 8
PARTS
 10
  5.1000
 20
  5.4000
 30
0.0
 0
VERTEX
 8
PARTS
 10
  5.0000
 20
  5.4500
 30
0.0
 0
SEQEND
 8
PARTS
 0
POLYLINE
 8
PARTS
 66
1
 10
0.0
 20
0.0
 30
0.0
 0
VERTEX
 8
PARTS
 10
  5.0000
 20
  5.4500
 30
0.0
 0
VERTEX
 8
PARTS
 10
  4.8000
 20
  5.4500
 30
0.0
 0
SEQEND
 8
PARTS
 0
POLYLINE
 8
PARTS
 66
1
 10
0.0
 20
0.0
 30
0.0
 0
VERTEX
 8
PARTS
 10
  4.8000
 20
  5.4500
 30
0.0
 0
VERTEX
 8
PARTS
 10
  4.8000
 20
  5.3500
 30
0.0
 0
SEQEND
 8
PARTS
 0
POLYLINE
 8
PARTS
 66
1
 10
0.0
 20
0.0
 30
0.0
 0
VERTEX
 8
PARTS
 10
  4.8000
 20
  5.3500
 30
0.0
 0
VERTEX
 8
PARTS
 10
  5.0000
 20
  5.3500
 30
0.0
 0
SEQEND
 8
PARTS
 0
POLYLINE
 8
PARTS
 66
1
 10
0.0
 20
0.0
 30
0.0
 0
VERTEX
 8
PARTS
 10
  5.0000
 20
  5.3500
 30
0.0
 0
VERTEX
 8
PARTS
 10
  5.1000
 20
  5.4000
 30
0.0
 0
SEQEND
 8
PARTS
 0
TEXT
 8
PARTTEXT
 10
  5.1200
 20
  5.1686
 30
0.0
 40
  0.0514
 1
LEFT B-Phase
 0
POLYLINE
 8
PARTS
 66
1
 10
0.0
 20
0.0
 30
0.0
 0
VERTEX
 8
PARTS
 10
  5.1000
 20
  5.2000
 30
0.0
 0
VERTEX
 8
PARTS
 10
  5.0000
 20
  5.2500
 30
0.0
 0
SEQEND
 8
PARTS
 0
POLYLINE
 8
PARTS
 66
1
 10
0.0
 20
0.0
 30
0.0
 0
VERTEX
 8
PARTS
 10
  5.0000
 20
  5.2500
 30
0.0
 0
VERTEX
 8
PARTS
 10
  4.8000
 20
  5.2500
 30
0.0
 0
SEQEND
 8
PARTS
 0
POLYLINE
 8
PARTS
 66
1
 10
0.0
 20
0.0
 30
0.0
 0
VERTEX
 8
PARTS
 10
  4.8000
 20
  5.2500
 30
0.0
 0
VERTEX
 8
PARTS
 10
  4.8000
 20
  5.1500
 30
0.0
 0
SEQEND
 8
PARTS
 0
POLYLINE
 8
PARTS
 66
1
 10
0.0
 20
0.0
 30
0.0
 0
VERTEX
 8
PARTS
 10
  4.8000
 20
  5.1500
 30
0.0
 0
VERTEX
 8
PARTS
 10
  5.0000
 20
  5.1500
 30
0.0
 0
SEQEND
 8
PARTS
 0
POLYLINE
 8
PARTS
 66
1
 10
0.0
 20
0.0
 30
0.0
 0
VERTEX
 8
PARTS
 10
  5.0000
 20
  5.1500
 30
0.0
 0
VERTEX
 8
PARTS
 10
  5.1000
 20
  5.2000
 30
0.0
 0
SEQEND
 8
PARTS
 0
TEXT
 8
PARTTEXT
 10
  5.1200
 20
  3.3686
 30
0.0
 40
  0.0514
 1
RIGHT A-Phase
 0
POLYLINE
 8
PARTS
 66
1
 10
0.0
 20
0.0
 30
0.0
 0
VERTEX
 8
PARTS
 10
  5.1000
 20
  3.4000
 30
0.0
 0
VERTEX
 8
PARTS
 10
  5.0000
 20
  3.4500
 30
0.0
 0
SEQEND
 8
PARTS
 0
POLYLINE
 8
PARTS
 66
1
 10
0.0
 20
0.0
 30
0.0
 0
VERTEX
 8
PARTS
 10
  5.0000
 20
  3.4500
 30
0.0
 0
VERTEX
 8
PARTS
 10
  4.8000
 20
  3.4500
 30
0.0
 0
SEQEND
 8
PARTS
 0
POLYLINE
 8
PARTS
 66
1
 10
0.0
 20
0.0
 30
0.0
 0
VERTEX
 8
PARTS
 10
  4.8000
 20
  3.4500
 30
0.0
 0
VERTEX
 8
PARTS
 10
  4.8000
 20
  3.3500
 30
0.0
 0
SEQEND
 8
PARTS
 0
POLYLINE
 8
PARTS
 66
1
 10
0.0
 20
0.0
 30
0.0
 0
VERTEX
 8
PARTS
 10
  4.8000
 20
  3.3500
 30
0.0
 0
VERTEX
 8
PARTS
 10
  5.0000
 20
  3.3500
 30
0.0
 0
SEQEND
 8
PARTS
 0
POLYLINE
 8
PARTS
 66
1
 10
0.0
 20
0.0
 30
0.0
 0
VERTEX
 8
PARTS
 10
  5.0000
 20
  3.3500
 30
0.0
 0
VERTEX
 8
PARTS
 10
  5.1000
 20
  3.4000
 30
0.0
 0
SEQEND
 8
PARTS
 0
TEXT
 8
PARTTEXT
 10
  5.1200
 20
  3.1686
 30
0.0
 40
  0.0514
 1
RIGHT B-Phase
 0
POLYLINE
 8
PARTS
 66
1
 10
0.0
 20
0.0
 30
0.0
 0
VERTEX
 8
PARTS
 10
  5.1000
 20
  3.2000
 30
0.0
 0
VERTEX
 8
PARTS
 10
  5.0000
 20
  3.2500
 30
0.0
 0
SEQEND
 8
PARTS
 0
POLYLINE
 8
PARTS
 66
1
 10
0.0
 20
0.0
 30
0.0
 0
VERTEX
 8
PARTS
 10
  5.0000
 20
  3.2500
 30
0.0
 0
VERTEX
 8
PARTS
 10
  4.8000
 20
  3.2500
 30
0.0
 0
SEQEND
 8
PARTS
 0
POLYLINE
 8
PARTS
 66
1
 10
0.0
 20
0.0
 30
0.0
 0
VERTEX
 8
PARTS
 10
  4.8000
 20
  3.2500
 30
0.0
 0
VERTEX
 8
PARTS
 10
  4.8000
 20
  3.1500
 30
0.0
 0
SEQEND
 8
PARTS
 0
POLYLINE
 8
PARTS
 66
1
 10
0.0
 20
0.0
 30
0.0
 0
VERTEX
 8
PARTS
 10
  4.8000
 20
  3.1500
 30
0.0
 0
VERTEX
 8
PARTS
 10
  5.0000
 20
  3.1500
 30
0.0
 0
SEQEND
 8
PARTS
 0
POLYLINE
 8
PARTS
 66
1
 10
0.0
 20
0.0
 30
0.0
 0
VERTEX
 8
PARTS
 10
  5.0000
 20
  3.1500
 30
0.0
 0
VERTEX
 8
PARTS
 10
  5.1000
 20
  3.2000
 30
0.0
 0
SEQEND
 8
PARTS
 0
TEXT
 8
PARTTEXT
 10
  6.6100
 20
  3.9686
 30
0.0
 40
  0.0514
 1
LEFT A-Phase
 0
POLYLINE
 8
PARTS
 66
1
 10
0.0
 20
0.0
 30
0.0
 0
VERTEX
 8
PARTS
 10
  7.3000
 20
  4.0500
 30
0.0
 0
VERTEX
 8
PARTS
 10
  7.5000
 20
  4.0500
 30
0.0
 0
SEQEND
 8
PARTS
 0
POLYLINE
 8
PARTS
 66
1
 10
0.0
 20
0.0
 30
0.0
 0
VERTEX
 8
PARTS
 10
  7.5000
 20
  4.0500
 30
0.0
 0
VERTEX
 8
PARTS
 10
  7.6000
 20
  4.0000
 30
0.0
 0
SEQEND
 8
PARTS
 0
POLYLINE
 8
PARTS
 66
1
 10
0.0
 20
0.0
 30
0.0
 0
VERTEX
 8
PARTS
 10
  7.6000
 20
  4.0000
 30
0.0
 0
VERTEX
 8
PARTS
 10
  7.5000
 20
  3.9500
 30
0.0
 0
SEQEND
 8
PARTS
 0
POLYLINE
 8
PARTS
 66
1
 10
0.0
 20
0.0
 30
0.0
 0
VERTEX
 8
PARTS
 10
  7.5000
 20
  3.9500
 30
0.0
 0
VERTEX
 8
PARTS
 10
  7.3000
 20
  3.9500
 30
0.0
 0
SEQEND
 8
PARTS
 0
POLYLINE
 8
PARTS
 66
1
 10
0.0
 20
0.0
 30
0.0
 0
VERTEX
 8
PARTS
 10
  7.3000
 20
  3.9500
 30
0.0
 0
VERTEX
 8
PARTS
 10
  7.3000
 20
  4.0500
 30
0.0
 0
SEQEND
 8
PARTS
 0
TEXT
 8
PARTTEXT
 10
  6.6100
 20
  3.8686
 30
0.0
 40
  0.0514
 1
LEFT B-Phase
 0
POLYLINE
 8
PARTS
 66
1
 10
0.0
 20
0.0
 30
0.0
 0
VERTEX
 8
PARTS
 10
  7.3000
 20
  3.9500
 30
0.0
 0
VERTEX
 8
PARTS
 10
  7.5000
 20
  3.9500
 30
0.0
 0
SEQEND
 8
PARTS
 0
POLYLINE
 8
PARTS
 66
1
 10
0.0
 20
0.0
 30
0.0
 0
VERTEX
 8
PARTS
 10
  7.5000
 20
  3.9500
 30
0.0
 0
VERTEX
 8
PARTS
 10
  7.6000
 20
  3.9000
 30
0.0
 0
SEQEND
 8
PARTS
 0
POLYLINE
 8
PARTS
 66
1
 10
0.0
 20
0.0
 30
0.0
 0
VERTEX
 8
PARTS
 10
  7.6000
 20
  3.9000
 30
0.0
 0
VERTEX
 8
PARTS
 10
  7.5000
 20
  3.8500
 30
0.0
 0
SEQEND
 8
PARTS
 0
POLYLINE
 8
PARTS
 66
1
 10
0.0
 20
0.0
 30
0.0
 0
VERTEX
 8
PARTS
 10
  7.5000
 20
  3.8500
 30
0.0
 0
VERTEX
 8
PARTS
 10
  7.3000
 20
  3.8500
 30
0.0
 0
SEQEND
 8
PARTS
 0
POLYLINE
 8
PARTS
 66
1
 10
0.0
 20
0.0
 30
0.0
 0
VERTEX
 8
PARTS
 10
  7.3000
 20
  3.8500
 30
0.0
 0
VERTEX
 8
PARTS
 10
  7.3000
 20
  3.9500
 30
0.0
 0
SEQEND
 8
PARTS
 0
TEXT
 8
PARTTEXT
 10
  6.6100
 20
  3.7686
 30
0.0
 40
  0.0514
 1
RIGHT A-Phase
 0
POLYLINE
 8
PARTS
 66
1
 10
0.0
 20
0.0
 30
0.0
 0
VERTEX
 8
PARTS
 10
  7.3000
 20
  3.8500
 30
0.0
 0
VERTEX
 8
PARTS
 10
  7.5000
 20
  3.8500
 30
0.0
 0
SEQEND
 8
PARTS
 0
POLYLINE
 8
PARTS
 66
1
 10
0.0
 20
0.0
 30
0.0
 0
VERTEX
 8
PARTS
 10
  7.5000
 20
  3.8500
 30
0.0
 0
VERTEX
 8
PARTS
 10
  7.6000
 20
  3.8000
 30
0.0
 0
SEQEND
 8
PARTS
 0
POLYLINE
 8
PARTS
 66
1
 10
0.0
 20
0.0
 30
0.0
 0
VERTEX
 8
PARTS
 10
  7.6000
 20
  3.8000
 30
0.0
 0
VERTEX
 8
PARTS
 10
  7.5000
 20
  3.7500
 30
0.0
 0
SEQEND
 8
PARTS
 0
POLYLINE
 8
PARTS
 66
1
 10
0.0
 20
0.0
 30
0.0
 0
VERTEX
 8
PARTS
 10
  7.5000
 20
  3.7500
 30
0.0
 0
VERTEX
 8
PARTS
 10
  7.3000
 20
  3.7500
 30
0.0
 0
SEQEND
 8
PARTS
 0
POLYLINE
 8
PARTS
 66
1
 10
0.0
 20
0.0
 30
0.0
 0
VERTEX
 8
PARTS
 10
  7.3000
 20
  3.7500
 30
0.0
 0
VERTEX
 8
PARTS
 10
  7.3000
 20
  3.8500
 30
0.0
 0
SEQEND
 8
PARTS
 0
TEXT
 8
PARTTEXT
 10
  6.6100
 20
  3.6686
 30
0.0
 40
  0.0514
 1
RIGHT B-Phase
 0
POLYLINE
 8
PARTS
 66
1
 10
0.0
 20
0.0
 30
0.0
 0
VERTEX
 8
PARTS
 10
  7.3000
 20
  3.7500
 30
0.0
 0
VERTEX
 8
PARTS
 10
  7.5000
 20
  3.7500
 30
0.0
 0
SEQEND
 8
PARTS
 0
POLYLINE
 8
PARTS
 66
1
 10
0.0
 20
0.0
 30
0.0
 0
VERTEX
 8
PARTS
 10
  7.5000
 20
  3.7500
 30
0.0
 0
VERTEX
 8
PARTS
 10
  7.6000
 20
  3.7000
 30
0.0
 0
SEQEND
 8
PARTS
 0
POLYLINE
 8
PARTS
 66
1
 10
0.0
 20
0.0
 30
0.0
 0
VERTEX
 8
PARTS
 10
  7.6000
 20
  3.7000
 30
0.0
 0
VERTEX
 8
PARTS
 10
  7.5000
 20
  3.6500
 30
0.0
 0
SEQEND
 8
PARTS
 0
POLYLINE
 8
PARTS
 66
1
 10
0.0
 20
0.0
 30
0.0
 0
VERTEX
 8
PARTS
 10
  7.5000
 20
  3.6500
 30
0.0
 0
VERTEX
 8
PARTS
 10
  7.3000
 20
  3.6500
 30
0.0
 0
SEQEND
 8
PARTS
 0
POLYLINE
 8
PARTS
 66
1
 10
0.0
 20
0.0
 30
0.0
 0
VERTEX
 8
PARTS
 10
  7.3000
 20
  3.6500
 30
0.0
 0
VERTEX
 8
PARTS
 10
  7.3000
 20
  3.7500
 30
0.0
 0
SEQEND
 8
PARTS
 0
POLYLINE
 8
COMMENTS
 66
1
 70
1
 10
0.0
 20
0.0
 30
0.0
 0
VERTEX
 8
COMMENTS
 10
  2.6000
 20
  5.9000
 30
0.0
 0
VERTEX
 8
COMMENTS
 10
  3.4000
 20
  5.9000
 30
0.0
 0
VERTEX
 8
COMMENTS
 10
  3.4000
 20
  4.7000
 30
0.0
 0
VERTEX
 8
COMMENTS
 10
  2.6000
 20
  4.7000
 30
0.0
 0
SEQEND
 8
COMMENTS
 0
POLYLINE
 8
COMMENTS
 66
1
 70
1
 10
0.0
 20
0.0
 30
0.0
 0
VERTEX
 8
COMMENTS
 10
  2.6000
 20
  3.9000
 30
0.0
 0
VERTEX
 8
COMMENTS
 10
  3.4000
 20
  3.9000
 30
0.0
 0
VERTEX
 8
COMMENTS
 10
  3.4000
 20
  2.7000
 30
0.0
 0
VERTEX
 8
COMMENTS
 10
  2.6000
 20
  2.7000
 30
0.0
 0
SEQEND
 8
COMMENTS
 0
POLYLINE
 8
COMMENTS
 66
1
 70
1
 10
0.0
 20
0.0
 30
0.0
 0
VERTEX
 8
COMMENTS
 10
  1.1000
 20
  6.1000
 30
0.0
 0
VERTEX
 8
COMMENTS
 10
  3.6000
 20
  6.1000
 30
0.0
 0
VERTEX
 8
COMMENTS
 10
  3.6000
 20
  4.4000
 30
0.0
 0
VERTEX
 8
COMMENTS
 10
  1.1000
 20
  4.4000
 30
0.0
 0
SEQEND
 8
COMMENTS
 0
POLYLINE
 8
COMMENTS
 66
1
 70
1
 10
0.0
 20
0.0
 30
0.0
 0
VERTEX
 8
COMMENTS
 10
  1.1000
 20
  4.1000
 30
0.0
 0
VERTEX
 8
COMMENTS
 10
  3.6000
 20
  4.1000
 30
0.0
 0
VERTEX
 8
COMMENTS
 10
  3.6000
 20
  2.4000
 30
0.0
 0
VERTEX
 8
COMMENTS
 10
  1.1000
 20
  2.4000
 30
0.0
 0
SEQEND
 8
COMMENTS
 0
POLYLINE
 8
COMMENTS
 66
1
 70
1
 10
0.0
 20
0.0
 30
0.0
 0
VERTEX
 8
COMMENTS
 10
  2.5000
 20
  5.3000
 30
0.0
 42
  0.0391
 0
VERTEX
 8
COMMENTS
 10
  2.4924
 20
  5.4531
 30
0.0
 42
  0.0687
 0
VERTEX
 8
COMMENTS
 10
  2.4707
 20
  5.5828
 30
0.0
 42
  0.1284
 0
VERTEX
 8
COMMENTS
 10
  2.4383
 20
  5.6696
 30
0.0
 42
  0.1586
 0
VERTEX
 8
COMMENTS
 10
  2.4000
 20
  5.7000
 30
0.0
 42
  0.1586
 0
VERTEX
 8
COMMENTS
 10
  2.3617
 20
  5.6696
 30
0.0
 42
  0.1284
 0
VERTEX
 8
COMMENTS
 10
  2.3293
 20
  5.5828
 30
0.0
 42
  0.0687
 0
VERTEX
 8
COMMENTS
 10
  2.3076
 20
  5.4531
 30
0.0
 42
  0.0391
 0
VERTEX
 8
COMMENTS
 10
  2.3000
 20
  5.3000
 30
0.0
 42
  0.0391
 0
VERTEX
 8
COMMENTS
 10
  2.3076
 20
  5.1469
 30
0.0
 42
  0.0687
 0
VERTEX
 8
COMMENTS
 10
  2.3293
 20
  5.0172
 30
0.0
 42
  0.1284
 0
VERTEX
 8
COMMENTS
 10
  2.3617
 20
  4.9304
 30
0.0
 42
  0.1586
 0
VERTEX
 8
COMMENTS
 10
  2.4000
 20
  4.9000
 30
0.0
 42
  0.1586
 0
VERTEX
 8
COMMENTS
 10
  2.4383
 20
  4.9304
 30
0.0
 42
  0.1284
 0
VERTEX
 8
COMMENTS
 10
  2.4707
 20
  5.0172
 30
0.0
 42
  0.0687
 0
VERTEX
 8
COMMENTS
 10
  2.4924
 20
  5.1469
 30
0.0
 42
  0.0391
 0
SEQEND
 8
COMMENTS
 0
POLYLINE
 8
COMMENTS
 66
1
 70
1
 10
0.0
 20
0.0
 30
0.0
 0
VERTEX
 8
COMMENTS
 10
  2.5000
 20
  3.3000
 30
0.0
 42
  0.0391
 0
VERTEX
 8
COMMENTS
 10
  2.4924
 20
  3.4531
 30
0.0
 42
  0.0687
 0
VERTEX
 8
COMMENTS
 10
  2.4707
 20
  3.5828
 30
0.0
 42
  0.1284
 0
VERTEX
 8
COMMENTS
 10
  2.4383
 20
  3.6696
 30
0.0
 42
  0.1586
 0
VERTEX
 8
COMMENTS
 10
  2.4000
 20
  3.7000
 30
0.0
 42
  0.1586
 0
VERTEX
 8
COMMENTS
 10
  2.3617
 20
  3.6696
 30
0.0
 42
  0.1284
 0
VERTEX
 8
COMMENTS
 10
  2.3293
 20
  3.5828
 30
0.0
 42
  0.0687
 0
VERTEX
 8
COMMENTS
 10
  2.3076
 20
  3.4531
 30
0.0
 42
  0.0391
 0
VERTEX
 8
COMMENTS
 10
  2.3000
 20
  3.3000
 30
0.0
 42
  0.0391
 0
VERTEX
 8
COMMENTS
 10
  2.3076
 20
  3.1469
 30
0.0
 42
  0.0687
 0
VERTEX
 8
COMMENTS
 10
  2.3293
 20
  3.0172
 30
0.0
 42
  0.1284
 0
VERTEX
 8
COMMENTS
 10
  2.3617
 20
  2.9304
 30
0.0
 42
  0.1586
 0
VERTEX
 8
COMMENTS
 10
  2.4000
 20
  2.9000
 30
0.0
 42
  0.1586
 0
VERTEX
 8
COMMENTS
 10
  2.4383
 20
  2.9304
 30
0.0
 42
  0.1284
 0
VERTEX
 8
COMMENTS
 10
  2.4707
 20
  3.0172
 30
0.0
 42
  0.0687
 0
VERTEX
 8
COMMENTS
 10
  2.4924
 20
  3.1469
 30
0.0
 42
  0.0391
 0
SEQEND
 8
COMMENTS
 0
TEXT
 8
COMMENTS
 10
  2.6000
 20
  4.2958
 30
0.0
 40
  0.0742
 1
LEFT ENCODER
 0
TEXT
 8
COMMENTS
 10
  2.6000
 20
  2.2958
 30
0.0
 40
  0.0742
 1
RIGHT ENCODER
 0
ENDSEC
 0
EOF
