<?xml version="1.0" ?><!-- Created with Inkscape (http://www.inkscape.org/) --><svg height="1080" id="svg2383" inkscape:output_extension="org.inkscape.output.svg.inkscape" inkscape:version="0.48.4 r9939" sodipodi:docname="Bubbles_1.svg" sodipodi:version="0.32" version="1.0" width="1920" xmlns="http://www.w3.org/2000/svg" xmlns:cc="http://creativecommons.org/ns#" xmlns:dc="http://purl.org/dc/elements/1.1/" xmlns:inkscape="http://www.inkscape.org/namespaces/inkscape" xmlns:rdf="http://www.w3.org/1999/02/22-rdf-syntax-ns#" xmlns:sodipodi="http://sodipodi.sourceforge.net/DTD/sodipodi-0.dtd" xmlns:svg="http://www.w3.org/2000/svg" xmlns:xlink="http://www.w3.org/1999/xlink">
  <defs id="defs2385">
    <linearGradient id="linearGradient3264" inkscape:collect="always">
      <stop id="stop3266" offset="0" style="stop-color:#6f82c1;stop-opacity:1"/>
      <stop id="stop3268" offset="1" style="stop-color:#324da7;stop-opacity:1"/>
    </linearGradient>
    <linearGradient id="linearGradient3190" inkscape:collect="always">
      <stop id="stop3192" offset="0" style="stop-color:#324da7;stop-opacity:1"/>
      <stop id="stop3194" offset="1" style="stop-color:#324da7;stop-opacity:0;"/>
    </linearGradient>
    <linearGradient id="linearGradient3267" inkscape:collect="always">
      <stop id="stop3269" offset="0" style="stop-color:#0000ff;stop-opacity:0"/>
      <stop id="stop3275" offset="0.48768985" style="stop-color:#ffffff;stop-opacity:1"/>
      <stop id="stop3271" offset="1" style="stop-color:#0000ff;stop-opacity:0;"/>
    </linearGradient>
    <inkscape:perspective id="perspective2391" inkscape:persp3d-origin="372.04724 : 350.78739 : 1" inkscape:vp_x="0 : 526.18109 : 1" inkscape:vp_y="0 : 1000 : 0" inkscape:vp_z="744.09448 : 526.18109 : 1" sodipodi:type="inkscape:persp3d"/>
    <linearGradient gradientTransform="matrix(0.4475832,0,0,1.1594093,-317.72844,-354.23847)" gradientUnits="userSpaceOnUse" id="linearGradient3273" inkscape:collect="always" x1="333.26617" x2="1668.8561" xlink:href="#linearGradient3267" y1="671.26709" y2="671.26709"/>
    <linearGradient gradientTransform="matrix(0.4475832,0,0,1.1594093,-317.72845,-255.93349)" gradientUnits="userSpaceOnUse" id="linearGradient3463" inkscape:collect="always" x1="333.26617" x2="1668.8561" xlink:href="#linearGradient3267" y1="671.26709" y2="671.26709"/>
    <linearGradient gradientTransform="translate(-480.00173,0)" gradientUnits="userSpaceOnUse" id="linearGradient3196" inkscape:collect="always" x1="1917.6716" x2="1622.8263" xlink:href="#linearGradient3190" y1="542.59882" y2="542.59882"/>
    <linearGradient gradientTransform="matrix(-1,0,0,1,1920.0025,7.77e-2)" gradientUnits="userSpaceOnUse" id="linearGradient3200" inkscape:collect="always" x1="1917.6716" x2="1622.8263" xlink:href="#linearGradient3190" y1="542.59882" y2="542.59882"/>
    <radialGradient cx="141.42136" cy="172.07489" fx="141.42136" fy="172.07489" gradientUnits="userSpaceOnUse" id="radialGradient3270" inkscape:collect="always" r="73.539108" xlink:href="#linearGradient3264"/>
    <radialGradient cx="141.42136" cy="172.07489" fx="141.42136" fy="172.07489" gradientUnits="userSpaceOnUse" id="radialGradient3287" inkscape:collect="always" r="73.539108" xlink:href="#linearGradient3264"/>
    <radialGradient cx="141.42136" cy="172.07489" fx="141.42136" fy="172.07489" gradientUnits="userSpaceOnUse" id="radialGradient3297" inkscape:collect="always" r="73.539108" xlink:href="#linearGradient3264"/>
    <radialGradient cx="141.42136" cy="172.07489" fx="141.42136" fy="172.07489" gradientUnits="userSpaceOnUse" id="radialGradient3307" inkscape:collect="always" r="73.539108" xlink:href="#linearGradient3264"/>
    <radialGradient cx="141.42136" cy="172.07489" fx="141.42136" fy="172.07489" gradientUnits="userSpaceOnUse" id="radialGradient3317" inkscape:collect="always" r="73.539108" xlink:href="#linearGradient3264"/>
    <radialGradient cx="141.42136" cy="172.07489" fx="141.42136" fy="172.07489" gradientUnits="userSpaceOnUse" id="radialGradient3327" inkscape:collect="always" r="73.539108" xlink:href="#linearGradient3264"/>
    <radialGradient cx="141.42136" cy="172.07489" fx="141.42136" fy="172.07489" gradientUnits="userSpaceOnUse" id="radialGradient3337" inkscape:collect="always" r="73.539108" xlink:href="#linearGradient3264"/>
    <radialGradient cx="141.42136" cy="172.07489" fx="141.42136" fy="172.07489" gradientUnits="userSpaceOnUse" id="radialGradient3347" inkscape:collect="always" r="73.539108" xlink:href="#linearGradient3264"/>
    <radialGradient cx="141.42136" cy="172.07489" fx="141.42136" fy="172.07489" gradientUnits="userSpaceOnUse" id="radialGradient3357" inkscape:collect="always" r="73.539108" xlink:href="#linearGradient3264"/>
    <radialGradient cx="141.42136" cy="172.07489" fx="141.42136" fy="172.07489" gradientUnits="userSpaceOnUse" id="radialGradient3367" inkscape:collect="always" r="73.539108" xlink:href="#linearGradient3264"/>
    <radialGradient cx="141.42136" cy="172.07489" fx="141.42136" fy="172.07489" gradientUnits="userSpaceOnUse" id="radialGradient3377" inkscape:collect="always" r="73.539108" xlink:href="#linearGradient3264"/>
    <radialGradient cx="141.42136" cy="172.07489" fx="141.42136" fy="172.07489" gradientUnits="userSpaceOnUse" id="radialGradient3387" inkscape:collect="always" r="73.539108" xlink:href="#linearGradient3264"/>
    <radialGradient cx="141.42136" cy="172.07489" fx="141.42136" fy="172.07489" gradientUnits="userSpaceOnUse" id="radialGradient3397" inkscape:collect="always" r="73.539108" xlink:href="#linearGradient3264"/>
    <radialGradient cx="141.42136" cy="172.07489" fx="141.42136" fy="172.07489" gradientUnits="userSpaceOnUse" id="radialGradient3407" inkscape:collect="always" r="73.539108" xlink:href="#linearGradient3264"/>
    <radialGradient cx="141.42136" cy="172.07489" fx="141.42136" fy="172.07489" gradientUnits="userSpaceOnUse" id="radialGradient3417" inkscape:collect="always" r="73.539108" xlink:href="#linearGradient3264"/>
    <radialGradient cx="141.42136" cy="172.07489" fx="141.42136" fy="172.07489" gradientUnits="userSpaceOnUse" id="radialGradient3427" inkscape:collect="always" r="73.539108" xlink:href="#linearGradient3264"/>
    <radialGradient cx="141.42136" cy="172.07489" fx="141.42136" fy="172.07489" gradientUnits="userSpaceOnUse" id="radialGradient3437" inkscape:collect="always" r="73.539108" xlink:href="#linearGradient3264"/>
    <radialGradient cx="141.42136" cy="172.07489" fx="141.42136" fy="172.07489" gradientUnits="userSpaceOnUse" id="radialGradient3447" inkscape:collect="always" r="73.539108" xlink:href="#linearGradient3264"/>
    <radialGradient cx="141.42136" cy="172.07489" fx="141.42136" fy="172.07489" gradientUnits="userSpaceOnUse" id="radialGradient3457" inkscape:collect="always" r="73.539108" xlink:href="#linearGradient3264"/>
    <radialGradient cx="141.42136" cy="172.07489" fx="141.42136" fy="172.07489" gradientUnits="userSpaceOnUse" id="radialGradient3467" inkscape:collect="always" r="73.539108" xlink:href="#linearGradient3264"/>
    <radialGradient cx="141.42136" cy="172.07489" fx="141.42136" fy="172.07489" gradientUnits="userSpaceOnUse" id="radialGradient3477" inkscape:collect="always" r="73.539108" xlink:href="#linearGradient3264"/>
    <radialGradient cx="141.42136" cy="172.07489" fx="141.42136" fy="172.07489" gradientUnits="userSpaceOnUse" id="radialGradient3487" inkscape:collect="always" r="73.539108" xlink:href="#linearGradient3264"/>
    <radialGradient cx="141.42136" cy="172.07489" fx="141.42136" fy="172.07489" gradientUnits="userSpaceOnUse" id="radialGradient3497" inkscape:collect="always" r="73.539108" xlink:href="#linearGradient3264"/>
    <radialGradient cx="141.42136" cy="172.07489" fx="141.42136" fy="172.07489" gradientUnits="userSpaceOnUse" id="radialGradient3507" inkscape:collect="always" r="73.539108" xlink:href="#linearGradient3264"/>
    <radialGradient cx="141.42136" cy="172.07489" fx="141.42136" fy="172.07489" gradientUnits="userSpaceOnUse" id="radialGradient3517" inkscape:collect="always" r="73.539108" xlink:href="#linearGradient3264"/>
    <radialGradient cx="141.42136" cy="172.07489" fx="141.42136" fy="172.07489" gradientUnits="userSpaceOnUse" id="radialGradient3527" inkscape:collect="always" r="73.539108" xlink:href="#linearGradient3264"/>
    <radialGradient cx="141.42136" cy="172.07489" fx="141.42136" fy="172.07489" gradientUnits="userSpaceOnUse" id="radialGradient3537" inkscape:collect="always" r="73.539108" xlink:href="#linearGradient3264"/>
    <radialGradient cx="141.42136" cy="172.07489" fx="141.42136" fy="172.07489" gradientUnits="userSpaceOnUse" id="radialGradient3547" inkscape:collect="always" r="73.539108" xlink:href="#linearGradient3264"/>
    <radialGradient cx="141.42136" cy="172.07489" fx="141.42136" fy="172.07489" gradientUnits="userSpaceOnUse" id="radialGradient3557" inkscape:collect="always" r="73.539108" xlink:href="#linearGradient3264"/>
    <radialGradient cx="141.42136" cy="172.07489" fx="141.42136" fy="172.07489" gradientUnits="userSpaceOnUse" id="radialGradient3567" inkscape:collect="always" r="73.539108" xlink:href="#linearGradient3264"/>
    <radialGradient cx="141.42136" cy="172.07489" fx="141.42136" fy="172.07489" gradientUnits="userSpaceOnUse" id="radialGradient3577" inkscape:collect="always" r="73.539108" xlink:href="#linearGradient3264"/>
    <radialGradient cx="141.42136" cy="172.07489" fx="141.42136" fy="172.07489" gradientUnits="userSpaceOnUse" id="radialGradient3587" inkscape:collect="always" r="73.539108" xlink:href="#linearGradient3264"/>
    <radialGradient cx="141.42136" cy="172.07489" fx="141.42136" fy="172.07489" gradientUnits="userSpaceOnUse" id="radialGradient3597" inkscape:collect="always" r="73.539108" xlink:href="#linearGradient3264"/>
    <radialGradient cx="141.42136" cy="172.07489" fx="141.42136" fy="172.07489" gradientUnits="userSpaceOnUse" id="radialGradient3607" inkscape:collect="always" r="73.539108" xlink:href="#linearGradient3264"/>
    <radialGradient cx="141.42136" cy="172.07489" fx="141.42136" fy="172.07489" gradientUnits="userSpaceOnUse" id="radialGradient3617" inkscape:collect="always" r="73.539108" xlink:href="#linearGradient3264"/>
    <radialGradient cx="141.42136" cy="172.07489" fx="141.42136" fy="172.07489" gradientUnits="userSpaceOnUse" id="radialGradient3627" inkscape:collect="always" r="73.539108" xlink:href="#linearGradient3264"/>
    <radialGradient cx="141.42136" cy="172.07489" fx="141.42136" fy="172.07489" gradientUnits="userSpaceOnUse" id="radialGradient3637" inkscape:collect="always" r="73.539108" xlink:href="#linearGradient3264"/>
    <radialGradient cx="141.42136" cy="172.07489" fx="141.42136" fy="172.07489" gradientUnits="userSpaceOnUse" id="radialGradient3647" inkscape:collect="always" r="73.539108" xlink:href="#linearGradient3264"/>
    <radialGradient cx="141.42136" cy="172.07489" fx="141.42136" fy="172.07489" gradientUnits="userSpaceOnUse" id="radialGradient3657" inkscape:collect="always" r="73.539108" xlink:href="#linearGradient3264"/>
    <radialGradient cx="141.42136" cy="172.07489" fx="141.42136" fy="172.07489" gradientUnits="userSpaceOnUse" id="radialGradient2604" inkscape:collect="always" r="73.539108" xlink:href="#linearGradient3264"/>
    <radialGradient cx="141.42136" cy="172.07489" fx="141.42136" fy="172.07489" gradientUnits="userSpaceOnUse" id="radialGradient2614" inkscape:collect="always" r="73.539108" xlink:href="#linearGradient3264"/>
    <radialGradient cx="141.42136" cy="172.07489" fx="141.42136" fy="172.07489" gradientUnits="userSpaceOnUse" id="radialGradient2624" inkscape:collect="always" r="73.539108" xlink:href="#linearGradient3264"/>
  </defs>
  <sodipodi:namedview bordercolor="#666666" borderopacity="1.0" gridtolerance="10000" guidetolerance="10" id="base" inkscape:current-layer="g2399" inkscape:cx="582.34987" inkscape:cy="508.85733" inkscape:document-units="px" inkscape:pageopacity="0.0" inkscape:pageshadow="2" inkscape:window-height="975" inkscape:window-maximized="0" inkscape:window-width="1680" inkscape:window-x="75" inkscape:window-y="34" inkscape:zoom="0.5" objecttolerance="10" pagecolor="#ffffff" showgrid="false"/>
  <metadata id="metadata2388">
    <rdf:RDF>
      <cc:Work rdf:about="">
        <dc:format>image/svg+xml</dc:format>
        <dc:type rdf:resource="http://purl.org/dc/dcmitype/StillImage"/>
      </cc:Work>
    </rdf:RDF>
  </metadata>
  <g id="layer1" inkscape:groupmode="layer" inkscape:label="Layer 1" transform="translate(1.9328e-3,0)">
    <rect height="1080.0051" id="rect3160" rx="0" ry="0" style="opacity:0;fill:#e0e7ff;fill-opacity:1;stroke:none;stroke-width:1;stroke-miterlimit:4;stroke-dasharray:none;stroke-opacity:1" width="1926" x="-0.0019328" y="-0.0051269531"/>
    <g id="g2399" transform="translate(239.99807,-6.3155368e-3)">
      <text id="text2395" sodipodi:linespacing="125%" style="font-size:185.20953369px;font-style:normal;font-variant:normal;font-weight:normal;font-stretch:normal;text-align:center;line-height:125%;writing-mode:lr-tb;text-anchor:middle;fill:#324da7;fill-opacity:1;stroke:#ffffff;stroke-width:3.75001788;stroke-linecap:butt;stroke-linejoin:miter;stroke-miterlimit:4;stroke-opacity:1;stroke-dasharray:none;stroke-dashoffset:0;font-family:Bitstream Vera Sans;-inkscape-font-specification:Bitstream Vera Sans" x="722.81982" xml:space="preserve" y="532.01318"><tspan id="tspan2397" sodipodi:role="line" style="font-size:131.25064087px;font-style:normal;font-variant:normal;font-weight:bold;font-stretch:normal;text-align:center;line-height:125%;writing-mode:lr-tb;text-anchor:middle;fill:#324da7;fill-opacity:1;stroke:#ffffff;stroke-width:3.75001788;stroke-miterlimit:4;stroke-opacity:1;stroke-dasharray:none;font-family:Bitstream Vera Sans;-inkscape-font-specification:Bitstream Vera Sans Bold" x="722.81982" y="532.01318">PocketBot</tspan></text>
      <text id="text3161" sodipodi:linespacing="125%" style="font-size:81.3274231px;font-style:normal;font-variant:normal;font-weight:normal;font-stretch:normal;text-align:center;line-height:125%;writing-mode:lr-tb;text-anchor:middle;fill:#6f82c1;fill-opacity:1;stroke:#ffffff;stroke-width:2.81251335;stroke-linecap:butt;stroke-linejoin:miter;stroke-miterlimit:4;stroke-opacity:1;stroke-dasharray:none;stroke-dashoffset:0;font-family:Bitstream Vera Sans;-inkscape-font-specification:Bitstream Vera Sans" x="719.0271" xml:space="preserve" y="647.03632"><tspan id="tspan3163" sodipodi:role="line" style="font-size:81.3274231px;font-style:normal;font-variant:normal;font-weight:bold;font-stretch:normal;text-align:center;line-height:125%;writing-mode:lr-tb;text-anchor:middle;fill:#6f82c1;fill-opacity:1;stroke:#ffffff;stroke-width:2.81251335;stroke-miterlimit:4;stroke-opacity:1;stroke-dasharray:none;font-family:Bitstream Vera Sans;-inkscape-font-specification:Bitstream Vera Sans Bold" x="719.0271" y="647.03632">2001</tspan></text>
    </g>
    <g id="g3274" style="opacity:0.69166667" transform="translate(-36,-34)">
      <path d="m 214.96046,172.07489 c 0,40.61453 -32.92458,73.53911 -73.5391,73.53911 -40.61453,0 -73.539112,-32.92458 -73.539112,-73.53911 0,-40.61453 32.924582,-73.539108 73.539112,-73.539108 40.61452,0 73.5391,32.924578 73.5391,73.539108 z" id="path2490" sodipodi:cx="141.42136" sodipodi:cy="172.07489" sodipodi:rx="73.539108" sodipodi:ry="73.539108" sodipodi:type="arc" style="opacity:0.55;fill:url(#radialGradient3270);fill-opacity:1;stroke:none;stroke-width:1.5;stroke-miterlimit:4;stroke-dasharray:none;stroke-opacity:1" transform="translate(-1.9328e-3,0)"/>
      <path d="m 172.53406,172.07489 c 0,21.86936 -17.72862,39.59798 -39.59798,39.59798 -21.86936,0 -39.59798,-17.72862 -39.59798,-39.59798 0,-21.86936 17.72862,-39.59798 39.59798,-39.59798 21.86936,0 39.59798,17.72862 39.59798,39.59798 z" id="path2492" sodipodi:cx="132.93608" sodipodi:cy="172.07489" sodipodi:rx="39.59798" sodipodi:ry="39.59798" sodipodi:type="arc" style="opacity:0.47916667;fill:#ffffff;fill-opacity:0.76078431;stroke:none;stroke-width:1.5;stroke-miterlimit:4;stroke-dasharray:none;stroke-opacity:1" transform="matrix(0.6857754,0.3834829,-0.4749959,0.8494263,105.11994,-50.171047)"/>
      <path d="m 172.53406,172.07489 c 0,21.86936 -17.72862,39.59798 -39.59798,39.59798 -21.86936,0 -39.59798,-17.72862 -39.59798,-39.59798 0,-21.86936 17.72862,-39.59798 39.59798,-39.59798 21.86936,0 39.59798,17.72862 39.59798,39.59798 z" id="path3272" sodipodi:cx="132.93608" sodipodi:cy="172.07489" sodipodi:rx="39.59798" sodipodi:ry="39.59798" sodipodi:type="arc" style="opacity:1;fill:#ffffff;fill-opacity:0.76078431;stroke:none;stroke-width:1.5;stroke-miterlimit:4;stroke-dasharray:none;stroke-opacity:1" transform="matrix(0.3328355,0.1861203,-0.2305354,0.4122621,104.42157,39.321787)"/>
    </g>
    <g id="g3279" transform="translate(290.57864,-22.074892)">
      <path d="m 214.96046,172.07489 c 0,40.61453 -32.92458,73.53911 -73.5391,73.53911 -40.61453,0 -73.539112,-32.92458 -73.539112,-73.53911 0,-40.61453 32.924582,-73.539108 73.539112,-73.539108 40.61452,0 73.5391,32.924578 73.5391,73.539108 z" id="path3281" sodipodi:cx="141.42136" sodipodi:cy="172.07489" sodipodi:rx="73.539108" sodipodi:ry="73.539108" sodipodi:type="arc" style="opacity:0.55;fill:url(#radialGradient3287);fill-opacity:1;stroke:none;stroke-width:1.5;stroke-miterlimit:4;stroke-dasharray:none;stroke-opacity:1" transform="translate(-1.9328e-3,0)"/>
      <path d="m 172.53406,172.07489 c 0,21.86936 -17.72862,39.59798 -39.59798,39.59798 -21.86936,0 -39.59798,-17.72862 -39.59798,-39.59798 0,-21.86936 17.72862,-39.59798 39.59798,-39.59798 21.86936,0 39.59798,17.72862 39.59798,39.59798 z" id="path3283" sodipodi:cx="132.93608" sodipodi:cy="172.07489" sodipodi:rx="39.59798" sodipodi:ry="39.59798" sodipodi:type="arc" style="opacity:0.47916667;fill:#ffffff;fill-opacity:0.76078431;stroke:none;stroke-width:1.5;stroke-miterlimit:4;stroke-dasharray:none;stroke-opacity:1" transform="matrix(0.6857754,0.3834829,-0.4749959,0.8494263,105.11994,-50.171047)"/>
      <path d="m 172.53406,172.07489 c 0,21.86936 -17.72862,39.59798 -39.59798,39.59798 -21.86936,0 -39.59798,-17.72862 -39.59798,-39.59798 0,-21.86936 17.72862,-39.59798 39.59798,-39.59798 21.86936,0 39.59798,17.72862 39.59798,39.59798 z" id="path3285" sodipodi:cx="132.93608" sodipodi:cy="172.07489" sodipodi:rx="39.59798" sodipodi:ry="39.59798" sodipodi:type="arc" style="opacity:1;fill:#ffffff;fill-opacity:0.76078431;stroke:none;stroke-width:1.5;stroke-miterlimit:4;stroke-dasharray:none;stroke-opacity:1" transform="matrix(0.3328355,0.1861203,-0.2305354,0.4122621,104.42157,39.321787)"/>
    </g>
    <g id="g3289" style="opacity:0.80416667" transform="translate(256.57864,192.92511)">
      <path d="m 214.96046,172.07489 c 0,40.61453 -32.92458,73.53911 -73.5391,73.53911 -40.61453,0 -73.539112,-32.92458 -73.539112,-73.53911 0,-40.61453 32.924582,-73.539108 73.539112,-73.539108 40.61452,0 73.5391,32.924578 73.5391,73.539108 z" id="path3291" sodipodi:cx="141.42136" sodipodi:cy="172.07489" sodipodi:rx="73.539108" sodipodi:ry="73.539108" sodipodi:type="arc" style="opacity:0.55;fill:url(#radialGradient3297);fill-opacity:1;stroke:none;stroke-width:1.5;stroke-miterlimit:4;stroke-dasharray:none;stroke-opacity:1" transform="translate(-1.9328e-3,0)"/>
      <path d="m 172.53406,172.07489 c 0,21.86936 -17.72862,39.59798 -39.59798,39.59798 -21.86936,0 -39.59798,-17.72862 -39.59798,-39.59798 0,-21.86936 17.72862,-39.59798 39.59798,-39.59798 21.86936,0 39.59798,17.72862 39.59798,39.59798 z" id="path3293" sodipodi:cx="132.93608" sodipodi:cy="172.07489" sodipodi:rx="39.59798" sodipodi:ry="39.59798" sodipodi:type="arc" style="opacity:0.47916667;fill:#ffffff;fill-opacity:0.76078431;stroke:none;stroke-width:1.5;stroke-miterlimit:4;stroke-dasharray:none;stroke-opacity:1" transform="matrix(0.6857754,0.3834829,-0.4749959,0.8494263,105.11994,-50.171047)"/>
      <path d="m 172.53406,172.07489 c 0,21.86936 -17.72862,39.59798 -39.59798,39.59798 -21.86936,0 -39.59798,-17.72862 -39.59798,-39.59798 0,-21.86936 17.72862,-39.59798 39.59798,-39.59798 21.86936,0 39.59798,17.72862 39.59798,39.59798 z" id="path3295" sodipodi:cx="132.93608" sodipodi:cy="172.07489" sodipodi:rx="39.59798" sodipodi:ry="39.59798" sodipodi:type="arc" style="opacity:1;fill:#ffffff;fill-opacity:0.76078431;stroke:none;stroke-width:1.5;stroke-miterlimit:4;stroke-dasharray:none;stroke-opacity:1" transform="matrix(0.3328355,0.1861203,-0.2305354,0.4122621,104.42157,39.321787)"/>
    </g>
    <g id="g3299" style="opacity:0.62916667" transform="translate(654.57865,-93.074893)">
      <path d="m 214.96046,172.07489 c 0,40.61453 -32.92458,73.53911 -73.5391,73.53911 -40.61453,0 -73.539112,-32.92458 -73.539112,-73.53911 0,-40.61453 32.924582,-73.539108 73.539112,-73.539108 40.61452,0 73.5391,32.924578 73.5391,73.539108 z" id="path3301" sodipodi:cx="141.42136" sodipodi:cy="172.07489" sodipodi:rx="73.539108" sodipodi:ry="73.539108" sodipodi:type="arc" style="opacity:0.55;fill:url(#radialGradient3307);fill-opacity:1;stroke:none;stroke-width:1.5;stroke-miterlimit:4;stroke-dasharray:none;stroke-opacity:1" transform="translate(-1.9328e-3,0)"/>
      <path d="m 172.53406,172.07489 c 0,21.86936 -17.72862,39.59798 -39.59798,39.59798 -21.86936,0 -39.59798,-17.72862 -39.59798,-39.59798 0,-21.86936 17.72862,-39.59798 39.59798,-39.59798 21.86936,0 39.59798,17.72862 39.59798,39.59798 z" id="path3303" sodipodi:cx="132.93608" sodipodi:cy="172.07489" sodipodi:rx="39.59798" sodipodi:ry="39.59798" sodipodi:type="arc" style="opacity:0.47916667;fill:#ffffff;fill-opacity:0.76078431;stroke:none;stroke-width:1.5;stroke-miterlimit:4;stroke-dasharray:none;stroke-opacity:1" transform="matrix(0.6857754,0.3834829,-0.4749959,0.8494263,105.11994,-50.171047)"/>
      <path d="m 172.53406,172.07489 c 0,21.86936 -17.72862,39.59798 -39.59798,39.59798 -21.86936,0 -39.59798,-17.72862 -39.59798,-39.59798 0,-21.86936 17.72862,-39.59798 39.59798,-39.59798 21.86936,0 39.59798,17.72862 39.59798,39.59798 z" id="path3305" sodipodi:cx="132.93608" sodipodi:cy="172.07489" sodipodi:rx="39.59798" sodipodi:ry="39.59798" sodipodi:type="arc" style="opacity:1;fill:#ffffff;fill-opacity:0.76078431;stroke:none;stroke-width:1.5;stroke-miterlimit:4;stroke-dasharray:none;stroke-opacity:1" transform="matrix(0.3328355,0.1861203,-0.2305354,0.4122621,104.42157,39.321787)"/>
    </g>
    <g id="g3309" style="opacity:0.90416685" transform="translate(1407.5787,13.92511)">
      <path d="m 214.96046,172.07489 c 0,40.61453 -32.92458,73.53911 -73.5391,73.53911 -40.61453,0 -73.539112,-32.92458 -73.539112,-73.53911 0,-40.61453 32.924582,-73.539108 73.539112,-73.539108 40.61452,0 73.5391,32.924578 73.5391,73.539108 z" id="path3311" sodipodi:cx="141.42136" sodipodi:cy="172.07489" sodipodi:rx="73.539108" sodipodi:ry="73.539108" sodipodi:type="arc" style="opacity:0.55;fill:url(#radialGradient3317);fill-opacity:1;stroke:none;stroke-width:1.5;stroke-miterlimit:4;stroke-dasharray:none;stroke-opacity:1" transform="translate(-1.9328e-3,0)"/>
      <path d="m 172.53406,172.07489 c 0,21.86936 -17.72862,39.59798 -39.59798,39.59798 -21.86936,0 -39.59798,-17.72862 -39.59798,-39.59798 0,-21.86936 17.72862,-39.59798 39.59798,-39.59798 21.86936,0 39.59798,17.72862 39.59798,39.59798 z" id="path3313" sodipodi:cx="132.93608" sodipodi:cy="172.07489" sodipodi:rx="39.59798" sodipodi:ry="39.59798" sodipodi:type="arc" style="opacity:0.47916667;fill:#ffffff;fill-opacity:0.76078431;stroke:none;stroke-width:1.5;stroke-miterlimit:4;stroke-dasharray:none;stroke-opacity:1" transform="matrix(0.6857754,0.3834829,-0.4749959,0.8494263,105.11994,-50.171047)"/>
      <path d="m 172.53406,172.07489 c 0,21.86936 -17.72862,39.59798 -39.59798,39.59798 -21.86936,0 -39.59798,-17.72862 -39.59798,-39.59798 0,-21.86936 17.72862,-39.59798 39.59798,-39.59798 21.86936,0 39.59798,17.72862 39.59798,39.59798 z" id="path3315" sodipodi:cx="132.93608" sodipodi:cy="172.07489" sodipodi:rx="39.59798" sodipodi:ry="39.59798" sodipodi:type="arc" style="opacity:1;fill:#ffffff;fill-opacity:0.76078431;stroke:none;stroke-width:1.5;stroke-miterlimit:4;stroke-dasharray:none;stroke-opacity:1" transform="matrix(0.3328355,0.1861203,-0.2305354,0.4122621,104.42157,39.321787)"/>
    </g>
    <g id="g3319" transform="translate(760.57865,119.92511)">
      <path d="m 214.96046,172.07489 c 0,40.61453 -32.92458,73.53911 -73.5391,73.53911 -40.61453,0 -73.539112,-32.92458 -73.539112,-73.53911 0,-40.61453 32.924582,-73.539108 73.539112,-73.539108 40.61452,0 73.5391,32.924578 73.5391,73.539108 z" id="path3321" sodipodi:cx="141.42136" sodipodi:cy="172.07489" sodipodi:rx="73.539108" sodipodi:ry="73.539108" sodipodi:type="arc" style="opacity:0.55;fill:url(#radialGradient3327);fill-opacity:1;stroke:none;stroke-width:1.5;stroke-miterlimit:4;stroke-dasharray:none;stroke-opacity:1" transform="translate(-1.9328e-3,0)"/>
      <path d="m 172.53406,172.07489 c 0,21.86936 -17.72862,39.59798 -39.59798,39.59798 -21.86936,0 -39.59798,-17.72862 -39.59798,-39.59798 0,-21.86936 17.72862,-39.59798 39.59798,-39.59798 21.86936,0 39.59798,17.72862 39.59798,39.59798 z" id="path3323" sodipodi:cx="132.93608" sodipodi:cy="172.07489" sodipodi:rx="39.59798" sodipodi:ry="39.59798" sodipodi:type="arc" style="opacity:0.47916667;fill:#ffffff;fill-opacity:0.76078431;stroke:none;stroke-width:1.5;stroke-miterlimit:4;stroke-dasharray:none;stroke-opacity:1" transform="matrix(0.6857754,0.3834829,-0.4749959,0.8494263,105.11994,-50.171047)"/>
      <path d="m 172.53406,172.07489 c 0,21.86936 -17.72862,39.59798 -39.59798,39.59798 -21.86936,0 -39.59798,-17.72862 -39.59798,-39.59798 0,-21.86936 17.72862,-39.59798 39.59798,-39.59798 21.86936,0 39.59798,17.72862 39.59798,39.59798 z" id="path3325" sodipodi:cx="132.93608" sodipodi:cy="172.07489" sodipodi:rx="39.59798" sodipodi:ry="39.59798" sodipodi:type="arc" style="opacity:1;fill:#ffffff;fill-opacity:0.76078431;stroke:none;stroke-width:1.5;stroke-miterlimit:4;stroke-dasharray:none;stroke-opacity:1" transform="matrix(0.3328355,0.1861203,-0.2305354,0.4122621,104.42157,39.321787)"/>
    </g>
    <g id="g3329" style="opacity:0.90833315" transform="translate(1737.5786,-128.07489)">
      <path d="m 214.96046,172.07489 c 0,40.61453 -32.92458,73.53911 -73.5391,73.53911 -40.61453,0 -73.539112,-32.92458 -73.539112,-73.53911 0,-40.61453 32.924582,-73.539108 73.539112,-73.539108 40.61452,0 73.5391,32.924578 73.5391,73.539108 z" id="path3331" sodipodi:cx="141.42136" sodipodi:cy="172.07489" sodipodi:rx="73.539108" sodipodi:ry="73.539108" sodipodi:type="arc" style="opacity:0.55;fill:url(#radialGradient3337);fill-opacity:1;stroke:none;stroke-width:1.5;stroke-miterlimit:4;stroke-dasharray:none;stroke-opacity:1" transform="translate(-1.9328e-3,0)"/>
      <path d="m 172.53406,172.07489 c 0,21.86936 -17.72862,39.59798 -39.59798,39.59798 -21.86936,0 -39.59798,-17.72862 -39.59798,-39.59798 0,-21.86936 17.72862,-39.59798 39.59798,-39.59798 21.86936,0 39.59798,17.72862 39.59798,39.59798 z" id="path3333" sodipodi:cx="132.93608" sodipodi:cy="172.07489" sodipodi:rx="39.59798" sodipodi:ry="39.59798" sodipodi:type="arc" style="opacity:0.47916667;fill:#ffffff;fill-opacity:0.76078431;stroke:none;stroke-width:1.5;stroke-miterlimit:4;stroke-dasharray:none;stroke-opacity:1" transform="matrix(0.6857754,0.3834829,-0.4749959,0.8494263,105.11994,-50.171047)"/>
      <path d="m 172.53406,172.07489 c 0,21.86936 -17.72862,39.59798 -39.59798,39.59798 -21.86936,0 -39.59798,-17.72862 -39.59798,-39.59798 0,-21.86936 17.72862,-39.59798 39.59798,-39.59798 21.86936,0 39.59798,17.72862 39.59798,39.59798 z" id="path3335" sodipodi:cx="132.93608" sodipodi:cy="172.07489" sodipodi:rx="39.59798" sodipodi:ry="39.59798" sodipodi:type="arc" style="opacity:1;fill:#ffffff;fill-opacity:0.76078431;stroke:none;stroke-width:1.5;stroke-miterlimit:4;stroke-dasharray:none;stroke-opacity:1" transform="matrix(0.3328355,0.1861203,-0.2305354,0.4122621,104.42157,39.321787)"/>
    </g>
    <g id="g3339" style="opacity:0.75" transform="translate(1574.5786,191.92511)">
      <path d="m 214.96046,172.07489 c 0,40.61453 -32.92458,73.53911 -73.5391,73.53911 -40.61453,0 -73.539112,-32.92458 -73.539112,-73.53911 0,-40.61453 32.924582,-73.539108 73.539112,-73.539108 40.61452,0 73.5391,32.924578 73.5391,73.539108 z" id="path3341" sodipodi:cx="141.42136" sodipodi:cy="172.07489" sodipodi:rx="73.539108" sodipodi:ry="73.539108" sodipodi:type="arc" style="opacity:0.55;fill:url(#radialGradient3347);fill-opacity:1;stroke:none;stroke-width:1.5;stroke-miterlimit:4;stroke-dasharray:none;stroke-opacity:1" transform="translate(-1.9328e-3,0)"/>
      <path d="m 172.53406,172.07489 c 0,21.86936 -17.72862,39.59798 -39.59798,39.59798 -21.86936,0 -39.59798,-17.72862 -39.59798,-39.59798 0,-21.86936 17.72862,-39.59798 39.59798,-39.59798 21.86936,0 39.59798,17.72862 39.59798,39.59798 z" id="path3343" sodipodi:cx="132.93608" sodipodi:cy="172.07489" sodipodi:rx="39.59798" sodipodi:ry="39.59798" sodipodi:type="arc" style="opacity:0.47916667;fill:#ffffff;fill-opacity:0.76078431;stroke:none;stroke-width:1.5;stroke-miterlimit:4;stroke-dasharray:none;stroke-opacity:1" transform="matrix(0.6857754,0.3834829,-0.4749959,0.8494263,105.11994,-50.171047)"/>
      <path d="m 172.53406,172.07489 c 0,21.86936 -17.72862,39.59798 -39.59798,39.59798 -21.86936,0 -39.59798,-17.72862 -39.59798,-39.59798 0,-21.86936 17.72862,-39.59798 39.59798,-39.59798 21.86936,0 39.59798,17.72862 39.59798,39.59798 z" id="path3345" sodipodi:cx="132.93608" sodipodi:cy="172.07489" sodipodi:rx="39.59798" sodipodi:ry="39.59798" sodipodi:type="arc" style="opacity:1;fill:#ffffff;fill-opacity:0.76078431;stroke:none;stroke-width:1.5;stroke-miterlimit:4;stroke-dasharray:none;stroke-opacity:1" transform="matrix(0.3328355,0.1861203,-0.2305354,0.4122621,104.42157,39.321787)"/>
    </g>
    <g id="g3349" style="opacity:0.45416667" transform="translate(1599.5786,444.92511)">
      <path d="m 214.96046,172.07489 c 0,40.61453 -32.92458,73.53911 -73.5391,73.53911 -40.61453,0 -73.539112,-32.92458 -73.539112,-73.53911 0,-40.61453 32.924582,-73.539108 73.539112,-73.539108 40.61452,0 73.5391,32.924578 73.5391,73.539108 z" id="path3351" sodipodi:cx="141.42136" sodipodi:cy="172.07489" sodipodi:rx="73.539108" sodipodi:ry="73.539108" sodipodi:type="arc" style="opacity:0.55;fill:url(#radialGradient3357);fill-opacity:1;stroke:none;stroke-width:1.5;stroke-miterlimit:4;stroke-dasharray:none;stroke-opacity:1" transform="translate(-1.9328e-3,0)"/>
      <path d="m 172.53406,172.07489 c 0,21.86936 -17.72862,39.59798 -39.59798,39.59798 -21.86936,0 -39.59798,-17.72862 -39.59798,-39.59798 0,-21.86936 17.72862,-39.59798 39.59798,-39.59798 21.86936,0 39.59798,17.72862 39.59798,39.59798 z" id="path3353" sodipodi:cx="132.93608" sodipodi:cy="172.07489" sodipodi:rx="39.59798" sodipodi:ry="39.59798" sodipodi:type="arc" style="opacity:0.47916667;fill:#ffffff;fill-opacity:0.76078431;stroke:none;stroke-width:1.5;stroke-miterlimit:4;stroke-dasharray:none;stroke-opacity:1" transform="matrix(0.6857754,0.3834829,-0.4749959,0.8494263,105.11994,-50.171047)"/>
      <path d="m 172.53406,172.07489 c 0,21.86936 -17.72862,39.59798 -39.59798,39.59798 -21.86936,0 -39.59798,-17.72862 -39.59798,-39.59798 0,-21.86936 17.72862,-39.59798 39.59798,-39.59798 21.86936,0 39.59798,17.72862 39.59798,39.59798 z" id="path3355" sodipodi:cx="132.93608" sodipodi:cy="172.07489" sodipodi:rx="39.59798" sodipodi:ry="39.59798" sodipodi:type="arc" style="opacity:1;fill:#ffffff;fill-opacity:0.76078431;stroke:none;stroke-width:1.5;stroke-miterlimit:4;stroke-dasharray:none;stroke-opacity:1" transform="matrix(0.3328355,0.1861203,-0.2305354,0.4122621,104.42157,39.321787)"/>
    </g>
    <g id="g3359" style="opacity:0.5125" transform="translate(29.578644,429.92511)">
      <path d="m 214.96046,172.07489 c 0,40.61453 -32.92458,73.53911 -73.5391,73.53911 -40.61453,0 -73.539112,-32.92458 -73.539112,-73.53911 0,-40.61453 32.924582,-73.539108 73.539112,-73.539108 40.61452,0 73.5391,32.924578 73.5391,73.539108 z" id="path3361" sodipodi:cx="141.42136" sodipodi:cy="172.07489" sodipodi:rx="73.539108" sodipodi:ry="73.539108" sodipodi:type="arc" style="opacity:0.55;fill:url(#radialGradient3367);fill-opacity:1;stroke:none;stroke-width:1.5;stroke-miterlimit:4;stroke-dasharray:none;stroke-opacity:1" transform="translate(-1.9328e-3,0)"/>
      <path d="m 172.53406,172.07489 c 0,21.86936 -17.72862,39.59798 -39.59798,39.59798 -21.86936,0 -39.59798,-17.72862 -39.59798,-39.59798 0,-21.86936 17.72862,-39.59798 39.59798,-39.59798 21.86936,0 39.59798,17.72862 39.59798,39.59798 z" id="path3363" sodipodi:cx="132.93608" sodipodi:cy="172.07489" sodipodi:rx="39.59798" sodipodi:ry="39.59798" sodipodi:type="arc" style="opacity:0.47916667;fill:#ffffff;fill-opacity:0.76078431;stroke:none;stroke-width:1.5;stroke-miterlimit:4;stroke-dasharray:none;stroke-opacity:1" transform="matrix(0.6857754,0.3834829,-0.4749959,0.8494263,105.11994,-50.171047)"/>
      <path d="m 172.53406,172.07489 c 0,21.86936 -17.72862,39.59798 -39.59798,39.59798 -21.86936,0 -39.59798,-17.72862 -39.59798,-39.59798 0,-21.86936 17.72862,-39.59798 39.59798,-39.59798 21.86936,0 39.59798,17.72862 39.59798,39.59798 z" id="path3365" sodipodi:cx="132.93608" sodipodi:cy="172.07489" sodipodi:rx="39.59798" sodipodi:ry="39.59798" sodipodi:type="arc" style="opacity:1;fill:#ffffff;fill-opacity:0.76078431;stroke:none;stroke-width:1.5;stroke-miterlimit:4;stroke-dasharray:none;stroke-opacity:1" transform="matrix(0.3328355,0.1861203,-0.2305354,0.4122621,104.42157,39.321787)"/>
    </g>
    <g id="g3369" style="opacity:0.70416667" transform="matrix(0.4424735,0,0,0.4424735,988.42372,66.861416)">
      <path d="m 214.96046,172.07489 c 0,40.61453 -32.92458,73.53911 -73.5391,73.53911 -40.61453,0 -73.539112,-32.92458 -73.539112,-73.53911 0,-40.61453 32.924582,-73.539108 73.539112,-73.539108 40.61452,0 73.5391,32.924578 73.5391,73.539108 z" id="path3371" sodipodi:cx="141.42136" sodipodi:cy="172.07489" sodipodi:rx="73.539108" sodipodi:ry="73.539108" sodipodi:type="arc" style="opacity:0.55;fill:url(#radialGradient3377);fill-opacity:1;stroke:none;stroke-width:1.5;stroke-miterlimit:4;stroke-dasharray:none;stroke-opacity:1" transform="translate(-1.9328e-3,0)"/>
      <path d="m 172.53406,172.07489 c 0,21.86936 -17.72862,39.59798 -39.59798,39.59798 -21.86936,0 -39.59798,-17.72862 -39.59798,-39.59798 0,-21.86936 17.72862,-39.59798 39.59798,-39.59798 21.86936,0 39.59798,17.72862 39.59798,39.59798 z" id="path3373" sodipodi:cx="132.93608" sodipodi:cy="172.07489" sodipodi:rx="39.59798" sodipodi:ry="39.59798" sodipodi:type="arc" style="opacity:0.47916667;fill:#ffffff;fill-opacity:0.76078431;stroke:none;stroke-width:1.5;stroke-miterlimit:4;stroke-dasharray:none;stroke-opacity:1" transform="matrix(0.6857754,0.3834829,-0.4749959,0.8494263,105.11994,-50.171047)"/>
      <path d="m 172.53406,172.07489 c 0,21.86936 -17.72862,39.59798 -39.59798,39.59798 -21.86936,0 -39.59798,-17.72862 -39.59798,-39.59798 0,-21.86936 17.72862,-39.59798 39.59798,-39.59798 21.86936,0 39.59798,17.72862 39.59798,39.59798 z" id="path3375" sodipodi:cx="132.93608" sodipodi:cy="172.07489" sodipodi:rx="39.59798" sodipodi:ry="39.59798" sodipodi:type="arc" style="opacity:1;fill:#ffffff;fill-opacity:0.76078431;stroke:none;stroke-width:1.5;stroke-miterlimit:4;stroke-dasharray:none;stroke-opacity:1" transform="matrix(0.3328355,0.1861203,-0.2305354,0.4122621,104.42157,39.321787)"/>
    </g>
    <g id="g3379" style="opacity:0.76859504" transform="matrix(0.4424735,0,0,0.4424735,1421.4237,285.86142)">
      <path d="m 214.96046,172.07489 c 0,40.61453 -32.92458,73.53911 -73.5391,73.53911 -40.61453,0 -73.539112,-32.92458 -73.539112,-73.53911 0,-40.61453 32.924582,-73.539108 73.539112,-73.539108 40.61452,0 73.5391,32.924578 73.5391,73.539108 z" id="path3381" sodipodi:cx="141.42136" sodipodi:cy="172.07489" sodipodi:rx="73.539108" sodipodi:ry="73.539108" sodipodi:type="arc" style="opacity:0.55000000000000004;fill:url(#radialGradient3387);fill-opacity:1;stroke:none;stroke-width:1.50000000000000000;stroke-miterlimit:4;stroke-dasharray:none;stroke-opacity:1" transform="translate(-1.9328e-3,0)"/>
      <path d="m 172.53406,172.07489 c 0,21.86936 -17.72862,39.59798 -39.59798,39.59798 -21.86936,0 -39.59798,-17.72862 -39.59798,-39.59798 0,-21.86936 17.72862,-39.59798 39.59798,-39.59798 21.86936,0 39.59798,17.72862 39.59798,39.59798 z" id="path3383" sodipodi:cx="132.93608" sodipodi:cy="172.07489" sodipodi:rx="39.59798" sodipodi:ry="39.59798" sodipodi:type="arc" style="opacity:0.47916667000000002;fill:#ffffff;fill-opacity:0.76078431000000002;stroke:none;stroke-width:1.50000000000000000;stroke-miterlimit:4;stroke-dasharray:none;stroke-opacity:1" transform="matrix(0.6857754,0.3834829,-0.4749959,0.8494263,105.11994,-50.171047)"/>
      <path d="m 172.53406,172.07489 c 0,21.86936 -17.72862,39.59798 -39.59798,39.59798 -21.86936,0 -39.59798,-17.72862 -39.59798,-39.59798 0,-21.86936 17.72862,-39.59798 39.59798,-39.59798 21.86936,0 39.59798,17.72862 39.59798,39.59798 z" id="path3385" sodipodi:cx="132.93608" sodipodi:cy="172.07489" sodipodi:rx="39.59798" sodipodi:ry="39.59798" sodipodi:type="arc" style="opacity:1;fill:#ffffff;fill-opacity:0.76078431000000002;stroke:none;stroke-width:1.50000000000000000;stroke-miterlimit:4;stroke-dasharray:none;stroke-opacity:1" transform="matrix(0.3328355,0.1861203,-0.2305354,0.4122621,104.42157,39.321787)"/>
    </g>
    <g id="g3389" style="opacity:0.6625" transform="matrix(0.4424735,0,0,0.4424735,565.42372,253.86142)">
      <path d="m 214.96046,172.07489 c 0,40.61453 -32.92458,73.53911 -73.5391,73.53911 -40.61453,0 -73.539112,-32.92458 -73.539112,-73.53911 0,-40.61453 32.924582,-73.539108 73.539112,-73.539108 40.61452,0 73.5391,32.924578 73.5391,73.539108 z" id="path3391" sodipodi:cx="141.42136" sodipodi:cy="172.07489" sodipodi:rx="73.539108" sodipodi:ry="73.539108" sodipodi:type="arc" style="opacity:0.55;fill:url(#radialGradient3397);fill-opacity:1;stroke:none;stroke-width:1.5;stroke-miterlimit:4;stroke-dasharray:none;stroke-opacity:1" transform="translate(-1.9328e-3,0)"/>
      <path d="m 172.53406,172.07489 c 0,21.86936 -17.72862,39.59798 -39.59798,39.59798 -21.86936,0 -39.59798,-17.72862 -39.59798,-39.59798 0,-21.86936 17.72862,-39.59798 39.59798,-39.59798 21.86936,0 39.59798,17.72862 39.59798,39.59798 z" id="path3393" sodipodi:cx="132.93608" sodipodi:cy="172.07489" sodipodi:rx="39.59798" sodipodi:ry="39.59798" sodipodi:type="arc" style="opacity:0.47916667;fill:#ffffff;fill-opacity:0.76078431;stroke:none;stroke-width:1.5;stroke-miterlimit:4;stroke-dasharray:none;stroke-opacity:1" transform="matrix(0.6857754,0.3834829,-0.4749959,0.8494263,105.11994,-50.171047)"/>
      <path d="m 172.53406,172.07489 c 0,21.86936 -17.72862,39.59798 -39.59798,39.59798 -21.86936,0 -39.59798,-17.72862 -39.59798,-39.59798 0,-21.86936 17.72862,-39.59798 39.59798,-39.59798 21.86936,0 39.59798,17.72862 39.59798,39.59798 z" id="path3395" sodipodi:cx="132.93608" sodipodi:cy="172.07489" sodipodi:rx="39.59798" sodipodi:ry="39.59798" sodipodi:type="arc" style="opacity:1;fill:#ffffff;fill-opacity:0.76078431;stroke:none;stroke-width:1.5;stroke-miterlimit:4;stroke-dasharray:none;stroke-opacity:1" transform="matrix(0.3328355,0.1861203,-0.2305354,0.4122621,104.42157,39.321787)"/>
    </g>
    <g id="g3399" transform="matrix(0.4424735,0,0,0.4424735,213.42372,-6.1385809)">
      <path d="m 214.96046,172.07489 c 0,40.61453 -32.92458,73.53911 -73.5391,73.53911 -40.61453,0 -73.539112,-32.92458 -73.539112,-73.53911 0,-40.61453 32.924582,-73.539108 73.539112,-73.539108 40.61452,0 73.5391,32.924578 73.5391,73.539108 z" id="path3401" sodipodi:cx="141.42136" sodipodi:cy="172.07489" sodipodi:rx="73.539108" sodipodi:ry="73.539108" sodipodi:type="arc" style="opacity:0.55;fill:url(#radialGradient3407);fill-opacity:1;stroke:none;stroke-width:1.5;stroke-miterlimit:4;stroke-dasharray:none;stroke-opacity:1" transform="translate(-1.9328e-3,0)"/>
      <path d="m 172.53406,172.07489 c 0,21.86936 -17.72862,39.59798 -39.59798,39.59798 -21.86936,0 -39.59798,-17.72862 -39.59798,-39.59798 0,-21.86936 17.72862,-39.59798 39.59798,-39.59798 21.86936,0 39.59798,17.72862 39.59798,39.59798 z" id="path3403" sodipodi:cx="132.93608" sodipodi:cy="172.07489" sodipodi:rx="39.59798" sodipodi:ry="39.59798" sodipodi:type="arc" style="opacity:0.47916667;fill:#ffffff;fill-opacity:0.76078431;stroke:none;stroke-width:1.5;stroke-miterlimit:4;stroke-dasharray:none;stroke-opacity:1" transform="matrix(0.6857754,0.3834829,-0.4749959,0.8494263,105.11994,-50.171047)"/>
      <path d="m 172.53406,172.07489 c 0,21.86936 -17.72862,39.59798 -39.59798,39.59798 -21.86936,0 -39.59798,-17.72862 -39.59798,-39.59798 0,-21.86936 17.72862,-39.59798 39.59798,-39.59798 21.86936,0 39.59798,17.72862 39.59798,39.59798 z" id="path3405" sodipodi:cx="132.93608" sodipodi:cy="172.07489" sodipodi:rx="39.59798" sodipodi:ry="39.59798" sodipodi:type="arc" style="opacity:1;fill:#ffffff;fill-opacity:0.76078431;stroke:none;stroke-width:1.5;stroke-miterlimit:4;stroke-dasharray:none;stroke-opacity:1" transform="matrix(0.3328355,0.1861203,-0.2305354,0.4122621,104.42157,39.321787)"/>
    </g>
    <g id="g3409" transform="matrix(0.4424735,0,0,0.4424735,29.42372,297.86142)">
      <path d="m 214.96046,172.07489 c 0,40.61453 -32.92458,73.53911 -73.5391,73.53911 -40.61453,0 -73.539112,-32.92458 -73.539112,-73.53911 0,-40.61453 32.924582,-73.539108 73.539112,-73.539108 40.61452,0 73.5391,32.924578 73.5391,73.539108 z" id="path3411" sodipodi:cx="141.42136" sodipodi:cy="172.07489" sodipodi:rx="73.539108" sodipodi:ry="73.539108" sodipodi:type="arc" style="opacity:0.55;fill:url(#radialGradient3417);fill-opacity:1;stroke:none;stroke-width:1.5;stroke-miterlimit:4;stroke-dasharray:none;stroke-opacity:1" transform="translate(-1.9328e-3,0)"/>
      <path d="m 172.53406,172.07489 c 0,21.86936 -17.72862,39.59798 -39.59798,39.59798 -21.86936,0 -39.59798,-17.72862 -39.59798,-39.59798 0,-21.86936 17.72862,-39.59798 39.59798,-39.59798 21.86936,0 39.59798,17.72862 39.59798,39.59798 z" id="path3413" sodipodi:cx="132.93608" sodipodi:cy="172.07489" sodipodi:rx="39.59798" sodipodi:ry="39.59798" sodipodi:type="arc" style="opacity:0.47916667;fill:#ffffff;fill-opacity:0.76078431;stroke:none;stroke-width:1.5;stroke-miterlimit:4;stroke-dasharray:none;stroke-opacity:1" transform="matrix(0.6857754,0.3834829,-0.4749959,0.8494263,105.11994,-50.171047)"/>
      <path d="m 172.53406,172.07489 c 0,21.86936 -17.72862,39.59798 -39.59798,39.59798 -21.86936,0 -39.59798,-17.72862 -39.59798,-39.59798 0,-21.86936 17.72862,-39.59798 39.59798,-39.59798 21.86936,0 39.59798,17.72862 39.59798,39.59798 z" id="path3415" sodipodi:cx="132.93608" sodipodi:cy="172.07489" sodipodi:rx="39.59798" sodipodi:ry="39.59798" sodipodi:type="arc" style="opacity:1;fill:#ffffff;fill-opacity:0.76078431;stroke:none;stroke-width:1.5;stroke-miterlimit:4;stroke-dasharray:none;stroke-opacity:1" transform="matrix(0.3328355,0.1861203,-0.2305354,0.4122621,104.42157,39.321787)"/>
    </g>
    <g id="g3419" transform="matrix(0.4424735,0,0,0.4424735,337.42372,463.86142)">
      <path d="m 214.96046,172.07489 c 0,40.61453 -32.92458,73.53911 -73.5391,73.53911 -40.61453,0 -73.539112,-32.92458 -73.539112,-73.53911 0,-40.61453 32.924582,-73.539108 73.539112,-73.539108 40.61452,0 73.5391,32.924578 73.5391,73.539108 z" id="path3421" sodipodi:cx="141.42136" sodipodi:cy="172.07489" sodipodi:rx="73.539108" sodipodi:ry="73.539108" sodipodi:type="arc" style="opacity:0.55;fill:url(#radialGradient3427);fill-opacity:1;stroke:none;stroke-width:1.5;stroke-miterlimit:4;stroke-dasharray:none;stroke-opacity:1" transform="translate(-1.9328e-3,0)"/>
      <path d="m 172.53406,172.07489 c 0,21.86936 -17.72862,39.59798 -39.59798,39.59798 -21.86936,0 -39.59798,-17.72862 -39.59798,-39.59798 0,-21.86936 17.72862,-39.59798 39.59798,-39.59798 21.86936,0 39.59798,17.72862 39.59798,39.59798 z" id="path3423" sodipodi:cx="132.93608" sodipodi:cy="172.07489" sodipodi:rx="39.59798" sodipodi:ry="39.59798" sodipodi:type="arc" style="opacity:0.47916667;fill:#ffffff;fill-opacity:0.76078431;stroke:none;stroke-width:1.5;stroke-miterlimit:4;stroke-dasharray:none;stroke-opacity:1" transform="matrix(0.6857754,0.3834829,-0.4749959,0.8494263,105.11994,-50.171047)"/>
      <path d="m 172.53406,172.07489 c 0,21.86936 -17.72862,39.59798 -39.59798,39.59798 -21.86936,0 -39.59798,-17.72862 -39.59798,-39.59798 0,-21.86936 17.72862,-39.59798 39.59798,-39.59798 21.86936,0 39.59798,17.72862 39.59798,39.59798 z" id="path3425" sodipodi:cx="132.93608" sodipodi:cy="172.07489" sodipodi:rx="39.59798" sodipodi:ry="39.59798" sodipodi:type="arc" style="opacity:1;fill:#ffffff;fill-opacity:0.76078431;stroke:none;stroke-width:1.5;stroke-miterlimit:4;stroke-dasharray:none;stroke-opacity:1" transform="matrix(0.3328355,0.1861203,-0.2305354,0.4122621,104.42157,39.321787)"/>
    </g>
    <g id="g3429" transform="matrix(0.1977058,0,0,0.1977058,4.0386301,5.979798)">
      <path d="m 214.96046,172.07489 c 0,40.61453 -32.92458,73.53911 -73.5391,73.53911 -40.61453,0 -73.539112,-32.92458 -73.539112,-73.53911 0,-40.61453 32.924582,-73.539108 73.539112,-73.539108 40.61452,0 73.5391,32.924578 73.5391,73.539108 z" id="path3431" sodipodi:cx="141.42136" sodipodi:cy="172.07489" sodipodi:rx="73.539108" sodipodi:ry="73.539108" sodipodi:type="arc" style="opacity:0.55;fill:url(#radialGradient3437);fill-opacity:1;stroke:none;stroke-width:1.5;stroke-miterlimit:4;stroke-dasharray:none;stroke-opacity:1" transform="translate(-1.9328e-3,0)"/>
      <path d="m 172.53406,172.07489 c 0,21.86936 -17.72862,39.59798 -39.59798,39.59798 -21.86936,0 -39.59798,-17.72862 -39.59798,-39.59798 0,-21.86936 17.72862,-39.59798 39.59798,-39.59798 21.86936,0 39.59798,17.72862 39.59798,39.59798 z" id="path3433" sodipodi:cx="132.93608" sodipodi:cy="172.07489" sodipodi:rx="39.59798" sodipodi:ry="39.59798" sodipodi:type="arc" style="opacity:0.47916667;fill:#ffffff;fill-opacity:0.76078431;stroke:none;stroke-width:1.5;stroke-miterlimit:4;stroke-dasharray:none;stroke-opacity:1" transform="matrix(0.6857754,0.3834829,-0.4749959,0.8494263,105.11994,-50.171047)"/>
      <path d="m 172.53406,172.07489 c 0,21.86936 -17.72862,39.59798 -39.59798,39.59798 -21.86936,0 -39.59798,-17.72862 -39.59798,-39.59798 0,-21.86936 17.72862,-39.59798 39.59798,-39.59798 21.86936,0 39.59798,17.72862 39.59798,39.59798 z" id="path3435" sodipodi:cx="132.93608" sodipodi:cy="172.07489" sodipodi:rx="39.59798" sodipodi:ry="39.59798" sodipodi:type="arc" style="opacity:1;fill:#ffffff;fill-opacity:0.76078431;stroke:none;stroke-width:1.5;stroke-miterlimit:4;stroke-dasharray:none;stroke-opacity:1" transform="matrix(0.3328355,0.1861203,-0.2305354,0.4122621,104.42157,39.321787)"/>
    </g>
    <g id="g3439" style="opacity:0.7125" transform="matrix(0.1977058,0,0,0.1977058,128.03863,-2.0205846e-2)">
      <path d="m 214.96046,172.07489 c 0,40.61453 -32.92458,73.53911 -73.5391,73.53911 -40.61453,0 -73.539112,-32.92458 -73.539112,-73.53911 0,-40.61453 32.924582,-73.539108 73.539112,-73.539108 40.61452,0 73.5391,32.924578 73.5391,73.539108 z" id="path3441" sodipodi:cx="141.42136" sodipodi:cy="172.07489" sodipodi:rx="73.539108" sodipodi:ry="73.539108" sodipodi:type="arc" style="opacity:0.55;fill:url(#radialGradient3447);fill-opacity:1;stroke:none;stroke-width:1.5;stroke-miterlimit:4;stroke-dasharray:none;stroke-opacity:1" transform="translate(-1.9328e-3,0)"/>
      <path d="m 172.53406,172.07489 c 0,21.86936 -17.72862,39.59798 -39.59798,39.59798 -21.86936,0 -39.59798,-17.72862 -39.59798,-39.59798 0,-21.86936 17.72862,-39.59798 39.59798,-39.59798 21.86936,0 39.59798,17.72862 39.59798,39.59798 z" id="path3443" sodipodi:cx="132.93608" sodipodi:cy="172.07489" sodipodi:rx="39.59798" sodipodi:ry="39.59798" sodipodi:type="arc" style="opacity:0.47916667;fill:#ffffff;fill-opacity:0.76078431;stroke:none;stroke-width:1.5;stroke-miterlimit:4;stroke-dasharray:none;stroke-opacity:1" transform="matrix(0.6857754,0.3834829,-0.4749959,0.8494263,105.11994,-50.171047)"/>
      <path d="m 172.53406,172.07489 c 0,21.86936 -17.72862,39.59798 -39.59798,39.59798 -21.86936,0 -39.59798,-17.72862 -39.59798,-39.59798 0,-21.86936 17.72862,-39.59798 39.59798,-39.59798 21.86936,0 39.59798,17.72862 39.59798,39.59798 z" id="path3445" sodipodi:cx="132.93608" sodipodi:cy="172.07489" sodipodi:rx="39.59798" sodipodi:ry="39.59798" sodipodi:type="arc" style="opacity:1;fill:#ffffff;fill-opacity:0.76078431;stroke:none;stroke-width:1.5;stroke-miterlimit:4;stroke-dasharray:none;stroke-opacity:1" transform="matrix(0.3328355,0.1861203,-0.2305354,0.4122621,104.42157,39.321787)"/>
    </g>
    <g id="g3449" transform="matrix(0.1977058,0,0,0.1977058,6.038627,211.97979)">
      <path d="m 214.96046,172.07489 c 0,40.61453 -32.92458,73.53911 -73.5391,73.53911 -40.61453,0 -73.539112,-32.92458 -73.539112,-73.53911 0,-40.61453 32.924582,-73.539108 73.539112,-73.539108 40.61452,0 73.5391,32.924578 73.5391,73.539108 z" id="path3451" sodipodi:cx="141.42136" sodipodi:cy="172.07489" sodipodi:rx="73.539108" sodipodi:ry="73.539108" sodipodi:type="arc" style="opacity:0.55;fill:url(#radialGradient3457);fill-opacity:1;stroke:none;stroke-width:1.5;stroke-miterlimit:4;stroke-dasharray:none;stroke-opacity:1" transform="translate(-1.9328e-3,0)"/>
      <path d="m 172.53406,172.07489 c 0,21.86936 -17.72862,39.59798 -39.59798,39.59798 -21.86936,0 -39.59798,-17.72862 -39.59798,-39.59798 0,-21.86936 17.72862,-39.59798 39.59798,-39.59798 21.86936,0 39.59798,17.72862 39.59798,39.59798 z" id="path3453" sodipodi:cx="132.93608" sodipodi:cy="172.07489" sodipodi:rx="39.59798" sodipodi:ry="39.59798" sodipodi:type="arc" style="opacity:0.47916667;fill:#ffffff;fill-opacity:0.76078431;stroke:none;stroke-width:1.5;stroke-miterlimit:4;stroke-dasharray:none;stroke-opacity:1" transform="matrix(0.6857754,0.3834829,-0.4749959,0.8494263,105.11994,-50.171047)"/>
      <path d="m 172.53406,172.07489 c 0,21.86936 -17.72862,39.59798 -39.59798,39.59798 -21.86936,0 -39.59798,-17.72862 -39.59798,-39.59798 0,-21.86936 17.72862,-39.59798 39.59798,-39.59798 21.86936,0 39.59798,17.72862 39.59798,39.59798 z" id="path3455" sodipodi:cx="132.93608" sodipodi:cy="172.07489" sodipodi:rx="39.59798" sodipodi:ry="39.59798" sodipodi:type="arc" style="opacity:1;fill:#ffffff;fill-opacity:0.76078431;stroke:none;stroke-width:1.5;stroke-miterlimit:4;stroke-dasharray:none;stroke-opacity:1" transform="matrix(0.3328355,0.1861203,-0.2305354,0.4122621,104.42157,39.321787)"/>
    </g>
    <g id="g3459" transform="matrix(0.1977058,0,0,0.1977058,266.03863,161.97979)">
      <path d="m 214.96046,172.07489 c 0,40.61453 -32.92458,73.53911 -73.5391,73.53911 -40.61453,0 -73.539112,-32.92458 -73.539112,-73.53911 0,-40.61453 32.924582,-73.539108 73.539112,-73.539108 40.61452,0 73.5391,32.924578 73.5391,73.539108 z" id="path3461" sodipodi:cx="141.42136" sodipodi:cy="172.07489" sodipodi:rx="73.539108" sodipodi:ry="73.539108" sodipodi:type="arc" style="opacity:0.55;fill:url(#radialGradient3467);fill-opacity:1;stroke:none;stroke-width:1.5;stroke-miterlimit:4;stroke-dasharray:none;stroke-opacity:1" transform="translate(-1.9328e-3,0)"/>
      <path d="m 172.53406,172.07489 c 0,21.86936 -17.72862,39.59798 -39.59798,39.59798 -21.86936,0 -39.59798,-17.72862 -39.59798,-39.59798 0,-21.86936 17.72862,-39.59798 39.59798,-39.59798 21.86936,0 39.59798,17.72862 39.59798,39.59798 z" id="path3463" sodipodi:cx="132.93608" sodipodi:cy="172.07489" sodipodi:rx="39.59798" sodipodi:ry="39.59798" sodipodi:type="arc" style="opacity:0.47916667;fill:#ffffff;fill-opacity:0.76078431;stroke:none;stroke-width:1.5;stroke-miterlimit:4;stroke-dasharray:none;stroke-opacity:1" transform="matrix(0.6857754,0.3834829,-0.4749959,0.8494263,105.11994,-50.171047)"/>
      <path d="m 172.53406,172.07489 c 0,21.86936 -17.72862,39.59798 -39.59798,39.59798 -21.86936,0 -39.59798,-17.72862 -39.59798,-39.59798 0,-21.86936 17.72862,-39.59798 39.59798,-39.59798 21.86936,0 39.59798,17.72862 39.59798,39.59798 z" id="path3465" sodipodi:cx="132.93608" sodipodi:cy="172.07489" sodipodi:rx="39.59798" sodipodi:ry="39.59798" sodipodi:type="arc" style="opacity:1;fill:#ffffff;fill-opacity:0.76078431;stroke:none;stroke-width:1.5;stroke-miterlimit:4;stroke-dasharray:none;stroke-opacity:1" transform="matrix(0.3328355,0.1861203,-0.2305354,0.4122621,104.42157,39.321787)"/>
    </g>
    <g id="g3469" transform="matrix(0.1977058,0,0,0.1977058,170.03863,319.97979)">
      <path d="m 214.96046,172.07489 c 0,40.61453 -32.92458,73.53911 -73.5391,73.53911 -40.61453,0 -73.539112,-32.92458 -73.539112,-73.53911 0,-40.61453 32.924582,-73.539108 73.539112,-73.539108 40.61452,0 73.5391,32.924578 73.5391,73.539108 z" id="path3471" sodipodi:cx="141.42136" sodipodi:cy="172.07489" sodipodi:rx="73.539108" sodipodi:ry="73.539108" sodipodi:type="arc" style="opacity:0.55;fill:url(#radialGradient3477);fill-opacity:1;stroke:none;stroke-width:1.5;stroke-miterlimit:4;stroke-dasharray:none;stroke-opacity:1" transform="translate(-1.9328e-3,0)"/>
      <path d="m 172.53406,172.07489 c 0,21.86936 -17.72862,39.59798 -39.59798,39.59798 -21.86936,0 -39.59798,-17.72862 -39.59798,-39.59798 0,-21.86936 17.72862,-39.59798 39.59798,-39.59798 21.86936,0 39.59798,17.72862 39.59798,39.59798 z" id="path3473" sodipodi:cx="132.93608" sodipodi:cy="172.07489" sodipodi:rx="39.59798" sodipodi:ry="39.59798" sodipodi:type="arc" style="opacity:0.47916667;fill:#ffffff;fill-opacity:0.76078431;stroke:none;stroke-width:1.5;stroke-miterlimit:4;stroke-dasharray:none;stroke-opacity:1" transform="matrix(0.6857754,0.3834829,-0.4749959,0.8494263,105.11994,-50.171047)"/>
      <path d="m 172.53406,172.07489 c 0,21.86936 -17.72862,39.59798 -39.59798,39.59798 -21.86936,0 -39.59798,-17.72862 -39.59798,-39.59798 0,-21.86936 17.72862,-39.59798 39.59798,-39.59798 21.86936,0 39.59798,17.72862 39.59798,39.59798 z" id="path3475" sodipodi:cx="132.93608" sodipodi:cy="172.07489" sodipodi:rx="39.59798" sodipodi:ry="39.59798" sodipodi:type="arc" style="opacity:1;fill:#ffffff;fill-opacity:0.76078431;stroke:none;stroke-width:1.5;stroke-miterlimit:4;stroke-dasharray:none;stroke-opacity:1" transform="matrix(0.3328355,0.1861203,-0.2305354,0.4122621,104.42157,39.321787)"/>
    </g>
    <g id="g3479" transform="matrix(0.1977058,0,0,0.1977058,632.03863,1.9797942)">
      <path d="m 214.96046,172.07489 c 0,40.61453 -32.92458,73.53911 -73.5391,73.53911 -40.61453,0 -73.539112,-32.92458 -73.539112,-73.53911 0,-40.61453 32.924582,-73.539108 73.539112,-73.539108 40.61452,0 73.5391,32.924578 73.5391,73.539108 z" id="path3481" sodipodi:cx="141.42136" sodipodi:cy="172.07489" sodipodi:rx="73.539108" sodipodi:ry="73.539108" sodipodi:type="arc" style="opacity:0.55;fill:url(#radialGradient3487);fill-opacity:1;stroke:none;stroke-width:1.5;stroke-miterlimit:4;stroke-dasharray:none;stroke-opacity:1" transform="translate(-1.9328e-3,0)"/>
      <path d="m 172.53406,172.07489 c 0,21.86936 -17.72862,39.59798 -39.59798,39.59798 -21.86936,0 -39.59798,-17.72862 -39.59798,-39.59798 0,-21.86936 17.72862,-39.59798 39.59798,-39.59798 21.86936,0 39.59798,17.72862 39.59798,39.59798 z" id="path3483" sodipodi:cx="132.93608" sodipodi:cy="172.07489" sodipodi:rx="39.59798" sodipodi:ry="39.59798" sodipodi:type="arc" style="opacity:0.47916667;fill:#ffffff;fill-opacity:0.76078431;stroke:none;stroke-width:1.5;stroke-miterlimit:4;stroke-dasharray:none;stroke-opacity:1" transform="matrix(0.6857754,0.3834829,-0.4749959,0.8494263,105.11994,-50.171047)"/>
      <path d="m 172.53406,172.07489 c 0,21.86936 -17.72862,39.59798 -39.59798,39.59798 -21.86936,0 -39.59798,-17.72862 -39.59798,-39.59798 0,-21.86936 17.72862,-39.59798 39.59798,-39.59798 21.86936,0 39.59798,17.72862 39.59798,39.59798 z" id="path3485" sodipodi:cx="132.93608" sodipodi:cy="172.07489" sodipodi:rx="39.59798" sodipodi:ry="39.59798" sodipodi:type="arc" style="opacity:1;fill:#ffffff;fill-opacity:0.76078431;stroke:none;stroke-width:1.5;stroke-miterlimit:4;stroke-dasharray:none;stroke-opacity:1" transform="matrix(0.3328355,0.1861203,-0.2305354,0.4122621,104.42157,39.321787)"/>
    </g>
    <g id="g3489" transform="matrix(0.1977058,0,0,0.1977058,522.03863,11.979794)">
      <path d="m 214.96046,172.07489 c 0,40.61453 -32.92458,73.53911 -73.5391,73.53911 -40.61453,0 -73.539112,-32.92458 -73.539112,-73.53911 0,-40.61453 32.924582,-73.539108 73.539112,-73.539108 40.61452,0 73.5391,32.924578 73.5391,73.539108 z" id="path3491" sodipodi:cx="141.42136" sodipodi:cy="172.07489" sodipodi:rx="73.539108" sodipodi:ry="73.539108" sodipodi:type="arc" style="opacity:0.55;fill:url(#radialGradient3497);fill-opacity:1;stroke:none;stroke-width:1.5;stroke-miterlimit:4;stroke-dasharray:none;stroke-opacity:1" transform="translate(-1.9328e-3,0)"/>
      <path d="m 172.53406,172.07489 c 0,21.86936 -17.72862,39.59798 -39.59798,39.59798 -21.86936,0 -39.59798,-17.72862 -39.59798,-39.59798 0,-21.86936 17.72862,-39.59798 39.59798,-39.59798 21.86936,0 39.59798,17.72862 39.59798,39.59798 z" id="path3493" sodipodi:cx="132.93608" sodipodi:cy="172.07489" sodipodi:rx="39.59798" sodipodi:ry="39.59798" sodipodi:type="arc" style="opacity:0.47916667;fill:#ffffff;fill-opacity:0.76078431;stroke:none;stroke-width:1.5;stroke-miterlimit:4;stroke-dasharray:none;stroke-opacity:1" transform="matrix(0.6857754,0.3834829,-0.4749959,0.8494263,105.11994,-50.171047)"/>
      <path d="m 172.53406,172.07489 c 0,21.86936 -17.72862,39.59798 -39.59798,39.59798 -21.86936,0 -39.59798,-17.72862 -39.59798,-39.59798 0,-21.86936 17.72862,-39.59798 39.59798,-39.59798 21.86936,0 39.59798,17.72862 39.59798,39.59798 z" id="path3495" sodipodi:cx="132.93608" sodipodi:cy="172.07489" sodipodi:rx="39.59798" sodipodi:ry="39.59798" sodipodi:type="arc" style="opacity:1;fill:#ffffff;fill-opacity:0.76078431;stroke:none;stroke-width:1.5;stroke-miterlimit:4;stroke-dasharray:none;stroke-opacity:1" transform="matrix(0.3328355,0.1861203,-0.2305354,0.4122621,104.42157,39.321787)"/>
    </g>
    <g id="g3499" style="opacity:0.6875" transform="matrix(0.1977058,0,0,0.1977058,566.03863,95.979794)">
      <path d="m 214.96046,172.07489 c 0,40.61453 -32.92458,73.53911 -73.5391,73.53911 -40.61453,0 -73.539112,-32.92458 -73.539112,-73.53911 0,-40.61453 32.924582,-73.539108 73.539112,-73.539108 40.61452,0 73.5391,32.924578 73.5391,73.539108 z" id="path3501" sodipodi:cx="141.42136" sodipodi:cy="172.07489" sodipodi:rx="73.539108" sodipodi:ry="73.539108" sodipodi:type="arc" style="opacity:0.55;fill:url(#radialGradient3507);fill-opacity:1;stroke:none;stroke-width:1.5;stroke-miterlimit:4;stroke-dasharray:none;stroke-opacity:1" transform="translate(-1.9328e-3,0)"/>
      <path d="m 172.53406,172.07489 c 0,21.86936 -17.72862,39.59798 -39.59798,39.59798 -21.86936,0 -39.59798,-17.72862 -39.59798,-39.59798 0,-21.86936 17.72862,-39.59798 39.59798,-39.59798 21.86936,0 39.59798,17.72862 39.59798,39.59798 z" id="path3503" sodipodi:cx="132.93608" sodipodi:cy="172.07489" sodipodi:rx="39.59798" sodipodi:ry="39.59798" sodipodi:type="arc" style="opacity:0.47916667;fill:#ffffff;fill-opacity:0.76078431;stroke:none;stroke-width:1.5;stroke-miterlimit:4;stroke-dasharray:none;stroke-opacity:1" transform="matrix(0.6857754,0.3834829,-0.4749959,0.8494263,105.11994,-50.171047)"/>
      <path d="m 172.53406,172.07489 c 0,21.86936 -17.72862,39.59798 -39.59798,39.59798 -21.86936,0 -39.59798,-17.72862 -39.59798,-39.59798 0,-21.86936 17.72862,-39.59798 39.59798,-39.59798 21.86936,0 39.59798,17.72862 39.59798,39.59798 z" id="path3505" sodipodi:cx="132.93608" sodipodi:cy="172.07489" sodipodi:rx="39.59798" sodipodi:ry="39.59798" sodipodi:type="arc" style="opacity:1;fill:#ffffff;fill-opacity:0.76078431;stroke:none;stroke-width:1.5;stroke-miterlimit:4;stroke-dasharray:none;stroke-opacity:1" transform="matrix(0.3328355,0.1861203,-0.2305354,0.4122621,104.42157,39.321787)"/>
    </g>
    <g id="g3509" style="opacity:0.6875" transform="matrix(0.1977058,0,0,0.1977058,714.03863,213.97979)">
      <path d="m 214.96046,172.07489 c 0,40.61453 -32.92458,73.53911 -73.5391,73.53911 -40.61453,0 -73.539112,-32.92458 -73.539112,-73.53911 0,-40.61453 32.924582,-73.539108 73.539112,-73.539108 40.61452,0 73.5391,32.924578 73.5391,73.539108 z" id="path3511" sodipodi:cx="141.42136" sodipodi:cy="172.07489" sodipodi:rx="73.539108" sodipodi:ry="73.539108" sodipodi:type="arc" style="opacity:0.55;fill:url(#radialGradient3517);fill-opacity:1;stroke:none;stroke-width:1.5;stroke-miterlimit:4;stroke-dasharray:none;stroke-opacity:1" transform="translate(-1.9328e-3,0)"/>
      <path d="m 172.53406,172.07489 c 0,21.86936 -17.72862,39.59798 -39.59798,39.59798 -21.86936,0 -39.59798,-17.72862 -39.59798,-39.59798 0,-21.86936 17.72862,-39.59798 39.59798,-39.59798 21.86936,0 39.59798,17.72862 39.59798,39.59798 z" id="path3513" sodipodi:cx="132.93608" sodipodi:cy="172.07489" sodipodi:rx="39.59798" sodipodi:ry="39.59798" sodipodi:type="arc" style="opacity:0.47916667;fill:#ffffff;fill-opacity:0.76078431;stroke:none;stroke-width:1.5;stroke-miterlimit:4;stroke-dasharray:none;stroke-opacity:1" transform="matrix(0.6857754,0.3834829,-0.4749959,0.8494263,105.11994,-50.171047)"/>
      <path d="m 172.53406,172.07489 c 0,21.86936 -17.72862,39.59798 -39.59798,39.59798 -21.86936,0 -39.59798,-17.72862 -39.59798,-39.59798 0,-21.86936 17.72862,-39.59798 39.59798,-39.59798 21.86936,0 39.59798,17.72862 39.59798,39.59798 z" id="path3515" sodipodi:cx="132.93608" sodipodi:cy="172.07489" sodipodi:rx="39.59798" sodipodi:ry="39.59798" sodipodi:type="arc" style="opacity:1;fill:#ffffff;fill-opacity:0.76078431;stroke:none;stroke-width:1.5;stroke-miterlimit:4;stroke-dasharray:none;stroke-opacity:1" transform="matrix(0.3328355,0.1861203,-0.2305354,0.4122621,104.42157,39.321787)"/>
    </g>
    <g id="g3519" transform="matrix(0.1977058,0,0,0.1977058,490.03863,187.97979)">
      <path d="m 214.96046,172.07489 c 0,40.61453 -32.92458,73.53911 -73.5391,73.53911 -40.61453,0 -73.539112,-32.92458 -73.539112,-73.53911 0,-40.61453 32.924582,-73.539108 73.539112,-73.539108 40.61452,0 73.5391,32.924578 73.5391,73.539108 z" id="path3521" sodipodi:cx="141.42136" sodipodi:cy="172.07489" sodipodi:rx="73.539108" sodipodi:ry="73.539108" sodipodi:type="arc" style="opacity:0.55;fill:url(#radialGradient3527);fill-opacity:1;stroke:none;stroke-width:1.5;stroke-miterlimit:4;stroke-dasharray:none;stroke-opacity:1" transform="translate(-1.9328e-3,0)"/>
      <path d="m 172.53406,172.07489 c 0,21.86936 -17.72862,39.59798 -39.59798,39.59798 -21.86936,0 -39.59798,-17.72862 -39.59798,-39.59798 0,-21.86936 17.72862,-39.59798 39.59798,-39.59798 21.86936,0 39.59798,17.72862 39.59798,39.59798 z" id="path3523" sodipodi:cx="132.93608" sodipodi:cy="172.07489" sodipodi:rx="39.59798" sodipodi:ry="39.59798" sodipodi:type="arc" style="opacity:0.47916667;fill:#ffffff;fill-opacity:0.76078431;stroke:none;stroke-width:1.5;stroke-miterlimit:4;stroke-dasharray:none;stroke-opacity:1" transform="matrix(0.6857754,0.3834829,-0.4749959,0.8494263,105.11994,-50.171047)"/>
      <path d="m 172.53406,172.07489 c 0,21.86936 -17.72862,39.59798 -39.59798,39.59798 -21.86936,0 -39.59798,-17.72862 -39.59798,-39.59798 0,-21.86936 17.72862,-39.59798 39.59798,-39.59798 21.86936,0 39.59798,17.72862 39.59798,39.59798 z" id="path3525" sodipodi:cx="132.93608" sodipodi:cy="172.07489" sodipodi:rx="39.59798" sodipodi:ry="39.59798" sodipodi:type="arc" style="opacity:1;fill:#ffffff;fill-opacity:0.76078431;stroke:none;stroke-width:1.5;stroke-miterlimit:4;stroke-dasharray:none;stroke-opacity:1" transform="matrix(0.3328355,0.1861203,-0.2305354,0.4122621,104.42157,39.321787)"/>
    </g>
    <g id="g3529" transform="matrix(0.1977058,0,0,0.1977058,982.03863,19.979794)">
      <path d="m 214.96046,172.07489 c 0,40.61453 -32.92458,73.53911 -73.5391,73.53911 -40.61453,0 -73.539112,-32.92458 -73.539112,-73.53911 0,-40.61453 32.924582,-73.539108 73.539112,-73.539108 40.61452,0 73.5391,32.924578 73.5391,73.539108 z" id="path3531" sodipodi:cx="141.42136" sodipodi:cy="172.07489" sodipodi:rx="73.539108" sodipodi:ry="73.539108" sodipodi:type="arc" style="opacity:0.55;fill:url(#radialGradient3537);fill-opacity:1;stroke:none;stroke-width:1.5;stroke-miterlimit:4;stroke-dasharray:none;stroke-opacity:1" transform="translate(-1.9328e-3,0)"/>
      <path d="m 172.53406,172.07489 c 0,21.86936 -17.72862,39.59798 -39.59798,39.59798 -21.86936,0 -39.59798,-17.72862 -39.59798,-39.59798 0,-21.86936 17.72862,-39.59798 39.59798,-39.59798 21.86936,0 39.59798,17.72862 39.59798,39.59798 z" id="path3533" sodipodi:cx="132.93608" sodipodi:cy="172.07489" sodipodi:rx="39.59798" sodipodi:ry="39.59798" sodipodi:type="arc" style="opacity:0.47916667;fill:#ffffff;fill-opacity:0.76078431;stroke:none;stroke-width:1.5;stroke-miterlimit:4;stroke-dasharray:none;stroke-opacity:1" transform="matrix(0.6857754,0.3834829,-0.4749959,0.8494263,105.11994,-50.171047)"/>
      <path d="m 172.53406,172.07489 c 0,21.86936 -17.72862,39.59798 -39.59798,39.59798 -21.86936,0 -39.59798,-17.72862 -39.59798,-39.59798 0,-21.86936 17.72862,-39.59798 39.59798,-39.59798 21.86936,0 39.59798,17.72862 39.59798,39.59798 z" id="path3535" sodipodi:cx="132.93608" sodipodi:cy="172.07489" sodipodi:rx="39.59798" sodipodi:ry="39.59798" sodipodi:type="arc" style="opacity:1;fill:#ffffff;fill-opacity:0.76078431;stroke:none;stroke-width:1.5;stroke-miterlimit:4;stroke-dasharray:none;stroke-opacity:1" transform="matrix(0.3328355,0.1861203,-0.2305354,0.4122621,104.42157,39.321787)"/>
    </g>
    <g id="g3539" transform="matrix(0.1977058,0,0,0.1977058,890.03863,97.979794)">
      <path d="m 214.96046,172.07489 c 0,40.61453 -32.92458,73.53911 -73.5391,73.53911 -40.61453,0 -73.539112,-32.92458 -73.539112,-73.53911 0,-40.61453 32.924582,-73.539108 73.539112,-73.539108 40.61452,0 73.5391,32.924578 73.5391,73.539108 z" id="path3541" sodipodi:cx="141.42136" sodipodi:cy="172.07489" sodipodi:rx="73.539108" sodipodi:ry="73.539108" sodipodi:type="arc" style="opacity:0.55;fill:url(#radialGradient3547);fill-opacity:1;stroke:none;stroke-width:1.5;stroke-miterlimit:4;stroke-dasharray:none;stroke-opacity:1" transform="translate(-1.9328e-3,0)"/>
      <path d="m 172.53406,172.07489 c 0,21.86936 -17.72862,39.59798 -39.59798,39.59798 -21.86936,0 -39.59798,-17.72862 -39.59798,-39.59798 0,-21.86936 17.72862,-39.59798 39.59798,-39.59798 21.86936,0 39.59798,17.72862 39.59798,39.59798 z" id="path3543" sodipodi:cx="132.93608" sodipodi:cy="172.07489" sodipodi:rx="39.59798" sodipodi:ry="39.59798" sodipodi:type="arc" style="opacity:0.47916667;fill:#ffffff;fill-opacity:0.76078431;stroke:none;stroke-width:1.5;stroke-miterlimit:4;stroke-dasharray:none;stroke-opacity:1" transform="matrix(0.6857754,0.3834829,-0.4749959,0.8494263,105.11994,-50.171047)"/>
      <path d="m 172.53406,172.07489 c 0,21.86936 -17.72862,39.59798 -39.59798,39.59798 -21.86936,0 -39.59798,-17.72862 -39.59798,-39.59798 0,-21.86936 17.72862,-39.59798 39.59798,-39.59798 21.86936,0 39.59798,17.72862 39.59798,39.59798 z" id="path3545" sodipodi:cx="132.93608" sodipodi:cy="172.07489" sodipodi:rx="39.59798" sodipodi:ry="39.59798" sodipodi:type="arc" style="opacity:1;fill:#ffffff;fill-opacity:0.76078431;stroke:none;stroke-width:1.5;stroke-miterlimit:4;stroke-dasharray:none;stroke-opacity:1" transform="matrix(0.3328355,0.1861203,-0.2305354,0.4122621,104.42157,39.321787)"/>
    </g>
    <g id="g3549" style="opacity:0.76666667" transform="matrix(0.1977058,0,0,0.1977058,1180.0386,157.97979)">
      <path d="m 214.96046,172.07489 c 0,40.61453 -32.92458,73.53911 -73.5391,73.53911 -40.61453,0 -73.539112,-32.92458 -73.539112,-73.53911 0,-40.61453 32.924582,-73.539108 73.539112,-73.539108 40.61452,0 73.5391,32.924578 73.5391,73.539108 z" id="path3551" sodipodi:cx="141.42136" sodipodi:cy="172.07489" sodipodi:rx="73.539108" sodipodi:ry="73.539108" sodipodi:type="arc" style="opacity:0.55;fill:url(#radialGradient3557);fill-opacity:1;stroke:none;stroke-width:1.5;stroke-miterlimit:4;stroke-dasharray:none;stroke-opacity:1" transform="translate(-1.9328e-3,0)"/>
      <path d="m 172.53406,172.07489 c 0,21.86936 -17.72862,39.59798 -39.59798,39.59798 -21.86936,0 -39.59798,-17.72862 -39.59798,-39.59798 0,-21.86936 17.72862,-39.59798 39.59798,-39.59798 21.86936,0 39.59798,17.72862 39.59798,39.59798 z" id="path3553" sodipodi:cx="132.93608" sodipodi:cy="172.07489" sodipodi:rx="39.59798" sodipodi:ry="39.59798" sodipodi:type="arc" style="opacity:0.47916667;fill:#ffffff;fill-opacity:0.76078431;stroke:none;stroke-width:1.5;stroke-miterlimit:4;stroke-dasharray:none;stroke-opacity:1" transform="matrix(0.6857754,0.3834829,-0.4749959,0.8494263,105.11994,-50.171047)"/>
      <path d="m 172.53406,172.07489 c 0,21.86936 -17.72862,39.59798 -39.59798,39.59798 -21.86936,0 -39.59798,-17.72862 -39.59798,-39.59798 0,-21.86936 17.72862,-39.59798 39.59798,-39.59798 21.86936,0 39.59798,17.72862 39.59798,39.59798 z" id="path3555" sodipodi:cx="132.93608" sodipodi:cy="172.07489" sodipodi:rx="39.59798" sodipodi:ry="39.59798" sodipodi:type="arc" style="opacity:1;fill:#ffffff;fill-opacity:0.76078431;stroke:none;stroke-width:1.5;stroke-miterlimit:4;stroke-dasharray:none;stroke-opacity:1" transform="matrix(0.3328355,0.1861203,-0.2305354,0.4122621,104.42157,39.321787)"/>
    </g>
    <g id="g3559" transform="matrix(0.1977058,0,0,0.1977058,1180.0386,25.979794)">
      <path d="m 214.96046,172.07489 c 0,40.61453 -32.92458,73.53911 -73.5391,73.53911 -40.61453,0 -73.539112,-32.92458 -73.539112,-73.53911 0,-40.61453 32.924582,-73.539108 73.539112,-73.539108 40.61452,0 73.5391,32.924578 73.5391,73.539108 z" id="path3561" sodipodi:cx="141.42136" sodipodi:cy="172.07489" sodipodi:rx="73.539108" sodipodi:ry="73.539108" sodipodi:type="arc" style="opacity:0.55;fill:url(#radialGradient3567);fill-opacity:1;stroke:none;stroke-width:1.5;stroke-miterlimit:4;stroke-dasharray:none;stroke-opacity:1" transform="translate(-1.9328e-3,0)"/>
      <path d="m 172.53406,172.07489 c 0,21.86936 -17.72862,39.59798 -39.59798,39.59798 -21.86936,0 -39.59798,-17.72862 -39.59798,-39.59798 0,-21.86936 17.72862,-39.59798 39.59798,-39.59798 21.86936,0 39.59798,17.72862 39.59798,39.59798 z" id="path3563" sodipodi:cx="132.93608" sodipodi:cy="172.07489" sodipodi:rx="39.59798" sodipodi:ry="39.59798" sodipodi:type="arc" style="opacity:0.47916667;fill:#ffffff;fill-opacity:0.76078431;stroke:none;stroke-width:1.5;stroke-miterlimit:4;stroke-dasharray:none;stroke-opacity:1" transform="matrix(0.6857754,0.3834829,-0.4749959,0.8494263,105.11994,-50.171047)"/>
      <path d="m 172.53406,172.07489 c 0,21.86936 -17.72862,39.59798 -39.59798,39.59798 -21.86936,0 -39.59798,-17.72862 -39.59798,-39.59798 0,-21.86936 17.72862,-39.59798 39.59798,-39.59798 21.86936,0 39.59798,17.72862 39.59798,39.59798 z" id="path3565" sodipodi:cx="132.93608" sodipodi:cy="172.07489" sodipodi:rx="39.59798" sodipodi:ry="39.59798" sodipodi:type="arc" style="opacity:1;fill:#ffffff;fill-opacity:0.76078431;stroke:none;stroke-width:1.5;stroke-miterlimit:4;stroke-dasharray:none;stroke-opacity:1" transform="matrix(0.3328355,0.1861203,-0.2305354,0.4122621,104.42157,39.321787)"/>
    </g>
    <g id="g3569" transform="matrix(0.1977058,0,0,0.1977058,1384.0386,39.97979)">
      <path d="m 214.96046,172.07489 c 0,40.61453 -32.92458,73.53911 -73.5391,73.53911 -40.61453,0 -73.539112,-32.92458 -73.539112,-73.53911 0,-40.61453 32.924582,-73.539108 73.539112,-73.539108 40.61452,0 73.5391,32.924578 73.5391,73.539108 z" id="path3571" sodipodi:cx="141.42136" sodipodi:cy="172.07489" sodipodi:rx="73.539108" sodipodi:ry="73.539108" sodipodi:type="arc" style="opacity:0.55;fill:url(#radialGradient3577);fill-opacity:1;stroke:none;stroke-width:1.5;stroke-miterlimit:4;stroke-dasharray:none;stroke-opacity:1" transform="translate(-1.9328e-3,0)"/>
      <path d="m 172.53406,172.07489 c 0,21.86936 -17.72862,39.59798 -39.59798,39.59798 -21.86936,0 -39.59798,-17.72862 -39.59798,-39.59798 0,-21.86936 17.72862,-39.59798 39.59798,-39.59798 21.86936,0 39.59798,17.72862 39.59798,39.59798 z" id="path3573" sodipodi:cx="132.93608" sodipodi:cy="172.07489" sodipodi:rx="39.59798" sodipodi:ry="39.59798" sodipodi:type="arc" style="opacity:0.47916667;fill:#ffffff;fill-opacity:0.76078431;stroke:none;stroke-width:1.5;stroke-miterlimit:4;stroke-dasharray:none;stroke-opacity:1" transform="matrix(0.6857754,0.3834829,-0.4749959,0.8494263,105.11994,-50.171047)"/>
      <path d="m 172.53406,172.07489 c 0,21.86936 -17.72862,39.59798 -39.59798,39.59798 -21.86936,0 -39.59798,-17.72862 -39.59798,-39.59798 0,-21.86936 17.72862,-39.59798 39.59798,-39.59798 21.86936,0 39.59798,17.72862 39.59798,39.59798 z" id="path3575" sodipodi:cx="132.93608" sodipodi:cy="172.07489" sodipodi:rx="39.59798" sodipodi:ry="39.59798" sodipodi:type="arc" style="opacity:1;fill:#ffffff;fill-opacity:0.76078431;stroke:none;stroke-width:1.5;stroke-miterlimit:4;stroke-dasharray:none;stroke-opacity:1" transform="matrix(0.3328355,0.1861203,-0.2305354,0.4122621,104.42157,39.321787)"/>
    </g>
    <g id="g3579" style="opacity:0.76666667" transform="matrix(0.1977058,0,0,0.1977058,1304.0386,185.97979)">
      <path d="m 214.96046,172.07489 c 0,40.61453 -32.92458,73.53911 -73.5391,73.53911 -40.61453,0 -73.539112,-32.92458 -73.539112,-73.53911 0,-40.61453 32.924582,-73.539108 73.539112,-73.539108 40.61452,0 73.5391,32.924578 73.5391,73.539108 z" id="path3581" sodipodi:cx="141.42136" sodipodi:cy="172.07489" sodipodi:rx="73.539108" sodipodi:ry="73.539108" sodipodi:type="arc" style="opacity:0.55;fill:url(#radialGradient3587);fill-opacity:1;stroke:none;stroke-width:1.5;stroke-miterlimit:4;stroke-dasharray:none;stroke-opacity:1" transform="translate(-1.9328e-3,0)"/>
      <path d="m 172.53406,172.07489 c 0,21.86936 -17.72862,39.59798 -39.59798,39.59798 -21.86936,0 -39.59798,-17.72862 -39.59798,-39.59798 0,-21.86936 17.72862,-39.59798 39.59798,-39.59798 21.86936,0 39.59798,17.72862 39.59798,39.59798 z" id="path3583" sodipodi:cx="132.93608" sodipodi:cy="172.07489" sodipodi:rx="39.59798" sodipodi:ry="39.59798" sodipodi:type="arc" style="opacity:0.47916667;fill:#ffffff;fill-opacity:0.76078431;stroke:none;stroke-width:1.5;stroke-miterlimit:4;stroke-dasharray:none;stroke-opacity:1" transform="matrix(0.6857754,0.3834829,-0.4749959,0.8494263,105.11994,-50.171047)"/>
      <path d="m 172.53406,172.07489 c 0,21.86936 -17.72862,39.59798 -39.59798,39.59798 -21.86936,0 -39.59798,-17.72862 -39.59798,-39.59798 0,-21.86936 17.72862,-39.59798 39.59798,-39.59798 21.86936,0 39.59798,17.72862 39.59798,39.59798 z" id="path3585" sodipodi:cx="132.93608" sodipodi:cy="172.07489" sodipodi:rx="39.59798" sodipodi:ry="39.59798" sodipodi:type="arc" style="opacity:1;fill:#ffffff;fill-opacity:0.76078431;stroke:none;stroke-width:1.5;stroke-miterlimit:4;stroke-dasharray:none;stroke-opacity:1" transform="matrix(0.3328355,0.1861203,-0.2305354,0.4122621,104.42157,39.321787)"/>
    </g>
    <g id="g3589" transform="matrix(0.1977058,0,0,0.1977058,1126.0386,279.97979)">
      <path d="m 214.96046,172.07489 c 0,40.61453 -32.92458,73.53911 -73.5391,73.53911 -40.61453,0 -73.539112,-32.92458 -73.539112,-73.53911 0,-40.61453 32.924582,-73.539108 73.539112,-73.539108 40.61452,0 73.5391,32.924578 73.5391,73.539108 z" id="path3591" sodipodi:cx="141.42136" sodipodi:cy="172.07489" sodipodi:rx="73.539108" sodipodi:ry="73.539108" sodipodi:type="arc" style="opacity:0.55;fill:url(#radialGradient3597);fill-opacity:1;stroke:none;stroke-width:1.5;stroke-miterlimit:4;stroke-dasharray:none;stroke-opacity:1" transform="translate(-1.9328e-3,0)"/>
      <path d="m 172.53406,172.07489 c 0,21.86936 -17.72862,39.59798 -39.59798,39.59798 -21.86936,0 -39.59798,-17.72862 -39.59798,-39.59798 0,-21.86936 17.72862,-39.59798 39.59798,-39.59798 21.86936,0 39.59798,17.72862 39.59798,39.59798 z" id="path3593" sodipodi:cx="132.93608" sodipodi:cy="172.07489" sodipodi:rx="39.59798" sodipodi:ry="39.59798" sodipodi:type="arc" style="opacity:0.47916667;fill:#ffffff;fill-opacity:0.76078431;stroke:none;stroke-width:1.5;stroke-miterlimit:4;stroke-dasharray:none;stroke-opacity:1" transform="matrix(0.6857754,0.3834829,-0.4749959,0.8494263,105.11994,-50.171047)"/>
      <path d="m 172.53406,172.07489 c 0,21.86936 -17.72862,39.59798 -39.59798,39.59798 -21.86936,0 -39.59798,-17.72862 -39.59798,-39.59798 0,-21.86936 17.72862,-39.59798 39.59798,-39.59798 21.86936,0 39.59798,17.72862 39.59798,39.59798 z" id="path3595" sodipodi:cx="132.93608" sodipodi:cy="172.07489" sodipodi:rx="39.59798" sodipodi:ry="39.59798" sodipodi:type="arc" style="opacity:1;fill:#ffffff;fill-opacity:0.76078431;stroke:none;stroke-width:1.5;stroke-miterlimit:4;stroke-dasharray:none;stroke-opacity:1" transform="matrix(0.3328355,0.1861203,-0.2305354,0.4122621,104.42157,39.321787)"/>
    </g>
    <g id="g3599" transform="matrix(0.1977058,0,0,0.1977058,1800.0386,431.9798)">
      <path d="m 214.96046,172.07489 c 0,40.61453 -32.92458,73.53911 -73.5391,73.53911 -40.61453,0 -73.539112,-32.92458 -73.539112,-73.53911 0,-40.61453 32.924582,-73.539108 73.539112,-73.539108 40.61452,0 73.5391,32.924578 73.5391,73.539108 z" id="path3601" sodipodi:cx="141.42136" sodipodi:cy="172.07489" sodipodi:rx="73.539108" sodipodi:ry="73.539108" sodipodi:type="arc" style="opacity:0.55;fill:url(#radialGradient3607);fill-opacity:1;stroke:none;stroke-width:1.5;stroke-miterlimit:4;stroke-dasharray:none;stroke-opacity:1" transform="translate(-1.9328e-3,0)"/>
      <path d="m 172.53406,172.07489 c 0,21.86936 -17.72862,39.59798 -39.59798,39.59798 -21.86936,0 -39.59798,-17.72862 -39.59798,-39.59798 0,-21.86936 17.72862,-39.59798 39.59798,-39.59798 21.86936,0 39.59798,17.72862 39.59798,39.59798 z" id="path3603" sodipodi:cx="132.93608" sodipodi:cy="172.07489" sodipodi:rx="39.59798" sodipodi:ry="39.59798" sodipodi:type="arc" style="opacity:0.47916667;fill:#ffffff;fill-opacity:0.76078431;stroke:none;stroke-width:1.5;stroke-miterlimit:4;stroke-dasharray:none;stroke-opacity:1" transform="matrix(0.6857754,0.3834829,-0.4749959,0.8494263,105.11994,-50.171047)"/>
      <path d="m 172.53406,172.07489 c 0,21.86936 -17.72862,39.59798 -39.59798,39.59798 -21.86936,0 -39.59798,-17.72862 -39.59798,-39.59798 0,-21.86936 17.72862,-39.59798 39.59798,-39.59798 21.86936,0 39.59798,17.72862 39.59798,39.59798 z" id="path3605" sodipodi:cx="132.93608" sodipodi:cy="172.07489" sodipodi:rx="39.59798" sodipodi:ry="39.59798" sodipodi:type="arc" style="opacity:1;fill:#ffffff;fill-opacity:0.76078431;stroke:none;stroke-width:1.5;stroke-miterlimit:4;stroke-dasharray:none;stroke-opacity:1" transform="matrix(0.3328355,0.1861203,-0.2305354,0.4122621,104.42157,39.321787)"/>
    </g>
    <g id="g3609" style="opacity:0.7231405" transform="matrix(0.1977058,0,0,0.1977058,1698.0386,179.9798)">
      <path d="m 214.96046,172.07489 c 0,40.61453 -32.92458,73.53911 -73.5391,73.53911 -40.61453,0 -73.539112,-32.92458 -73.539112,-73.53911 0,-40.61453 32.924582,-73.539108 73.539112,-73.539108 40.61452,0 73.5391,32.924578 73.5391,73.539108 z" id="path3611" sodipodi:cx="141.42136" sodipodi:cy="172.07489" sodipodi:rx="73.539108" sodipodi:ry="73.539108" sodipodi:type="arc" style="opacity:0.55000000000000004;fill:url(#radialGradient3617);fill-opacity:1;stroke:none;stroke-width:1.50000000000000000;stroke-miterlimit:4;stroke-dasharray:none;stroke-opacity:1" transform="translate(-1.9328e-3,0)"/>
      <path d="m 172.53406,172.07489 c 0,21.86936 -17.72862,39.59798 -39.59798,39.59798 -21.86936,0 -39.59798,-17.72862 -39.59798,-39.59798 0,-21.86936 17.72862,-39.59798 39.59798,-39.59798 21.86936,0 39.59798,17.72862 39.59798,39.59798 z" id="path3613" sodipodi:cx="132.93608" sodipodi:cy="172.07489" sodipodi:rx="39.59798" sodipodi:ry="39.59798" sodipodi:type="arc" style="opacity:0.47916667000000002;fill:#ffffff;fill-opacity:0.76078431000000002;stroke:none;stroke-width:1.50000000000000000;stroke-miterlimit:4;stroke-dasharray:none;stroke-opacity:1" transform="matrix(0.6857754,0.3834829,-0.4749959,0.8494263,105.11994,-50.171047)"/>
      <path d="m 172.53406,172.07489 c 0,21.86936 -17.72862,39.59798 -39.59798,39.59798 -21.86936,0 -39.59798,-17.72862 -39.59798,-39.59798 0,-21.86936 17.72862,-39.59798 39.59798,-39.59798 21.86936,0 39.59798,17.72862 39.59798,39.59798 z" id="path3615" sodipodi:cx="132.93608" sodipodi:cy="172.07489" sodipodi:rx="39.59798" sodipodi:ry="39.59798" sodipodi:type="arc" style="opacity:1;fill:#ffffff;fill-opacity:0.76078431000000002;stroke:none;stroke-width:1.50000000000000000;stroke-miterlimit:4;stroke-dasharray:none;stroke-opacity:1" transform="matrix(0.3328355,0.1861203,-0.2305354,0.4122621,104.42157,39.321787)"/>
    </g>
    <g id="g3619" transform="matrix(0.1977058,0,0,0.1977058,1568.0386,573.9798)">
      <path d="m 214.96046,172.07489 c 0,40.61453 -32.92458,73.53911 -73.5391,73.53911 -40.61453,0 -73.539112,-32.92458 -73.539112,-73.53911 0,-40.61453 32.924582,-73.539108 73.539112,-73.539108 40.61452,0 73.5391,32.924578 73.5391,73.539108 z" id="path3621" sodipodi:cx="141.42136" sodipodi:cy="172.07489" sodipodi:rx="73.539108" sodipodi:ry="73.539108" sodipodi:type="arc" style="opacity:0.55;fill:url(#radialGradient3627);fill-opacity:1;stroke:none;stroke-width:1.5;stroke-miterlimit:4;stroke-dasharray:none;stroke-opacity:1" transform="translate(-1.9328e-3,0)"/>
      <path d="m 172.53406,172.07489 c 0,21.86936 -17.72862,39.59798 -39.59798,39.59798 -21.86936,0 -39.59798,-17.72862 -39.59798,-39.59798 0,-21.86936 17.72862,-39.59798 39.59798,-39.59798 21.86936,0 39.59798,17.72862 39.59798,39.59798 z" id="path3623" sodipodi:cx="132.93608" sodipodi:cy="172.07489" sodipodi:rx="39.59798" sodipodi:ry="39.59798" sodipodi:type="arc" style="opacity:0.47916667;fill:#ffffff;fill-opacity:0.76078431;stroke:none;stroke-width:1.5;stroke-miterlimit:4;stroke-dasharray:none;stroke-opacity:1" transform="matrix(0.6857754,0.3834829,-0.4749959,0.8494263,105.11994,-50.171047)"/>
      <path d="m 172.53406,172.07489 c 0,21.86936 -17.72862,39.59798 -39.59798,39.59798 -21.86936,0 -39.59798,-17.72862 -39.59798,-39.59798 0,-21.86936 17.72862,-39.59798 39.59798,-39.59798 21.86936,0 39.59798,17.72862 39.59798,39.59798 z" id="path3625" sodipodi:cx="132.93608" sodipodi:cy="172.07489" sodipodi:rx="39.59798" sodipodi:ry="39.59798" sodipodi:type="arc" style="opacity:1;fill:#ffffff;fill-opacity:0.76078431;stroke:none;stroke-width:1.5;stroke-miterlimit:4;stroke-dasharray:none;stroke-opacity:1" transform="matrix(0.3328355,0.1861203,-0.2305354,0.4122621,104.42157,39.321787)"/>
    </g>
    <g id="g3629" transform="matrix(0.1977058,0,0,0.1977058,562.0386,563.9798)">
      <path d="m 214.96046,172.07489 c 0,40.61453 -32.92458,73.53911 -73.5391,73.53911 -40.61453,0 -73.539112,-32.92458 -73.539112,-73.53911 0,-40.61453 32.924582,-73.539108 73.539112,-73.539108 40.61452,0 73.5391,32.924578 73.5391,73.539108 z" id="path3631" sodipodi:cx="141.42136" sodipodi:cy="172.07489" sodipodi:rx="73.539108" sodipodi:ry="73.539108" sodipodi:type="arc" style="opacity:0.55;fill:url(#radialGradient3637);fill-opacity:1;stroke:none;stroke-width:1.5;stroke-miterlimit:4;stroke-dasharray:none;stroke-opacity:1" transform="translate(-1.9328e-3,0)"/>
      <path d="m 172.53406,172.07489 c 0,21.86936 -17.72862,39.59798 -39.59798,39.59798 -21.86936,0 -39.59798,-17.72862 -39.59798,-39.59798 0,-21.86936 17.72862,-39.59798 39.59798,-39.59798 21.86936,0 39.59798,17.72862 39.59798,39.59798 z" id="path3633" sodipodi:cx="132.93608" sodipodi:cy="172.07489" sodipodi:rx="39.59798" sodipodi:ry="39.59798" sodipodi:type="arc" style="opacity:0.47916667;fill:#ffffff;fill-opacity:0.76078431;stroke:none;stroke-width:1.5;stroke-miterlimit:4;stroke-dasharray:none;stroke-opacity:1" transform="matrix(0.6857754,0.3834829,-0.4749959,0.8494263,105.11994,-50.171047)"/>
      <path d="m 172.53406,172.07489 c 0,21.86936 -17.72862,39.59798 -39.59798,39.59798 -21.86936,0 -39.59798,-17.72862 -39.59798,-39.59798 0,-21.86936 17.72862,-39.59798 39.59798,-39.59798 21.86936,0 39.59798,17.72862 39.59798,39.59798 z" id="path3635" sodipodi:cx="132.93608" sodipodi:cy="172.07489" sodipodi:rx="39.59798" sodipodi:ry="39.59798" sodipodi:type="arc" style="opacity:1;fill:#ffffff;fill-opacity:0.76078431;stroke:none;stroke-width:1.5;stroke-miterlimit:4;stroke-dasharray:none;stroke-opacity:1" transform="matrix(0.3328355,0.1861203,-0.2305354,0.4122621,104.42157,39.321787)"/>
    </g>
    <g id="g3639" transform="matrix(0.1977058,0,0,0.1977058,-1.961373,549.9798)">
      <path d="m 214.96046,172.07489 c 0,40.61453 -32.92458,73.53911 -73.5391,73.53911 -40.61453,0 -73.539112,-32.92458 -73.539112,-73.53911 0,-40.61453 32.924582,-73.539108 73.539112,-73.539108 40.61452,0 73.5391,32.924578 73.5391,73.539108 z" id="path3641" sodipodi:cx="141.42136" sodipodi:cy="172.07489" sodipodi:rx="73.539108" sodipodi:ry="73.539108" sodipodi:type="arc" style="opacity:0.55;fill:url(#radialGradient3647);fill-opacity:1;stroke:none;stroke-width:1.5;stroke-miterlimit:4;stroke-dasharray:none;stroke-opacity:1" transform="translate(-1.9328e-3,0)"/>
      <path d="m 172.53406,172.07489 c 0,21.86936 -17.72862,39.59798 -39.59798,39.59798 -21.86936,0 -39.59798,-17.72862 -39.59798,-39.59798 0,-21.86936 17.72862,-39.59798 39.59798,-39.59798 21.86936,0 39.59798,17.72862 39.59798,39.59798 z" id="path3643" sodipodi:cx="132.93608" sodipodi:cy="172.07489" sodipodi:rx="39.59798" sodipodi:ry="39.59798" sodipodi:type="arc" style="opacity:0.47916667;fill:#ffffff;fill-opacity:0.76078431;stroke:none;stroke-width:1.5;stroke-miterlimit:4;stroke-dasharray:none;stroke-opacity:1" transform="matrix(0.6857754,0.3834829,-0.4749959,0.8494263,105.11994,-50.171047)"/>
      <path d="m 172.53406,172.07489 c 0,21.86936 -17.72862,39.59798 -39.59798,39.59798 -21.86936,0 -39.59798,-17.72862 -39.59798,-39.59798 0,-21.86936 17.72862,-39.59798 39.59798,-39.59798 21.86936,0 39.59798,17.72862 39.59798,39.59798 z" id="path3645" sodipodi:cx="132.93608" sodipodi:cy="172.07489" sodipodi:rx="39.59798" sodipodi:ry="39.59798" sodipodi:type="arc" style="opacity:1;fill:#ffffff;fill-opacity:0.76078431;stroke:none;stroke-width:1.5;stroke-miterlimit:4;stroke-dasharray:none;stroke-opacity:1" transform="matrix(0.3328355,0.1861203,-0.2305354,0.4122621,104.42157,39.321787)"/>
    </g>
    <g id="g3649" style="opacity:0.69583333" transform="matrix(0.1977058,0,0,0.1977058,146.03863,435.9798)">
      <path d="m 214.96046,172.07489 c 0,40.61453 -32.92458,73.53911 -73.5391,73.53911 -40.61453,0 -73.539112,-32.92458 -73.539112,-73.53911 0,-40.61453 32.924582,-73.539108 73.539112,-73.539108 40.61452,0 73.5391,32.924578 73.5391,73.539108 z" id="path3651" sodipodi:cx="141.42136" sodipodi:cy="172.07489" sodipodi:rx="73.539108" sodipodi:ry="73.539108" sodipodi:type="arc" style="opacity:0.55;fill:url(#radialGradient3657);fill-opacity:1;stroke:none;stroke-width:1.5;stroke-miterlimit:4;stroke-dasharray:none;stroke-opacity:1" transform="translate(-1.9328e-3,0)"/>
      <path d="m 172.53406,172.07489 c 0,21.86936 -17.72862,39.59798 -39.59798,39.59798 -21.86936,0 -39.59798,-17.72862 -39.59798,-39.59798 0,-21.86936 17.72862,-39.59798 39.59798,-39.59798 21.86936,0 39.59798,17.72862 39.59798,39.59798 z" id="path3653" sodipodi:cx="132.93608" sodipodi:cy="172.07489" sodipodi:rx="39.59798" sodipodi:ry="39.59798" sodipodi:type="arc" style="opacity:0.47916667;fill:#ffffff;fill-opacity:0.76078431;stroke:none;stroke-width:1.5;stroke-miterlimit:4;stroke-dasharray:none;stroke-opacity:1" transform="matrix(0.6857754,0.3834829,-0.4749959,0.8494263,105.11994,-50.171047)"/>
      <path d="m 172.53406,172.07489 c 0,21.86936 -17.72862,39.59798 -39.59798,39.59798 -21.86936,0 -39.59798,-17.72862 -39.59798,-39.59798 0,-21.86936 17.72862,-39.59798 39.59798,-39.59798 21.86936,0 39.59798,17.72862 39.59798,39.59798 z" id="path3655" sodipodi:cx="132.93608" sodipodi:cy="172.07489" sodipodi:rx="39.59798" sodipodi:ry="39.59798" sodipodi:type="arc" style="opacity:1;fill:#ffffff;fill-opacity:0.76078431;stroke:none;stroke-width:1.5;stroke-miterlimit:4;stroke-dasharray:none;stroke-opacity:1" transform="matrix(0.3328355,0.1861203,-0.2305354,0.4122621,104.42157,39.321787)"/>
    </g>
    <g id="g2596" style="opacity:0.6625" transform="matrix(0.4424735,0,0,0.4424735,1591.4237,-40.138579)">
      <path d="m 214.96046,172.07489 c 0,40.61453 -32.92458,73.53911 -73.5391,73.53911 -40.61453,0 -73.539112,-32.92458 -73.539112,-73.53911 0,-40.61453 32.924582,-73.539108 73.539112,-73.539108 40.61452,0 73.5391,32.924578 73.5391,73.539108 z" id="path2598" sodipodi:cx="141.42136" sodipodi:cy="172.07489" sodipodi:rx="73.539108" sodipodi:ry="73.539108" sodipodi:type="arc" style="opacity:0.55;fill:url(#radialGradient2604);fill-opacity:1;stroke:none;stroke-width:1.5;stroke-miterlimit:4;stroke-dasharray:none;stroke-opacity:1" transform="translate(-1.9328e-3,0)"/>
      <path d="m 172.53406,172.07489 c 0,21.86936 -17.72862,39.59798 -39.59798,39.59798 -21.86936,0 -39.59798,-17.72862 -39.59798,-39.59798 0,-21.86936 17.72862,-39.59798 39.59798,-39.59798 21.86936,0 39.59798,17.72862 39.59798,39.59798 z" id="path2600" sodipodi:cx="132.93608" sodipodi:cy="172.07489" sodipodi:rx="39.59798" sodipodi:ry="39.59798" sodipodi:type="arc" style="opacity:0.47916667;fill:#ffffff;fill-opacity:0.76078431;stroke:none;stroke-width:1.5;stroke-miterlimit:4;stroke-dasharray:none;stroke-opacity:1" transform="matrix(0.6857754,0.3834829,-0.4749959,0.8494263,105.11994,-50.171047)"/>
      <path d="m 172.53406,172.07489 c 0,21.86936 -17.72862,39.59798 -39.59798,39.59798 -21.86936,0 -39.59798,-17.72862 -39.59798,-39.59798 0,-21.86936 17.72862,-39.59798 39.59798,-39.59798 21.86936,0 39.59798,17.72862 39.59798,39.59798 z" id="path2602" sodipodi:cx="132.93608" sodipodi:cy="172.07489" sodipodi:rx="39.59798" sodipodi:ry="39.59798" sodipodi:type="arc" style="opacity:1;fill:#ffffff;fill-opacity:0.76078431;stroke:none;stroke-width:1.5;stroke-miterlimit:4;stroke-dasharray:none;stroke-opacity:1" transform="matrix(0.3328355,0.1861203,-0.2305354,0.4122621,104.42157,39.321787)"/>
    </g>
    <g id="g2606" style="opacity:0.6625" transform="matrix(0.4424735,0,0,0.4424735,1195.4237,205.86142)">
      <path d="m 214.96046,172.07489 c 0,40.61453 -32.92458,73.53911 -73.5391,73.53911 -40.61453,0 -73.539112,-32.92458 -73.539112,-73.53911 0,-40.61453 32.924582,-73.539108 73.539112,-73.539108 40.61452,0 73.5391,32.924578 73.5391,73.539108 z" id="path2608" sodipodi:cx="141.42136" sodipodi:cy="172.07489" sodipodi:rx="73.539108" sodipodi:ry="73.539108" sodipodi:type="arc" style="opacity:0.55;fill:url(#radialGradient2614);fill-opacity:1;stroke:none;stroke-width:1.5;stroke-miterlimit:4;stroke-dasharray:none;stroke-opacity:1" transform="translate(-1.9328e-3,0)"/>
      <path d="m 172.53406,172.07489 c 0,21.86936 -17.72862,39.59798 -39.59798,39.59798 -21.86936,0 -39.59798,-17.72862 -39.59798,-39.59798 0,-21.86936 17.72862,-39.59798 39.59798,-39.59798 21.86936,0 39.59798,17.72862 39.59798,39.59798 z" id="path2610" sodipodi:cx="132.93608" sodipodi:cy="172.07489" sodipodi:rx="39.59798" sodipodi:ry="39.59798" sodipodi:type="arc" style="opacity:0.47916667;fill:#ffffff;fill-opacity:0.76078431;stroke:none;stroke-width:1.5;stroke-miterlimit:4;stroke-dasharray:none;stroke-opacity:1" transform="matrix(0.6857754,0.3834829,-0.4749959,0.8494263,105.11994,-50.171047)"/>
      <path d="m 172.53406,172.07489 c 0,21.86936 -17.72862,39.59798 -39.59798,39.59798 -21.86936,0 -39.59798,-17.72862 -39.59798,-39.59798 0,-21.86936 17.72862,-39.59798 39.59798,-39.59798 21.86936,0 39.59798,17.72862 39.59798,39.59798 z" id="path2612" sodipodi:cx="132.93608" sodipodi:cy="172.07489" sodipodi:rx="39.59798" sodipodi:ry="39.59798" sodipodi:type="arc" style="opacity:1;fill:#ffffff;fill-opacity:0.76078431;stroke:none;stroke-width:1.5;stroke-miterlimit:4;stroke-dasharray:none;stroke-opacity:1" transform="matrix(0.3328355,0.1861203,-0.2305354,0.4122621,104.42157,39.321787)"/>
    </g>
    <g id="g2616" style="opacity:0.6625" transform="matrix(0.4424735,0,0,0.4424735,1793.4237,149.86142)">
      <path d="m 214.96046,172.07489 c 0,40.61453 -32.92458,73.53911 -73.5391,73.53911 -40.61453,0 -73.539112,-32.92458 -73.539112,-73.53911 0,-40.61453 32.924582,-73.539108 73.539112,-73.539108 40.61452,0 73.5391,32.924578 73.5391,73.539108 z" id="path2618" sodipodi:cx="141.42136" sodipodi:cy="172.07489" sodipodi:rx="73.539108" sodipodi:ry="73.539108" sodipodi:type="arc" style="opacity:0.55;fill:url(#radialGradient2624);fill-opacity:1;stroke:none;stroke-width:1.5;stroke-miterlimit:4;stroke-dasharray:none;stroke-opacity:1" transform="translate(-1.9328e-3,0)"/>
      <path d="m 172.53406,172.07489 c 0,21.86936 -17.72862,39.59798 -39.59798,39.59798 -21.86936,0 -39.59798,-17.72862 -39.59798,-39.59798 0,-21.86936 17.72862,-39.59798 39.59798,-39.59798 21.86936,0 39.59798,17.72862 39.59798,39.59798 z" id="path2620" sodipodi:cx="132.93608" sodipodi:cy="172.07489" sodipodi:rx="39.59798" sodipodi:ry="39.59798" sodipodi:type="arc" style="opacity:0.47916667;fill:#ffffff;fill-opacity:0.76078431;stroke:none;stroke-width:1.5;stroke-miterlimit:4;stroke-dasharray:none;stroke-opacity:1" transform="matrix(0.6857754,0.3834829,-0.4749959,0.8494263,105.11994,-50.171047)"/>
      <path d="m 172.53406,172.07489 c 0,21.86936 -17.72862,39.59798 -39.59798,39.59798 -21.86936,0 -39.59798,-17.72862 -39.59798,-39.59798 0,-21.86936 17.72862,-39.59798 39.59798,-39.59798 21.86936,0 39.59798,17.72862 39.59798,39.59798 z" id="path2622" sodipodi:cx="132.93608" sodipodi:cy="172.07489" sodipodi:rx="39.59798" sodipodi:ry="39.59798" sodipodi:type="arc" style="opacity:1;fill:#ffffff;fill-opacity:0.76078431;stroke:none;stroke-width:1.5;stroke-miterlimit:4;stroke-dasharray:none;stroke-opacity:1" transform="matrix(0.3328355,0.1861203,-0.2305354,0.4122621,104.42157,39.321787)"/>
    </g>
  </g>
</svg>